<?xml version="1.0" encoding="utf-8"?>
<!-- Generator: Adobe Illustrator 23.0.1, SVG Export Plug-In . SVG Version: 6.00 Build 0)  -->
<svg version="1.1" id="Layer_1" xmlns="http://www.w3.org/2000/svg" xmlns:xlink="http://www.w3.org/1999/xlink" x="0px" y="0px"
	 viewBox="0 0 1080 1080" style="enable-background:new 0 0 1080 1080;" xml:space="preserve">
<style type="text/css">
	.st0{fill:#FFFFFF;}
</style>
<path class="st0" d="M227.3,764.2c-21.4-48-43.1-94.7-63-142c-17.3-41.1-19.3-83.6-6.2-126.6c0.5-1.7,1-3.5,1.3-5.3
	c0.1-0.6-0.4-1.3-1-3.5c-9.9,17.8-13.8,36-14.8,55c-1.8,35.7,6.7,69.3,17.7,103c18.6,57.2,36.3,114.8,52.8,172.7
	c7.2,25,2.7,51-2.9,76c-4.5,20.3-11.3,40-16.6,60.1c-2.4,9.4-6.8,13.8-17.3,13.9c-15.5,0.2-28,7.7-36.3,21.1
	c-7,11.4-4.7,20.8,6.4,28.2c15.8,10.6,33.5,13.7,52.2,13.5c36.1-0.5,44.7-5.9,56.6-40.5c5.7-16.5,7.3-34.5,13.6-50.6
	c11.1-28.1,24.2-55.5,37.1-82.9c3.6-7.7,4.8-14.3,2.4-22.8c-11-38.5-8.9-75.8,12.6-110.8c2.6-4.3,3.4-10.3,3.4-15.6
	c0.1-144.7,0-289.4,0-434.1c0-6.9-0.5-14,0.5-20.8c0.6-4.1,3.6-7.9,5.6-11.9c3.3,2.8,8,5,9.7,8.7c10.7,21.6,21.7,43.1,30.8,65.4
	c42,103.5,109.2,188.3,193,260.7c16.8,14.5,35,27.5,52.8,40.7c5.2,3.9,11.4,6.6,17.5,9c10.1,4.1,21.8,10.1,30.9,1.3
	c8.9-8.5,6.4-22,1.1-30.9c-8.6-14.5-19-28.9-31.7-39.7c-26.4-22.4-55-42.1-82.3-63.5c-68.2-53.5-119.2-119.5-147.2-202.6
	c-12.2-36.3-27.5-71.6-50.2-103.1c-13.6-18.9-29.8-35.2-49.7-47.1c-8.3-4.9-12.4-11.1-15-20c-6.4-21.6-14.7-42.7-32.7-57.2
	c-8.3-6.7-19.8-9.9-30.2-13.5c-6.3-2.1-9.6,1.4-10,8.8c-1.4,26.4-9.9,50.9-24.2,73c-3.5,5.4-9.3,10.2-15.1,13
	c-34.7,17.1-62.6,40.6-74.6,78.7c-3.4,10.9-4.4,23.1-3.8,34.5c0.9,17.8-4,33.1-14,47.3c-10,14.4-9.6,18.8,2.9,31.3
	c0.8,0.8,1.7,1.6,2,2.5c6.4,22,25,29.7,43.9,35.6c17,5.3,34.6,9.5,52.2,11.5c17.8,2.1,22.9-6.2,13.9-21.5
	c-9.6-16.3-21.3-31.4-31.8-47.2c-7.6-11.6-15.4-23.1-21.9-35.3c-15-28.1-8.4-68.2,14.1-87.9c15.1-13.2,32.6-14.4,50.2-7.2
	c5.5,2.2,10,9.3,12.6,15.2c2.4,5.4,2.3,12.1,2.3,18.3c0.3,178.7,0.5,357.4,0.8,536C227.9,757.9,227.5,760.7,227.3,764.2z"/>
<path class="st0" d="M627.6,884.9c0,34.7-0.3,69.4,0.1,104.1c0.4,34.2,7.7,40.6,40.9,34.7c81.1-14.6,151.8-50.7,209.4-109.1
	c116-117.4,144.3-256.5,90.3-410.6c-34.6-98.6-104.1-166-204.8-198.2c-37.4-11.9-75-12.8-109.5,10.4
	c-43.4,31.3,88.4,75.7,113.8,79.7c34.1,5.3,59.1,27.7,80.1,54.1c108.3,135.9,70.3,322.7-37,416.3c-21.5,18.7-47,33.1-71.8,47.5
	c-19.2,11.2-32.5,1.2-31.6-21.3c1.7-42.3,4.6-84.6,4.4-126.9c-0.2-37.2-8.6-73.2-25.2-106.9c-2.4-4.8-5.3-9.9-9.4-13.1
	c-10.1-7.8-23.7-3.6-27.5,10.2c-6.7,24.5-13.8,49.5-15.8,74.7c-4.1,51.3-4.9,102.8-7.1,154.2C627.1,884.8,627.3,884.8,627.6,884.9z"
	/>
<path class="st0" d="M492.1,793.9L492.1,793.9c0.4,0,0.7,0,1.1,0h68.7c31.8,0,57.6-25.8,57.6-57.6c0-20.3,0-40.7,0-61
	c0-24.6-13-42.7-30.3-58.4c-35.7-32.4-71.9-64.2-106.7-97.5c-24.2-23.2-46.7-48.2-69.5-72.9c-7.4-8.1-14.5-14.8-26.2-10.4
	c-11.2,4.2-12.8,13.6-12.8,24.1c0.1,127.5,0,255.1,0,382.6c0,4.2,0,8.4,0,14.6c-37.7-22.5-42.2-94.7-14.1-155.9
	c-6.5,7.1-14,13.5-19.4,21.4c-24.7,36.4-25.9,75.8-12.6,116.4c9.7,29.6,26.7,55.1,47.2,78.2c6.4,7.2,10,14.5,6.3,23.8
	c-3.8,9.5-12,11.2-21.3,12.3c-18.4,2.2-37.2,3.7-54.8,9c-24.8,7.4-37.9,25.8-40,52c-0.7,8.2,2,12.7,10.1,13.6
	c17.1,1.7,34.1,4.2,51.2,4.6c40.2,1,80.4,1.2,120.6,1.3c19,0.1,25.3-7,25.3-26.1c0-61,0-122,0-183.1c0-4.7-0.1-9.5,0.5-14.2
	c1.3-10.1,7.7-15.6,17.5-16.6C491.1,793.9,491.6,793.9,492.1,793.9L492.1,793.9z M472.5,725.1c-0.1-20.1,0-40.2,0-60.3
	c0-3.3,0-6.6,0-9.9c0.1-18.6-0.8-37.3,0.7-55.9c0.5-6.1,5.7-13.6,11-16.8c3.2-1.9,11.5,2.2,16,5.6c8.2,6.2,11.9,15.1,11.8,25.8
	c-0.3,37.3-0.1,74.5-0.2,111.8c0,15.6-6.7,23.8-19.3,24C479.6,749.7,472.6,741.2,472.5,725.1z"/>
<path class="st0" d="M612.4,893.2l-9.3,93.2c-33.2,27.8-2.1,31.9-25,47.5h-44.7c-7.3,0-20.6-6.2-9.1-14.2
	c40.1-28,60.7-132.5,60.7-132.5c2.3-5.1,7.5-8.4,13.1-8.4l0,0C605.9,878.8,612.4,885.3,612.4,893.2z"/>
</svg>
