<svg xmlns="http://www.w3.org/2000/svg" viewBox="0 0 540.51 325.38"><title>Asset 2</title><g id="Layer_2" data-name="Layer 2"><g id="Layer_1-2" data-name="Layer 1"><circle cx="401.34" cy="52.2" r="14.87" transform="translate(80.64 299.08) rotate(-45)" style="fill:#fff"/><path d="M401.34,67.57A15.37,15.37,0,1,1,416.71,52.2,15.38,15.38,0,0,1,401.34,67.57Zm0-29.75A14.39,14.39,0,1,0,415.73,52.2,14.4,14.4,0,0,0,401.34,37.82Z"/><path d="M401.54,61.35a.49.49,0,0,1-.44-.28l-3.05-6.17-6-3.83a.49.49,0,0,1,.13-.88l15.19-4.41a.51.51,0,0,1,.51.14.48.48,0,0,1,.08.51L402,61a.49.49,0,0,1-.44.31Zm-8-10.52,5.17,3.32a.49.49,0,0,1,.18.2l2.63,5.32L406.7,47Z"/><path d="M398.43,55.05a.49.49,0,0,1-.33-.85l8.28-7.56a.49.49,0,0,1,.69,0,.5.5,0,0,1,0,.7l-8.28,7.56A.5.5,0,0,1,398.43,55.05Z"/><circle cx="16.54" cy="195.74" r="14.87" transform="translate(-133.56 69.03) rotate(-45)" style="fill:#91a7ff"/><path d="M22.28,210a15.36,15.36,0,1,1,8.51-20A15.37,15.37,0,0,1,22.28,210ZM11.17,182.4a14.38,14.38,0,1,0,18.71,8A14.39,14.39,0,0,0,11.17,182.4Z"/><path d="M19.14,201.73,11,196.47a3,3,0,0,1-.94-4.05,2.83,2.83,0,0,1,4-.89l1.42.91.39-1.64a2.83,2.83,0,0,1,3.48-2.11,3,3,0,0,1,2.12,3.57Z" style="fill:#fff"/><path d="M19.33,202.18a.48.48,0,0,1-.45,0l-8.19-5.26a3.49,3.49,0,0,1-1.09-4.72,3.27,3.27,0,0,1,2.09-1.5,3.32,3.32,0,0,1,2.56.46l.83.53.24-1a3.31,3.31,0,0,1,1.53-2.1,3.27,3.27,0,0,1,2.54-.36,3.48,3.48,0,0,1,2.48,4.16l-2.25,9.46A.5.5,0,0,1,19.33,202.18Zm-7.78-10.45a2.26,2.26,0,0,0-1.11.94,2.49,2.49,0,0,0,.78,3.38l7.61,4.89,2.09-8.79a2.49,2.49,0,0,0-1.78-3,2.33,2.33,0,0,0-2.87,1.74l-.39,1.64a.51.51,0,0,1-.74.3l-1.42-.91a2.34,2.34,0,0,0-1.82-.32A1.42,1.42,0,0,0,11.55,191.73Z"/><path d="M540,156.48c0-12.71.14-23.78,0-35.72-16.82,0-33.73.52-50.68.33-.16,12.16,0,23.61,0,35.43Q514.69,156.52,540,156.48Z" style="fill:#fff"/><path d="M489.28,157a.49.49,0,0,1-.49-.49c0-3.94,0-7.9,0-11.74,0-7.66-.08-15.58,0-23.7a.5.5,0,0,1,.49-.48h0c9.78.11,19.71,0,29.31-.14,7-.09,14.25-.19,21.36-.19a.49.49,0,0,1,.49.49c.09,7.87.06,15.32,0,23.21,0,4,0,8.18,0,12.51a.49.49,0,0,1-.49.49l-25.27,0Zm.49-35.42c-.11,7.93-.07,15.68,0,23.19,0,3.67,0,7.47,0,11.25l24.91,0,24.79,0c0-4.15,0-8.15,0-12,0-7.72.06-15,0-22.72-7,0-14,.1-20.86.19C509.17,121.56,499.4,121.69,489.77,121.59Z"/><path d="M489.34,121.35c8.91,7.38,17.7,14.91,26.48,22.39q12.45-11.06,24.14-23Z" style="fill:#91a7ff"/><path d="M515.82,144.23a.51.51,0,0,1-.31-.11L511.9,141c-7.47-6.36-15.19-12.94-22.87-19.32a.48.48,0,0,1-.15-.54.49.49,0,0,1,.46-.32l50.61-.59h0a.49.49,0,0,1,.45.3.48.48,0,0,1-.1.53c-7.76,7.92-15.89,15.66-24.16,23A.5.5,0,0,1,515.82,144.23Zm-25.14-22.41c7.35,6.11,14.72,12.39,21.85,18.47l3.29,2.8c7.85-7,15.57-14.32,23-21.82Z"/><g style="opacity:0.129412"><path d="M539.51,121.88a.75.75,0,0,0-1,.32l-.12.15c-.21.24-.43.48-.65.71-.84.89-1.82,1.65-2.64,2.55-1.73,1.86-3.5,3.68-5.29,5.49a47.92,47.92,0,0,1-5.17,4.9c-.69.51-2.24,1.81-3.4,2.77L521,139c-.74.61-.53.43-1.13,1-1.4,1.24-2.67,2.6-4.08,3.82-1.18-1.22-2.51-2.3-3.81-3.41q-4.95-4.53-10.16-8.8c-2.18-1.85-4.27-3.77-6.43-5.63-1.29-1.18-2.56-2.39-4-3.45.24.18-.47-.45-.61-.6l0,0c-.05,0-.09-.11-.13-.14a1.25,1.25,0,0,0-.3-.26A1,1,0,0,0,489,122a.88.88,0,0,0,.55,1c.45.28,1.51,1.5,2.24,2.19,3,2.88,6.25,5.6,9.5,8.26,2.06,1.66,4,3.47,5.95,5.21,1.11,1.06,2.26,2.1,3.36,3.17,1.29,1.38,2.63,2.72,3.95,4.07a1.26,1.26,0,0,0,.86.35,1.16,1.16,0,0,0,1.12-.27,18.58,18.58,0,0,0,3.29-3.22c1-1.09,1.69-1.76,2.39-2.42,1.34-1.22,3.81-3.35,5.7-5.07,1.39-1.3,2.67-2.71,4-4.05,1.68-1.68,3.28-3.42,4.85-5.2,1-1,1.6-1.6,2.49-2.65.19-.29.54-.54.6-.89A.62.62,0,0,0,539.51,121.88Z"/></g><path d="M489.52,156.94a.51.51,0,0,1-.36-.15.5.5,0,0,1,0-.7c6.45-6.18,13.24-12.2,20.17-17.91a.49.49,0,0,1,.62.76c-6.91,5.69-13.68,11.7-20.11,17.86A.51.51,0,0,1,489.52,156.94Z"/><path d="M539.86,156.6a.47.47,0,0,1-.32-.12c-6.35-5.5-12.6-11.25-18.59-17.09a.49.49,0,0,1,0-.69.48.48,0,0,1,.69,0c6,5.83,12.21,11.57,18.54,17.05a.49.49,0,0,1,.05.69A.46.46,0,0,1,539.86,156.6Z"/><g style="opacity:0.129412"><path d="M539,154.14H539a.83.83,0,0,0-.22,0c-.62.05-2.21,0-3.5,0a110.63,110.63,0,0,0-12.08,0c-3.62.06-7.25.05-10.88.16-3.24,0-6.47-.27-9.71-.31-2.79,0-5.58.25-8.37.19-1,0-2,0-3,0a4.57,4.57,0,0,0-1.61,0,1.13,1.13,0,0,0,.44,2.16c4.2.35,8.4-.09,12.6-.14,3.16,0,6.32.27,9.49.23,5.56-.2,11.13-.2,16.69-.53q3.81,0,7.62.09c.64,0,1.28.06,1.92.09a.49.49,0,0,0,.23,0,1.07,1.07,0,0,0,1.35-.43A1.06,1.06,0,0,0,539,154.14Z"/></g><path d="M264.17,143.42c10.2,0,18.46,8.58,18.46,19.17a19.54,19.54,0,0,1-3.8,11.64l2.26,9.28-7.74-4.29a17.78,17.78,0,0,1-9.18,2.54c-10.19,0-18.46-8.58-18.46-19.17S254,143.42,264.17,143.42Z" style="fill:#fff"/><path d="M281.09,184a.46.46,0,0,1-.23-.06l-7.5-4.15a18.51,18.51,0,0,1-9.19,2.47c-10.45,0-19-8.83-19-19.67s8.5-19.66,19-19.66,18.95,8.82,18.95,19.66a20,20,0,0,1-3.76,11.75l2.21,9.06a.47.47,0,0,1-.18.5A.47.47,0,0,1,281.09,184Zm-7.74-5.27a.44.44,0,0,1,.24.07l6.76,3.74-2-8.19a.47.47,0,0,1,.08-.41,19,19,0,0,0,3.7-11.35c0-10.3-8.06-18.68-18-18.68s-18,8.38-18,18.68,8.06,18.68,18,18.68a17.41,17.41,0,0,0,8.93-2.47A.55.55,0,0,1,273.35,178.73Z"/><path d="M263.7,171.8l7.45-10.5a4,4,0,0,0-.85-5.44,3.75,3.75,0,0,0-5.31.87l-1.29,1.82-1.29-1.82a3.75,3.75,0,0,0-5.31-.87,4,4,0,0,0-.84,5.44Z" style="fill:#91a7ff"/><path d="M263.7,172.29a.48.48,0,0,1-.4-.2l-7.44-10.51a4.45,4.45,0,0,1,.95-6.11,4.24,4.24,0,0,1,6,1l.89,1.26.89-1.26a4.24,4.24,0,0,1,2.82-1.76,4.16,4.16,0,0,1,3.18.78,4.45,4.45,0,0,1,1,6.11l-7.45,10.51A.48.48,0,0,1,263.7,172.29Zm-4.37-16.68a3.25,3.25,0,0,0-1.93.65,3.45,3.45,0,0,0-.74,4.75l7,10,7.05-10a3.47,3.47,0,0,0-.74-4.75,3.26,3.26,0,0,0-2.45-.61,3.34,3.34,0,0,0-2.17,1.36l-1.29,1.83a.51.51,0,0,1-.8,0L262,157a3.29,3.29,0,0,0-2.17-1.36A4.38,4.38,0,0,0,259.33,155.61Z"/><g style="opacity:0.129412"><path d="M249,173.45c-.81-1.51-1.58-3-2.34-4.58a.66.66,0,0,1,.19-.09c.91-.24,1.22.84,1.68,1.4.93,1.25,1.39,2,2.11,2.8,1.9,2,4.84,3.29,7.63,5,3.31,1.93,6.93,1.62,10.16.87,1.49-.33,2.88-1,4.37-1.37a4.35,4.35,0,0,1,3.53,1.11,23.48,23.48,0,0,0,2.52,1.68c.49.3,1,.62,1.44.95a.84.84,0,0,1,.4.52.88.88,0,0,1-1.28,1c-1.51-1-3.1-1.83-4.57-2.88-.92-.59-1.18-.5-1.53-.49-1.49.39-2.86,1.17-4.36,1.56-4.37,1.19-8.7,1-12.53-1.59-2.22-1.49-4.69-2.71-6.64-4.56C249.51,174.37,249.25,173.91,249,173.45Z"/></g><circle cx="53.48" cy="256.56" r="21.18" transform="translate(-203.57 205.51) rotate(-66.99)" style="fill:#fff"/><path d="M61.58,276.66l-.25.09a21.68,21.68,0,0,1-28-12.34h0a21.67,21.67,0,1,1,28.3,12.25Zm-27.39-12.6A20.72,20.72,0,0,0,61,275.84l.23-.09a20.71,20.71,0,0,0,11.55-26.69,20.69,20.69,0,0,0-38.57,15Z"/><path d="M48.14,242.82h0a.49.49,0,0,1-.64-.28l-1-2.67a.49.49,0,0,1,.92-.36l1,2.68A.5.5,0,0,1,48.14,242.82Z"/><path d="M60.22,273.88h0a.5.5,0,0,1-.64-.28l-1-2.68a.49.49,0,0,1,.27-.63h0a.48.48,0,0,1,.63.28l1,2.68A.5.5,0,0,1,60.22,273.88Z"/><path d="M70.53,250.45h0l-2.68,1a.49.49,0,0,1-.64-.27.5.5,0,0,1,.28-.64l2.68-1a.49.49,0,0,1,.36.91Z"/><path d="M39.47,262.53h0l-2.68,1a.49.49,0,0,1-.64-.28.5.5,0,0,1,.28-.63h0l2.68-1a.49.49,0,0,1,.64.28A.5.5,0,0,1,39.47,262.53Z"/><path d="M53.94,256.38a.5.5,0,0,1-.38,0,.49.49,0,0,1-.25-.65l4.47-10.16a.49.49,0,0,1,.65-.25.48.48,0,0,1,.25.64l-4.47,10.17A.53.53,0,0,1,53.94,256.38Z"/><path d="M51.35,257.39a2.29,2.29,0,1,1,3,1.3A2.29,2.29,0,0,1,51.35,257.39Z" style="fill:#fff"/><path d="M54.52,259.13h0a2.78,2.78,0,0,1-3.6-1.58h0A2.79,2.79,0,0,1,52.44,254h0a2.81,2.81,0,0,1,2.13,0,2.78,2.78,0,0,1-.08,5.12Zm-2.72-1.92a1.8,1.8,0,0,0,3.35-1.31,1.77,1.77,0,0,0-.95-1,1.8,1.8,0,0,0-2.37.92,1.83,1.83,0,0,0,0,1.38Z"/><circle cx="511.62" cy="196.29" r="14.87" style="fill:#fff"/><path d="M511.62,211.65A15.37,15.37,0,1,1,527,196.29,15.38,15.38,0,0,1,511.62,211.65Zm0-29.75A14.39,14.39,0,1,0,526,196.29,14.41,14.41,0,0,0,511.62,181.9Z"/><path d="M518.36,196.78H504.92a.49.49,0,0,1,0-1h13.44a.49.49,0,0,1,0,1Z"/><path d="M518.36,202.5H504.92a.49.49,0,0,1,0-1h13.44a.49.49,0,0,1,0,1Z"/><path d="M518.36,191.06H504.92a.49.49,0,0,1,0-1h13.44a.49.49,0,0,1,0,1Z"/><circle cx="511.62" cy="196.29" r="14.87" style="fill:#fff"/><path d="M511.62,211.65A15.37,15.37,0,1,1,527,196.29,15.38,15.38,0,0,1,511.62,211.65Zm0-29.75A14.39,14.39,0,1,0,526,196.29,14.41,14.41,0,0,0,511.62,181.9Z"/><path d="M518.36,196.78H504.92a.49.49,0,0,1,0-1h13.44a.49.49,0,0,1,0,1Z"/><path d="M518.36,202.5H504.92a.49.49,0,0,1,0-1h13.44a.49.49,0,0,1,0,1Z"/><path d="M518.36,191.06H504.92a.49.49,0,0,1,0-1h13.44a.49.49,0,0,1,0,1Z"/><g style="opacity:0.129412"><path d="M526.78,194.25a1.4,1.4,0,0,0-.34.69c-.19.63-.38,1.26-.56,1.89a14,14,0,0,1-1.6,4c-1.91,3.52-3.84,5.06-7.72,6.92-2.22,1.11-4,1.33-7.23,1.23a23,23,0,0,1-4.78-1,8.22,8.22,0,0,1-2.58-1.28,12,12,0,0,1-2.64-2c-.47-.46-.92-.93-1.35-1.43-.06-.06-.11-.13-.17-.2.32.66.64,1.31,1,1.95l.62.7c.64.76,1.3,1.51,2,2.23.32.2.65.39,1,.58a21.1,21.1,0,0,0,13.41,2.38c4.17-1.52,8.13-4.35,10.2-8.35.13-.22.24-.44.36-.67s.06-.32.08-.48c.09-2.45.3-4.89.61-7.33A.88.88,0,0,0,526.78,194.25Z"/></g><path d="M518.12,298.22,514.3,286a3.94,3.94,0,0,1,2.48-4.89,3.73,3.73,0,0,1,4.76,2.46l.67,2.13,1.78-1.33a3.73,3.73,0,0,1,5.3.82,3.93,3.93,0,0,1-.88,5.41Z" style="fill:#fff"/><path d="M518,298.69a.49.49,0,0,1-.31-.32l-3.81-12.26a4.43,4.43,0,0,1,2.78-5.5,4.22,4.22,0,0,1,5.39,2.78l.46,1.46,1.23-.91a4.23,4.23,0,0,1,6,.92,4.44,4.44,0,0,1-1,6.09l-10.3,7.66A.48.48,0,0,1,518,298.69Zm1-17.17a3.21,3.21,0,0,0-2,0,3.45,3.45,0,0,0-2.17,4.28l3.61,11.59,9.74-7.25a3.44,3.44,0,0,0,.77-4.73,3.23,3.23,0,0,0-2.13-1.33,3.36,3.36,0,0,0-2.48.62l-1.78,1.33a.51.51,0,0,1-.76-.24l-.66-2.13a3.27,3.27,0,0,0-1.64-2A3.9,3.9,0,0,0,519,281.52Z"/><path d="M102.59,305.28h0a11.83,11.83,0,0,1,2.81-16.49l25.67-18.19-6.48-9.15L98.16,280.17a23,23,0,0,0-5.48,32.13h0a23,23,0,0,0,32.13,5.47l26.43-18.72-6.49-9.16-25.67,18.19A11.83,11.83,0,0,1,102.59,305.28Z" style="fill:#fff"/><path d="M111.53,322.52a23.54,23.54,0,0,1-13.66-42.75l26.43-18.72a.5.5,0,0,1,.69.11l6.48,9.16a.48.48,0,0,1-.11.68l-25.67,18.19a11.34,11.34,0,1,0,13.11,18.5l25.67-18.19a.52.52,0,0,1,.36-.08.46.46,0,0,1,.32.2l6.49,9.15a.51.51,0,0,1-.12.69l-26.43,18.72A23.37,23.37,0,0,1,111.53,322.52Zm12.94-60.39-26,18.44a22.56,22.56,0,1,0,26.09,36.81l26-18.44-5.91-8.35-25.27,17.9a12.32,12.32,0,0,1-19.27-12.12,12.21,12.21,0,0,1,5-8l25.27-17.91Z"/><rect x="119.16" y="263.17" width="9.55" height="11.22" transform="matrix(0.82, -0.58, 0.58, 0.82, -132.59, 121.13)" style="fill:#91a7ff"/><path d="M123.28,276.61a.49.49,0,0,1-.4-.21l-6.48-9.15a.45.45,0,0,1-.08-.37.51.51,0,0,1,.19-.32l7.79-5.51a.5.5,0,0,1,.69.11l6.48,9.16a.48.48,0,0,1-.11.68l-7.79,5.52A.52.52,0,0,1,123.28,276.61Zm-5.8-9.53,5.92,8.35,7-4.95-5.92-8.35Z"/><rect x="139.33" y="291.63" width="9.55" height="11.22" transform="translate(-145.33 138.03) rotate(-35.32)" style="fill:#91a7ff"/><path d="M143.45,305.07h-.08a.49.49,0,0,1-.32-.2l-6.49-9.15a.5.5,0,0,1,.12-.69l7.79-5.52a.52.52,0,0,1,.36-.08.46.46,0,0,1,.32.2l6.49,9.15a.51.51,0,0,1-.12.69L143.73,305A.48.48,0,0,1,143.45,305.07Zm-5.8-9.53,5.92,8.35,7-4.95-5.91-8.35Z"/><path d="M93,313.27a.49.49,0,0,1-.4-.21.49.49,0,0,1,.12-.68l9.89-7.05a.49.49,0,1,1,.57.8l-9.89,7.05A.52.52,0,0,1,93,313.27Z"/><path d="M90.4,303.3h-.06a.18.18,0,0,1-.09-.22l8.1-21.21a.15.15,0,0,1,.21-.09.16.16,0,0,1,.09.21l-8.1,21.21A.15.15,0,0,1,90.4,303.3Z"/><path d="M91.38,306.74h-.06a.16.16,0,0,1-.1-.21l10.26-26.86a.15.15,0,0,1,.21-.09.16.16,0,0,1,.09.21L91.53,306.64A.18.18,0,0,1,91.38,306.74Z"/><path d="M92.85,309.42h-.06a.16.16,0,0,1-.1-.21l12.15-31.82a.16.16,0,0,1,.21-.1.16.16,0,0,1,.09.21L93,309.31A.17.17,0,0,1,92.85,309.42Z"/><path d="M95.31,309.42h-.06a.17.17,0,0,1-.09-.21l3.61-9.28a.16.16,0,0,1,.21-.09.17.17,0,0,1,.09.21l-3.6,9.28A.18.18,0,0,1,95.31,309.42Z"/><path d="M98.49,307.15h-.06a.18.18,0,0,1-.09-.22l1.21-3.12a.18.18,0,0,1,.22-.09.17.17,0,0,1,.09.21L98.65,307A.17.17,0,0,1,98.49,307.15Z"/><path d="M90.32,297.31h-.06a.16.16,0,0,1-.09-.21l4.13-10.82a.16.16,0,0,1,.21-.1.17.17,0,0,1,.09.21l-4.13,10.83A.15.15,0,0,1,90.32,297.31Z"/><path d="M103.69,288.2h0a.16.16,0,0,1-.1-.2c1.45-4.47,3-9,4.72-13.34a.17.17,0,0,1,.21-.1.16.16,0,0,1,.1.21c-1.68,4.38-3.27,8.87-4.72,13.33A.16.16,0,0,1,103.69,288.2Z"/><path d="M107,285.9h0a.16.16,0,0,1-.1-.2l4.33-13a.16.16,0,0,1,.2-.11.16.16,0,0,1,.11.21l-4.33,13A.16.16,0,0,1,107,285.9Z"/><path d="M110.17,283.66h0a.16.16,0,0,1-.1-.21l4.44-13.16a.16.16,0,0,1,.31.11l-4.44,13.16A.17.17,0,0,1,110.17,283.66Z"/><path d="M113.52,281.3h0a.16.16,0,0,1-.11-.21c1.1-3.56,2.33-7.14,3.66-10.62a.16.16,0,0,1,.31.11c-1.33,3.48-2.56,7.05-3.66,10.61A.15.15,0,0,1,113.52,281.3Z"/><path d="M116.91,279.11h0a.17.17,0,0,1-.11-.2c.6-2,1.26-4,2-5.9a.17.17,0,0,1,.21-.1.17.17,0,0,1,.1.21c-.7,1.94-1.35,3.92-1.94,5.88A.17.17,0,0,1,116.91,279.11Z"/><path d="M119.68,277.1h-.06a.17.17,0,0,1-.09-.21l.62-1.66a.16.16,0,1,1,.3.12l-.62,1.65A.15.15,0,0,1,119.68,277.1Z"/><g style="opacity:0.129412"><path d="M150.22,300.08a1.34,1.34,0,0,0,.54-2.23,1.38,1.38,0,0,0-2.18.38c-.47.38-.57.54-.8.69-1.35,1-2.77,1.83-4.15,2.76-3.75,2.46-7.48,5.14-9.74,6.88A97.9,97.9,0,0,1,123.16,316a31.38,31.38,0,0,1-10,3.56,8.79,8.79,0,0,1-1.21.1c-1.13.05-2.26,0-3.39-.1-1,0-1.92-.13-2.88-.13a2.32,2.32,0,0,0-1,.1,1.16,1.16,0,0,0,.45,2.22c2.67,0,5.32.42,8,.45a20.11,20.11,0,0,0,5.92-1.38c5.53-1.91,10.24-5.47,14.8-9,2.37-1.87,8.4-6,10.81-7.9,1.51-1.19,3.21-2.42,4.94-3.52l.31-.17h0Z"/></g><rect x="257.83" y="27.94" width="111.76" height="63.59" rx="31.79" style="fill:#fff"/><path d="M358.05,92H269.38a12.05,12.05,0,0,1-12-12V39.49a12.05,12.05,0,0,1,12-12h88.67a12,12,0,0,1,12,12V80A12,12,0,0,1,358.05,92ZM269.38,28.43a11.07,11.07,0,0,0-11.06,11.06V80A11.07,11.07,0,0,0,269.38,91h88.67A11.06,11.06,0,0,0,369.1,80V39.49a11.06,11.06,0,0,0-11.05-11.06Z"/><path d="M316.6,42.88H273.84a.49.49,0,1,1,0-1H316.6a.49.49,0,1,1,0,1Z"/><path d="M307.81,53.58h-34a.49.49,0,1,1,0-1h34a.49.49,0,1,1,0,1Z"/><path d="M322.21,64.28H273.84a.49.49,0,1,1,0-1h48.37a.49.49,0,1,1,0,1Z"/><path d="M307.81,75h-34a.49.49,0,0,1-.5-.49.49.49,0,0,1,.5-.49h34a.49.49,0,0,1,.49.49A.48.48,0,0,1,307.81,75Z"/><path d="M353.59,75H322.21a.48.48,0,0,1-.49-.49.48.48,0,0,1,.49-.49h31.38a.49.49,0,0,1,.49.49A.48.48,0,0,1,353.59,75Z"/><path d="M353.59,64.28H335.38a.49.49,0,0,1,0-1h18.21a.49.49,0,1,1,0,1Z"/><path d="M353.59,53.58H322.21a.49.49,0,0,1,0-1h31.38a.49.49,0,0,1,0,1Z"/><path d="M353.59,42.88H329.05a.49.49,0,0,1,0-1h24.54a.49.49,0,1,1,0,1Z"/><circle cx="261.73" cy="31.77" r="21.32" transform="translate(8.16 103.96) rotate(-22.81)" style="fill:#fff"/><path d="M261.73,53.58a21.82,21.82,0,1,1,21.82-21.81A21.83,21.83,0,0,1,261.73,53.58Zm0-42.65a20.84,20.84,0,1,0,20.84,20.84A20.86,20.86,0,0,0,261.73,10.93Z"/><path d="M253.45,36.68a2.74,2.74,0,1,1,0,4A2.83,2.83,0,0,1,253.45,36.68Z" style="fill:#fff"/><path d="M255.28,41.85a3.09,3.09,0,0,1-2.13-.83,3.4,3.4,0,1,1,4.67-.3A3.45,3.45,0,0,1,255.28,41.85Zm.35-5.65a2.49,2.49,0,0,0-1.82.81,2.25,2.25,0,1,0,3.29-.25A2.15,2.15,0,0,0,255.63,36.2Z"/><path d="M271.78,24.09a2.51,2.51,0,1,0-3.68-3.4L266.9,22h0a5.17,5.17,0,0,0-7.29.51l-6.15,6.64-6.39,1.64,16.28,15.07,1.14-6.5,6.15-6.64a5.17,5.17,0,0,0-.06-7.31Z" style="fill:#91a7ff"/><path d="M263.35,46.33a.51.51,0,0,1-.33-.13L246.74,31.13a.49.49,0,0,1,.21-.83l6.25-1.61,6.05-6.53a6,6,0,0,1,4-1.93,5.33,5.33,0,0,1,3.65,1.08l.88-1a3.26,3.26,0,0,1,2.15-1,3,3,0,0,1,2.2.76,2.89,2.89,0,0,1,.92,2.14,3.18,3.18,0,0,1-.87,2.21h0l-.88,1a5.3,5.3,0,0,1,1.35,3.55A5.91,5.91,0,0,1,271,33L265,39.57l-1.12,6.35a.48.48,0,0,1-.32.38ZM248.07,31,263,44.87l1-5.61a.53.53,0,0,1,.12-.25l6.15-6.64a5,5,0,0,0,1.35-3.43,4.34,4.34,0,0,0-1.38-3.19.5.5,0,0,1-.16-.34.53.53,0,0,1,.13-.36l1.2-1.29a2.22,2.22,0,0,0,.61-1.55,1.92,1.92,0,0,0-.61-1.42,2,2,0,0,0-1.46-.5,2.26,2.26,0,0,0-1.5.73l-1.2,1.29a.44.44,0,0,1-.34.16.47.47,0,0,1-.35-.13,4.35,4.35,0,0,0-3.29-1.13A5,5,0,0,0,260,22.82l-6.15,6.64a.49.49,0,0,1-.24.15Zm23.71-6.93h0Z"/><g style="opacity:0.129412"><path d="M273.89,49.93q2.4-2.37,4.68-4.85l.25-.28c.4-.74.82-1.47,1.24-2.2.5-1,1-2.06,1.53-3.09a3.72,3.72,0,0,0-.78,1c-.09.15-.5.71-.67.94a30,30,0,0,1-4.16,4.2A21.2,21.2,0,0,1,270.35,49a15.49,15.49,0,0,1-4.64.72,38.49,38.49,0,0,1-6,.26,21.15,21.15,0,0,1-8.62-2.48c-1.35-.76-2.75-1.42-4.07-2.23-.94-.62-1.71-1.26-2.46-1.86A10.31,10.31,0,0,1,243,41.28a1.56,1.56,0,0,0-.93-.93,1,1,0,0,0-.5,0c.72,1.14,1.43,2.3,2.14,3.45,1.08,1.23,2.2,2.41,3.36,3.56.57.57,1.17,1.13,1.76,1.68a26.11,26.11,0,0,0,7,3,26.45,26.45,0,0,0,8.74.38,33.74,33.74,0,0,0,4.7-.49,16.16,16.16,0,0,0,4.6-1.88Z"/></g><rect x="143.05" y="221.98" width="111.76" height="63.59" rx="31.79" transform="translate(397.87 507.55) rotate(-180)" style="fill:#fff"/><path d="M243.27,286.06H154.6a12.05,12.05,0,0,1-12-12v-40.5a12.05,12.05,0,0,1,12-12h88.67a12.05,12.05,0,0,1,12,12V274A12.05,12.05,0,0,1,243.27,286.06ZM154.6,222.47a11.07,11.07,0,0,0-11.06,11.06V274a11.07,11.07,0,0,0,11.06,11.05h88.67A11.07,11.07,0,0,0,254.33,274v-40.5a11.07,11.07,0,0,0-11.06-11.06Z"/><path d="M238.81,271.61H196a.49.49,0,1,1,0-1h42.77a.49.49,0,0,1,0,1Z"/><path d="M238.81,260.91h-34a.49.49,0,1,1,0-1h34a.49.49,0,0,1,0,1Z"/><path d="M238.81,250.21H190.44a.49.49,0,0,1,0-1h48.37a.49.49,0,0,1,0,1Z"/><path d="M238.81,239.51h-34a.49.49,0,0,1,0-1h34a.49.49,0,1,1,0,1Z"/><path d="M190.44,239.51H159.06a.49.49,0,0,1,0-1h31.38a.49.49,0,1,1,0,1Z"/><path d="M177.27,250.21H159.06a.49.49,0,0,1,0-1h18.21a.49.49,0,0,1,0,1Z"/><path d="M190.44,260.91H159.06a.49.49,0,0,1,0-1h31.38a.49.49,0,0,1,0,1Z"/><path d="M183.59,271.61H159.06a.49.49,0,0,1,0-1h24.53a.49.49,0,1,1,0,1Z"/><path d="M119.08,85.14c2.91,6.51,1.71,14.91-3.58,19.68-2.89,2.6-6.66,4-9.74,6.35s-5.52,6.45-4,10a14.64,14.64,0,0,1,1.18,2.7c.52,2.59-2,4.64-3.81,6.57-4.08,4.33-5.06,12-.71,16,3.43,3.2,8.68,3.19,13.35,2.8,6.34-.53,12.86-1.46,18.27-4.79s9.18-8.7,11.34-14.59A51.63,51.63,0,0,0,144,111.4c-.09-7.22-1.21-14.78-5.48-20.61S126.11,81.51,119.08,85.14Z" style="fill:#91a7ff"/><path d="M108.06,150c-3.7,0-7.38-.64-10-3.1a9.71,9.71,0,0,1-3-7,13.86,13.86,0,0,1,3.67-9.73c.26-.28.53-.55.8-.83,1.62-1.64,3.29-3.34,2.89-5.31a6.23,6.23,0,0,0-.66-1.6c-.17-.33-.35-.66-.49-1-1.6-3.87,1-8.21,4.19-10.62a39.47,39.47,0,0,1,4.42-2.79,29.91,29.91,0,0,0,5.29-3.53c5-4.47,6.42-12.51,3.46-19.12a.49.49,0,0,1,.22-.63c7.47-3.86,15.93.1,20.1,5.79,3.69,5,5.46,11.67,5.58,20.9.09,7.34-.8,13.46-2.73,18.7a28.87,28.87,0,0,1-11.54,14.84c-5.5,3.38-12.14,4.33-18.49,4.86C110.56,149.9,109.3,150,108.06,150Zm11.65-64.59c2.88,6.89,1.28,15.16-3.89,19.81a29.89,29.89,0,0,1-5.46,3.65,40.08,40.08,0,0,0-4.31,2.72c-2.85,2.18-5.27,6.08-3.87,9.46a8.76,8.76,0,0,0,.45.93,7.25,7.25,0,0,1,.75,1.86c.5,2.49-1.44,4.46-3.15,6.2q-.41.41-.78.81a13,13,0,0,0-3.41,9,8.76,8.76,0,0,0,2.67,6.3c3.24,3,8.15,3.07,13,2.67,6.23-.52,12.73-1.45,18.06-4.71a27.94,27.94,0,0,0,11.13-14.35c1.89-5.13,2.76-11.13,2.67-18.35-.11-9-1.83-15.47-5.39-20.33C134.31,85.83,126.6,82.12,119.71,85.38Z"/><path d="M148.31,55.19c2,10.14,4.39,21,11.88,28.09,2.44,2.31,5.33,4.14,7.58,6.63a28.21,28.21,0,0,1,5.52,10.54c2.28,7.2,3.19,15.18.41,22.2s-10,12.61-17.52,11.64c-6.57-.86-11.76-6.45-14-12.69s-2-13.06-1.59-19.67A233.61,233.61,0,0,1,148.31,55.19Z" style="fill:#91a7ff"/><path d="M157.83,134.88a12.52,12.52,0,0,1-1.72-.11c-6.2-.8-11.84-5.91-14.38-13-2.31-6.43-2.06-13.34-1.62-19.86a234.68,234.68,0,0,1,7.73-46.84.47.47,0,0,1,.49-.36.48.48,0,0,1,.46.39c2.23,11.25,4.65,21.1,11.74,27.83,1,1,2.12,1.85,3.2,2.72a38,38,0,0,1,4.41,3.94c2.32,2.59,4.11,6,5.61,10.72,2.76,8.67,2.89,16.25.4,22.53C171.32,130,164.52,134.88,157.83,134.88Zm-9.59-77.57A235.79,235.79,0,0,0,141.09,102c-.44,6.43-.68,13.22,1.56,19.47,2.42,6.76,7.75,11.61,13.59,12.37,6.78.88,14.09-4,17-11.33,2.41-6.06,2.26-13.42-.42-21.87-1.46-4.59-3.18-7.89-5.41-10.36a35.63,35.63,0,0,0-4.3-3.84c-1.09-.87-2.22-1.78-3.25-2.77C153,77.12,150.41,67.88,148.24,57.31Z"/><path d="M151.8,111.83a125.29,125.29,0,0,1-4.13-16.47,24.08,24.08,0,0,0-7.29-.13,4.06,4.06,0,0,0-2.88,1.31A3.89,3.89,0,0,0,137,98.4l-1.45,13.37a1.7,1.7,0,0,0,1.12,2A13.09,13.09,0,0,0,151.8,111.83Z" style="fill:#fff"/><path d="M142.81,115.89a13.05,13.05,0,0,1-6.41-1.65,2.15,2.15,0,0,1-1.37-2.52l1.45-13.37a4.33,4.33,0,0,1,.62-2.09,4.5,4.5,0,0,1,3.21-1.51,24.42,24.42,0,0,1,7.44.12.5.5,0,0,1,.4.39,124.65,124.65,0,0,0,4.11,16.41.48.48,0,0,1-.12.51A13.4,13.4,0,0,1,142.81,115.89Zm.81-20.39a22.42,22.42,0,0,0-3.17.22,3.67,3.67,0,0,0-2.55,1.1,3.61,3.61,0,0,0-.44,1.64L136,111.82a1.77,1.77,0,0,0,0,.8,1.84,1.84,0,0,0,.85.77,12.67,12.67,0,0,0,14.35-1.7,127.58,127.58,0,0,1-4-15.9A23.28,23.28,0,0,0,143.62,95.5Z"/><path d="M151.43,56.58c1.32,4.86,2.42,10.09,5.55,14.18,1.7,2.23,7,15-1.7,22.89A21.47,21.47,0,0,1,137.44,99c-4.71-.7-12.24-5.86-14.29-13.26-2.75,2.17-6.7,1.37-7.91-1.41a4.17,4.17,0,0,1,2.15-5.07,3.73,3.73,0,0,1,3.12-.22,46.52,46.52,0,0,0-3.24-10.92c1.9-5.37,6.72-9.74,12-13a22.51,22.51,0,0,1,5.6-2.61C140.62,50.91,150.06,51.58,151.43,56.58Z" style="fill:#fff"/><path d="M140.86,99.73a24.43,24.43,0,0,1-3.49-.26c-4.64-.69-12.1-5.55-14.5-13a6.14,6.14,0,0,1-4.68.77,5,5,0,0,1-3.4-2.78,4.45,4.45,0,0,1,.15-3.4,4.72,4.72,0,0,1,5-2.73,45.08,45.08,0,0,0-3.07-10.07.5.5,0,0,1,0-.36C119,61.85,124.64,57.39,129,54.71a23.51,23.51,0,0,1,5.73-2.66c4.07-1.15,10.43-1.21,14.2.92a5.77,5.77,0,0,1,2.93,3.48l.48,1.79c1.13,4.28,2.3,8.71,5,12.22,2.09,2.74,7,15.6-1.76,23.55A21.64,21.64,0,0,1,140.86,99.73Zm-17.71-14.5.15,0a.5.5,0,0,1,.32.34c2,7.28,9.49,12.25,13.89,12.91A20.88,20.88,0,0,0,155,93.29c8.8-8,2.8-20.71,1.64-22.24-2.8-3.66-4-8.19-5.16-12.56L151,56.71h0a4.77,4.77,0,0,0-2.46-2.88c-3.54-2-9.58-1.93-13.46-.84a22.7,22.7,0,0,0-5.48,2.56c-4.22,2.56-9.65,6.81-11.75,12.53A46.84,46.84,0,0,1,121,78.94a.5.5,0,0,1-.61.56,3.27,3.27,0,0,0-2.83.2,3.18,3.18,0,0,0-1.71,1.79,3.5,3.5,0,0,0-.15,2.62,4,4,0,0,0,2.74,2.22,5.22,5.22,0,0,0,4.42-1A.46.46,0,0,1,123.15,85.23Z"/><path d="M200.84,92.22A1.33,1.33,0,0,1,201.4,91a3.6,3.6,0,0,1,1.31-.54,46.91,46.91,0,0,1,16.61-1.14c.54,0,1.23.27,1.24.81a1,1,0,0,1-.32.65,8.45,8.45,0,0,1-4.06,2.2,24.2,24.2,0,0,1-13.22.54C202.21,93.3,201,93.13,200.84,92.22Z" style="fill:#fff"/><path d="M133.79,84.12a7.9,7.9,0,0,1-7.36-6,8.37,8.37,0,0,1,.53-6,6.82,6.82,0,0,1,9.94-2.74,8.35,8.35,0,0,1,3.53,4.87c1.18,4.25-1,8.57-4.87,9.64A6.74,6.74,0,0,1,133.79,84.12Zm-.71-14.92a5.63,5.63,0,0,0-1.52.21,5.93,5.93,0,0,0-3.72,3.14,7.42,7.42,0,0,0-.47,5.3c1,3.72,4.59,6,7.93,5.08s5.22-4.7,4.19-8.43a7.38,7.38,0,0,0-3.12-4.31A6.16,6.16,0,0,0,133.08,69.2Z"/><path d="M152.58,77.21a7.07,7.07,0,0,1-3.81-1.15,8.59,8.59,0,0,1-3-10.86,6.8,6.8,0,0,1,9.93-2.75,8.59,8.59,0,0,1,3,10.87A6.9,6.9,0,0,1,154.37,77,6.45,6.45,0,0,1,152.58,77.21Zm-.69-14.92a5.63,5.63,0,0,0-1.52.21,5.9,5.9,0,0,0-3.72,3.14,7.59,7.59,0,0,0,2.65,9.6,5.83,5.83,0,0,0,8.53-2.36,7.59,7.59,0,0,0-2.65-9.6A6.16,6.16,0,0,0,151.89,62.29Z"/><path d="M217.54,79.83c-.81-.89-1.62-1.79-2.42-2.7Q213,74.78,211,72.34c-.14,0-.3,0-.39.11a4.22,4.22,0,0,0-3.4-.8A18.11,18.11,0,0,1,205,73.5a8.83,8.83,0,0,1-.92.64c-.21.12-.41.25-.61.38h0a.71.71,0,0,1-.18.12l-.15.1c-.67.44-1.31.91-2,1.36a.67.67,0,0,1-.54.1v.24c-.17.58-.51,3.09,1.08,6.59a28.52,28.52,0,0,1,2.21,10.71c3.2,1,5.63-.11,9-.71a14.78,14.78,0,0,0,3.58-.94,92.36,92.36,0,0,0,2.26-10.94Z" style="fill:#fff"/><path d="M101.07,44.61a12.74,12.74,0,1,1,14,11.36A12.73,12.73,0,0,1,101.07,44.61Z" style="fill:#91a7ff"/><path d="M113.71,56.53a13.2,13.2,0,1,1,1.39-.07A13.17,13.17,0,0,1,113.71,56.53Zm.05-25.48a11,11,0,0,0-1.28.07,12.1,12.1,0,1,0,1.28-.07Z"/><path d="M121.12,79.33c1-5.88,1.47-10,.09-16C135,65.18,145,59.66,155.33,54.82a11,11,0,0,0-3.14-5c-3.58-3.4-7.37-6-14.93-6.21-5.3-.11-11.86,1.1-16.4,3.83s-7.55,7-9.6,11.57A22.41,22.41,0,0,0,110,72c.76,3.73,2.67,5.91,5.68,8.77A4.34,4.34,0,0,1,118,78.91,5.34,5.34,0,0,1,121.12,79.33Z" style="fill:#91a7ff"/><path d="M115.65,81.28a.48.48,0,0,1-.34-.14c-2.8-2.65-5-5-5.82-9a22.8,22.8,0,0,1,1.32-13.27c2.44-5.38,5.74-9.35,9.8-11.79,5-3,11.9-4,16.66-3.9,7.31.16,11.26,2.54,15.26,6.34a11.6,11.6,0,0,1,3.27,5.18.49.49,0,0,1-.26.58c-.89.41-1.77.83-2.64,1.25-9.19,4.35-18.68,8.85-31.06,7.37,1.26,6,.7,10.26-.24,15.53a.48.48,0,0,1-.23.34.5.5,0,0,1-.41,0,4.93,4.93,0,0,0-2.84-.4,3.72,3.72,0,0,0-2,1.6l-.08.1a.48.48,0,0,1-.35.19Zm20.94-37.14c-4.58,0-10.85,1-15.48,3.76-3.88,2.33-7,6.16-9.4,11.35a22,22,0,0,0-1.26,12.67c.67,3.3,2.21,5.32,5.15,8.14a4.15,4.15,0,0,1,2.32-1.63,5.16,5.16,0,0,1,2.82.25c.88-5.1,1.36-9.29,0-15.27a.48.48,0,0,1,.12-.44.48.48,0,0,1,.42-.15c12.44,1.69,22-2.83,31.21-7.2l2.26-1.07a10.89,10.89,0,0,0-2.89-4.34c-3.14-3-6.85-5.9-14.6-6.07Z"/><path d="M204.88,77.05a6,6,0,0,1,1.18-4A14.79,14.79,0,0,0,207.68,71a1.93,1.93,0,0,0-.31-2.42,2,2,0,0,0-1.61-.22,7.55,7.55,0,0,0-3.62,2.38,7.86,7.86,0,0,0-1.64,2.17,6.81,6.81,0,0,0-.57,2.36,3,3,0,0,0,.15,1.48,3,3,0,0,0,1.54,1.35,3.38,3.38,0,0,0,2.08.49A1.45,1.45,0,0,0,204.88,77.05Z" style="fill:#fff"/><path d="M142.24,92c-1.37,0-2.41-1.13-3.41-2.22-.34-.37-.66-.71-1-1a.5.5,0,0,1,.28-.85,40.5,40.5,0,0,1,9,.06.47.47,0,0,1,.36.26.45.45,0,0,1,0,.45c-.72,1.39-3.76,3.31-5.25,3.31Zm-3-3.21.3.33c.86.93,1.75,1.9,2.7,1.9h0c.9,0,2.92-1.18,3.91-2.17A41.8,41.8,0,0,0,139.25,88.77Z"/><path d="M124.57,168.49c-.86-10.2-1.72-17.48-2.58-27.67-1.24,6.91-5,20.5-6.51,27.89,14.66.47,24.21.94,36.87,2.56a17.91,17.91,0,0,0-5.51,7.22,30.9,30.9,0,0,0-1.78,8.7c-15.64-.53-31-.79-46.36-.29-1.71,0-3.54.09-5-.8a6,6,0,0,1-2.34-3c-1.28-3.3-.5-7,.3-10.46,2.36-10.24,6.94-29.67,11.14-39.3a38.69,38.69,0,0,1,7.13-11.48c6.55-6.85,16.28-9.4,25.69-11.61.41,2.34,2.88,3.74,5.21,4.24a10.49,10.49,0,0,0,6.25-.35,8.23,8.23,0,0,0,4.55-5.32c7.21-.65,11.76-.63,14.95-.17,4.2.61,8.27,3.67,11.09,6.74,5.86,6.39,8.9,11.77,15.06,19.18a109.9,109.9,0,0,0,8.1-42.6c1.32,3,18.24,2.74,20-2.07-1.19,17.79-2.41,35.77-7.81,52.76-1.74,5.46-4,10.9-7.7,15.25s-9.19,7.53-14.92,7.37-9.41-1.73-13.11-8.82a11.63,11.63,0,0,0-1.58,3.22c0,7.58.67,16.42.78,23.87-16.91,2.67-34.64.41-51.62-.68C124.86,177.84,124.93,172.81,124.57,168.49Z" style="fill:#fff"/><path d="M133.45,74.45a1.17,1.17,0,0,1,.86-1.42,1.14,1.14,0,1,1,.61,2.2A1.18,1.18,0,0,1,133.45,74.45Z"/><path d="M150.08,68.67a1.21,1.21,0,1,1,1.47.78A1.18,1.18,0,0,1,150.08,68.67Z"/><path d="M174.51,182.71a.48.48,0,0,1-.49-.48.49.49,0,0,1,.48-.5l1.36,0a73.23,73.23,0,0,1-.46-10.86c0-3.52,0-7.16-.3-11a.48.48,0,0,1,.44-.53.49.49,0,0,1,.53.45c.33,3.88.32,7.54.31,11.08a68.7,68.7,0,0,0,.53,11.26.46.46,0,0,1-.1.39.49.49,0,0,1-.37.18l-1.92,0Z"/><path d="M56.51,2.39V222.26H242.74V2.39ZM228.15,179.7H70.06V25.17H228.15Z" style="fill:#fff"/><path d="M242.74,222.75H56.51a.49.49,0,0,1-.49-.49V2.39a.49.49,0,0,1,.49-.49H242.74a.49.49,0,0,1,.49.49V222.26A.49.49,0,0,1,242.74,222.75ZM57,221.77H242.25V2.88H57Zm171.16-41.58H70.06a.49.49,0,0,1-.49-.49V25.17a.49.49,0,0,1,.49-.49h158.1a.49.49,0,0,1,.49.49V179.7A.49.49,0,0,1,228.16,180.19Zm-157.61-1H227.66V25.66H70.55Z"/><path d="M147.79,80.79a.47.47,0,0,1-.35-.15.49.49,0,0,1,0-.69l1.26-1.2.12-.12-.19-.12A7.52,7.52,0,0,1,145,73a.49.49,0,1,1,1-.12,6.57,6.57,0,0,0,3.19,4.78,1.19,1.19,0,0,1,.7.92,1.21,1.21,0,0,1-.45.87l-1.26,1.2A.5.5,0,0,1,147.79,80.79Zm1.08-2.11h0Z"/><path d="M143.67,184.09a38.5,38.5,0,0,1,9.32,1.16,12.08,12.08,0,0,1,3.06,1.13,9.42,9.42,0,0,1,4,5.55,6.47,6.47,0,0,0,.6,1.55,1.66,1.66,0,0,0,1.34.86c.56,0,1.11-.52.9-1a10.33,10.33,0,0,1,.71,1.41,1.83,1.83,0,0,0,1.14,1c.92.17,1.64-.8,1.9-1.69a10.33,10.33,0,0,0,0-4.66,22.86,22.86,0,0,0-2-6.3,6.55,6.55,0,0,1,3.6,4.41c.57,1.88.68,3.87,1.13,5.79.17.72.61,1.59,1.35,1.52.58-.06.91-.68,1.08-1.24.81-2.66.29-5.52-.23-8.25a23.94,23.94,0,0,1,3.73,5.31,3.31,3.31,0,0,0,.81,1,1.15,1.15,0,0,0,1.23.12,1.55,1.55,0,0,0,.53-1.38c0-3.3-2-6.26-4.21-8.71a27.11,27.11,0,0,0-6.59-5.48A16.42,16.42,0,0,0,159,174l-9.6-1.29a2.78,2.78,0,0,0-1.67.11,2.53,2.53,0,0,0-.79.74A15,15,0,0,0,143.67,184.09Z" style="fill:#fff"/><path d="M139,72.21a.54.54,0,0,1-.21,0,.49.49,0,0,1-.23-.66,5.87,5.87,0,0,1,4.3-3.09,2.58,2.58,0,0,1,2.89,1.21.48.48,0,0,1-.27.63.49.49,0,0,1-.64-.27c-.22-.54-1.09-.71-1.84-.6a4.83,4.83,0,0,0-3.56,2.56A.49.49,0,0,1,139,72.21Z"/><path d="M121.48,79.26A.48.48,0,0,1,121,79a.5.5,0,0,1,.24-.65l5.09-2.3a.49.49,0,0,1,.4.9l-5.08,2.29A.51.51,0,0,1,121.48,79.26Z"/><path d="M161.92,194.93c-.92,0-1.68-.77-2.16-2.2l-.08-.24a11.93,11.93,0,0,0-2.11-4.32,9.43,9.43,0,0,0-4.64-2.55,31.44,31.44,0,0,0-6.83-.78c-.61,0-1.13,0-1.51-.07a.48.48,0,0,1-.44-.53.49.49,0,0,1,.53-.45c.35,0,.86.05,1.45.07a32.65,32.65,0,0,1,7.05.81,10.39,10.39,0,0,1,5.12,2.85,12.58,12.58,0,0,1,2.31,4.66l.08.24c.17.48.62,1.59,1.29,1.53a.61.61,0,0,0,.43-.24,2.69,2.69,0,0,0,.32-1.82,18.12,18.12,0,0,0-2.3-6.74.5.5,0,0,1,.18-.67.48.48,0,0,1,.67.18,19.07,19.07,0,0,1,2.42,7.1,3.65,3.65,0,0,1-.53,2.57,1.57,1.57,0,0,1-1.1.6Z"/><path d="M165.31,196.29a1.94,1.94,0,0,1-1.14-.4,5.46,5.46,0,0,1-1.41-3.4.49.49,0,0,1,1-.14,4.7,4.7,0,0,0,1,2.76.79.79,0,0,0,.81.13c.24-.15.33-.55.39-.91a18.31,18.31,0,0,0-1.62-11.06.49.49,0,0,1,.67-.64,8.89,8.89,0,0,1,3.84,4.55,20.51,20.51,0,0,1,1.24,5.73,2.78,2.78,0,0,0,.22,1c.12.21.33.36.49.33s.39-.33.53-.82a12.53,12.53,0,0,0-2.54-11.72.5.5,0,0,1,.05-.69.49.49,0,0,1,.69,0,13.5,13.5,0,0,1,2.74,12.63c-.25.91-.69,1.42-1.31,1.52a1.49,1.49,0,0,1-1.51-.81,3.47,3.47,0,0,1-.33-1.36,20.11,20.11,0,0,0-1.17-5.47,8.84,8.84,0,0,0-2-3,18.94,18.94,0,0,1,1,10,2.17,2.17,0,0,1-.83,1.56A1.45,1.45,0,0,1,165.31,196.29Z"/><path d="M177,192.58h-.14a1.6,1.6,0,0,1-1.08-.8l0,0-1.19-1.68a47,47,0,0,0-3.39-4.46.49.49,0,0,1,.74-.65,49.09,49.09,0,0,1,3.45,4.54l1.19,1.68.05.07c.06.1.22.35.37.37a.64.64,0,0,0,.4-.21,2.81,2.81,0,0,0,.21-1.55c-.8-4.57-4-8-8.46-11.83a14.38,14.38,0,0,0-4.25-2.61,20.81,20.81,0,0,0-4.71-.94c-1.8-.22-3.64-.39-5.43-.55s-3.65-.34-5.47-.56a.49.49,0,0,1,.12-1c1.8.22,3.65.39,5.44.56s3.65.33,5.46.56a21.67,21.67,0,0,1,4.93,1,15.41,15.41,0,0,1,4.54,2.78c4.67,3.94,7.95,7.55,8.8,12.41a3.35,3.35,0,0,1-.52,2.44A1.56,1.56,0,0,1,177,192.58Z"/><path d="M173,163a.49.49,0,0,1-.39-.78c2.88-3.78,5.76-7.66,8.54-11.51a2.86,2.86,0,0,0,.68-1.38,2.92,2.92,0,0,0-.31-1.19L173.6,129a.49.49,0,0,1,.27-.64.48.48,0,0,1,.64.26l7.91,19.16a2.89,2.89,0,0,1-.47,3.52c-2.79,3.87-5.67,7.74-8.56,11.53A.49.49,0,0,1,173,163Z"/><path d="M145.45,170.33c-4.1-.39-8.2-.69-12.3-1.06-2-.17-4-.41-6-.55l-2.62-.19c0,.16,0,.34,0,.51-2.85-.12-5.87-.23-9.13-.33.3-1.47.7-3.2,1.15-5.06l-3.13,0c-6.59,0-13.19,0-19.78.2-.79,3.29-1.5,6.32-2.07,8.8-.8,3.45-1.58,7.16-.3,10.46a6,6,0,0,0,2.34,3c1.47.89,3.3.85,5,.8,15.28-.49,30.58-.24,46.15.28a13.62,13.62,0,0,1,.42-5.53,29.06,29.06,0,0,1,1.88-4.81,17.81,17.81,0,0,1,2.85-4c.62-.68,1.27-1.31,1.94-1.93Z" style="fill:#fff"/><path d="M145.06,187.68h0c-18.75-.63-33-.72-46.32-.3-1.63.06-3.66.12-5.28-.86a6.51,6.51,0,0,1-2.55-3.25c-1.38-3.56-.46-7.55.28-10.75,1.85-8,6.76-29.27,11.17-39.38,2.27-5.19,4.5-8.78,7.22-11.63,6.45-6.74,15.56-9.31,25.94-11.75a.47.47,0,0,1,.38.07.49.49,0,0,1,.22.32c.37,2.15,2.73,3.4,4.82,3.86a10.26,10.26,0,0,0,6-.33,7.82,7.82,0,0,0,4.27-5,.5.5,0,0,1,.42-.34c6.82-.61,11.6-.67,15.07-.16,5.27.76,9.71,5.07,11.38,6.89a116.32,116.32,0,0,1,8.27,10.36c1.88,2.56,3.83,5.21,6.28,8.2A109.37,109.37,0,0,0,200.33,92a.49.49,0,0,1,.41-.49.48.48,0,0,1,.54.33c.28.85,2.57,1.76,7,1.73,5.39,0,11.4-1.44,12.15-3.8a.51.51,0,0,1,.56-.33.5.5,0,0,1,.4.52c-1.17,17.56-2.39,35.73-7.84,52.86-1.49,4.69-3.72,10.69-7.79,15.43s-9.89,7.7-15.31,7.54c-5.7-.16-9.69-1.72-13.2-9.22a.5.5,0,0,1,.24-.65.49.49,0,0,1,.65.24c3.31,7.07,6.89,8.5,12.34,8.65,5.12.14,10.55-2.55,14.54-7.2s6.14-10.48,7.6-15.08c5.24-16.47,6.54-34,7.68-50.94-2.45,2.12-8.14,3-12,3-1.68,0-5.16-.13-6.92-1.26a111,111,0,0,1-8.14,41.48.49.49,0,0,1-.83.14c-2.73-3.28-4.83-6.13-6.85-8.89a115.15,115.15,0,0,0-8.2-10.28c-1.6-1.74-5.84-5.86-10.81-6.58-3.33-.49-8-.44-14.52.14a8.6,8.6,0,0,1-4.71,5.31,10.92,10.92,0,0,1-6.54.38c-2.25-.49-4.78-1.82-5.47-4.13-10,2.37-18.82,4.91-25,11.35-2.64,2.77-4.81,6.27-7,11.35-4.38,10-9.27,31.23-11.11,39.21-.71,3.07-1.59,6.89-.32,10.17a5.58,5.58,0,0,0,2.13,2.77c1.38.83,3.17.78,4.75.73,13.14-.43,27.24-.34,45.66.27-.61-2.24.16-5.86,1.24-8.52l.09-.22c.91-2.26,2-5,4.67-6.42-11.28-1.38-20.15-1.85-34.89-2.32a.5.5,0,0,1-.37-.19.48.48,0,0,1-.09-.4c.67-3.24,1.75-7.59,2.89-12.19,1.44-5.81,2.93-11.81,3.62-15.69a.5.5,0,0,1,.51-.4.49.49,0,0,1,.46.45c.43,5.09.87,9.53,1.29,13.82s.86,8.74,1.29,13.85a.37.37,0,0,1,0,.11c10.24.43,17.82,1,27.36,2.23a.48.48,0,0,1,.43.46.49.49,0,0,1-.37.5c-3.59.87-4.81,3.89-5.89,6.56l-.08.22c-1.17,2.87-1.88,6.69-1,8.44a.51.51,0,0,1,0,.48A.48.48,0,0,1,145.06,187.68Zm-29-19.44c2.87.09,5.51.18,8,.28-.43-5.09-.86-9.53-1.29-13.82-.32-3.31-.66-6.72-1-10.44-.78,3.6-1.88,8.05-3,12.4S116.75,165.08,116.08,168.24Z"/><path d="M153.28,173.63h-.07a.49.49,0,0,1-.41-.56,1.63,1.63,0,0,0-.28-1.15.45.45,0,0,0-.24-.19.48.48,0,0,1-.59-.34.49.49,0,0,1,.34-.61,1.23,1.23,0,0,1,1.28.57,2.57,2.57,0,0,1,.46,1.86A.49.49,0,0,1,153.28,173.63Z"/><path d="M146,188a1.6,1.6,0,0,1-1.53-.91.49.49,0,0,1,.91-.37c.09.22.44.32.73.29a3.07,3.07,0,0,0,1.65-1,16.93,16.93,0,0,0,1.48-1.68.49.49,0,0,1,.68-.09.48.48,0,0,1,.09.69,16.43,16.43,0,0,1-1.56,1.78,3.93,3.93,0,0,1-2.24,1.3Z"/><path d="M200.77,92.35a.5.5,0,0,1-.49-.44,1.38,1.38,0,0,1,.31-1,2.5,2.5,0,0,1,.63-.53,7.67,7.67,0,0,1,3.27-.89A.48.48,0,0,1,205,90a.49.49,0,0,1-.44.54,6.84,6.84,0,0,0-2.83.74,1.72,1.72,0,0,0-.39.31.39.39,0,0,0-.1.26.5.5,0,0,1-.44.54Z"/><path d="M220.82,90.52h0a.5.5,0,0,1-.48-.51.2.2,0,0,0-.08-.12,1,1,0,0,0-.36-.17,3.83,3.83,0,0,0-1.3-.19.49.49,0,0,1,0-1,5,5,0,0,1,1.63.23,2.09,2.09,0,0,1,.69.36,1.14,1.14,0,0,1,.43.9A.49.49,0,0,1,220.82,90.52Z"/><path d="M141.67,119a9.63,9.63,0,0,1-8.29-4.91.49.49,0,1,1,.86-.47,8.62,8.62,0,0,0,8.09,4.37.48.48,0,0,1,.53.44.49.49,0,0,1-.45.53C142.17,119,141.92,119,141.67,119Z"/><path d="M133.77,119.44a.57.57,0,0,1-.18,0,5,5,0,0,1-3.05-3.67.49.49,0,0,1,1-.18,4,4,0,0,0,2.43,2.93.5.5,0,0,1,.29.64A.51.51,0,0,1,133.77,119.44Z"/><path d="M111.22,54.07l-.15,0a.49.49,0,0,1-.32-.62,11.18,11.18,0,0,1,2.9-4.57,27.32,27.32,0,0,1,4.22-3.25.5.5,0,0,1,.68.15.49.49,0,0,1-.15.68,25.45,25.45,0,0,0-4.05,3.12,10.21,10.21,0,0,0-2.67,4.16A.48.48,0,0,1,111.22,54.07Z"/><path d="M190.51,138.64a.48.48,0,0,1-.38-.79,15.66,15.66,0,0,0,2.57-4.56.48.48,0,0,1,.62-.3.49.49,0,0,1,.3.63,16.39,16.39,0,0,1-2.72,4.83A.47.47,0,0,1,190.51,138.64Z"/><path d="M109.89,169.64a.48.48,0,0,1-.48-.42.5.5,0,0,1,.41-.56,37.57,37.57,0,0,1,7.32-.39.49.49,0,0,1,.47.51.48.48,0,0,1-.5.47,36.55,36.55,0,0,0-7.14.38Z"/><path d="M122.07,83.46a.49.49,0,0,1-.45-.3,11.62,11.62,0,0,1-.94-4.58.49.49,0,0,1,.49-.49h0a.49.49,0,0,1,.49.49,10.58,10.58,0,0,0,.86,4.19.49.49,0,0,1-.25.65A.71.71,0,0,1,122.07,83.46Z"/><g style="opacity:0.129412"><path d="M124.37,42.23a2.41,2.41,0,0,0-1.18.21,16.37,16.37,0,0,0-1.79.73,22.81,22.81,0,0,0-8.66,7.14c-.6.8-1.1,1.66-1.64,2.5a3.94,3.94,0,0,0-.72,1.67,1.43,1.43,0,0,0,2.73.64,22.29,22.29,0,0,1,5.35-6.72,15.5,15.5,0,0,1,4.16-2.65c.53-.27,1.06-.51,1.61-.73a1.74,1.74,0,0,0,1.17-.87A1.38,1.38,0,0,0,124.37,42.23Z"/></g><g style="opacity:0.129412"><path d="M150.79,57.63a1.06,1.06,0,0,0-1.18-.11c-.14,0-.81.39-1,.48-1.05.52-2.08,1.09-3.17,1.54a62.53,62.53,0,0,1-6.33,2.36A43.42,43.42,0,0,1,131,63.62a26.43,26.43,0,0,1-8.22-.52c-.52-.07-1.12-.34-1.6,0a.85.85,0,0,0,.36,1.51c3.42.63,6.9,1.25,10.38.78a49.4,49.4,0,0,0,6-1.06c1.56-.43,3.09-1,4.63-1.53A70,70,0,0,0,149.43,60c.37-.17.71-.36,1.06-.55A1.34,1.34,0,0,0,151,59,1,1,0,0,0,150.79,57.63Z"/></g><g style="opacity:0.129412"><path d="M149.9,104.48c-.11-.42-.24-.84-.35-1.25a15.43,15.43,0,0,1-.67-2.39c-.2-.76-.41-1.51-.62-2.27a.35.35,0,0,1,0-.23l-.06-.17a.3.3,0,0,1,.12-.38c-.53-.38-1.21.14-1.78.4a7.67,7.67,0,0,1-1.74.59c-.71.19-3,.3-3.63.44a.78.78,0,0,0-.48.38l-1.17-.51-.77-.34c-.61,0-1.21,0-1.81-.07v.21a1.27,1.27,0,0,1,0,.28,1.46,1.46,0,0,1-.05.2c-.08.24-.17.48-.24.73a.74.74,0,0,0,.17.12c2.26,1.15,4.58,2.18,6.8,3.4,1.1.61,2.22,1.21,3.34,1.81a7.24,7.24,0,0,0,1.49.63h.08l.12,0,.18,0h0a.8.8,0,0,0,.31,0,1,1,0,0,0,.75-.75.64.64,0,0,0,.15-.25Z"/></g><g style="opacity:0.129412"><path d="M198.76,161.91c-.48-.06-.36.05-.67.13a11.06,11.06,0,0,1-4.3.55,15.84,15.84,0,0,1-6-1.32,10.36,10.36,0,0,1-.94-.52c-.19-.1-.89-.62-1.08-.76a9,9,0,0,1-1.48-1.41v0a28.9,28.9,0,0,1-2.34-4.44l0-.13a4.57,4.57,0,0,0-.45-1.06,1.1,1.1,0,0,0-.42-.36l-.37.41a.39.39,0,0,1-.13.22l-.44.42c-.8.94-1.53,1.93-2.23,2.94a.87.87,0,0,0,.12.34,16.61,16.61,0,0,0,1.29,1.82c1.06,2.33,2.56,4.53,5.1,5.26a32.9,32.9,0,0,0,5.23.92,24.18,24.18,0,0,0,3.18-.15c.79,0,1.58-.06,2.37,0a4.93,4.93,0,0,0,1.44-.11,1,1,0,0,0,.59-.93,8.88,8.88,0,0,0,1.14-.36c.26-.13.61-.18.8-.42A.64.64,0,0,0,198.76,161.91Z"/></g><g style="opacity:0.129412"><path d="M220.81,89.85a.85.85,0,0,0-.59-.59l-.17,0a.71.71,0,0,0-1.17-.29,9.92,9.92,0,0,1-1,1.14l-.29.27a20,20,0,0,1-2,.63,14.89,14.89,0,0,1-2.75.8c-1.07.17-1.17.16-2.49.3a43.73,43.73,0,0,1-4.94.78c-2,.51.62-3.33-1.07-3a7.35,7.35,0,0,0-2.29.6,1.82,1.82,0,0,0-.66.57s0,.07,0,.1h-.1a.81.81,0,0,0-.3,1.5,13,13,0,0,0,5.7,1.49c.67,0,1.35-.11,2-.1s1.3,0,1.94,0c1.35-.15,2.68-.41,4-.68h.06l-.15,0,.16,0h0a9.43,9.43,0,0,0,1.83-.37c1.72-.6,3.52-1.3,4-2.1a2.21,2.21,0,0,0,.23-.36h0A.82.82,0,0,0,220.81,89.85Z"/></g><g style="opacity:0.129412"><path d="M214.26,76.2h0C214.41,76.08,214.47,76,214.26,76.2Z"/></g><g style="opacity:0.129412"><path d="M207.73,79.16l-.15,0Z"/></g><g style="opacity:0.129412"><path d="M207.83,79.17h0Z"/></g><path d="M196.08,66.58A142.6,142.6,0,0,1,209.15,83.3c2.08,3.12,4.27,6.51,7.76,7.88a4.46,4.46,0,0,0,2.38.35A3.81,3.81,0,0,0,222,89.29a7.2,7.2,0,0,0,.47-3.56,6,6,0,0,0-2.38-4.66c-2-1.57-1.24-2.33-1.64-4-1.15-4.82-8.23-4.82-11.06-9a11.1,11.1,0,0,0,2-1.62,3.72,3.72,0,0,0,1-2.29c.05-1.3-.8-2.45-1.53-3.57A133.25,133.25,0,0,1,237.47,54c-2.13-4.15-3.85-8.5-5.57-12.84-2.33-5.88-4.66-11.77-7.18-17.34-6.13,6.17-13.59,10.84-21,15.45a148.8,148.8,0,0,1-15.58,8.87c-2.89,1.34-6.13,2.75-7.43,5.67a8.22,8.22,0,0,0,0,5.9A23,23,0,0,0,183.57,65c.92,1.38,2,2.86,3.75,3.28A20.36,20.36,0,0,0,196.08,66.58Z" style="fill:#fff"/><path d="M235.94,28.67a85.61,85.61,0,0,0,5.78,14.22,4.52,4.52,0,0,0,3.19-2.82,12,12,0,0,0,.68-4.37,5.86,5.86,0,0,0-.16-1.82,5.61,5.61,0,0,0-.74-1.44,10.59,10.59,0,0,0-2.63-3A7,7,0,0,0,235.94,28.67Z" style="fill:#fff"/><path d="M237.22,54.52c-4.14-10.43-8.28-20.85-12.42-31.45a21.33,21.33,0,0,0,5.26-7.78s16.73,40.16,16.74,40A18.55,18.55,0,0,0,237.22,54.52Z" style="fill:#91a7ff"/><path d="M203.28,63.15a.49.49,0,0,1-.45-.28A160.22,160.22,0,0,1,195.54,44a.49.49,0,0,1,.2-.57c2-1.28,4.15-2.57,6.2-3.82,11.8-7.21,24-14.66,27.62-25a.51.51,0,0,1,.45-.33.49.49,0,0,1,.47.3l17,40.64a.5.5,0,0,1-.27.64.51.51,0,0,1-.3,0,.48.48,0,0,1-.45,0c-11.66-4.57-42.67,7.07-43,7.19A.51.51,0,0,1,203.28,63.15Zm-6.7-19.09a160.17,160.17,0,0,0,6.95,18c3.9-1.44,30.95-11.16,42.68-7.23L230,16.09C225.86,26.15,214,33.41,202.45,40.45,200.51,41.63,198.51,42.85,196.58,44.06Z"/><path d="M237,54.18a.49.49,0,0,1-.45-.3l-12-29.74a.49.49,0,1,1,.91-.37l12,29.74a.49.49,0,0,1-.27.64A.58.58,0,0,1,237,54.18Z"/><path d="M242.18,43.54a.5.5,0,0,1-.41-.22.49.49,0,0,1,.15-.68A7.56,7.56,0,0,0,244,32.15,8,8,0,0,0,242,30.09c-1.42-1-3.58-1.71-5.39-.77a.49.49,0,0,1-.66-.21.48.48,0,0,1,.21-.66c2.2-1.14,4.75-.31,6.4.84a8.89,8.89,0,0,1,2.3,2.32,8.52,8.52,0,0,1-2.36,11.85A.43.43,0,0,1,242.18,43.54Z"/><path d="M188.94,69a5.68,5.68,0,0,1-2.41-.51c-1.94-.88-3.09-2.79-4.2-4.83A20.45,20.45,0,0,1,180,58.07,7.49,7.49,0,0,1,181.1,52a10.2,10.2,0,0,1,3.48-2.59c3.63-2,7.23-3.85,11.49-5.83a.5.5,0,0,1,.65.24.48.48,0,0,1-.24.65c-4.23,2-7.82,3.87-11.44,5.8a9.59,9.59,0,0,0-3.16,2.33,6.54,6.54,0,0,0-.93,5.3,20.08,20.08,0,0,0,2.24,5.32c1,1.88,2.09,3.64,3.75,4.4,2.25,1,4.89,0,7.4-1.18,1.57-.73,3-1.43,4.4-2.1s2.83-1.38,4.42-2.12a.5.5,0,0,1,.65.24.49.49,0,0,1-.24.65c-1.57.74-3,1.43-4.4,2.11s-2.84,1.37-4.42,2.11A14.47,14.47,0,0,1,188.94,69Z"/><path d="M218.36,92.35c-2.57,0-4.79-2.06-5.72-3.06a41.05,41.05,0,0,1-4.55-6.37l-.93-1.49a88.74,88.74,0,0,0-11.51-14.49.49.49,0,0,1,.69-.69A89.64,89.64,0,0,1,208,80.9c.32.5.63,1,.94,1.5a40.35,40.35,0,0,0,4.44,6.22c1,1,3.52,3.41,6.13,2.57,2.35-.75,3.35-3.93,2.68-6.27-.6-2.09-2-3.21-4-4.75L217,79.24l-.11-.09a63.39,63.39,0,0,1-9.32-9.54,25.35,25.35,0,0,1-2.43-4.29c-.45-.92-.92-1.87-1.39-2.71a.49.49,0,1,1,.86-.48c.48.86,1,1.83,1.41,2.76a24.66,24.66,0,0,0,2.32,4.1,62.42,62.42,0,0,0,9.16,9.4l.12.09c.4.33.78.63,1.15.91,2.05,1.6,3.66,2.86,4.35,5.26.8,2.78-.37,6.53-3.32,7.47A4.5,4.5,0,0,1,218.36,92.35Z"/><path d="M207.69,68.63a.49.49,0,0,1-.34-.84l1.72-1.68a4.1,4.1,0,0,0,.59-.68,2.39,2.39,0,0,0,.08-2.09,7.77,7.77,0,0,0-1.29-2.05.49.49,0,0,1,.78-.6A8.92,8.92,0,0,1,210.66,63a3.4,3.4,0,0,1-.16,2.94,4.32,4.32,0,0,1-.75.87L208,68.49A.52.52,0,0,1,207.69,68.63Z"/><path d="M184.9,55.55a.49.49,0,0,1-.23-.93,105.68,105.68,0,0,1,9.74-4.47.48.48,0,0,1,.63.27.49.49,0,0,1-.27.64,101,101,0,0,0-9.64,4.43A.49.49,0,0,1,184.9,55.55Z"/><path d="M186.78,59.54a.49.49,0,0,1-.45-.29.48.48,0,0,1,.26-.64c3.23-1.42,6.55-2.8,9.84-4.09a.49.49,0,1,1,.36.92c-3.29,1.28-6.59,2.65-9.81,4.06A.48.48,0,0,1,186.78,59.54Z"/><path d="M188.64,63.89a.49.49,0,0,1-.22-.93,93.21,93.21,0,0,1,9.86-4.24.49.49,0,0,1,.33.92,95.3,95.3,0,0,0-9.76,4.2A.54.54,0,0,1,188.64,63.89Z"/><path d="M245.4,27.26a.51.51,0,0,1-.36-.15.5.5,0,0,1,0-.69,19.41,19.41,0,0,0,5.74-10.7.48.48,0,0,1,.57-.4.49.49,0,0,1,.39.57,20.36,20.36,0,0,1-6,11.24A.5.5,0,0,1,245.4,27.26Z"/><path d="M248.45,31.31a.49.49,0,0,1-.27-.9,40.52,40.52,0,0,1,7.49-3.86.49.49,0,1,1,.35.91,39.43,39.43,0,0,0-7.3,3.77A.56.56,0,0,1,248.45,31.31Z"/><path d="M261.52,38.26a.42.42,0,0,1-.22,0,22.77,22.77,0,0,0-11.12-2.27.49.49,0,0,1-.52-.46.5.5,0,0,1,.46-.52,23.79,23.79,0,0,1,11.61,2.37.49.49,0,0,1-.21.93Z"/><path d="M232.16,52.2a.18.18,0,0,1-.15-.08l-3.51-6.66a.16.16,0,0,1,.29-.15L232.3,52a.17.17,0,0,1-.06.23Z"/><path d="M229.1,53.05A.17.17,0,0,1,229,53l-1.79-3.33a.16.16,0,0,1,.29-.15l1.79,3.33a.17.17,0,0,1-.07.22Z"/><path d="M225.69,54.31a.16.16,0,0,1-.14-.08l-1.36-2.5a.15.15,0,0,1,.06-.22.16.16,0,0,1,.22.07l1.36,2.49a.15.15,0,0,1-.06.22A.12.12,0,0,1,225.69,54.31Z"/><path d="M221.92,55.09a.16.16,0,0,1-.15-.09l-1-1.92a.16.16,0,0,1,.07-.22.16.16,0,0,1,.22.07l1,1.93a.17.17,0,0,1-.07.22Z"/><g style="opacity:0.129412"><path d="M245.86,36.4a.85.85,0,0,0-1.35-.39c-.26.22-.29.57-.43.85a7.79,7.79,0,0,1-1.88,2.8c-.75.74-.57.31-1.26,1a1.12,1.12,0,0,0,1.65,1.48c1.73-1.18,2.16-2.4,2.91-3.88a4.83,4.83,0,0,0,.37-1.35A.77.77,0,0,0,245.86,36.4Z"/></g><g style="opacity:0.129412"><path d="M245.54,52.46c-1.53-.62-3.22-.46-4.83-.63a57.34,57.34,0,0,0-11.18.69,47.85,47.85,0,0,1-4.93.66,29.4,29.4,0,0,0-4.16.92c-4.09,1.12-8.29,1.84-12.28,3.29A92.53,92.53,0,0,0,196,63c-2.59,1.35-4.19,2.3-6.59,2.67a10.1,10.1,0,0,1-3.28-.11,1.19,1.19,0,0,0-1.45.52,1,1,0,0,0,.82,1.5,18.48,18.48,0,0,0,3.7.48c2.81-.06,5.24-1.62,7.72-2.77l.75-.34c-.37.21-.73.43-1.09.66a1.25,1.25,0,0,0-.7,1.82A1.1,1.1,0,0,0,197,68a.92.92,0,0,0,1,.1,11.06,11.06,0,0,1,2-.86,5.09,5.09,0,0,1,1.63-.33c.1,0,.35,0,.52,0a2.34,2.34,0,0,1,1,.42c.19.13.37.27.54.41.82.84,1.68,1.63,2.5,2.47a14.13,14.13,0,0,0,1.32,1.36,8.92,8.92,0,0,1,.81.65l.15.16c.34.32.69.61,1.06.9s1,.89,1.42,1.26c0,0,.74.67,1.21,1.06s.89.67,1.35.32a.84.84,0,0,0,.39-.78c-.11-.09-.21-.17-.3-.26-.45-.4-.9-.8-1.33-1.21a30.76,30.76,0,0,1-6.51-8.51.42.42,0,0,1,.1-.53c-.16-.26-.28-.45-.43-.67a11.89,11.89,0,0,1,3-.75h0a1.14,1.14,0,1,0-.21-2h0l-.14,0a9.49,9.49,0,0,0-1.06.22c1.17-.46,2.21-.85,2.58-1,3.33-1,5.89-1.77,9.65-2.65,2.39-.58,3.21-1,5.16-1.48,2.68-.48,5.34-1.12,8-1.43.85-.11,1.71-.24,2.57-.29a5,5,0,0,0,1.1-.1.76.76,0,0,0,.51-.43l0-.06a31.91,31.91,0,0,1,5.16,0,9.1,9.1,0,0,1,3.44.54l.12,0a.18.18,0,0,0,.07.05,1,1,0,0,0,1.26-.31C247.32,53.38,246.36,52.78,245.54,52.46ZM204.27,62.69l-.21-.11.32-.12A1,1,0,0,0,204.27,62.69Z"/></g><g style="opacity:0.129412"><path d="M153.71,172.2a1.26,1.26,0,0,0-1-.48,10.6,10.6,0,0,0-1.95-.06,1.23,1.23,0,0,0-.9.3,1,1,0,0,0-.24,1,7.48,7.48,0,0,0-.87.82,16.47,16.47,0,0,0-3.13,5.33,19.45,19.45,0,0,0-.69,2.89,8.49,8.49,0,0,0,.05,4.7c.76,1.25,2.12.62,3-.14.14-.1.28-.2.41-.31.5-.35.87-.86.54-1.46a1,1,0,0,0-1.11-.44c-.39,0-.83,0-1.11.29a1.26,1.26,0,0,0-.19.28v-.14a7.71,7.71,0,0,1,.31-2.66,14.71,14.71,0,0,1,1.71-4.68,11.69,11.69,0,0,1,2.2-3c.64-.53.33-.36,1-.64.27-.11.58-.15.85-.27l.44,0h0A.83.83,0,0,0,153.71,172.2Z"/></g><g style="opacity:0.129412"><path d="M119.49,148.42c-.7,0-.76.79-.93,1.3-.3,1.05-.55,2.12-.86,3.17a51.23,51.23,0,0,1-2.63,7.16c-.25.7-1.88,3.93-2.74,5.49-.25.47-.5,1-.78,1.41a2.14,2.14,0,0,0-.43,1,1.35,1.35,0,0,0,.2,1,16.59,16.59,0,0,1,3.15-.24,1.19,1.19,0,0,0,.18-.15,7.78,7.78,0,0,0,2.17-4.37c.1-.43.18-.86.27-1.29a.94.94,0,0,0,0-.77.75.75,0,0,0-.28-.28c.73-2.13,1.43-4.28,2.13-6.42a43.47,43.47,0,0,0,1-4.79,7.9,7.9,0,0,0,.25-1.52A.71.71,0,0,0,119.49,148.42Z"/></g><g style="opacity:0.129412"><path d="M156.12,186.64a14,14,0,0,0-4.4-1.56l.15,0a2.84,2.84,0,0,0-.58,0,2.58,2.58,0,0,0-1.41.38c-.84.66-1.79,1.85-2,1.89h0a2.53,2.53,0,0,1-.36.2,5.64,5.64,0,0,1-.78.21,26.3,26.3,0,0,1-4-.25c-1.39-.15-2.79-.15-4.18-.25-1.56-.1-3.12-.27-4.69-.41-2.8-.32-5.62-.23-8.44-.37-2.23-.16-4.46,0-6.69-.07-3.84,0-7.81.16-11.64.4-2.57.22-8.15.44-10.37-.27-.6-.11-1.22-.6-1.82-.28a.84.84,0,0,0,.2,1.52,20.58,20.58,0,0,0,5.42,1.22,39.49,39.49,0,0,0,6.88.13c2.17-.16,4.35-.13,6.52-.25a60.56,60.56,0,0,1,7,0c1.39,0,2.79,0,4.19.05,2,.1,4,.05,5.92.11,2.72.17,5.43.48,8.15.62,1.31.05,2.63.07,3.94.22a11,11,0,0,0,5.29-.36A7.23,7.23,0,0,0,151,187.4h.08a11.11,11.11,0,0,1,1.63.37,12,12,0,0,1,5.56,3,2.74,2.74,0,0,1,.72.94,1.19,1.19,0,0,0,.43.62,1.1,1.1,0,0,0,1.77-.87C160.9,189.47,157.82,187.52,156.12,186.64Z"/></g><path d="M219.47,80.33c.36-.62.39,0,.59-.72A3.18,3.18,0,0,0,220,77.5a2,2,0,0,0-1.65-1.22,3.12,3.12,0,0,0-2.2,1.3,19,19,0,0,0-2.72,3.59c-.27.49-.49,1.15-.11,1.56a1.12,1.12,0,0,0,.81.3,2.93,2.93,0,0,0,2.29-1c.25-.27.44-.6.7-.86a3.18,3.18,0,0,0,.82-.94C218.32,79.27,218.31,78.58,219.47,80.33Z" style="fill:#fff"/><path d="M217.33,77.47a8.84,8.84,0,0,0,.92-1.94,3.21,3.21,0,0,0-.05-2.12,1.93,1.93,0,0,0-1.64-1.21,3.1,3.1,0,0,0-2.2,1.3,19.11,19.11,0,0,0-2.73,3.59c-.27.48-.49,1.14-.11,1.56a1.23,1.23,0,0,0,.81.3c.86,0,1.64.3,2.21-.34C214.79,78.34,217.24,76.12,217.33,77.47Z" style="fill:#fff"/><path d="M215.37,74.09a8.8,8.8,0,0,0,.91-1.94,3.15,3.15,0,0,0-.05-2.12,1.93,1.93,0,0,0-1.64-1.21,3.12,3.12,0,0,0-2.2,1.3,19,19,0,0,0-2.72,3.59c-.27.49-.49,1.15-.11,1.56.2.22.51,1,.81,1,.85,0,1.72-1,2.29-1.67C212.9,74.33,215.28,72.74,215.37,74.09Z" style="fill:#fff"/><path d="M214.59,68.82c.72,0,0-2.62-.26-3.28a2,2,0,0,0-1.65-1.21,3.12,3.12,0,0,0-2.2,1.3,19,19,0,0,0-2.72,3.59c-.27.49-.49,1.15-.11,1.56.2.22-.36,3-.07,3a3.3,3.3,0,0,0,2.47-1C210.3,72.61,212.68,68.82,214.59,68.82Z" style="fill:#fff"/><path d="M205.66,71.91c1.15-1.45,3.81-4.61,2.3-5.45-.77-.43-2.62.49-3.21,1.14-1,1.11-3.09,2.14-3.82,3.46-.28.49-1.32,3.29-.94,3.7.2.22,0,2.86.31,2.88.85,0,4.35,1,4.92.37C205.47,77.73,203.25,75,205.66,71.91Z" style="fill:#fff"/><path d="M214.15,83.88a1.84,1.84,0,0,1-.33,0,1.52,1.52,0,0,1-1.24-1c-.54-1.56,1.74-4.36,2.45-5.18a5.12,5.12,0,0,1,3.09-2.08,2.44,2.44,0,0,1,2.57,1.85,4.64,4.64,0,0,1-.7,3.25l0,.06a.48.48,0,0,1-.65.22.48.48,0,0,1-.23-.65l0-.06a3.9,3.9,0,0,0,.63-2.55,1.49,1.49,0,0,0-1.51-1.15,4.34,4.34,0,0,0-2.46,1.75c-1.32,1.53-2.52,3.46-2.26,4.21,0,.07.08.24.5.32,1.18.22,2.87-2.32,3.6-3.41l.24-.36a.48.48,0,0,1,.68-.12.49.49,0,0,1,.13.68l-.24.34C217.51,81.39,215.85,83.88,214.15,83.88Z"/><path d="M209.81,78.5a1.08,1.08,0,0,1-.8-.32c-.55-.55-.78-2.51.08-4.46s2.66-4.46,4.43-5.11a2.64,2.64,0,0,1,2.69.24,3.94,3.94,0,0,1,1,3.61.5.5,0,0,1-.55.43.49.49,0,0,1-.42-.55,3.05,3.05,0,0,0-.67-2.72,1.73,1.73,0,0,0-1.74-.08c-1.43.52-3,2.69-3.86,4.57a4.3,4.3,0,0,0-.28,3.39.34.34,0,0,0,.22,0,2,2,0,0,0,1.2-.9.49.49,0,0,1,.64-.26A.5.5,0,0,1,212,77a3,3,0,0,1-1.92,1.47A1.53,1.53,0,0,1,209.81,78.5Z"/><path d="M212.17,82.19a1.66,1.66,0,0,1-1.2-.44,2.38,2.38,0,0,1-.6-1.6,8,8,0,0,1,.81-3.67,9,9,0,0,1,3.57-4.15,3.43,3.43,0,0,1,3.39,0c.69.46,1.45,1.45,1.16,3.6a.5.5,0,0,1-.55.42.49.49,0,0,1-.42-.55c.12-.91.1-2.11-.73-2.66a2.47,2.47,0,0,0-2.35,0,8,8,0,0,0-3.17,3.71,7,7,0,0,0-.73,3.22,1.51,1.51,0,0,0,.31,1c.28.28,1.06.1,1.23,0a.49.49,0,0,1,.69,0,.5.5,0,0,1-.05.7A2.33,2.33,0,0,1,212.17,82.19Z"/><path d="M204.75,93.91h0a.49.49,0,0,1-.47-.51c.16-4-1.11-6.63-2.34-9.15a23.26,23.26,0,0,1-1.75-4.32l-.12-.43c-.61-2.32-1.31-4.94-.35-7.28a10.67,10.67,0,0,1,3.1-3.77l.16-.14a15.88,15.88,0,0,1,2.6-2c1.12-.6,2-.74,2.52-.41a1.19,1.19,0,0,1,.56,1.11A4.82,4.82,0,0,1,207.07,71c-.22.25-.46.53-.73.86a6.17,6.17,0,0,0-.36,6.66.49.49,0,0,1-.18.67.5.5,0,0,1-.67-.19,7.15,7.15,0,0,1,.45-7.76c.27-.34.52-.63.75-.88A3.92,3.92,0,0,0,207.66,67c0-.07,0-.23-.08-.27s-.61-.08-1.56.43a15.8,15.8,0,0,0-2.41,1.85l-.17.15a9.56,9.56,0,0,0-2.83,3.39c-.84,2-.21,4.39.39,6.65l.11.44a22.78,22.78,0,0,0,1.69,4.14c1.29,2.63,2.61,5.35,2.44,9.62A.49.49,0,0,1,204.75,93.91Z"/><path d="M208.3,75.25a2.06,2.06,0,0,1-.81-.18c-1.26-.59-1.21-2.28-.78-3.55l.13-.41a18.8,18.8,0,0,1,1.95-4.49c.9-1.39,3-3.32,4.85-2.64s1.64,2.67,1.55,4c0,.33,0,.64,0,.85a.49.49,0,0,1-1,.06c0-.27,0-.6,0-1,.1-1.43.09-2.65-.91-3-1.16-.44-2.89,1-3.69,2.25a18.24,18.24,0,0,0-1.84,4.27l-.13.41c-.23.67-.46,2,.26,2.35a.85.85,0,0,0,.64,0,1.23,1.23,0,0,0,.64-.71.49.49,0,0,1,.89.41,2.22,2.22,0,0,1-1.19,1.22A1.77,1.77,0,0,1,208.3,75.25Z"/><path d="M71.73,13a5.8,5.8,0,1,1,5.79,5.8A5.79,5.79,0,0,1,71.73,13Z" style="fill:#fff"/><path d="M77.52,19.29A6.29,6.29,0,1,1,83.81,13,6.3,6.3,0,0,1,77.52,19.29Zm0-11.6A5.31,5.31,0,1,0,82.83,13,5.31,5.31,0,0,0,77.52,7.69Z"/><path d="M139.19,13.49H90.82a.49.49,0,0,1,0-1h48.37a.49.49,0,0,1,0,1Z"/><path d="M119.73,194.54H71.36a.49.49,0,1,1,0-1h48.37a.49.49,0,1,1,0,1Z"/><path d="M105.34,202.72h-34a.49.49,0,0,1,0-1h34a.49.49,0,0,1,0,1Z"/><path d="M378.63,258.39c.81-15.71-.74-32.39-7-46.81a167.09,167.09,0,0,1-12.66,23c-1.55-2.64-2.91-5.41-4.28-8.19l-1.05-2.14c-1.92-3.91-3.85-7.81-5.59-11.8,2.34-9.49,4.93-18.92,7.94-28.21a16.85,16.85,0,0,1,1.56-3.71c1.48-2.36,4-3.82,6.51-5.06a84.24,84.24,0,0,1,21.52-7.38,6.85,6.85,0,0,1,2.85-2.51,23.43,23.43,0,0,0,6.23,10.13c1.29,1.32,3,2.64,4.73,2.45,4.76-1.63,7.48-6.55,11.46-9.62a7.25,7.25,0,0,1,5-1.77l12.32,2.38c6.78,1.3,13.79,2.71,19.44,6.69a18.91,18.91,0,0,1,3.56,3.25,291.9,291.9,0,0,1,15.44,45.74c1.93,7.59,3.64,15.54,1.95,23.37a16.88,16.88,0,0,1-4.66,5.89,12.52,12.52,0,0,1-3.92,2.4,16.51,16.51,0,0,1-5.2.65l-11.14.22Z" style="fill:#fff"/><path d="M297.05,80.43V300.31H483.27V80.43ZM468.69,257.75H310.59V103.21h158.1Z" style="fill:#fff"/><path d="M483.27,300.8H297.05a.49.49,0,0,1-.5-.49V80.43a.49.49,0,0,1,.5-.49H483.27a.49.49,0,0,1,.49.49V300.31A.49.49,0,0,1,483.27,300.8Zm-185.73-1H482.78V80.92H297.54Zm171.15-41.58H310.59a.49.49,0,0,1-.49-.49V103.21a.49.49,0,0,1,.49-.49h158.1a.49.49,0,0,1,.49.49V257.75A.49.49,0,0,1,468.69,258.24Zm-157.61-1H468.2V103.7H311.08Z"/><path d="M312.26,91a5.8,5.8,0,1,1,5.8,5.8A5.8,5.8,0,0,1,312.26,91Z" style="fill:#fff"/><path d="M318.06,97.33A6.29,6.29,0,1,1,324.35,91,6.29,6.29,0,0,1,318.06,97.33Zm0-11.6A5.31,5.31,0,1,0,323.37,91,5.32,5.32,0,0,0,318.06,85.73Z"/><path d="M379.73,91.53H331.36a.49.49,0,1,1,0-1h48.37a.49.49,0,0,1,0,1Z"/><path d="M360.26,272.58H311.89a.49.49,0,0,1,0-1h48.37a.49.49,0,1,1,0,1Z"/><path d="M345.87,280.77h-34a.49.49,0,1,1,0-1h34a.49.49,0,1,1,0,1Z"/><path d="M378.59,233.75A23.65,23.65,0,0,0,369,245.67a3.47,3.47,0,0,0-.26,2.05,1.37,1.37,0,0,0,1.74,1,1.54,1.54,0,0,0,3,.88,1.12,1.12,0,0,0,1.25.51,3.31,3.31,0,0,0,1.26-.72l3-2.37a23.29,23.29,0,0,1,4.06-2.77,14.88,14.88,0,0,0,2.38-1.23,4.59,4.59,0,0,0,1.7-4.9,7.72,7.72,0,0,0-3.13-3.71,5.1,5.1,0,0,0-2.3-1.09C380.45,233.13,379.23,233.84,378.59,233.75Z" style="fill:#fff"/><path d="M366.81,258.39,392,258l-.11-5.6-27,.63Z" style="fill:#91a7ff"/><path d="M366.81,258.88a.5.5,0,0,1-.46-.32l-2-5.34a.49.49,0,0,1,.06-.44.48.48,0,0,1,.39-.22l27-.63a.45.45,0,0,1,.35.13.47.47,0,0,1,.15.35l.11,5.6a.52.52,0,0,1-.14.35.53.53,0,0,1-.34.15l-25.16.37Zm-1.25-5.35,1.59,4.36,24.32-.36-.09-4.61Z"/><path d="M387.11,149.91a129.93,129.93,0,0,1,1.39,22.3,3.78,3.78,0,0,0,.25,1.83,3.44,3.44,0,0,0,1.39,1.28,16.65,16.65,0,0,0,12.67,2.21c4.26-1.12,8-4.62,8.36-9.34-1.8-6.06-4.8-14.51-7.13-24.23A143,143,0,0,1,387.11,149.91Z" style="fill:#fff"/><path d="M399.22,178.47a18.13,18.13,0,0,1-9.34-2.73,3.92,3.92,0,0,1-1.57-1.48,4.15,4.15,0,0,1-.3-2.06A130.07,130.07,0,0,0,386.63,150a.49.49,0,0,1,.34-.54,141.09,141.09,0,0,0,16.87-5.93.48.48,0,0,1,.42,0,.47.47,0,0,1,.26.32c1.64,6.87,3.66,13.22,5.29,18.32.67,2.12,1.31,4.12,1.83,5.89a.52.52,0,0,1,0,.18,11.39,11.39,0,0,1-8.73,9.77A14.29,14.29,0,0,1,399.22,178.47Zm-11.56-28.22a131.37,131.37,0,0,1,1.33,22,3.36,3.36,0,0,0,.2,1.6,3,3,0,0,0,1.2,1.08,16.14,16.14,0,0,0,12.29,2.16c3.67-1,7.55-4.07,8-8.82-.51-1.74-1.14-3.71-1.8-5.78-1.58-5-3.54-11.13-5.17-17.82A140.8,140.8,0,0,1,387.66,150.25Z"/><path d="M421.55,115.09a163.73,163.73,0,0,1-5.68,17.82,44.62,44.62,0,0,1-5.52,10.2,6.43,6.43,0,0,1-3.66,2.73c.06-1.55-1.45-2.48-1.54-4-.1-1.91,1.28-3.43.33-5.21a27.56,27.56,0,0,1-3.22-10.66,13.54,13.54,0,0,1,1.72-8.62,9.87,9.87,0,0,1,8.49-4.34C415.2,113.08,419.61,113.14,421.55,115.09Z" style="fill:#91a7ff"/><path d="M406.69,146.33a.48.48,0,0,1-.29-.1.49.49,0,0,1-.2-.42,3.2,3.2,0,0,0-.68-1.8,4.58,4.58,0,0,1-.86-2.17,7.11,7.11,0,0,1,.36-2.3,3.41,3.41,0,0,0,0-2.71A28,28,0,0,1,401.77,126c-.31-3.67.28-6.59,1.8-8.92a10.34,10.34,0,0,1,8.92-4.57h.43c2.79.11,7,.26,9,2.24a.5.5,0,0,1,.13.47,163.26,163.26,0,0,1-5.7,17.87,45.53,45.53,0,0,1-5.58,10.32,6.92,6.92,0,0,1-3.9,2.9A.45.45,0,0,1,406.69,146.33Zm5.42-32.87a9.38,9.38,0,0,0-7.72,4.13c-1.39,2.14-1.93,4.86-1.64,8.31a26.88,26.88,0,0,0,3.16,10.46,4.26,4.26,0,0,1,.06,3.44,6.18,6.18,0,0,0-.33,2,3.83,3.83,0,0,0,.71,1.72,5.34,5.34,0,0,1,.77,1.65,5.81,5.81,0,0,0,2.84-2.33,44.42,44.42,0,0,0,5.45-10.08,163.49,163.49,0,0,0,5.6-17.49c-1.81-1.54-5.59-1.67-8.13-1.77h-.77Z"/><path d="M377.62,119.41c-.55,5-2.37,9.87-3.21,14.88s-.61,10.46,2.61,14.91a18.62,18.62,0,0,0,13.19,7.13,17.53,17.53,0,0,0,13.9-4.71c3.07-3.17,4.8-10.89,5.82-14.74a7.26,7.26,0,0,0,6.62-.93,4,4,0,0,0,.69-5.53c-1.37-1.72-3.38-2.28-6.07-.49a36.49,36.49,0,0,0,.64-7.9c0-4,.84-9.86-1.62-12-1.39-1.2-4.51-2.56-6.26-3.33-3-1.33-7.73,0-11-.6s-6.93.48-9.86,1.69C379.53,109.27,378,115.63,377.62,119.41Z" style="fill:#fff"/><path d="M391.88,156.9c-.57,0-1.15,0-1.72-.08a19.07,19.07,0,0,1-13.54-7.33c-2.84-3.93-3.74-9.07-2.7-15.28.38-2.21.94-4.4,1.49-6.52a59.9,59.9,0,0,0,1.73-8.34h0c.18-1.68,1.32-10.17,5.71-12,3.89-1.61,7.3-2.19,10.13-1.72a21.05,21.05,0,0,0,4.45,0c2.36-.12,4.81-.25,6.7.58l.19.09a30,30,0,0,1,6.19,3.32c2.13,1.83,2,6,1.85,9.66,0,1-.07,1.85-.06,2.68v.1a39.54,39.54,0,0,1-.44,6.84,4.3,4.3,0,0,1,5.76,1.15,4.43,4.43,0,0,1-.75,6.21,7.64,7.64,0,0,1-6.59,1.16q-.11.39-.21.81c-1.1,4.27-2.76,10.73-5.61,13.66A17.71,17.71,0,0,1,391.88,156.9Zm-.9-50.43a20.73,20.73,0,0,0-7.76,1.81c-3,1.24-4.63,6.8-5.11,11.18h0a61.29,61.29,0,0,1-1.75,8.48c-.55,2.1-1.1,4.27-1.47,6.43-1,5.94-.15,10.84,2.53,14.54a18.07,18.07,0,0,0,12.83,6.94,17,17,0,0,0,13.51-4.57c2.67-2.75,4.35-9.3,5.36-13.22.12-.47.23-.91.34-1.3a.49.49,0,0,1,.24-.31.5.5,0,0,1,.38,0,6.77,6.77,0,0,0,6.16-.85,3.45,3.45,0,0,0,.61-4.84c-1.37-1.73-3.19-1.86-5.4-.39a.5.5,0,0,1-.55,0,.49.49,0,0,1-.21-.51,35.93,35.93,0,0,0,.63-7.69V122c0-.84,0-1.75.06-2.71.12-3.46.26-7.37-1.51-8.89a29.13,29.13,0,0,0-5.95-3.16l-.19-.09c-1.67-.74-4-.62-6.25-.5a23.2,23.2,0,0,1-4.66-.06A11,11,0,0,0,391,106.47Zm-13.36,12.94h0Z"/><path d="M394.17,113.67c-.73,2.17-4.53,5-6.73,5s-2.91-1.1-3.56-3.29c-2.12,1.51-3.75,3.1-5.8,3.64a6.18,6.18,0,0,1-7.33-4.74,6.67,6.67,0,0,1,4.85-7.58c-2.11.27-4-2-3.75-4.25a6,6,0,0,1,4-4.81c2-.77,4.2-.65,6.37-.73A5.62,5.62,0,0,1,384.82,91a8.63,8.63,0,0,1,6.46-.76,7.69,7.69,0,0,1,3.85,2,5.14,5.14,0,0,1,1.41,4.25c2.17-2.21,5.42-3.5,8.26-2.5s4.65,4.8,4.61,7.27c1.6-1.59,3.6-2.82,5.77-2.47,4.3.69,4.88,4.48,2.43,9a5,5,0,0,1,6.48,3.93,10,10,0,0,1-2.72,8.22c-1.95,1.77-8.24,2.78-12.2-.74a11.6,11.6,0,0,1-3.53-6.65c-1.5,2-2.59,3.44-5.87,4.15C397.37,117.17,394.72,116,394.17,113.67Z" style="fill:#91a7ff"/><path d="M415.81,122a10.33,10.33,0,0,1-7-2.47,11.55,11.55,0,0,1-3.45-5.88,8.33,8.33,0,0,1-5.53,3.49,5.3,5.3,0,0,1-5.75-2.28c-1.37,2.11-4.58,4.25-6.67,4.25h0c-2.24,0-3.15-1-3.82-3l-.95.71a13.13,13.13,0,0,1-4.47,2.61,6.29,6.29,0,0,1-4.88-.83,6.68,6.68,0,0,1-3.05-4.29,7.29,7.29,0,0,1,3.52-7.52,3.86,3.86,0,0,1-1-.71,4.71,4.71,0,0,1-1.44-3.74,6.51,6.51,0,0,1,4.27-5.23A15.67,15.67,0,0,1,381,96.4h.62a6.27,6.27,0,0,1,3-5.83,9.09,9.09,0,0,1,6.83-.82,8.18,8.18,0,0,1,4.09,2.11,5.58,5.58,0,0,1,1.58,3.45,8.3,8.3,0,0,1,7.9-1.82c2.61.93,4.48,4,4.86,6.68a6.69,6.69,0,0,1,5.43-1.9,4.78,4.78,0,0,1,3.81,2.49c.79,1.6.59,3.8-.54,6.28a5.43,5.43,0,0,1,3.25.65,5.68,5.68,0,0,1,2.8,3.9,10.5,10.5,0,0,1-2.87,8.68A9.4,9.4,0,0,1,415.81,122Zm-10.17-10h.1a.49.49,0,0,1,.38.38,11.21,11.21,0,0,0,3.38,6.39c3.67,3.26,9.68,2.43,11.54.74a9.58,9.58,0,0,0,2.58-7.76,4.77,4.77,0,0,0-2.33-3.25,4.3,4.3,0,0,0-3.51-.32.5.5,0,0,1-.54-.14.47.47,0,0,1-.06-.55c1.39-2.58,1.75-4.83,1-6.34a3.84,3.84,0,0,0-3.08-2c-1.71-.27-3.51.52-5.35,2.34a.49.49,0,0,1-.54.1.46.46,0,0,1-.29-.45c0-2.2-1.58-5.84-4.29-6.8-2.43-.87-5.47.06-7.74,2.37a.5.5,0,0,1-.57.1.48.48,0,0,1-.26-.51,4.7,4.7,0,0,0-1.28-3.84,7.3,7.3,0,0,0-3.61-1.83,8.09,8.09,0,0,0-6.09.7,5.14,5.14,0,0,0-2.43,5.34.47.47,0,0,1-.08.41.49.49,0,0,1-.37.2l-1.21,0a14.68,14.68,0,0,0-5,.66,5.57,5.57,0,0,0-3.64,4.4,3.73,3.73,0,0,0,1.14,3,2.53,2.53,0,0,0,2.06.76.49.49,0,0,1,.54.41.48.48,0,0,1-.38.56,6.2,6.2,0,0,0-4.47,7,5.71,5.71,0,0,0,2.61,3.66,5.3,5.3,0,0,0,4.11.71,12.31,12.31,0,0,0,4.13-2.43c.48-.38,1-.76,1.51-1.14a.51.51,0,0,1,.45-.06.49.49,0,0,1,.31.32c.61,2.06,1.18,2.93,3.09,2.94h0c2,0,5.6-2.67,6.26-4.62a.49.49,0,0,1,.94,0c.5,2.11,3,3.06,5,2.63,3.18-.68,4.19-2.06,5.58-4A.48.48,0,0,1,405.64,112Z"/><path d="M381.52,127.21a1.2,1.2,0,1,1,1.21,1.13A1.16,1.16,0,0,1,381.52,127.21Z"/><path d="M398.05,129.87a1.2,1.2,0,1,1,1.21,1.13A1.16,1.16,0,0,1,398.05,129.87Z"/><path d="M391.69,149a6.12,6.12,0,0,1-2.2-.4.49.49,0,0,1,.35-.92,5.43,5.43,0,0,0,5.56-1.1.49.49,0,1,1,.67.71A6.41,6.41,0,0,1,391.69,149Z"/><path d="M389.46,142.43a7.09,7.09,0,0,1-3.09-.78,3.23,3.23,0,0,1-1.32-1,2.71,2.71,0,0,1-.24-2.4,7.42,7.42,0,0,1,.87-1.68l.15-.23a21.58,21.58,0,0,0,3.16-9.22.49.49,0,0,1,.54-.44.48.48,0,0,1,.44.53,22.59,22.59,0,0,1-3.31,9.65l-.15.24a7,7,0,0,0-.77,1.45,1.79,1.79,0,0,0,.12,1.54,2.39,2.39,0,0,0,.93.69,5.94,5.94,0,0,0,2.88.67,3.47,3.47,0,0,0,2.49-1.13.49.49,0,1,1,.75.62,4.4,4.4,0,0,1-3.2,1.49Z"/><path d="M453.31,257.3c-8.27,0-20.41-1.66-32.3-3.29-6.69-.91-13-1.78-18.36-2.31a.48.48,0,0,1-.44-.53.49.49,0,0,1,.53-.44c5.37.53,11.7,1.39,18.41,2.31,16.87,2.31,36,4.93,40.64,2,3.9-2.49,6.56-6.23,6.79-9.51a83.72,83.72,0,0,0-1.21-16.09c-3-14.29-14-46.7-17.86-51.07s-9.6-6-14.76-7.29a184.3,184.3,0,0,0-23.3-4.28A24,24,0,0,1,402,179.38c-1.19.81-2.63.11-3.78-.45l-.65-.3a7,7,0,0,0-.83-.17c-2-.35-6.16-1.08-8.2-4.17a8,8,0,0,1-.94-6,85.35,85.35,0,0,0-20.49,6.16c-2.87,1.27-6.1,2.92-8.19,5.58-1.89,2.4-2.78,5.47-3.58,8.19-4.53,15.56-8.73,31.46-12.48,47.23a.49.49,0,0,1-.95-.23c3.75-15.79,7.95-31.7,12.49-47.28.82-2.8,1.74-6,3.75-8.51,2.22-2.83,5.58-4.56,8.57-5.88a86.13,86.13,0,0,1,21.43-6.34.48.48,0,0,1,.44.15.49.49,0,0,1,.12.45,7.38,7.38,0,0,0,.65,5.95c1.81,2.74,5.69,3.42,7.55,3.74a5.51,5.51,0,0,1,1.06.24l.67.32c1,.5,2.09,1,2.81.52a23,23,0,0,0,9.18-12.5.48.48,0,0,1,.52-.34A186.79,186.79,0,0,1,435,170.08c5.31,1.33,11.3,3.13,15.27,7.59,4.31,4.86,15.28,38.06,18.08,51.52a85.67,85.67,0,0,1,1.23,16.36c-.25,3.58-3.09,7.61-7.24,10.26C460.66,256.88,457.48,257.3,453.31,257.3Z"/><path d="M398.27,183.62q-3.09,15.38-5.8,30.88a20.71,20.71,0,0,0-.46,5.32,19.2,19.2,0,0,0,2.4,6.87,66.48,66.48,0,0,0,4.4,7.79,151.09,151.09,0,0,0,5.58-14.75c.55-11.44-3.18-22.56-3.49-34a5.26,5.26,0,0,0-.31-2.07C400.3,183,399.64,182.64,398.27,183.62Z" style="fill:#fff"/><path d="M398.81,235a.49.49,0,0,1-.41-.22,67.09,67.09,0,0,1-4.43-7.84,19.64,19.64,0,0,1-2.44-7,21,21,0,0,1,.45-5.44c1.8-10.29,3.76-20.69,5.81-30.9a.55.55,0,0,1,.2-.3,2.6,2.6,0,0,1,2.08-.64,1.48,1.48,0,0,1,1,.86,5.61,5.61,0,0,1,.36,2.21v0a115.31,115.31,0,0,0,1.77,15.12c1,6.17,2,12.55,1.72,18.94a.5.5,0,0,1,0,.12,149.29,149.29,0,0,1-5.61,14.79.48.48,0,0,1-.4.3Zm-.09-51.06c-2.05,10.14-4,20.46-5.77,30.67a20.74,20.74,0,0,0-.45,5.2,18.89,18.89,0,0,0,2.35,6.69,71.8,71.8,0,0,0,3.87,7c2-4.55,3.71-9.19,5.19-13.81.29-6.27-.73-12.58-1.72-18.67a115,115,0,0,1-1.78-15.26v-.05a4.59,4.59,0,0,0-.27-1.82c-.12-.27-.27-.31-.32-.32S399.34,183.49,398.72,183.91Z"/><path d="M402.7,251.71a.5.5,0,0,1-.47-.35.49.49,0,0,1,.32-.61c2.55-.82,3.58-2.89,3.45-6.93-.31-9.16-1.77-9.87-2.06-9.92a.48.48,0,0,1-.41-.51.49.49,0,0,1,.47-.46l1.57-.07c13.42-.59,28.6-1.26,38.06-2.41-1.57-4.92-3.08-9.43-4.54-13.79-1.54-4.6-3.13-9.36-4.79-14.57a.49.49,0,0,1,.94-.3c1.65,5.2,3.24,10,4.78,14.56s3.09,9.22,4.73,14.37a.49.49,0,0,1-.06.41.47.47,0,0,1-.35.22c-9.46,1.2-25,1.89-38.72,2.49h-.3c.76,1.19,1.45,3.88,1.66,9.94.1,3-.28,6.66-4.13,7.89Z"/><polygon points="280.74 210.87 347.41 211.23 370.39 258.43 303.13 258.82 280.74 210.87" style="fill:#91a7ff"/><path d="M303.13,259.31a.5.5,0,0,1-.45-.28l-22.39-48a.47.47,0,0,1,0-.47.48.48,0,0,1,.41-.22h0l66.67.36a.49.49,0,0,1,.44.28l23,47.19a.51.51,0,0,1,0,.48.47.47,0,0,1-.41.23l-67.26.39Zm-21.62-47.95,21.93,47,66.17-.39L347.1,211.72Z"/><path d="M322.91,230.1c-1.89-.19-4,.32-4.73,2.06a4.71,4.71,0,0,0,1.22,5.2,6,6,0,0,0,5.34,1.27,4.12,4.12,0,0,0,2.57-1.56,3.6,3.6,0,0,0,.57-2C327.9,232.7,326.83,230.48,322.91,230.1Z" style="fill:#fff"/><path d="M323.32,239.28a6.32,6.32,0,0,1-4.25-1.56,5.19,5.19,0,0,1-1.34-5.76c.76-1.72,2.71-2.6,5.23-2.35,4.5.44,5.43,3.2,5.41,5.44a4.14,4.14,0,0,1-.65,2.3,4.62,4.62,0,0,1-2.87,1.76A7.25,7.25,0,0,1,323.32,239.28Zm-1.13-8.73c-1.09,0-2.88.26-3.56,1.81a4.17,4.17,0,0,0,1.1,4.63,5.52,5.52,0,0,0,4.9,1.16,3.63,3.63,0,0,0,2.27-1.35,3.17,3.17,0,0,0,.49-1.76c0-2.7-1.46-4.15-4.53-4.45A5.45,5.45,0,0,0,322.19,230.55Z"/><path d="M400.89,178.38a3.22,3.22,0,0,0-3.11-.2c-1.44.6-2.66,1.44-2.93,3a7.63,7.63,0,0,0,1.08,2.63c.46.7,1.64,2,2.65,2.07a3.28,3.28,0,0,0,2.33-1c1.18-1.05,2.14-2.61,1.76-4.14A4.17,4.17,0,0,0,400.89,178.38Z" style="fill:#fff"/><path d="M398.75,186.36h-.21c-1.31-.11-2.62-1.69-3-2.29-.27-.41-1.27-2.31-1.15-3a4.68,4.68,0,0,1,3.22-3.35,3.68,3.68,0,0,1,3.59.25h0a4.66,4.66,0,0,1,2,2.6c.36,1.5-.35,3.23-1.91,4.62A3.8,3.8,0,0,1,398.75,186.36Zm.51-8a3.49,3.49,0,0,0-1.29.26c-1.63.67-2.44,1.48-2.64,2.62a9.18,9.18,0,0,0,1,2.27c.48.74,1.55,1.79,2.28,1.85a2.74,2.74,0,0,0,2-.9c.49-.43,2-2,1.61-3.65a3.66,3.66,0,0,0-1.59-2h0A2.26,2.26,0,0,0,399.26,178.37Z"/><path d="M380.93,251.76a1.56,1.56,0,0,1-1-.43c-.79-.66-.28-1.88-.11-2.28a5.73,5.73,0,0,1,1.11-1.59,20.18,20.18,0,0,1,4.5-3.6h0a5.36,5.36,0,0,0-2.46.78,27.6,27.6,0,0,0-4.45,3.33c-.71.61-1.44,1.25-2.2,1.83a3.73,3.73,0,0,1-1.26.72,1.7,1.7,0,0,1-1.66-.35,1.72,1.72,0,0,1-.49-1.16,4.25,4.25,0,0,1,1.12-2.79c3-3.81,6.19-5.93,9.72-6.49a.49.49,0,1,1,.15,1c-3.27.52-6.25,2.52-9.1,6.13a3.34,3.34,0,0,0-.91,2.11.86.86,0,0,0,.19.53.77.77,0,0,0,.71.11,2.82,2.82,0,0,0,.93-.55c.74-.57,1.46-1.2,2.16-1.8a29.62,29.62,0,0,1,4.61-3.45c1.76-1,3.31-1.16,4.51-.52a.5.5,0,0,1,.25.44.48.48,0,0,1-.26.43,19.17,19.17,0,0,0-5.33,4,4.52,4.52,0,0,0-.92,1.3c-.3.7-.28,1.06-.17,1.16.4.33.57.23,1.11-.18l0,0a39.11,39.11,0,0,1,6.54-4.47,3,3,0,0,1,2.73-.39c1,.5,4,1.64,9.19,1.31a16.43,16.43,0,0,1,6,.79.49.49,0,0,1-.29.94,15.21,15.21,0,0,0-5.66-.75c-5.44.34-8.58-.87-9.68-1.41-.53-.26-1.26.07-1.84.38a37.78,37.78,0,0,0-6.39,4.37l-.06,0A2.2,2.2,0,0,1,380.93,251.76Z"/><path d="M371.78,251.24a1.37,1.37,0,0,1-.45-.07,2.1,2.1,0,0,1-1.27-1.95,7.45,7.45,0,0,1,1.53-4.49c2.39-3.59,4.87-5.86,7.37-6.74a.49.49,0,1,1,.33.92c-2.29.81-4.61,3-6.89,6.37a6.57,6.57,0,0,0-1.36,3.87c0,.43.2,1,.58,1.09a.89.89,0,0,0,.68-.15,3.37,3.37,0,0,0,.7-.71.49.49,0,1,1,.76.61,4.17,4.17,0,0,1-.92.91A2,2,0,0,1,371.78,251.24Z"/><path d="M369.76,249.31a2.1,2.1,0,0,1-1.21-.39c-1.21-.85.25-5.08,1.42-7a22.08,22.08,0,0,1,9.85-9.19c2-1.3,10.53,1.29,14.12,2.47a12.11,12.11,0,0,0,3.28.67c3.13.1,7.16.15,8.21,0a.49.49,0,0,1,.15,1c-1.44.22-7.25.06-8.4,0a12.94,12.94,0,0,1-3.55-.72c-6.81-2.24-12.28-3.3-13.29-2.57l-.1.06a21.33,21.33,0,0,0-9.43,8.81c-1.4,2.3-2,5.29-1.67,5.72a1,1,0,0,0,1.05.08.49.49,0,1,1,.5.84A1.85,1.85,0,0,1,369.76,249.31Z"/><path d="M388.48,165.26c1.76,4.32,5.55,10.31,9.4,12.62a112.74,112.74,0,0,1-9.13,8c-1.55-7.77-3.16-11.47-4.1-17.54C385.66,167.58,387.22,166,388.48,165.26Z" style="fill:#fff"/><path d="M388.75,186.36a.39.39,0,0,1-.18,0,.48.48,0,0,1-.3-.36c-.72-3.61-1.47-6.4-2.13-8.85a74.13,74.13,0,0,1-2-8.7.5.5,0,0,1,.19-.47c.37-.27.83-.68,1.32-1.1a19.54,19.54,0,0,1,2.55-2,.47.47,0,0,1,.4-.05.49.49,0,0,1,.3.28c1.84,4.52,5.6,10.22,9.2,12.39a.48.48,0,0,1,.23.37.45.45,0,0,1-.16.41c-.61.54-1.26,1.16-2,1.87a74,74,0,0,1-7.15,6.15A.53.53,0,0,1,388.75,186.36Zm-3.57-17.81a77.63,77.63,0,0,0,1.9,8.3c.62,2.3,1.31,4.88,2,8.16a74.77,74.77,0,0,0,6.44-5.61l1.56-1.46c-3.46-2.39-6.94-7.61-8.81-11.95a25.07,25.07,0,0,0-1.94,1.59C385.92,167.93,385.53,168.27,385.18,168.55Z"/><path d="M400.5,177.86c2.2,2.76,4.39,5.53,7,8.37,3.2-6.24,6.43-12.68,7.89-19.53-1.37-.64-4.35-2.6-5.71-3.24.39,1.46,1.21,2.78,1,3.24C410.6,167,403.93,174.64,400.5,177.86Z" style="fill:#fff"/><path d="M407.53,186.72a.48.48,0,0,1-.35-.16c-2.66-2.85-4.9-5.67-7.06-8.4a.48.48,0,0,1,.05-.66c3.26-3.06,9.47-10.15,10.09-11a5.72,5.72,0,0,0-.4-1.16,16.94,16.94,0,0,1-.63-1.76.48.48,0,0,1,.16-.5.49.49,0,0,1,.52-.07c.71.33,1.77,1,2.9,1.64s2.15,1.29,2.81,1.59a.51.51,0,0,1,.28.55c-1.52,7.13-4.92,13.78-7.93,19.65a.48.48,0,0,1-.37.26Zm-6.36-8.82c1.93,2.44,3.94,4.95,6.25,7.48,2.84-5.56,6-11.8,7.44-18.41-.69-.35-1.6-.9-2.55-1.47-.6-.36-1.21-.72-1.74-1l.2.5c.36.88.59,1.45.4,1.91A147.89,147.89,0,0,1,401.17,177.9Z"/><path d="M377.89,234.76a.49.49,0,0,1-.48-.42,84.5,84.5,0,0,0-11.23-32.17.49.49,0,0,1,.84-.51,85.34,85.34,0,0,1,11.36,32.55.5.5,0,0,1-.42.55Z"/><path d="M358.9,235.33a.48.48,0,0,1-.26-.07.5.5,0,0,1-.15-.68c4.14-6.41,9.31-14.85,12.63-23.25a.49.49,0,0,1,.91.36c-3.35,8.48-8.55,17-12.71,23.42A.51.51,0,0,1,358.9,235.33Z"/><path d="M378.63,252.86h0a.49.49,0,0,1-.49-.49l.05-5.21a.5.5,0,0,1,.49-.49h0a.49.49,0,0,1,.48.5l-.05,5.21A.49.49,0,0,1,378.63,252.86Z"/><path d="M410.63,133h-.11a.49.49,0,0,1-.36-.59c.32-1.35.47-2.08.73-3.39a.5.5,0,0,1,.58-.39.48.48,0,0,1,.38.58c-.26,1.33-.41,2.06-.74,3.43A.48.48,0,0,1,410.63,133Z"/><path d="M444,231.38a.49.49,0,0,1-.49-.47.5.5,0,0,1,.47-.51c2.28-.09,4.6-.15,6.89-.18a.48.48,0,0,1,.5.48.5.5,0,0,1-.48.5c-2.29,0-4.6.09-6.87.18Z"/><path d="M417.29,177.1h-.11a.49.49,0,0,1-.37-.59c.42-1.87.77-3.79,1-5.69a.49.49,0,0,1,1,.13c-.27,1.93-.63,3.87-1.05,5.78A.49.49,0,0,1,417.29,177.1Z"/><path d="M421.32,174.27h0a.48.48,0,0,1-.44-.53l.3-3.35a.49.49,0,0,1,.53-.45.48.48,0,0,1,.44.53l-.3,3.36A.49.49,0,0,1,421.32,174.27Z"/><path d="M416.93,117.59a.49.49,0,0,1-.46-.33.48.48,0,0,1,.3-.62,5.19,5.19,0,0,0,3.34-4.76.48.48,0,0,1,.48-.49h0a.48.48,0,0,1,.49.48,6.18,6.18,0,0,1-4,5.69A.41.41,0,0,1,416.93,117.59Z"/><path d="M402.25,236.92h-.06a.49.49,0,0,1-.43-.54,9.2,9.2,0,0,1,.21-1.26,3.74,3.74,0,0,1,.58-1.36,1.94,1.94,0,0,1,1.46-.82h0a.49.49,0,0,1,0,1,1,1,0,0,0-.69.42,2.83,2.83,0,0,0-.41,1,8.77,8.77,0,0,0-.2,1.14A.49.49,0,0,1,402.25,236.92Z"/><path d="M402.6,251.61a1.16,1.16,0,0,1-.89-.46,2.12,2.12,0,0,1-.33-.7,6.88,6.88,0,0,1-.25-3,.49.49,0,0,1,1,.14,6,6,0,0,0,.21,2.56,1.49,1.49,0,0,0,.17.38c0,.07.11.1.12.09a.5.5,0,0,1,.5.48.49.49,0,0,1-.48.5Z"/><g style="opacity:0.129412"><path d="M405.3,112.32c-.31.31-.64.61-1,.89,0,.07-.1.18-.24.42s-.48.62-.74.92a9.58,9.58,0,0,1-2.84,2,.69.69,0,0,0-.8-.4l-.16,0h-.09a16.45,16.45,0,0,1-1.86,0l.19,0a7.51,7.51,0,0,1-1.83-.53l-.19-.08a.77.77,0,0,0-.47-.1l-.11,0a.39.39,0,0,0,0-.06v0a1.55,1.55,0,0,0,0-.21.91.91,0,0,0-.95-1,1.07,1.07,0,0,0-.94,1c-.11.15-.23.3-.35.44a20.89,20.89,0,0,1-1.67,1.45c-.11.1-.41.31-.46.36l-.08.05a7.52,7.52,0,0,1-3,1.19h0a3.3,3.3,0,0,1-.77-.07l-.23-.07-.1-.06-.23-.18-.06-.06a.27.27,0,0,0-.07-.08,1.88,1.88,0,0,1-.78-.37,1.64,1.64,0,0,1-.64-.56,2.89,2.89,0,0,1-.22-.43.14.14,0,0,0,0-.06l0-.06-.09-.17a5.28,5.28,0,0,1-.51-1.2h0a1,1,0,0,0-.85.41,2.71,2.71,0,0,1-.24.35l-.08.1s0,0-.06.06h0l0,0c-.28.22-.52.49-.81.69l-.35.23-.11.07-.05,0a11.78,11.78,0,0,1-1.88.94c-.45.23-1,.27-1.39.65a1,1,0,0,0,1.17,1.59,12.42,12.42,0,0,0,3.8-2.1c.18-.15.36-.32.53-.49a7,7,0,0,0,1.79,2.29,4.43,4.43,0,0,0,4,.25,8.85,8.85,0,0,0,2.45-1.36,13.16,13.16,0,0,0,2-1.76,4.47,4.47,0,0,0,1.1,1.27,3.62,3.62,0,0,0,2.16.74h.13a8.2,8.2,0,0,0,2.85-.55,11,11,0,0,0,3.69-2.09,7.72,7.72,0,0,0,1.69-2.08c.09-.2,0,0,0,.09a9.75,9.75,0,0,0,.49-.9.88.88,0,0,0,.16-.57A.79.79,0,0,0,405.3,112.32Z"/></g><g style="opacity:0.129412"><path d="M419.24,121.48c-.25-.59-.88-.41-1.38-.3-.73.15-1.48.2-2.21.33a15,15,0,0,1-1.63.27h0c-.29,0-.6,0-.88.07a.75.75,0,0,0-.27-.36.88.88,0,0,0-1.33.91,13.8,13.8,0,0,1,.24,1.71c-.05.85-.08,2.2,1.07,2a1,1,0,0,0,.56-.37c0,.07.52-.4.66-.48.58-.43,1.68-1.09,2.75-1.74.56-.32,1.13-.62,1.71-.88l.14-.05.16-.06A.84.84,0,0,0,419.24,121.48Z"/></g><g style="opacity:0.129412"><path d="M409,162.62c-.29-.83-.57-1.67-.81-2.52q-.8-2.68-1.41-5.4c-.5-1.33-1-2.67-1.36-4a.55.55,0,0,1,0-.18.84.84,0,0,0-.8,0,.38.38,0,0,1,0,.31,4.7,4.7,0,0,1-.61.8c-.21.24-.42.47-.64.69-.44.44-.92.86-1.39,1.28a.35.35,0,0,1-.16.08,1,1,0,0,0,0,.42l-.08.06c-.2.08-.79.45-2.35,1.14-.45.18-.9.37-1.36.54a.89.89,0,0,0-.51,0l.26,0-.32,0-.22,0-1.35,0a9.48,9.48,0,0,1-4.43.64.91.91,0,0,0-.42.35l-.93-.28-.07,0-.36,0a.34.34,0,0,1-.37-.27,1.39,1.39,0,0,0-.7-.05.94.94,0,0,0,0,1.83c4.07,1.35,11.85,3.92,14.68,4.73a13.17,13.17,0,0,0,3,.57H406l.26,0,.35,0,.82.34a7.1,7.1,0,0,0,.79.22.65.65,0,0,0,.76.1C409.62,163.8,409.17,163.12,409,162.62Z"/></g><g style="opacity:0.129412"><path d="M399.45,186a2.1,2.1,0,0,0-1-.59,1,1,0,0,0-.6,1.75,8.76,8.76,0,0,1,1.2.92c.23.24.44.56.82.57a.93.93,0,0,0,1-1,5.39,5.39,0,0,1,.08-1.37A.79.79,0,1,0,399.45,186Z"/></g><g style="opacity:0.129412"><path d="M407.16,185.56c-.23-.38-.71-.59-1-.92a12.84,12.84,0,0,1-1.73-1.86,7.08,7.08,0,0,1-.51-.71,1.07,1.07,0,0,0-.63-.6.84.84,0,0,0-.93,1.22l.28.4a.86.86,0,0,0-.23-.06.84.84,0,0,0-.53,1.55c.93.52,1.83,1.08,2.74,1.64a9.68,9.68,0,0,0,2,.93A.86.86,0,0,0,407.16,185.56Z"/></g><g style="opacity:0.129412"><path d="M395.83,183.19c-.21-.4-.4-.82-.65-1.2-.12-.2-.18-.45-.39-.58a.86.86,0,0,0-1.33.39h-.08c-.35.09-.57.41-.81.66-.4.43-.36.52-.41.66h0a.91.91,0,0,0-.13.33q-.52.19-1,.45a4.9,4.9,0,0,0-1.56.84.82.82,0,0,0,1.06,1.21,23.22,23.22,0,0,1,2.26-.94,18.52,18.52,0,0,1,1.82-.43,1.18,1.18,0,0,0,.39-.19A.82.82,0,0,0,395.83,183.19Z"/></g><g style="opacity:0.129412"><path d="M463.89,251.77a22.25,22.25,0,0,1-3.21,1.78,9.22,9.22,0,0,1-4.81,1.29,153.85,153.85,0,0,1-16.18-1.24c-2.69-.28-5-.28-6.83-.7-4.26-.9-8.51-1.84-12.81-2.51-3.45-.56-6.93-.85-10.4-1.2-.79-.11-1-.11-2.47-.37a7.58,7.58,0,0,0-1.56-.2l-.23,0a.41.41,0,0,1,.05-.09,11.44,11.44,0,0,0,1-4.28,49.85,49.85,0,0,0-.27-5.73,10,10,0,0,0-.55-2.71,9.07,9.07,0,0,0-.81-1.76c-.22-.36-.44-.76-.87-.86a1.08,1.08,0,0,0-1.22,1.58h0c-.11.31-.35.61-.3.94a.69.69,0,0,0,1,.51,12.42,12.42,0,0,1,.44,1.71,39.36,39.36,0,0,1,.28,4.06c0,1,0,1.9-.1,2.84a21.19,21.19,0,0,1-.68,3l-.06-.11c-.2-.22-.35-.53-.65-.63a1,1,0,0,0-1.05,1.55l.2.23.05.07s0,0,0,0,0,.21,0,.31h0v0a1.52,1.52,0,0,0,0,.21,1,1,0,0,0,.1.55.78.78,0,0,0,.34.31.91.91,0,0,0,1.08.59c.38-.1.56-.47.83-.71l.29-.34a1.27,1.27,0,0,0,1,1.24c3,.62,6.08.91,9.14,1.23,1.34.17,6.77,1,9.49,1.56,3.19.53,6.36,1.21,9.56,1.65,2.08.23,4.18.16,6.26.39,1.15.12,2.29.23,3.43.38a67.24,67.24,0,0,0,9.29.64c1,0,2,.08,3,.07.24,0,.87-.07,1.17-.1h0l.2,0c2.74-.21,5-1.91,7.3-3.23l.38-.26c.13-.12.55-.42.18-.14a1,1,0,0,0,.46-.58A.93.93,0,0,0,463.89,251.77Z"/></g><g style="opacity:0.129412"><path d="M439,230.4h0Z"/></g><g style="opacity:0.129412"><path d="M444.15,228.91c-.07-.13-.14-.26-.2-.39s-.21-.5-.26-.64c-1.1-2.93-1.7-4.14-2.67-6.9a.84.84,0,0,1,0-.17h0a1.23,1.23,0,0,0-.94-.92c-.39-1.65-.86-3.28-1.32-4.92-1.22-4.13-2-8.38-3.24-12.49a1.16,1.16,0,0,0-2.23.61,94.67,94.67,0,0,1,1.87,10c.23,1.41,1,5,1.59,7.65.37,1.86.66,3.72,1.08,5.57a26.74,26.74,0,0,0,1.22,4.15,0,0,0,0,1,0,0,1.79,1.79,0,0,0,2.46.79,1.61,1.61,0,0,0,.46-.39,1.43,1.43,0,0,0,2.58-.38A2,2,0,0,0,444.15,228.91Z"/></g><g style="opacity:0.129412"><path d="M438.83,230.06a3.45,3.45,0,0,0,.14.34C438.92,230.29,438.82,230,438.83,230.06Z"/></g><g style="opacity:0.129412"><path d="M371.52,211.42a1.15,1.15,0,0,0-1.95-.66,2.45,2.45,0,0,0-.47,1.15c-.23.78-.51,1.56-.8,2.32-1.34,3.83-4,8.08-6.62,12.14-1,1.45-2,2.82-3.06,4.23-.32.52-.89,1-1,1.59a1.24,1.24,0,0,0,2.29.79c1.26-1.77,2.62-3.47,3.83-5.27s2.16-3.5,3.18-5.28a41.61,41.61,0,0,0,3.48-7.36c.29-.79.56-1.59.82-2.39A3,3,0,0,0,371.52,211.42Z"/></g><path d="M448.53,47.28A2.77,2.77,0,1,1,451.3,50,2.77,2.77,0,0,1,448.53,47.28Z" style="fill:#fff"/><path d="M451.3,50.53a3.26,3.26,0,1,1,3.25-3.25A3.26,3.26,0,0,1,451.3,50.53Zm0-5.53a2.28,2.28,0,1,0,2.27,2.28A2.28,2.28,0,0,0,451.3,45Z"/><path d="M300.09,3.25A2.77,2.77,0,1,1,302.85,6,2.77,2.77,0,0,1,300.09,3.25Z" style="fill:#fff"/><path d="M302.85,6.51a3.26,3.26,0,1,1,3.26-3.26A3.26,3.26,0,0,1,302.85,6.51Zm0-5.53a2.28,2.28,0,1,0,2.28,2.27A2.27,2.27,0,0,0,302.85,1Z"/><path d="M462.45,321.27a2.77,2.77,0,1,1,1.78,3.48A2.78,2.78,0,0,1,462.45,321.27Z" style="fill:#fff"/><path d="M464.07,325.22a3.26,3.26,0,1,1,4.11-2.09A3.26,3.26,0,0,1,464.07,325.22Zm1.72-5.26a2.28,2.28,0,1,0,1.45,2.87A2.29,2.29,0,0,0,465.79,320Z"/><path d="M.69,250a2.77,2.77,0,1,1,3.6,1.53A2.77,2.77,0,0,1,.69,250Z" style="fill:#fff"/><path d="M4.47,252a3.25,3.25,0,1,1,1.8-4.23A3.26,3.26,0,0,1,4.47,252ZM2.4,246.83a2.27,2.27,0,1,0,3,1.26A2.27,2.27,0,0,0,2.4,246.83Z"/><path d="M476.75,69.2A2.77,2.77,0,1,1,479.52,72,2.77,2.77,0,0,1,476.75,69.2Z" style="fill:#fff"/><path d="M479.52,72.46a3.26,3.26,0,1,1,3.25-3.26A3.26,3.26,0,0,1,479.52,72.46Zm0-5.53a2.28,2.28,0,1,0,2.27,2.27A2.28,2.28,0,0,0,479.52,66.93Z"/><path d="M119.84,295a2.77,2.77,0,1,1,2.76,2.77A2.77,2.77,0,0,1,119.84,295Z" style="fill:#fff"/><path d="M122.6,298.25a3.26,3.26,0,1,1,3.26-3.26A3.26,3.26,0,0,1,122.6,298.25Zm0-5.53a2.28,2.28,0,1,0,2.28,2.27A2.27,2.27,0,0,0,122.6,292.72Z"/><circle cx="32.52" cy="132.36" r="4.66" style="fill:#fff"/><path d="M34.44,137.14a5.15,5.15,0,1,1,2.85-6.7A5.16,5.16,0,0,1,34.44,137.14ZM31,128.5a4.17,4.17,0,1,0,5.42,2.31A4.17,4.17,0,0,0,31,128.5Z"/><circle cx="492.03" cy="231.98" r="4.66" transform="translate(119.13 628.03) rotate(-71.97)" style="fill:#fff"/><path d="M490.44,236.88a5.15,5.15,0,1,1,6.49-3.31A5.16,5.16,0,0,1,490.44,236.88Zm2.88-8.86a4.16,4.16,0,1,0,2.67,5.25A4.15,4.15,0,0,0,493.32,228Z"/><circle cx="257.78" cy="286.16" r="4.66" style="fill:#fff"/><path d="M257.78,291.31a5.15,5.15,0,1,1,5.15-5.15A5.16,5.16,0,0,1,257.78,291.31Zm0-9.32a4.17,4.17,0,1,0,4.17,4.17A4.17,4.17,0,0,0,257.78,282Z"/><path d="M475.73,63.62h0a19.16,19.16,0,0,1-4-.54.49.49,0,0,1,.24-1,17.74,17.74,0,0,0,3.77.52.5.5,0,0,1,.48.51A.49.49,0,0,1,475.73,63.62Zm3.9-.28a.49.49,0,0,1-.48-.4.48.48,0,0,1,.4-.57l.47-.09a18.64,18.64,0,0,0,3.19-1,.49.49,0,0,1,.37.91,19.45,19.45,0,0,1-3.36,1l-.5.09Zm-11.46-1.58a.52.52,0,0,1-.21,0,19.66,19.66,0,0,1-3.42-2.11.49.49,0,1,1,.6-.78,18.35,18.35,0,0,0,3.24,2,.49.49,0,0,1-.21.93Zm18.67-1.34a.49.49,0,0,1-.27-.9,18.41,18.41,0,0,0,2.92-2.45.48.48,0,0,1,.69,0,.49.49,0,0,1,0,.69,19.35,19.35,0,0,1-3.07,2.58A.49.49,0,0,1,486.84,60.42ZM462,57a.51.51,0,0,1-.37-.17,20.17,20.17,0,0,1-2.29-3.29.49.49,0,1,1,.85-.48,19.33,19.33,0,0,0,2.19,3.13.49.49,0,0,1-.06.69A.47.47,0,0,1,462,57Zm30.26-2.21a.42.42,0,0,1-.26-.08.48.48,0,0,1-.15-.67,19.77,19.77,0,0,0,1.69-3.42.49.49,0,1,1,.92.34,19.76,19.76,0,0,1-1.78,3.6A.51.51,0,0,1,492.25,54.82Zm-34-4.6a.48.48,0,0,1-.46-.34,19,19,0,0,1-.5-1.94,19.94,19.94,0,0,1-.41-4,.49.49,0,0,1,.49-.49h0a.49.49,0,0,1,.49.49,18.68,18.68,0,0,0,.39,3.79,16.53,16.53,0,0,0,.47,1.84.49.49,0,0,1-.32.62ZM495,47.53h-.08a.49.49,0,0,1-.41-.56,17.93,17.93,0,0,0,.22-2.84c0-.32,0-.64,0-1a.49.49,0,0,1,.47-.51.48.48,0,0,1,.51.46c0,.34,0,.69,0,1a19.87,19.87,0,0,1-.23,3A.5.5,0,0,1,495,47.53Zm-37.26-7h-.1a.49.49,0,0,1-.38-.58,19.73,19.73,0,0,1,1.21-3.82.49.49,0,1,1,.9.39,19.15,19.15,0,0,0-1.15,3.63A.49.49,0,0,1,457.72,40.54Zm36.86-.79a.5.5,0,0,1-.48-.37,18.31,18.31,0,0,0-1.32-3.58.49.49,0,0,1,.88-.43,19.37,19.37,0,0,1,1.39,3.77.48.48,0,0,1-.35.59ZM460.82,33.4a.52.52,0,0,1-.29-.09.49.49,0,0,1-.12-.68,19.58,19.58,0,0,1,2.64-3,.49.49,0,0,1,.69,0,.48.48,0,0,1,0,.69,18.52,18.52,0,0,0-2.5,2.88A.49.49,0,0,1,460.82,33.4Zm30.33-.64a.51.51,0,0,1-.39-.19,18.49,18.49,0,0,0-2.63-2.75.5.5,0,0,1-.06-.7.49.49,0,0,1,.69-.05,20.08,20.08,0,0,1,2.78,2.9.5.5,0,0,1-.09.69A.49.49,0,0,1,491.15,32.76ZM466.5,28.09a.52.52,0,0,1-.42-.24.49.49,0,0,1,.17-.67,19.45,19.45,0,0,1,3.64-1.7.49.49,0,0,1,.62.3.5.5,0,0,1-.3.63A17.48,17.48,0,0,0,466.76,28,.48.48,0,0,1,466.5,28.09Zm18.72-.38a.46.46,0,0,1-.23-.06,18.07,18.07,0,0,0-3.52-1.47.49.49,0,0,1,.29-.94,20,20,0,0,1,3.7,1.55.49.49,0,0,1,.19.67A.48.48,0,0,1,485.22,27.71Zm-11.36-2.17a.49.49,0,0,1-.06-1,19.21,19.21,0,0,1,4-.09.5.5,0,0,1,.45.53.49.49,0,0,1-.53.45,18,18,0,0,0-3.81.08Z"/></g></g></svg>