<?xml version="1.0" encoding="utf-8"?>
<!-- Generator: Adobe Illustrator 23.0.1, SVG Export Plug-In . SVG Version: 6.00 Build 0)  -->
<svg version="1.1" id="Layer_1" xmlns="http://www.w3.org/2000/svg" xmlns:xlink="http://www.w3.org/1999/xlink" x="0px" y="0px"
	 viewBox="0 0 540.5 325.4" style="enable-background:new 0 0 540.5 325.4;" xml:space="preserve">
<style type="text/css">
	.st0{fill:#FFFFFF;}
	.st1{fill:#91A7FF;}
	.st2{opacity:0.1294;}
	.st3{fill:#A6A7AB;}
	.st4{fill:#5C7CFA;}
	.st5{fill:#5C5F66;}
</style>
<title>Asset 2</title>
<g id="Layer_1-2">
	<circle class="st0" cx="401.3" cy="52.2" r="14.9"/>
	<path d="M401.3,67.6c-8.5,0-15.4-6.9-15.4-15.4s6.9-15.4,15.4-15.4c8.5,0,15.4,6.9,15.4,15.4v0C416.7,60.7,409.8,67.6,401.3,67.6z
		 M401.3,37.8c-7.9,0-14.4,6.4-14.4,14.4s6.4,14.4,14.4,14.4c7.9,0,14.4-6.4,14.4-14.4c0,0,0,0,0,0
		C415.7,44.3,409.3,37.8,401.3,37.8z"/>
	<path d="M401.5,61.3c-0.2,0-0.4-0.1-0.4-0.3l-3-6.2l-6-3.8c-0.2-0.1-0.3-0.5-0.1-0.7c0.1-0.1,0.2-0.2,0.3-0.2l15.2-4.4
		c0.2-0.1,0.4,0,0.5,0.1c0.1,0.1,0.2,0.3,0.1,0.5L402,61C401.9,61.2,401.8,61.3,401.5,61.3L401.5,61.3z M393.5,50.8l5.2,3.3
		c0.1,0,0.1,0.1,0.2,0.2l2.6,5.3l5.2-12.7L393.5,50.8z"/>
	<path d="M398.4,55c-0.3,0-0.5-0.2-0.5-0.5c0-0.1,0.1-0.3,0.2-0.4l8.3-7.6c0.2-0.2,0.5-0.2,0.7,0c0.2,0.2,0.2,0.5,0,0.7l-8.3,7.6
		C398.7,55,398.6,55.1,398.4,55z"/>
	<circle class="st1" cx="16.5" cy="195.7" r="14.9"/>
	<path d="M22.3,210c-7.9,3.2-16.8-0.6-20-8.5s0.6-16.8,8.5-20c7.9-3.2,16.8,0.6,20,8.5C34,197.9,30.2,206.8,22.3,210z M11.2,182.4
		c-7.4,3-10.9,11.3-8,18.7c3,7.4,11.3,10.9,18.7,8c7.4-3,10.9-11.3,8-18.7C26.9,183,18.5,179.4,11.2,182.4z"/>
	<path class="st0" d="M19.1,201.7l-8.1-5.3c-1.3-0.9-1.8-2.7-0.9-4.1c0.8-1.3,2.5-1.8,3.9-1c0,0,0.1,0,0.1,0.1l1.4,0.9l0.4-1.6
		c0.3-1.5,1.9-2.5,3.4-2.1c0,0,0.1,0,0.1,0c1.5,0.4,2.5,2,2.1,3.6L19.1,201.7z"/>
	<path d="M19.3,202.2c-0.1,0.1-0.3,0.1-0.5,0l-8.2-5.3c-1.6-1-2.1-3.1-1.1-4.7c0.5-0.8,1.2-1.3,2.1-1.5c0.9-0.2,1.8,0,2.6,0.5
		l0.8,0.5l0.2-1c0.2-0.9,0.8-1.6,1.5-2.1c0.8-0.5,1.7-0.6,2.5-0.4c1.8,0.5,2.9,2.3,2.5,4.2l-2.3,9.5C19.6,202,19.5,202.1,19.3,202.2
		z M11.5,191.7c-0.5,0.2-0.9,0.5-1.1,0.9c-0.7,1.2-0.4,2.6,0.8,3.4l7.6,4.9l2.1-8.8c0.3-1.3-0.5-2.7-1.8-3c-1.2-0.3-2.5,0.4-2.8,1.7
		c0,0,0,0.1,0,0.1l-0.4,1.6c-0.1,0.3-0.4,0.4-0.6,0.3c0,0-0.1,0-0.1,0l-1.4-0.9c-0.5-0.4-1.2-0.5-1.8-0.3
		C11.8,191.6,11.7,191.7,11.5,191.7z"/>
	<path class="st0" d="M540,156.5c0-12.7,0.1-23.8,0-35.7c-16.8,0-33.7,0.5-50.7,0.3c-0.2,12.2,0,23.6,0,35.4
		C506.2,156.5,523.1,156.5,540,156.5z"/>
	<path d="M489.3,157c-0.3,0-0.5-0.2-0.5-0.5c0-3.9,0-7.9,0-11.7c0-7.7-0.1-15.6,0-23.7c0-0.3,0.2-0.5,0.5-0.5l0,0
		c9.8,0.1,19.7,0,29.3-0.1c7-0.1,14.3-0.2,21.4-0.2c0.3,0,0.5,0.2,0.5,0.5c0.1,7.9,0.1,15.3,0,23.2c0,4,0,8.2,0,12.5
		c0,0.3-0.2,0.5-0.5,0.5h-25.3L489.3,157z M489.8,121.6c-0.1,7.9-0.1,15.7,0,23.2c0,3.7,0,7.5,0,11.3h24.9h24.8c0-4.1,0-8.1,0-12
		c0-7.7,0.1-15,0-22.7c-7,0-14,0.1-20.9,0.2C509.2,121.6,499.4,121.7,489.8,121.6L489.8,121.6z"/>
	<path class="st1" d="M489.3,121.3c8.9,7.4,17.7,14.9,26.5,22.4c8.3-7.4,16.3-15,24.1-23L489.3,121.3z"/>
	<path d="M515.8,144.2c-0.1,0-0.2,0-0.3-0.1l-3.6-3.1c-7.5-6.4-15.2-12.9-22.9-19.3c-0.2-0.1-0.2-0.3-0.1-0.5
		c0.1-0.2,0.3-0.3,0.5-0.3l50.6-0.6l0,0c0.2,0,0.4,0.1,0.5,0.3c0.1,0.2,0,0.4-0.1,0.5c-7.8,7.9-15.9,15.7-24.2,23
		C516.1,144.2,515.9,144.2,515.8,144.2z M490.7,121.8c7.4,6.1,14.7,12.4,21.8,18.5l3.3,2.8c7.8-7,15.6-14.3,23-21.8L490.7,121.8z"/>
	<g class="st2">
		<path d="M539.5,121.9c-0.4-0.2-0.8,0-1,0.3l-0.1,0.2c-0.2,0.2-0.4,0.5-0.7,0.7c-0.8,0.9-1.8,1.7-2.6,2.6c-1.7,1.9-3.5,3.7-5.3,5.5
			c-1.6,1.8-3.3,3.4-5.2,4.9c-0.7,0.5-2.2,1.8-3.4,2.8L521,139c-0.7,0.6-0.5,0.4-1.1,1c-1.4,1.2-2.7,2.6-4.1,3.8
			c-1.2-1.2-2.5-2.3-3.8-3.4c-3.3-3-6.7-6-10.2-8.8c-2.2-1.9-4.3-3.8-6.4-5.6c-1.3-1.2-2.6-2.4-4-3.4c0.2,0.2-0.5-0.4-0.6-0.6l0,0
			c0,0-0.1-0.1-0.1-0.1c-0.1-0.1-0.2-0.2-0.3-0.3c-0.5-0.2-1.1,0-1.3,0.5c0,0,0,0,0,0c-0.1,0.4,0.1,0.8,0.5,1
			c0.5,0.3,1.5,1.5,2.2,2.2c3,2.9,6.3,5.6,9.5,8.3c2.1,1.7,4,3.5,6,5.2c1.1,1.1,2.3,2.1,3.4,3.2c1.3,1.4,2.6,2.7,4,4.1
			c0.2,0.2,0.5,0.3,0.9,0.4c0.4,0.1,0.8,0,1.1-0.3c1.2-0.9,2.3-2,3.3-3.2c1-1.1,1.7-1.8,2.4-2.4c1.3-1.2,3.8-3.4,5.7-5.1
			c1.4-1.3,2.7-2.7,4-4.1c1.7-1.7,3.3-3.4,4.8-5.2c1-1,1.6-1.6,2.5-2.7c0.2-0.3,0.5-0.5,0.6-0.9C539.9,122.2,539.7,122,539.5,121.9z
			"/>
	</g>
	<path d="M489.5,156.9c-0.1,0-0.3-0.1-0.4-0.1c-0.2-0.2-0.2-0.5,0-0.7c6.5-6.2,13.2-12.2,20.2-17.9c0.2-0.2,0.5-0.1,0.7,0.1
		c0.2,0.2,0.1,0.5-0.1,0.7l0,0c-6.9,5.7-13.7,11.7-20.1,17.9C489.8,156.9,489.6,156.9,489.5,156.9z"/>
	<path d="M539.9,156.6c-0.1,0-0.2,0-0.3-0.1c-6.3-5.5-12.6-11.3-18.6-17.1c-0.2-0.2-0.2-0.5,0-0.7c0.2-0.2,0.5-0.2,0.7,0
		c0,0,0,0,0,0c6,5.8,12.2,11.6,18.5,17.1c0.2,0.2,0.2,0.5,0,0.7C540.1,156.5,540,156.6,539.9,156.6z"/>
	<g class="st2">
		<path d="M539,154.1L539,154.1c-0.1,0-0.1,0-0.2,0c-0.6,0.1-2.2,0-3.5,0c-4-0.2-8.1-0.2-12.1,0c-3.6,0.1-7.3,0.1-10.9,0.2
			c-3.2,0-6.5-0.3-9.7-0.3c-2.8,0-5.6,0.3-8.4,0.2c-1,0-2,0-3,0c-0.5-0.1-1.1-0.1-1.6,0c-0.6,0.3-0.8,0.9-0.6,1.5
			c0.2,0.4,0.6,0.7,1,0.7c4.2,0.4,8.4-0.1,12.6-0.1c3.2,0,6.3,0.3,9.5,0.2c5.6-0.2,11.1-0.2,16.7-0.5c2.5,0,5.1,0,7.6,0.1
			c0.6,0,1.3,0.1,1.9,0.1c0.1,0,0.2,0,0.2,0c0.5,0.2,1.1,0,1.3-0.4c0.2-0.5,0-1.2-0.5-1.4C539.3,154.2,539.2,154.1,539,154.1z"/>
	</g>
	<path class="st0" d="M264.2,143.4c10.2,0,18.5,8.6,18.5,19.2c0,4.2-1.3,8.3-3.8,11.6l2.3,9.3l-7.7-4.3c-2.8,1.7-5.9,2.5-9.2,2.5
		c-10.2,0-18.5-8.6-18.5-19.2S254,143.4,264.2,143.4z"/>
	<path d="M281.1,184c-0.1,0-0.2,0-0.2-0.1l-7.5-4.1c-2.8,1.6-6,2.5-9.2,2.5c-10.4,0-19-8.8-19-19.7s8.5-19.7,19-19.7s19,8.8,19,19.7
		c0,4.2-1.3,8.3-3.8,11.8l2.2,9.1c0,0.2,0,0.4-0.2,0.5C281.3,184,281.2,184,281.1,184z M273.4,178.7c0.1,0,0.2,0,0.2,0.1l6.8,3.7
		l-2-8.2c0-0.1,0-0.3,0.1-0.4c2.4-3.3,3.7-7.3,3.7-11.4c0-10.3-8.1-18.7-18-18.7s-18,8.4-18,18.7s8.1,18.7,18,18.7
		c3.1,0,6.2-0.9,8.9-2.5C273.1,178.8,273.2,178.7,273.4,178.7z"/>
	<path class="st1" d="M263.7,171.8l7.5-10.5c1.2-1.8,0.8-4.1-0.9-5.4c-1.7-1.2-4-0.9-5.2,0.8c0,0,0,0.1-0.1,0.1l-1.3,1.8l-1.3-1.8
		c-1.2-1.7-3.5-2.1-5.2-0.9c0,0-0.1,0-0.1,0.1c-1.7,1.3-2.1,3.7-0.8,5.4L263.7,171.8z"/>
	<path d="M263.7,172.3c-0.2,0-0.3-0.1-0.4-0.2l-7.4-10.5c-1.4-2-1-4.7,1-6.1c1.9-1.4,4.5-1,5.9,0.9c0,0,0,0.1,0.1,0.1l0.9,1.3
		l0.9-1.3c0.7-0.9,1.7-1.6,2.8-1.8c1.1-0.2,2.3,0.1,3.2,0.8c1.9,1.4,2.4,4.1,1,6.1l-7.5,10.5C264,172.2,263.9,172.3,263.7,172.3z
		 M259.3,155.6c-0.7,0-1.4,0.2-1.9,0.6c-1.5,1.1-1.8,3.2-0.7,4.8l7,10l7-10c1.1-1.5,0.7-3.6-0.7-4.8c-0.7-0.5-1.6-0.7-2.5-0.6
		c-0.9,0.1-1.7,0.6-2.2,1.4l-1.3,1.8c-0.2,0.2-0.5,0.3-0.7,0.1c0,0-0.1-0.1-0.1-0.1L262,157c-0.5-0.7-1.3-1.2-2.2-1.4
		C259.7,155.6,259.5,155.6,259.3,155.6L259.3,155.6z"/>
	<g class="st2">
		<path d="M249,173.4c-0.8-1.5-1.6-3-2.3-4.6c0.1,0,0.1-0.1,0.2-0.1c0.9-0.2,1.2,0.8,1.7,1.4c0.9,1.3,1.4,2,2.1,2.8
			c1.9,2,4.8,3.3,7.6,5c3.3,1.9,6.9,1.6,10.2,0.9c1.5-0.3,2.9-1,4.4-1.4c1.3-0.2,2.6,0.2,3.5,1.1c0.8,0.6,1.6,1.2,2.5,1.7
			c0.5,0.3,1,0.6,1.4,0.9c0.2,0.1,0.3,0.3,0.4,0.5c0.1,0.5-0.1,1-0.6,1.1c-0.2,0.1-0.5,0-0.7-0.1c-1.5-1-3.1-1.8-4.6-2.9
			c-0.9-0.6-1.2-0.5-1.5-0.5c-1.5,0.4-2.9,1.2-4.4,1.6c-4.4,1.2-8.7,1-12.5-1.6c-2.2-1.5-4.7-2.7-6.6-4.6
			C249.5,174.4,249.3,173.9,249,173.4z"/>
	</g>
	
		<ellipse transform="matrix(0.4322 -0.9018 0.9018 0.4322 -201.0041 193.9109)" class="st3" cx="53.5" cy="256.6" rx="21.2" ry="21.2"/>
	<path d="M61.6,276.7l-0.3,0.1c-11.1,4.3-23.7-1.2-28-12.3l0,0c-4.3-11.2,1.2-23.7,12.3-28s23.7,1.2,28,12.3
		C78,259.8,72.6,272.2,61.6,276.7L61.6,276.7z M34.2,264.1c4.2,10.7,16.2,15.9,26.8,11.8l0.2-0.1c10.5-4.2,15.6-16.1,11.5-26.7
		c-4.1-10.7-16.1-15.9-26.8-11.8S30.1,253.4,34.2,264.1L34.2,264.1z"/>
	<path d="M48.1,242.8L48.1,242.8c-0.3,0.1-0.5,0-0.6-0.3c0,0,0,0,0,0l-1-2.7c-0.1-0.3,0-0.5,0.3-0.6s0.5,0,0.6,0.3l0,0l1,2.7
		C48.5,242.4,48.4,242.7,48.1,242.8z"/>
	<path d="M60.2,273.9L60.2,273.9c-0.3,0.1-0.5,0-0.6-0.3l-1-2.7c-0.1-0.2,0-0.5,0.3-0.6l0,0c0.2-0.1,0.5,0,0.6,0.3c0,0,0,0,0,0
		l1,2.7C60.6,273.5,60.5,273.8,60.2,273.9z"/>
	<path d="M70.5,250.4L70.5,250.4l-2.7,1c-0.3,0.1-0.5,0-0.6-0.3c0,0,0,0,0,0c-0.1-0.3,0-0.5,0.3-0.6l2.7-1c0.3-0.1,0.5,0.1,0.6,0.3
		C70.9,250.1,70.8,250.3,70.5,250.4z"/>
	<path d="M39.5,262.5L39.5,262.5l-2.7,1c-0.3,0.1-0.5,0-0.6-0.3c0,0,0,0,0,0c-0.1-0.3,0-0.5,0.3-0.6l0,0l2.7-1
		c0.3-0.1,0.5,0,0.6,0.3c0,0,0,0,0,0C39.8,262.2,39.7,262.4,39.5,262.5z"/>
	<path d="M53.9,256.4c-0.1,0.1-0.3,0.1-0.4,0c-0.2-0.1-0.4-0.4-0.3-0.6c0,0,0,0,0,0l4.5-10.2c0.1-0.2,0.4-0.4,0.6-0.3c0,0,0,0,0,0
		c0.2,0.1,0.4,0.4,0.3,0.6c0,0,0,0,0,0l-4.5,10.2C54.2,256.2,54.1,256.3,53.9,256.4z"/>
	<path class="st0" d="M51.3,257.4c-0.5-1.2,0.1-2.5,1.3-3s2.5,0.1,3,1.3c0.4,1.2-0.1,2.5-1.3,2.9C53.2,259.2,51.8,258.6,51.3,257.4
		C51.4,257.4,51.4,257.4,51.3,257.4z"/>
	<path d="M54.5,259.1L54.5,259.1c-1.4,0.6-3-0.1-3.6-1.6l0,0c-0.5-1.4,0.1-3,1.5-3.6l0,0c0.7-0.3,1.4-0.3,2.1,0
		c1.4,0.6,2,2.3,1.4,3.7C55.7,258.3,55.2,258.8,54.5,259.1L54.5,259.1z M51.8,257.2c0.4,0.9,1.5,1.3,2.4,0.9c0.9-0.4,1.3-1.3,1-2.2
		c-0.2-0.4-0.5-0.8-1-1c-0.9-0.4-2,0-2.4,0.9C51.6,256.3,51.6,256.8,51.8,257.2L51.8,257.2z"/>
	<circle class="st0" cx="511.6" cy="196.3" r="14.9"/>
	<path d="M511.6,211.6c-8.5,0-15.4-6.9-15.4-15.4s6.9-15.4,15.4-15.4c8.5,0,15.4,6.9,15.4,15.4C527,204.8,520.1,211.7,511.6,211.6z
		 M511.6,181.9c-7.9,0-14.4,6.4-14.4,14.4s6.4,14.4,14.4,14.4c7.9,0,14.4-6.4,14.4-14.4c0,0,0,0,0,0
		C526,188.4,519.6,181.9,511.6,181.9z"/>
	<path d="M518.4,196.8h-13.4c-0.3,0-0.5-0.2-0.5-0.5s0.2-0.5,0.5-0.5h13.4c0.3,0,0.5,0.2,0.5,0.5S518.6,196.8,518.4,196.8z"/>
	<path d="M518.4,202.5h-13.4c-0.3,0-0.5-0.2-0.5-0.5s0.2-0.5,0.5-0.5h13.4c0.3,0,0.5,0.2,0.5,0.5S518.6,202.5,518.4,202.5z"/>
	<path d="M518.4,191.1h-13.4c-0.3,0-0.5-0.2-0.5-0.5s0.2-0.5,0.5-0.5h13.4c0.3,0,0.5,0.2,0.5,0.5S518.6,191.1,518.4,191.1z"/>
	<circle class="st0" cx="511.6" cy="196.3" r="14.9"/>
	<path d="M511.6,211.6c-8.5,0-15.4-6.9-15.4-15.4s6.9-15.4,15.4-15.4c8.5,0,15.4,6.9,15.4,15.4C527,204.8,520.1,211.7,511.6,211.6z
		 M511.6,181.9c-7.9,0-14.4,6.4-14.4,14.4s6.4,14.4,14.4,14.4c7.9,0,14.4-6.4,14.4-14.4c0,0,0,0,0,0
		C526,188.4,519.6,181.9,511.6,181.9z"/>
	<path d="M518.4,196.8h-13.4c-0.3,0-0.5-0.2-0.5-0.5s0.2-0.5,0.5-0.5h13.4c0.3,0,0.5,0.2,0.5,0.5S518.6,196.8,518.4,196.8z"/>
	<path d="M518.4,202.5h-13.4c-0.3,0-0.5-0.2-0.5-0.5s0.2-0.5,0.5-0.5h13.4c0.3,0,0.5,0.2,0.5,0.5S518.6,202.5,518.4,202.5z"/>
	<path d="M518.4,191.1h-13.4c-0.3,0-0.5-0.2-0.5-0.5s0.2-0.5,0.5-0.5h13.4c0.3,0,0.5,0.2,0.5,0.5S518.6,191.1,518.4,191.1z"/>
	<g class="st2">
		<path d="M526.8,194.3c-0.2,0.2-0.3,0.4-0.3,0.7c-0.2,0.6-0.4,1.3-0.6,1.9c-0.3,1.4-0.9,2.8-1.6,4c-1.9,3.5-3.8,5.1-7.7,6.9
			c-2.2,1.1-4,1.3-7.2,1.2c-1.6-0.2-3.2-0.5-4.8-1c-0.9-0.3-1.8-0.7-2.6-1.3c-1-0.5-1.9-1.2-2.6-2c-0.5-0.5-0.9-0.9-1.4-1.4
			c-0.1-0.1-0.1-0.1-0.2-0.2c0.3,0.7,0.6,1.3,1,1.9l0.6,0.7c0.6,0.8,1.3,1.5,2,2.2c0.3,0.2,0.6,0.4,1,0.6c4.1,2.3,8.8,3.1,13.4,2.4
			c4.2-1.5,8.1-4.4,10.2-8.4c0.1-0.2,0.2-0.4,0.4-0.7s0.1-0.3,0.1-0.5c0.1-2.4,0.3-4.9,0.6-7.3C527,194.1,526.9,194.2,526.8,194.3z"
			/>
	</g>
	<path class="st0" d="M518.1,298.2l-3.8-12.2c-0.6-2,0.5-4.2,2.5-4.9c2-0.7,4.1,0.4,4.7,2.3c0,0,0,0.1,0,0.1l0.7,2.1l1.8-1.3
		c1.6-1.2,4-0.9,5.2,0.7c0,0,0,0.1,0.1,0.1c1.2,1.7,0.8,4.1-0.9,5.4L518.1,298.2z"/>
	<path d="M518,298.7c-0.1-0.1-0.3-0.2-0.3-0.3l-3.8-12.3c-0.7-2.3,0.5-4.7,2.8-5.5c2.2-0.7,4.6,0.4,5.3,2.6c0,0,0,0.1,0,0.1l0.5,1.5
		l1.2-0.9c1.9-1.4,4.5-1,5.9,0.8c0,0,0,0.1,0.1,0.1c1.4,2,0.9,4.7-1,6.1l-10.3,7.7C518.3,298.7,518.2,298.7,518,298.7z M519,281.5
		c-0.6-0.2-1.4-0.2-2,0c-1.8,0.6-2.7,2.5-2.2,4.3l3.6,11.6l9.7-7.3c1.5-1.1,1.8-3.2,0.8-4.7c-0.5-0.7-1.3-1.2-2.1-1.3
		c-0.9-0.1-1.8,0.1-2.5,0.6l-1.8,1.3c-0.2,0.2-0.6,0.1-0.7-0.1c0,0,0-0.1-0.1-0.1l-0.7-2.1c-0.2-0.9-0.8-1.6-1.6-2
		C519.3,281.6,519.2,281.6,519,281.5z"/>
	<path class="st0" d="M102.6,305.3L102.6,305.3c-3.8-5.3-2.5-12.7,2.8-16.5l25.7-18.2l-6.5-9.1l-26.4,18.7
		c-10.4,7.3-12.9,21.7-5.5,32.1c0,0,0,0.1,0.1,0.1l0,0c7.3,10.4,21.7,12.8,32.1,5.5c0,0,0.1,0,0.1-0.1l26.4-18.7l-6.5-9.2
		l-25.7,18.2C113.8,311.9,106.4,310.6,102.6,305.3z"/>
	<path d="M111.5,322.5c-13,0-23.6-10.5-23.6-23.5c0-7.7,3.7-14.8,9.9-19.3l26.4-18.7c0.2-0.2,0.5-0.1,0.7,0.1l6.5,9.2
		c0.2,0.2,0.1,0.5-0.1,0.7c0,0,0,0,0,0l-25.7,18.2c-5.2,3.5-6.6,10.6-3.1,15.7c3.5,5.2,10.6,6.6,15.7,3.1c0.1-0.1,0.3-0.2,0.4-0.3
		l25.7-18.2c0.1-0.1,0.2-0.1,0.4-0.1c0.1,0,0.2,0.1,0.3,0.2l6.5,9.1c0.1,0.2,0.1,0.5-0.1,0.7l-26.4,18.7
		C121.1,321,116.4,322.5,111.5,322.5z M124.5,262.1l-26,18.4c-10.2,7.1-12.7,21.2-5.6,31.4c7.1,10.2,21.2,12.7,31.4,5.6
		c0.1-0.1,0.2-0.1,0.3-0.2l26-18.4l-5.9-8.4l-25.3,17.9c-5.6,3.9-13.2,2.6-17.2-2.9c-1.9-2.7-2.6-6-2.1-9.2c0.5-3.2,2.3-6.1,5-8
		l25.3-17.9L124.5,262.1z"/>
	
		<rect x="120.1" y="264" transform="matrix(0.8164 -0.5775 0.5775 0.8164 -132.7768 121.6452)" class="st1" width="9.6" height="11.3"/>
	<path d="M123.3,276.6c-0.2,0-0.3-0.1-0.4-0.2l-6.5-9.1c-0.1-0.1-0.1-0.2-0.1-0.4c0-0.1,0.1-0.2,0.2-0.3l7.8-5.5
		c0.2-0.2,0.5-0.1,0.7,0.1l6.5,9.2c0.2,0.2,0.1,0.5-0.1,0.7c0,0,0,0,0,0l-7.8,5.5C123.5,276.6,123.4,276.6,123.3,276.6z
		 M117.5,267.1l5.9,8.4l7-5l-5.9-8.4L117.5,267.1z"/>
	
		<rect x="139.3" y="291.6" transform="matrix(0.8159 -0.5781 0.5781 0.8159 -145.3271 138.0211)" class="st1" width="9.6" height="11.2"/>
	<path d="M143.4,305.1L143.4,305.1c-0.2,0-0.3-0.1-0.4-0.2l-6.5-9.1c-0.2-0.2-0.1-0.5,0.1-0.7l7.8-5.5c0.1-0.1,0.2-0.1,0.4-0.1
		c0.1,0,0.2,0.1,0.3,0.2l6.5,9.1c0.1,0.2,0.1,0.5-0.1,0.7l-7.8,5.5C143.6,305.1,143.5,305.1,143.4,305.1z M137.6,295.5l5.9,8.4l7-5
		l-5.9-8.4L137.6,295.5z"/>
	<path d="M93,313.3c-0.2,0-0.3-0.1-0.4-0.2c-0.2-0.2-0.1-0.5,0.1-0.7l9.9-7c0.2-0.2,0.5-0.1,0.7,0.1c0.2,0.2,0.1,0.5-0.1,0.7l-9.9,7
		C93.2,313.2,93.1,313.3,93,313.3z"/>
	<path d="M90.4,303.3L90.4,303.3c-0.1,0-0.2-0.1-0.1-0.2l8.1-21.2c0-0.1,0.1-0.1,0.2-0.1c0,0,0,0,0,0c0.1,0,0.1,0.1,0.1,0.2
		c0,0,0,0,0,0l-8.1,21.2C90.5,303.3,90.5,303.3,90.4,303.3z"/>
	<path d="M91.4,306.7L91.4,306.7c-0.1,0-0.2-0.1-0.2-0.2c0,0,0,0,0,0l10.3-26.9c0-0.1,0.1-0.1,0.2-0.1c0,0,0,0,0,0
		c0.1,0,0.1,0.1,0.1,0.2c0,0,0,0,0,0l-10.3,26.9C91.5,306.7,91.4,306.7,91.4,306.7z"/>
	<path d="M92.8,309.4L92.8,309.4c-0.1,0-0.2-0.1-0.2-0.2c0,0,0,0,0,0l12.2-31.8c0-0.1,0.1-0.1,0.2-0.1c0,0,0,0,0,0
		c0.1,0,0.1,0.1,0.1,0.2c0,0,0,0,0,0L93,309.3C93,309.4,92.9,309.4,92.8,309.4z"/>
	<path d="M95.3,309.4L95.3,309.4c-0.1,0-0.2-0.1-0.1-0.2l3.6-9.3c0-0.1,0.1-0.1,0.2-0.1c0,0,0,0,0,0c0.1,0,0.1,0.1,0.1,0.2l-3.6,9.3
		C95.4,309.4,95.4,309.4,95.3,309.4z"/>
	<path d="M98.5,307.1L98.5,307.1c-0.1,0-0.2-0.1-0.1-0.2l1.2-3.1c0-0.1,0.1-0.1,0.2-0.1c0.1,0,0.1,0.1,0.1,0.2l-1.2,3.1
		C98.6,307.1,98.6,307.1,98.5,307.1z"/>
	<path d="M90.3,297.3L90.3,297.3c-0.1,0-0.2-0.1-0.2-0.2c0,0,0,0,0,0l4.1-10.8c0-0.1,0.1-0.1,0.2-0.1c0,0,0,0,0,0
		c0.1,0,0.1,0.1,0.1,0.2l-4.1,10.8C90.4,297.3,90.4,297.3,90.3,297.3z"/>
	<path d="M103.7,288.2L103.7,288.2c-0.1,0-0.1-0.1-0.1-0.2c1.4-4.5,3-9,4.7-13.3c0-0.1,0.1-0.1,0.2-0.1c0.1,0,0.1,0.1,0.1,0.2
		c0,0,0,0,0,0c-1.7,4.4-3.3,8.9-4.7,13.3C103.9,288.2,103.8,288.2,103.7,288.2C103.7,288.2,103.7,288.2,103.7,288.2z"/>
	<path d="M107,285.9L107,285.9c-0.1,0-0.1-0.1-0.1-0.2l4.3-13c0-0.1,0.1-0.1,0.2-0.1c0,0,0,0,0,0c0.1,0,0.1,0.1,0.1,0.2c0,0,0,0,0,0
		l-4.3,13C107.2,285.9,107.1,285.9,107,285.9C107,285.9,107,285.9,107,285.9z"/>
	<path d="M110.2,283.7L110.2,283.7c-0.1,0-0.1-0.1-0.1-0.2c0,0,0,0,0,0l4.4-13.2c0-0.1,0.1-0.1,0.2-0.1s0.1,0.1,0.1,0.2l-4.4,13.2
		C110.3,283.6,110.3,283.7,110.2,283.7z"/>
	<path d="M113.5,281.3L113.5,281.3c-0.1,0-0.1-0.1-0.1-0.2c0,0,0,0,0,0c1.1-3.6,2.3-7.1,3.7-10.6c0-0.1,0.1-0.1,0.2-0.1
		s0.1,0.1,0.1,0.2l0,0c-1.3,3.5-2.6,7-3.7,10.6C113.7,281.3,113.6,281.3,113.5,281.3C113.5,281.3,113.5,281.3,113.5,281.3z"/>
	<path d="M116.9,279.1L116.9,279.1c-0.1,0-0.1-0.1-0.1-0.2c0.6-2,1.3-4,2-5.9c0-0.1,0.1-0.1,0.2-0.1c0.1,0,0.1,0.1,0.1,0.2
		c-0.7,1.9-1.3,3.9-1.9,5.9C117.2,279.1,117.1,279.2,116.9,279.1C116.9,279.1,116.9,279.1,116.9,279.1z"/>
	<path d="M119.7,277.1L119.7,277.1c-0.1,0-0.2-0.1-0.1-0.2l0.6-1.7c0-0.1,0.1-0.1,0.2-0.1s0.1,0.1,0.1,0.2l-0.6,1.6
		C119.8,277.1,119.7,277.1,119.7,277.1z"/>
	<g class="st2">
		<path d="M150.2,300.1c0.7-0.2,1.1-1,0.9-1.7c-0.1-0.2-0.2-0.4-0.3-0.5c-0.6-0.5-1.4-0.5-2,0.1c-0.1,0.1-0.2,0.2-0.2,0.3
			c-0.5,0.4-0.6,0.5-0.8,0.7c-1.4,1-2.8,1.8-4.1,2.8c-3.8,2.5-7.5,5.1-9.7,6.9c-3.4,2.7-7,5.2-10.7,7.4c-3.1,1.7-6.5,2.9-10,3.6
			c-0.4,0.1-0.8,0.1-1.2,0.1c-1.1,0-2.3,0-3.4-0.1c-1,0-1.9-0.1-2.9-0.1c-0.3,0-0.7,0-1,0.1c-0.6,0.3-0.8,0.9-0.6,1.5
			c0.2,0.4,0.6,0.7,1,0.7c2.7,0,5.3,0.4,8,0.5c2-0.2,4-0.6,5.9-1.4c5.5-1.9,10.2-5.5,14.8-9c2.4-1.9,8.4-6,10.8-7.9
			c1.5-1.2,3.2-2.4,4.9-3.5l0.3-0.2l0,0L150.2,300.1z"/>
	</g>
	<path class="st4" d="M289.6,27.9h48.2c17.6,0,31.8,14.2,31.8,31.8v0c0,17.6-14.2,31.8-31.8,31.8h-48.2c-17.6,0-31.8-14.2-31.8-31.8
		v0C257.8,42.2,272.1,27.9,289.6,27.9z"/>
	<path d="M316.6,42.9h-42.8c-0.3,0-0.5-0.2-0.5-0.5s0.2-0.5,0.5-0.5h42.8c0.3,0,0.5,0.2,0.5,0.5S316.9,42.9,316.6,42.9z"/>
	<path d="M307.8,53.6h-34c-0.3,0-0.5-0.2-0.5-0.5s0.2-0.5,0.5-0.5h34c0.3,0,0.5,0.2,0.5,0.5S308.1,53.6,307.8,53.6z"/>
	<path d="M322.2,64.3h-48.4c-0.3,0-0.5-0.2-0.5-0.5c0-0.3,0.2-0.5,0.5-0.5h48.4c0.3,0,0.5,0.2,0.5,0.5
		C322.7,64.1,322.5,64.3,322.2,64.3z"/>
	<path d="M307.8,75h-34c-0.3,0-0.5-0.2-0.5-0.5c0,0,0,0,0,0c0-0.3,0.2-0.5,0.5-0.5c0,0,0,0,0,0h34c0.3,0,0.5,0.2,0.5,0.5
		C308.3,74.8,308.1,75,307.8,75C307.8,75,307.8,75,307.8,75z"/>
	<path d="M353.6,75h-31.4c-0.3,0-0.5-0.2-0.5-0.5c0,0,0,0,0,0c0-0.3,0.2-0.5,0.5-0.5c0,0,0,0,0,0h31.4c0.3,0,0.5,0.2,0.5,0.5
		C354.1,74.8,353.9,75,353.6,75C353.6,75,353.6,75,353.6,75z"/>
	<path d="M353.6,64.3h-18.2c-0.3,0-0.5-0.2-0.5-0.5c0-0.3,0.2-0.5,0.5-0.5h18.2c0.3,0,0.5,0.2,0.5,0.5
		C354.1,64.1,353.9,64.3,353.6,64.3z"/>
	<path d="M353.6,53.6h-31.4c-0.3,0-0.5-0.2-0.5-0.5s0.2-0.5,0.5-0.5h31.4c0.3,0,0.5,0.2,0.5,0.5S353.9,53.6,353.6,53.6z"/>
	<path d="M353.6,42.9H329c-0.3,0-0.5-0.2-0.5-0.5s0.2-0.5,0.5-0.5h24.5c0.3,0,0.5,0.2,0.5,0.5S353.9,42.9,353.6,42.9z"/>
	
		<ellipse transform="matrix(0.9218 -0.3877 0.3877 0.9218 8.1492 103.9549)" class="st0" cx="261.7" cy="31.8" rx="21.3" ry="21.3"/>
	<path d="M261.7,53.6c-12.1,0-21.8-9.8-21.8-21.8s9.8-21.8,21.8-21.8c12.1,0,21.8,9.8,21.8,21.8c0,0,0,0,0,0
		C283.5,43.8,273.8,53.6,261.7,53.6z M261.7,10.9c-11.5,0-20.8,9.3-20.8,20.8s9.3,20.8,20.8,20.8s20.8-9.3,20.8-20.8c0,0,0,0,0,0
		C282.6,20.3,273.2,10.9,261.7,10.9z"/>
	<path class="st0" d="M253.4,36.7c1.1-1,2.8-1,3.9,0.1c1,1.1,1,2.8-0.1,3.9c-1.1,1-2.7,1-3.7,0C252.3,39.6,252.3,37.8,253.4,36.7z"
		/>
	<path d="M255.3,41.8c-0.8,0-1.6-0.3-2.1-0.8c-1.4-1.2-1.6-3.3-0.4-4.8s3.3-1.6,4.8-0.4c1.4,1.2,1.6,3.3,0.4,4.8
		c0,0-0.1,0.1-0.1,0.1C257.2,41.4,256.2,41.8,255.3,41.8z M255.6,36.2c-0.7,0-1.4,0.3-1.8,0.8c-0.8,1-0.6,2.4,0.4,3.2
		c1,0.8,2.4,0.6,3.2-0.4c0.7-0.9,0.6-2.3-0.2-3.1C256.7,36.4,256.2,36.2,255.6,36.2z"/>
	<path class="st1" d="M271.8,24.1c1-1,1-2.5,0.1-3.5c-1-1-2.5-1-3.5-0.1c-0.1,0.1-0.1,0.1-0.2,0.2l-1.2,1.3l0,0
		c-2.2-1.9-5.4-1.6-7.3,0.5l-6.1,6.6l-6.4,1.6l16.3,15.1l1.1-6.5l6.1-6.6c2-2,2-5.3-0.1-7.3L271.8,24.1z"/>
	<path d="M263.4,46.3c-0.1,0-0.2,0-0.3-0.1l-16.3-15.1c-0.2-0.2-0.2-0.5,0-0.7c0.1-0.1,0.1-0.1,0.2-0.1l6.3-1.6l6-6.5
		c1-1.1,2.5-1.8,4-1.9c1.3-0.1,2.6,0.3,3.6,1.1l0.9-1c0.6-0.6,1.3-0.9,2.1-1c0.8-0.1,1.6,0.2,2.2,0.8c0.6,0.6,0.9,1.3,0.9,2.1
		c0,0.8-0.3,1.6-0.9,2.2l0,0l-0.9,1c0.9,1,1.4,2.2,1.4,3.5c0,1.5-0.6,2.9-1.7,4l-6,6.6l-1.1,6.3c0,0.2-0.2,0.3-0.3,0.4L263.4,46.3z
		 M248.1,31L263,44.9l1-5.6c0-0.1,0.1-0.2,0.1-0.3l6.1-6.6c0.9-0.9,1.4-2.2,1.4-3.4c0-1.2-0.5-2.4-1.4-3.2c-0.1-0.1-0.2-0.2-0.2-0.3
		c0-0.1,0-0.3,0.1-0.4l1.2-1.3c0.4-0.4,0.6-1,0.6-1.5c0-0.5-0.2-1.1-0.6-1.4c-0.4-0.4-0.9-0.5-1.5-0.5c-0.6,0-1.1,0.3-1.5,0.7
		l-1.2,1.3c-0.1,0.1-0.2,0.2-0.3,0.2c-0.1,0-0.3,0-0.4-0.1c-0.9-0.8-2.1-1.2-3.3-1.1c-1.3,0.1-2.4,0.7-3.3,1.6l-6.1,6.6
		c-0.1,0.1-0.1,0.1-0.2,0.1L248.1,31z M271.8,24.1L271.8,24.1z"/>
	<g class="st2">
		<path d="M273.9,49.9c1.6-1.6,3.2-3.2,4.7-4.8l0.3-0.3c0.4-0.7,0.8-1.5,1.2-2.2c0.5-1,1-2.1,1.5-3.1c-0.3,0.3-0.6,0.6-0.8,1
			c-0.1,0.2-0.5,0.7-0.7,0.9c-1.2,1.5-2.6,2.9-4.2,4.2c-1.7,1.4-3.6,2.5-5.6,3.3c-1.5,0.5-3.1,0.7-4.6,0.7c-2,0.2-4,0.3-6,0.3
			c-3-0.2-6-1-8.6-2.5c-1.4-0.8-2.8-1.4-4.1-2.2c-0.9-0.6-1.7-1.3-2.5-1.9c-0.6-0.6-1.1-1.4-1.6-2.1c-0.2-0.4-0.5-0.8-0.9-0.9
			c-0.2,0-0.3,0-0.5,0c0.7,1.1,1.4,2.3,2.1,3.5c1.1,1.2,2.2,2.4,3.4,3.6c0.6,0.6,1.2,1.1,1.8,1.7c2.2,1.3,4.5,2.3,7,3
			c2.9,0.6,5.8,0.7,8.7,0.4c1.6-0.1,3.1-0.2,4.7-0.5c1.6-0.4,3.2-1,4.6-1.9L273.9,49.9z"/>
	</g>
	<path class="st4" d="M223,285.6h-48.2c-17.6,0-31.8-14.2-31.8-31.8v0c0-17.6,14.2-31.8,31.8-31.8H223c17.6,0,31.8,14.2,31.8,31.8v0
		C254.8,271.3,240.6,285.6,223,285.6z"/>
	<path d="M238.8,271.6H196c-0.3,0-0.5-0.2-0.5-0.5s0.2-0.5,0.5-0.5h42.8c0.3,0,0.5,0.2,0.5,0.5S239,271.6,238.8,271.6L238.8,271.6z"
		/>
	<path d="M238.8,260.9h-34c-0.3,0-0.5-0.2-0.5-0.5s0.2-0.5,0.5-0.5l0,0h34c0.3,0,0.5,0.2,0.5,0.5S239.1,260.9,238.8,260.9z"/>
	<path d="M238.8,250.2h-48.4c-0.3,0-0.5-0.2-0.5-0.5s0.2-0.5,0.5-0.5h48.4c0.3,0,0.5,0.2,0.5,0.5S239.1,250.2,238.8,250.2z"/>
	<path d="M238.8,239.5h-34c-0.3,0-0.5-0.2-0.5-0.5s0.2-0.5,0.5-0.5l0,0h34c0.3,0,0.5,0.2,0.5,0.5S239.1,239.5,238.8,239.5z"/>
	<path d="M190.4,239.5h-31.4c-0.3,0-0.5-0.2-0.5-0.5s0.2-0.5,0.5-0.5h31.4c0.3,0,0.5,0.2,0.5,0.5S190.7,239.5,190.4,239.5z"/>
	<path d="M177.3,250.2h-18.2c-0.3,0-0.5-0.2-0.5-0.5s0.2-0.5,0.5-0.5h18.2c0.3,0,0.5,0.2,0.5,0.5S177.5,250.2,177.3,250.2
		L177.3,250.2z"/>
	<path d="M190.4,260.9h-31.4c-0.3,0-0.5-0.2-0.5-0.5s0.2-0.5,0.5-0.5h31.4c0.3,0,0.5,0.2,0.5,0.5S190.7,260.9,190.4,260.9z"/>
	<path d="M183.6,271.6h-24.5c-0.3,0-0.5-0.2-0.5-0.5s0.2-0.5,0.5-0.5h24.5c0.3,0,0.5,0.2,0.5,0.5S183.9,271.6,183.6,271.6z"/>
	<path class="st1" d="M119.1,85.1c2.9,6.5,1.7,14.9-3.6,19.7c-2.9,2.6-6.7,4-9.7,6.3s-5.5,6.4-4,10c0.5,0.9,0.9,1.8,1.2,2.7
		c0.5,2.6-2,4.6-3.8,6.6c-4.1,4.3-5.1,12-0.7,16c3.4,3.2,8.7,3.2,13.3,2.8c6.3-0.5,12.9-1.5,18.3-4.8s9.2-8.7,11.3-14.6
		c2-5.9,2.9-12.2,2.6-18.5c-0.1-7.2-1.2-14.8-5.5-20.6S126.1,81.5,119.1,85.1z"/>
	<path d="M108.1,150c-3.7,0-7.4-0.6-10-3.1c-1.9-1.8-3-4.4-3-7c-0.1-3.6,1.2-7.1,3.7-9.7c0.3-0.3,0.5-0.6,0.8-0.8
		c1.6-1.6,3.3-3.3,2.9-5.3c-0.1-0.6-0.4-1.1-0.7-1.6c-0.2-0.3-0.3-0.7-0.5-1c-1.6-3.9,1-8.2,4.2-10.6c1.4-1,2.9-2,4.4-2.8
		c1.9-1,3.7-2.2,5.3-3.5c5-4.5,6.4-12.5,3.5-19.1c-0.1-0.2,0-0.5,0.2-0.6c7.5-3.9,15.9,0.1,20.1,5.8c3.7,5,5.5,11.7,5.6,20.9
		c0.1,7.3-0.8,13.5-2.7,18.7c-2.1,6.1-6.1,11.3-11.5,14.8c-5.5,3.4-12.1,4.3-18.5,4.9C110.6,149.9,109.3,150,108.1,150z M119.7,85.4
		c2.9,6.9,1.3,15.2-3.9,19.8c-1.7,1.4-3.5,2.6-5.5,3.7c-1.5,0.8-2.9,1.7-4.3,2.7c-2.8,2.2-5.3,6.1-3.9,9.5c0.1,0.3,0.3,0.6,0.4,0.9
		c0.3,0.6,0.6,1.2,0.8,1.9c0.5,2.5-1.4,4.5-3.2,6.2c-0.3,0.3-0.5,0.5-0.8,0.8c-2.2,2.5-3.5,5.7-3.4,9c0,2.4,1,4.6,2.7,6.3
		c3.2,3,8.2,3.1,13,2.7c6.2-0.5,12.7-1.4,18.1-4.7c5.2-3.4,9.1-8.5,11.1-14.4c1.9-5.1,2.8-11.1,2.7-18.3c-0.1-9-1.8-15.5-5.4-20.3
		C134.3,85.8,126.6,82.1,119.7,85.4L119.7,85.4z"/>
	<path class="st1" d="M148.3,55.2c2,10.1,4.4,21,11.9,28.1c2.4,2.3,5.3,4.1,7.6,6.6c2.6,3.1,4.5,6.7,5.5,10.5
		c2.3,7.2,3.2,15.2,0.4,22.2c-2.8,7-10,12.6-17.5,11.6c-6.6-0.9-11.8-6.4-14-12.7s-2-13.1-1.6-19.7
		C141.6,86.1,144.2,70.5,148.3,55.2z"/>
	<path d="M157.8,134.9c-0.6,0-1.1,0-1.7-0.1c-6.2-0.8-11.8-5.9-14.4-13c-2.3-6.4-2.1-13.3-1.6-19.9c1-15.8,3.6-31.5,7.7-46.8
		c0.1-0.2,0.3-0.4,0.5-0.4c0.2,0,0.4,0.2,0.5,0.4c2.2,11.3,4.6,21.1,11.7,27.8c1,1,2.1,1.8,3.2,2.7c1.6,1.2,3,2.5,4.4,3.9
		c2.3,2.6,4.1,6,5.6,10.7c2.8,8.7,2.9,16.3,0.4,22.5C171.3,130,164.5,134.9,157.8,134.9z M148.2,57.3c-3.8,14.6-6.2,29.6-7.2,44.7
		c-0.4,6.4-0.7,13.2,1.6,19.5c2.4,6.8,7.8,11.6,13.6,12.4c6.8,0.9,14.1-4,17-11.3c2.4-6.1,2.3-13.4-0.4-21.9
		c-1.5-4.6-3.2-7.9-5.4-10.4c-1.3-1.4-2.8-2.7-4.3-3.8c-1.1-0.9-2.2-1.8-3.3-2.8C153,77.1,150.4,67.9,148.2,57.3z"/>
	<path class="st0" d="M151.8,111.8c-1.7-5.4-3.1-10.9-4.1-16.5c-2.4-0.4-4.9-0.5-7.3-0.1c-1.1,0-2.1,0.5-2.9,1.3
		c-0.3,0.6-0.5,1.2-0.5,1.9l-1.4,13.4c-0.2,0.9,0.3,1.7,1.1,2C141.6,116.4,147.7,115.7,151.8,111.8z"/>
	<path d="M142.8,115.9c-2.2,0-4.5-0.6-6.4-1.7c-1-0.4-1.6-1.5-1.4-2.5l1.4-13.4c0-0.7,0.2-1.5,0.6-2.1c0.8-0.9,2-1.5,3.2-1.5
		c2.5-0.3,5-0.3,7.4,0.1c0.2,0,0.4,0.2,0.4,0.4c1,5.6,2.4,11,4.1,16.4c0.1,0.2,0,0.4-0.1,0.5C149.6,114.6,146.3,115.9,142.8,115.9z
		 M143.6,95.5c-1.1,0-2.1,0.1-3.2,0.2c-1,0-1.9,0.4-2.6,1.1c-0.3,0.5-0.4,1.1-0.4,1.6l-1.5,13.4c-0.1,0.3-0.1,0.5,0,0.8
		c0.2,0.3,0.5,0.6,0.9,0.8c4.7,2.5,10.4,1.8,14.4-1.7c-1.7-5.2-3-10.5-4-15.9C146,95.6,144.8,95.5,143.6,95.5z"/>
	<path class="st0" d="M151.4,56.6c1.3,4.9,2.4,10.1,5.6,14.2c1.7,2.2,7,15-1.7,22.9c-4.8,4.4-11.4,6.4-17.8,5.3
		c-4.7-0.7-12.2-5.9-14.3-13.3c-2.8,2.2-6.7,1.4-7.9-1.4c-0.7-2,0.3-4.2,2.2-5.1c1-0.5,2.1-0.6,3.1-0.2c-0.6-3.8-1.7-7.4-3.2-10.9
		c1.9-5.4,6.7-9.7,12-13c1.7-1.1,3.6-2,5.6-2.6C140.6,50.9,150.1,51.6,151.4,56.6z"/>
	<path d="M140.9,99.7c-1.2,0-2.3-0.1-3.5-0.3c-4.6-0.7-12.1-5.6-14.5-13c-1.4,0.9-3.1,1.2-4.7,0.8c-1.5-0.4-2.8-1.4-3.4-2.8
		c-0.4-1.1-0.3-2.3,0.2-3.4c0.9-1.9,2.9-3,5-2.7c-0.6-3.5-1.7-6.8-3.1-10.1c0-0.1,0-0.2,0-0.4c2.1-6,7.8-10.5,12.1-13.2
		c1.8-1.1,3.7-2,5.7-2.7c4.1-1.2,10.4-1.2,14.2,0.9c1.4,0.7,2.5,2,2.9,3.5l0.5,1.8c1.1,4.3,2.3,8.7,5,12.2c2.1,2.7,7,15.6-1.8,23.5
		C151.6,97.7,146.3,99.7,140.9,99.7z M123.2,85.2h0.2c0.2,0.1,0.3,0.2,0.3,0.3c2,7.3,9.5,12.3,13.9,12.9c6.3,1,12.8-0.9,17.5-5.2
		c8.8-8,2.8-20.7,1.6-22.2c-2.8-3.7-4-8.2-5.2-12.6l-0.5-1.8l0,0c-0.4-1.3-1.3-2.3-2.5-2.9c-3.5-2-9.6-1.9-13.5-0.8
		c-1.9,0.6-3.8,1.5-5.5,2.6c-4.2,2.6-9.7,6.8-11.8,12.5c1.5,3.5,2.5,7.1,3.2,10.9c0,0.3-0.1,0.5-0.4,0.6c-0.1,0-0.1,0-0.2,0
		c-0.9-0.4-2-0.3-2.8,0.2c-0.8,0.3-1.4,1-1.7,1.8c-0.4,0.8-0.4,1.8-0.2,2.6c0.5,1.1,1.5,1.9,2.7,2.2c1.5,0.4,3.2,0,4.4-1
		C122.9,85.3,123,85.2,123.2,85.2z"/>
	<path class="st0" d="M200.8,92.2c0-0.5,0.2-0.9,0.6-1.2c0.4-0.3,0.8-0.4,1.3-0.5c5.4-1.4,11-1.8,16.6-1.1c0.5,0,1.2,0.3,1.2,0.8
		c0,0.2-0.1,0.5-0.3,0.7c-1.1,1.1-2.5,1.9-4.1,2.2c-4.3,1.4-8.8,1.6-13.2,0.5C202.2,93.3,201,93.1,200.8,92.2z"/>
	<path d="M133.8,84.1c-3.5-0.1-6.5-2.6-7.4-6c-0.6-2-0.4-4.1,0.5-6c1.6-3.4,5.7-4.8,9.1-3.2c0.3,0.1,0.6,0.3,0.8,0.5
		c1.7,1.1,3,2.9,3.5,4.9c1.2,4.3-1,8.6-4.9,9.6C135,84,134.4,84.1,133.8,84.1z M133.1,69.2c-0.5,0-1,0.1-1.5,0.2
		c-1.6,0.5-3,1.6-3.7,3.1c-0.8,1.6-1,3.5-0.5,5.3c1,3.7,4.6,6,7.9,5.1s5.2-4.7,4.2-8.4c-0.5-1.8-1.6-3.3-3.1-4.3
		C135.4,69.6,134.2,69.2,133.1,69.2L133.1,69.2z"/>
	<path d="M152.6,77.2c-1.4,0-2.7-0.4-3.8-1.2c-3.6-2.4-4.8-7-3-10.9c1.6-3.4,5.7-4.9,9.1-3.2c0.3,0.1,0.6,0.3,0.9,0.5
		c3.6,2.4,4.9,7,3,10.9c-0.8,1.8-2.4,3.1-4.3,3.7C153.8,77.2,153.2,77.2,152.6,77.2z M151.9,62.3c-0.5,0-1,0.1-1.5,0.2
		c-1.6,0.5-3,1.6-3.7,3.1c-1.6,3.4-0.5,7.5,2.6,9.6c2.7,1.8,6.3,1.1,8.1-1.6c0.2-0.2,0.3-0.5,0.4-0.8c1.6-3.4,0.5-7.5-2.6-9.6
		C154.2,62.6,153.1,62.3,151.9,62.3z"/>
	<path class="st0" d="M217.5,79.8c-0.8-0.9-1.6-1.8-2.4-2.7c-1.4-1.6-2.8-3.2-4.1-4.8c-0.1,0-0.3,0-0.4,0.1c-1-0.7-2.2-1-3.4-0.8
		c-0.7,0.7-1.4,1.3-2.2,1.9c-0.3,0.2-0.6,0.4-0.9,0.6c-0.2,0.1-0.4,0.3-0.6,0.4l0,0c-0.1,0-0.1,0.1-0.2,0.1l-0.1,0.1
		c-0.7,0.4-1.3,0.9-2,1.4c-0.2,0.1-0.4,0.1-0.5,0.1v0.2c-0.2,0.6-0.5,3.1,1.1,6.6c1.4,3.4,2.2,7,2.2,10.7c3.2,1,5.6-0.1,9-0.7
		c1.2-0.2,2.4-0.5,3.6-0.9c1-3.6,1.7-7.3,2.3-10.9L217.5,79.8z"/>
	<path class="st1" d="M101.1,44.6c-0.7-7,4.4-13.3,11.4-14c7-0.7,13.3,4.4,14,11.4c0.7,7-4.4,13.2-11.3,14
		C108.1,56.7,101.8,51.6,101.1,44.6C101.1,44.6,101.1,44.6,101.1,44.6z"/>
	<path d="M113.7,56.5c-7.3,0-13.2-5.9-13.2-13.2c0-7.3,5.9-13.2,13.2-13.2c7.3,0,13.2,5.9,13.2,13.2c0,6.8-5.1,12.4-11.8,13.1
		C114.6,56.5,114.2,56.5,113.7,56.5z M113.8,31c-0.4,0-0.9,0-1.3,0.1c-6.6,0.7-11.4,6.7-10.7,13.3c0.7,6.6,6.7,11.4,13.3,10.7
		c6.6-0.7,11.4-6.7,10.7-13.3C125.1,35.7,119.9,31,113.8,31z"/>
	<path class="st1" d="M121.1,79.3c1-5.9,1.5-10,0.1-16c13.8,1.8,23.8-3.7,34.1-8.5c-0.6-1.9-1.7-3.7-3.1-5c-3.6-3.4-7.4-6-14.9-6.2
		c-5.3-0.1-11.9,1.1-16.4,3.8s-7.6,7-9.6,11.6c-1.7,4.1-2.1,8.6-1.3,13c0.8,3.7,2.7,5.9,5.7,8.8c0.5-0.9,1.4-1.5,2.3-1.9
		C119.1,78.7,120.1,78.9,121.1,79.3z"/>
	<path d="M115.7,81.3c-0.1,0-0.2-0.1-0.3-0.1c-2.8-2.7-5-5-5.8-9c-0.9-4.5-0.4-9.1,1.3-13.3c2.4-5.4,5.7-9.4,9.8-11.8
		c5-3,11.9-4,16.7-3.9c7.3,0.2,11.3,2.5,15.3,6.3c1.5,1.4,2.7,3.2,3.3,5.2c0.1,0.2,0,0.5-0.3,0.6c-0.9,0.4-1.8,0.8-2.6,1.3
		c-9.2,4.3-18.7,8.8-31.1,7.4c1.3,6,0.7,10.3-0.2,15.5c0,0.1-0.1,0.3-0.2,0.3c-0.1,0.1-0.3,0.1-0.4,0c-0.9-0.4-1.9-0.6-2.8-0.4
		c-0.8,0.3-1.5,0.8-2,1.6l-0.1,0.1C116,81.2,115.8,81.3,115.7,81.3L115.7,81.3z M136.6,44.1c-4.6,0-10.8,1-15.5,3.8
		c-3.9,2.3-7,6.2-9.4,11.4c-1.7,4-2.1,8.4-1.3,12.7c0.7,3.3,2.2,5.3,5.2,8.1c0.6-0.8,1.4-1.4,2.3-1.6c0.9-0.2,1.9-0.1,2.8,0.3
		c0.9-5.1,1.4-9.3,0-15.3c0-0.2,0-0.3,0.1-0.4c0.1-0.1,0.3-0.2,0.4-0.2c12.4,1.7,22-2.8,31.2-7.2l2.3-1.1c-0.6-1.7-1.6-3.1-2.9-4.3
		c-3.1-3-6.9-5.9-14.6-6.1H136.6z"/>
	<path class="st0" d="M204.9,77.1c-0.1-1.4,0.3-2.9,1.2-4c0.6-0.6,1.1-1.3,1.6-2.1c0.5-0.8,0.4-1.8-0.3-2.4
		c-0.5-0.3-1.1-0.4-1.6-0.2c-1.4,0.4-2.7,1.3-3.6,2.4c-0.7,0.6-1.2,1.4-1.6,2.2c-0.3,0.7-0.5,1.5-0.6,2.4c-0.1,0.5,0,1,0.1,1.5
		c0.3,0.6,0.9,1.1,1.5,1.3c0.6,0.4,1.4,0.6,2.1,0.5C204.4,78.5,204.9,77.8,204.9,77.1z"/>
	<path d="M142.2,92c-1.4,0-2.4-1.1-3.4-2.2c-0.3-0.4-0.7-0.7-1-1c-0.2-0.2-0.2-0.5,0-0.7c0.1-0.1,0.2-0.1,0.3-0.1c3-0.3,6-0.3,9,0.1
		c0.2,0,0.3,0.1,0.4,0.3c0.1,0.1,0.1,0.3,0,0.4C146.8,90.1,143.7,92,142.2,92L142.2,92z M139.2,88.8l0.3,0.3
		c0.9,0.9,1.8,1.9,2.7,1.9l0,0c0.9,0,2.9-1.2,3.9-2.2C143.9,88.6,141.5,88.6,139.2,88.8L139.2,88.8z"/>
	<path class="st0" d="M124.6,168.5c-0.9-10.2-1.7-17.5-2.6-27.7c-1.2,6.9-5,20.5-6.5,27.9c14.7,0.5,24.2,0.9,36.9,2.6
		c-2.4,1.9-4.3,4.4-5.5,7.2c-1,2.8-1.6,5.7-1.8,8.7c-15.6-0.5-31-0.8-46.4-0.3c-1.7,0-3.5,0.1-5-0.8c-1.1-0.7-1.9-1.8-2.3-3
		c-1.3-3.3-0.5-7,0.3-10.5c2.4-10.2,6.9-29.7,11.1-39.3c1.7-4.2,4.1-8.1,7.1-11.5c6.6-6.8,16.3-9.4,25.7-11.6
		c0.4,2.3,2.9,3.7,5.2,4.2c2.1,0.5,4.3,0.4,6.3-0.3c2.2-1,3.9-3,4.6-5.3c7.2-0.7,11.8-0.6,14.9-0.2c4.2,0.6,8.3,3.7,11.1,6.7
		c5.9,6.4,8.9,11.8,15.1,19.2c5.5-13.5,8.3-28,8.1-42.6c1.3,3,18.2,2.7,20-2.1c-1.2,17.8-2.4,35.8-7.8,52.8
		c-1.7,5.5-4,10.9-7.7,15.3s-9.2,7.5-14.9,7.4s-9.4-1.7-13.1-8.8c-0.7,1-1.2,2.1-1.6,3.2c0,7.6,0.7,16.4,0.8,23.9
		c-16.9,2.7-34.6,0.4-51.6-0.7C124.9,177.8,124.9,172.8,124.6,168.5z"/>
	<path d="M133.4,74.4c-0.2-0.6,0.2-1.3,0.9-1.4c0,0,0,0,0,0c0.6-0.2,1.2,0.2,1.4,0.8s-0.2,1.2-0.8,1.4
		C134.3,75.4,133.6,75.1,133.4,74.4z"/>
	<path d="M150.1,68.7c-0.2-0.6,0.1-1.3,0.8-1.5s1.3,0.1,1.5,0.8c0.2,0.6-0.1,1.3-0.8,1.5c0,0,0,0-0.1,0
		C150.9,69.6,150.3,69.3,150.1,68.7z"/>
	<path d="M174.5,182.7c-0.3,0-0.5-0.2-0.5-0.5c0,0,0,0,0,0c0-0.3,0.2-0.5,0.5-0.5c0,0,0,0,0,0h1.4c-0.4-3.6-0.6-7.2-0.5-10.9
		c0-3.5,0-7.2-0.3-11c0-0.3,0.2-0.5,0.4-0.5c0,0,0,0,0,0c0.3,0,0.5,0.2,0.5,0.4c0,0,0,0,0,0c0.3,3.9,0.3,7.5,0.3,11.1
		c-0.1,3.8,0,7.5,0.5,11.3c0,0.1,0,0.3-0.1,0.4c-0.1,0.1-0.2,0.2-0.4,0.2L174.5,182.7L174.5,182.7z"/>
	<path class="st5" d="M56.5,2.4v219.9h186.2V2.4H56.5z M228.1,179.7H70.1V25.2h158.1V179.7z"/>
	<path d="M242.7,222.8H56.5c-0.3,0-0.5-0.2-0.5-0.5l0,0V2.4c0-0.3,0.2-0.5,0.5-0.5l0,0h186.2c0.3,0,0.5,0.2,0.5,0.5c0,0,0,0,0,0
		v219.9C243.2,222.5,243,222.8,242.7,222.8C242.7,222.8,242.7,222.8,242.7,222.8z M57,221.8h185.3V2.9H57V221.8z M228.2,180.2H70.1
		c-0.3,0-0.5-0.2-0.5-0.5l0,0V25.2c0-0.3,0.2-0.5,0.5-0.5h158.1c0.3,0,0.5,0.2,0.5,0.5c0,0,0,0,0,0v154.5
		C228.7,180,228.4,180.2,228.2,180.2C228.2,180.2,228.2,180.2,228.2,180.2z M70.6,179.2h157.1V25.7H70.6V179.2z"/>
	<path d="M147.8,80.8c-0.1,0-0.3-0.1-0.4-0.2c-0.2-0.2-0.2-0.5,0-0.7l1.3-1.2l0.1-0.1l-0.2-0.1c-2-1.2-3.3-3.2-3.6-5.5
		c0-0.3,0.2-0.5,0.4-0.6c0.3,0,0.5,0.2,0.6,0.4l0,0c0.3,2,1.4,3.8,3.2,4.8c0.4,0.2,0.6,0.5,0.7,0.9c0,0.3-0.2,0.7-0.4,0.9l-1.3,1.2
		C148.1,80.8,147.9,80.8,147.8,80.8z M148.9,78.7L148.9,78.7z"/>
	<path class="st0" d="M143.7,184.1c3.1,0,6.3,0.4,9.3,1.2c1.1,0.2,2.1,0.6,3.1,1.1c2,1.3,3.4,3.3,4,5.6c0.1,0.5,0.3,1.1,0.6,1.6
		c0.3,0.5,0.8,0.8,1.3,0.9c0.6,0,1.1-0.5,0.9-1c0.3,0.5,0.5,0.9,0.7,1.4c0.2,0.5,0.6,0.8,1.1,1c0.9,0.2,1.6-0.8,1.9-1.7
		c0.4-1.5,0.4-3.1,0-4.7c-0.4-2.2-1-4.3-2-6.3c1.8,0.8,3.1,2.5,3.6,4.4c0.6,1.9,0.7,3.9,1.1,5.8c0.2,0.7,0.6,1.6,1.4,1.5
		c0.6-0.1,0.9-0.7,1.1-1.2c0.8-2.7,0.3-5.5-0.2-8.3c1.5,1.6,2.7,3.4,3.7,5.3c0.2,0.4,0.5,0.7,0.8,1c0.4,0.3,0.8,0.3,1.2,0.1
		c0.4-0.3,0.6-0.9,0.5-1.4c0-3.3-2-6.3-4.2-8.7c-1.9-2.2-4.1-4-6.6-5.5c-2.5-1.4-5.2-2.2-8.1-2.2l-9.6-1.3c-0.6-0.1-1.1-0.1-1.7,0.1
		c-0.3,0.2-0.6,0.4-0.8,0.7C144.6,176.5,143.4,180.3,143.7,184.1z"/>
	<path d="M139,72.2c-0.1,0-0.1,0-0.2,0c-0.2-0.1-0.3-0.4-0.2-0.7c0,0,0,0,0,0c0.9-1.7,2.5-2.8,4.3-3.1c1.1-0.3,2.3,0.2,2.9,1.2
		c0.1,0.2,0,0.5-0.3,0.6c0,0,0,0,0,0c-0.3,0.1-0.5,0-0.6-0.3c0,0,0,0,0,0c-0.2-0.5-1.1-0.7-1.8-0.6c-1.5,0.2-2.9,1.2-3.6,2.6
		C139.3,72.1,139.2,72.2,139,72.2z"/>
	<path d="M121.5,79.3c-0.2,0-0.4-0.1-0.5-0.3c-0.1-0.2,0-0.5,0.2-0.7l5.1-2.3c0.2-0.1,0.5,0,0.7,0.3s0,0.5-0.3,0.7l-5.1,2.3
		C121.6,79.3,121.5,79.3,121.5,79.3z"/>
	<path d="M161.9,194.9c-0.9,0-1.7-0.8-2.2-2.2l-0.1-0.2c-0.4-1.6-1.1-3-2.1-4.3c-1.3-1.3-2.9-2.2-4.6-2.6c-2.2-0.5-4.5-0.8-6.8-0.8
		c-0.6,0-1.1,0-1.5-0.1c-0.3,0-0.5-0.3-0.4-0.5c0,0,0,0,0,0c0-0.3,0.3-0.5,0.5-0.5c0,0,0,0,0,0c0.4,0,0.9,0.1,1.4,0.1
		c2.4,0,4.7,0.3,7.1,0.8c1.9,0.4,3.7,1.4,5.1,2.9c1.1,1.4,1.9,3,2.3,4.7l0.1,0.2c0.2,0.5,0.6,1.6,1.3,1.5c0.2,0,0.3-0.1,0.4-0.2
		c0.3-0.5,0.4-1.2,0.3-1.8c-0.3-2.4-1.1-4.7-2.3-6.7c-0.1-0.2-0.1-0.5,0.2-0.7c0.2-0.1,0.5-0.1,0.7,0.2c0,0,0,0,0,0
		c1.3,2.2,2.1,4.6,2.4,7.1c0.1,0.9,0,1.8-0.5,2.6c-0.3,0.3-0.7,0.6-1.1,0.6H161.9z"/>
	<path d="M165.3,196.3c-0.4,0-0.8-0.1-1.1-0.4c-0.8-0.9-1.3-2.1-1.4-3.4c0-0.3,0.2-0.5,0.4-0.6c0.3,0,0.5,0.2,0.6,0.4
		c0,1,0.4,2,1,2.8c0.2,0.2,0.5,0.2,0.8,0.1c0.2-0.1,0.3-0.6,0.4-0.9c0.6-3.8,0.1-7.6-1.6-11.1c-0.1-0.2,0-0.5,0.2-0.6
		c0.1-0.1,0.3-0.1,0.4,0c1.8,1,3.1,2.6,3.8,4.6c0.7,1.8,1.1,3.8,1.2,5.7c0,0.3,0.1,0.7,0.2,1c0.1,0.2,0.3,0.4,0.5,0.3
		s0.4-0.3,0.5-0.8c1.2-4.1,0.2-8.5-2.5-11.7c-0.2-0.2-0.1-0.5,0.1-0.7c0.2-0.2,0.5-0.2,0.7,0c3,3.5,4,8.2,2.7,12.6
		c-0.3,0.9-0.7,1.4-1.3,1.5c-0.6,0.1-1.2-0.2-1.5-0.8c-0.2-0.4-0.3-0.9-0.3-1.4c-0.1-1.9-0.5-3.7-1.2-5.5c-0.5-1.1-1.1-2.1-2-3
		c1.2,3.2,1.6,6.6,1,10c0,0.6-0.3,1.2-0.8,1.6C165.9,196.2,165.6,196.3,165.3,196.3z"/>
	<path d="M177,192.6h-0.1c-0.5-0.1-0.9-0.4-1.1-0.8l0,0l-1.2-1.7c-1-1.6-2.2-3-3.4-4.5c-0.2-0.2-0.2-0.5,0-0.7
		c0.2-0.2,0.5-0.2,0.7,0c1.2,1.4,2.4,3,3.4,4.5l1.2,1.7l0.1,0.1c0.1,0.1,0.2,0.4,0.4,0.4c0.2,0,0.3-0.1,0.4-0.2
		c0.2-0.5,0.3-1,0.2-1.6c-0.8-4.6-4-8-8.5-11.8c-1.3-1.1-2.7-2-4.3-2.6c-1.5-0.5-3.1-0.8-4.7-0.9c-1.8-0.2-3.6-0.4-5.4-0.6
		s-3.6-0.3-5.5-0.6c-0.3,0-0.5-0.3-0.4-0.6s0.3-0.5,0.6-0.4l0,0c1.8,0.2,3.6,0.4,5.4,0.6s3.6,0.3,5.5,0.6c1.7,0.1,3.3,0.5,4.9,1
		c1.7,0.7,3.2,1.6,4.5,2.8c4.7,3.9,7.9,7.6,8.8,12.4c0.1,0.8,0,1.7-0.5,2.4C177.8,192.4,177.4,192.6,177,192.6z"/>
	<path d="M173,163c-0.3,0-0.5-0.2-0.5-0.5c0-0.1,0-0.2,0.1-0.3c2.9-3.8,5.8-7.7,8.5-11.5c0.3-0.4,0.6-0.9,0.7-1.4
		c0-0.4-0.1-0.8-0.3-1.2l-7.9-19.1c-0.1-0.3,0-0.5,0.3-0.6c0,0,0,0,0,0c0.2-0.1,0.5,0,0.6,0.2c0,0,0,0,0,0l7.9,19.2
		c0.7,1.1,0.5,2.6-0.5,3.5c-2.8,3.9-5.7,7.7-8.6,11.5C173.3,162.9,173.1,163,173,163z"/>
	<path class="st0" d="M145.4,170.3c-4.1-0.4-8.2-0.7-12.3-1.1c-2-0.2-4-0.4-6-0.6l-2.6-0.2c0,0.2,0,0.3,0,0.5
		c-2.8-0.1-5.9-0.2-9.1-0.3c0.3-1.5,0.7-3.2,1.2-5.1h-3.1c-6.6,0-13.2,0-19.8,0.2c-0.8,3.3-1.5,6.3-2.1,8.8
		c-0.8,3.4-1.6,7.2-0.3,10.5c0.4,1.2,1.3,2.3,2.3,3c1.5,0.9,3.3,0.9,5,0.8c15.3-0.5,30.6-0.2,46.2,0.3c-0.2-1.9-0.1-3.7,0.4-5.5
		c0.5-1.7,1.1-3.3,1.9-4.8c0.8-1.5,1.7-2.8,2.9-4c0.6-0.7,1.3-1.3,1.9-1.9L145.4,170.3z"/>
	<path d="M145.1,187.7L145.1,187.7c-18.8-0.6-33-0.7-46.3-0.3c-1.6,0.1-3.7,0.1-5.3-0.9c-1.2-0.8-2.1-1.9-2.6-3.3
		c-1.4-3.6-0.5-7.6,0.3-10.8c1.8-8,6.8-29.3,11.2-39.4c2.3-5.2,4.5-8.8,7.2-11.6c6.4-6.7,15.6-9.3,25.9-11.8c0.1,0,0.3,0,0.4,0.1
		c0.1,0.1,0.2,0.2,0.2,0.3c0.4,2.2,2.7,3.4,4.8,3.9c2,0.5,4.1,0.4,6-0.3c2.1-1,3.7-2.8,4.3-5c0.1-0.2,0.2-0.3,0.4-0.3
		c6.8-0.6,11.6-0.7,15.1-0.2c5.3,0.8,9.7,5.1,11.4,6.9c3,3.3,5.7,6.8,8.3,10.4c1.9,2.6,3.8,5.2,6.3,8.2c5.3-13.2,7.9-27.4,7.7-41.6
		c0-0.2,0.2-0.5,0.4-0.5c0.2,0,0.5,0.1,0.5,0.3c0.3,0.8,2.6,1.8,7,1.7c5.4,0,11.4-1.4,12.1-3.8c0.1-0.2,0.3-0.4,0.6-0.3
		c0.2,0,0.4,0.3,0.4,0.5c-1.2,17.6-2.4,35.7-7.8,52.9c-1.5,4.7-3.7,10.7-7.8,15.4s-9.9,7.7-15.3,7.5c-5.7-0.2-9.7-1.7-13.2-9.2
		c-0.1-0.2,0-0.5,0.2-0.6c0.2-0.1,0.5,0,0.6,0.2c3.3,7.1,6.9,8.5,12.3,8.6c5.1,0.1,10.6-2.6,14.5-7.2s6.1-10.5,7.6-15.1
		c5.2-16.5,6.5-34,7.7-50.9c-2.4,2.1-8.1,3-12,3c-1.7,0-5.2-0.1-6.9-1.3c0,14.2-2.8,28.3-8.1,41.5c-0.1,0.3-0.4,0.4-0.6,0.3
		c-0.1,0-0.1-0.1-0.2-0.1c-2.7-3.3-4.8-6.1-6.9-8.9c-2.5-3.6-5.3-7-8.2-10.3c-1.6-1.7-5.8-5.9-10.8-6.6c-3.3-0.5-8-0.4-14.5,0.1
		c-0.7,2.4-2.4,4.3-4.7,5.3c-2.1,0.8-4.4,0.9-6.5,0.4c-2.3-0.5-4.8-1.8-5.5-4.1c-10,2.4-18.8,4.9-25,11.3c-2.6,2.8-4.8,6.3-7,11.3
		c-4.4,10-9.3,31.2-11.1,39.2c-0.7,3.1-1.6,6.9-0.3,10.2c0.4,1.1,1.1,2.1,2.1,2.8c1.4,0.8,3.2,0.8,4.8,0.7
		c13.1-0.4,27.2-0.3,45.7,0.3c-0.6-2.2,0.2-5.9,1.2-8.5l0.1-0.2c0.9-2.3,2-5,4.7-6.4c-11.3-1.4-20.1-1.9-34.9-2.3
		c-0.1,0-0.3-0.1-0.4-0.2c-0.1-0.1-0.1-0.3-0.1-0.4c0.7-3.2,1.8-7.6,2.9-12.2c1.4-5.8,2.9-11.8,3.6-15.7c0-0.2,0.3-0.4,0.5-0.4
		c0.2,0,0.4,0.2,0.5,0.4c0.4,5.1,0.9,9.5,1.3,13.8s0.9,8.7,1.3,13.9c0,0,0,0.1,0,0.1c10.2,0.4,17.8,1,27.4,2.2
		c0.2,0,0.4,0.2,0.4,0.5c0,0.2-0.1,0.4-0.4,0.5c-3.6,0.9-4.8,3.9-5.9,6.6l-0.1,0.2c-1.2,2.9-1.9,6.7-1,8.4c0.1,0.1,0.1,0.3,0,0.5
		C145.5,187.7,145.2,187.7,145.1,187.7z M116.1,168.2c2.9,0.1,5.5,0.2,8,0.3c-0.4-5.1-0.9-9.5-1.3-13.8c-0.3-3.3-0.7-6.7-1-10.4
		c-0.8,3.6-1.9,8.1-3,12.4S116.8,165.1,116.1,168.2L116.1,168.2z"/>
	<path d="M153.3,173.6L153.3,173.6c-0.3,0-0.5-0.3-0.5-0.6c0,0,0,0,0,0c0.1-0.4,0-0.8-0.3-1.1c-0.1-0.1-0.1-0.2-0.2-0.2
		c-0.3,0.1-0.5-0.1-0.6-0.3c0,0,0,0,0,0c-0.1-0.3,0.1-0.5,0.3-0.6c0,0,0,0,0,0c0.5-0.1,1,0.1,1.3,0.6c0.4,0.5,0.6,1.2,0.5,1.9
		C153.7,173.5,153.5,173.6,153.3,173.6z"/>
	<path d="M146,188c-0.6,0-1.3-0.3-1.5-0.9c-0.1-0.3,0-0.5,0.3-0.6s0.5,0,0.6,0.3c0.1,0.2,0.4,0.3,0.7,0.3c0.6-0.1,1.2-0.5,1.6-1
		c0.5-0.5,1-1.1,1.5-1.7c0.2-0.2,0.5-0.3,0.7-0.1c0.2,0.2,0.3,0.5,0.1,0.7c0,0,0,0,0,0c-0.5,0.6-1,1.2-1.6,1.8
		c-0.6,0.7-1.4,1.1-2.2,1.3L146,188z"/>
	<path d="M200.8,92.3c-0.3,0-0.5-0.2-0.5-0.4c0-0.4,0.1-0.7,0.3-1c0.2-0.2,0.4-0.4,0.6-0.5c1-0.5,2.1-0.8,3.3-0.9
		c0.3,0,0.5,0.2,0.5,0.4c0,0,0,0,0,0.1c0,0.3-0.2,0.5-0.4,0.5c0,0,0,0,0,0c-1,0-2,0.3-2.8,0.7c-0.1,0.1-0.3,0.2-0.4,0.3
		c-0.1,0.1-0.1,0.2-0.1,0.3C201.3,92.1,201.1,92.4,200.8,92.3L200.8,92.3z"/>
	<path d="M220.8,90.5L220.8,90.5c-0.3,0-0.5-0.2-0.5-0.5c0,0,0-0.1-0.1-0.1c-0.1-0.1-0.2-0.1-0.4-0.2c-0.4-0.1-0.9-0.2-1.3-0.2
		c-0.3,0-0.5-0.2-0.5-0.5s0.2-0.5,0.5-0.5c0.6,0,1.1,0.1,1.6,0.2c0.3,0.1,0.5,0.2,0.7,0.4c0.3,0.2,0.4,0.5,0.4,0.9
		C221.4,90.3,221.1,90.5,220.8,90.5C220.9,90.5,220.8,90.5,220.8,90.5z"/>
	<path d="M141.7,119c-3.4,0-6.6-1.9-8.3-4.9c-0.1-0.2,0-0.5,0.2-0.7c0.2-0.1,0.5,0,0.7,0.2c1.6,2.9,4.8,4.6,8.1,4.4
		c0.3,0,0.5,0.2,0.5,0.4c0,0,0,0,0,0c0,0.3-0.2,0.5-0.4,0.5c0,0,0,0,0,0C142.2,119,141.9,119,141.7,119z"/>
	<path d="M133.8,119.4c-0.1,0-0.1,0-0.2,0c-1.6-0.6-2.7-2-3.1-3.7c0-0.3,0.1-0.5,0.4-0.6c0.3,0,0.5,0.1,0.6,0.4
		c0.3,1.3,1.2,2.4,2.4,2.9c0.3,0.1,0.4,0.4,0.3,0.6C134.2,119.3,134,119.5,133.8,119.4z"/>
	<path d="M111.2,54.1h-0.2c-0.3-0.1-0.4-0.4-0.3-0.6c0,0,0,0,0,0c0.6-1.7,1.6-3.3,2.9-4.6c1.3-1.2,2.7-2.3,4.2-3.3
		c0.2-0.1,0.5-0.1,0.7,0.2c0.1,0.2,0.1,0.5-0.1,0.7c0,0,0,0,0,0c-1.5,0.9-2.8,1.9-4.1,3.1c-1.2,1.1-2.1,2.6-2.7,4.2
		C111.6,53.9,111.4,54.1,111.2,54.1z"/>
	<path d="M190.5,138.6c-0.3,0-0.5-0.2-0.5-0.5c0-0.1,0-0.2,0.1-0.3c1.1-1.4,2-2.9,2.6-4.6c0.1-0.3,0.4-0.4,0.6-0.3c0,0,0,0,0,0
		c0.3,0.1,0.4,0.4,0.3,0.6c0,0,0,0,0,0c-0.6,1.8-1.5,3.4-2.7,4.8C190.8,138.6,190.7,138.6,190.5,138.6z"/>
	<path d="M109.9,169.6c-0.2,0-0.4-0.2-0.5-0.4c0-0.3,0.1-0.5,0.4-0.6c2.4-0.4,4.9-0.5,7.3-0.4c0.3,0,0.5,0.2,0.5,0.5c0,0,0,0,0,0
		c0,0.3-0.2,0.5-0.5,0.5c0,0,0,0,0,0C114.7,169.1,112.3,169.3,109.9,169.6L109.9,169.6z"/>
	<path d="M122.1,83.5c-0.2,0-0.4-0.1-0.4-0.3c-0.6-1.4-0.9-3-0.9-4.6c0-0.3,0.2-0.5,0.5-0.5l0,0c0.3,0,0.5,0.2,0.5,0.5
		c0,1.4,0.3,2.9,0.9,4.2c0.1,0.2,0,0.5-0.2,0.6c0,0,0,0,0,0C122.2,83.4,122.1,83.5,122.1,83.5z"/>
	<g class="st2">
		<path d="M124.4,42.2c-0.4,0-0.8,0-1.2,0.2c-0.6,0.2-1.2,0.5-1.8,0.7c-3.4,1.6-6.4,4.1-8.7,7.1c-0.6,0.8-1.1,1.7-1.6,2.5
			c-0.4,0.5-0.6,1.1-0.7,1.7c0,0.8,0.6,1.4,1.4,1.5c0.6,0,1.1-0.3,1.3-0.8c1.3-2.6,3.1-4.8,5.3-6.7c1.2-1.1,2.6-2,4.2-2.7
			c0.5-0.3,1.1-0.5,1.6-0.7c0.5-0.1,0.9-0.4,1.2-0.9c0.3-0.7,0-1.5-0.7-1.8C124.6,42.3,124.5,42.2,124.4,42.2z"/>
	</g>
	<g class="st2">
		<path d="M150.8,57.6c-0.3-0.3-0.8-0.3-1.2-0.1c-0.1,0-0.8,0.4-1,0.5c-1.1,0.5-2.1,1.1-3.2,1.5c-2.1,0.9-4.2,1.7-6.3,2.4
			c-2.6,0.8-5.4,1.4-8.1,1.7c-2.8,0.3-5.5,0.1-8.2-0.5c-0.5-0.1-1.1-0.3-1.6,0c-0.4,0.3-0.4,0.8-0.2,1.2c0.1,0.2,0.3,0.3,0.5,0.3
			c3.4,0.6,6.9,1.3,10.4,0.8c2-0.2,4-0.6,6-1.1c1.6-0.4,3.1-1,4.6-1.5c2.3-0.8,4.6-1.7,6.9-2.8c0.4-0.2,0.7-0.4,1.1-0.5
			c0.2-0.1,0.4-0.3,0.5-0.5C151.3,58.6,151.2,58,150.8,57.6z"/>
	</g>
	<g class="st2">
		<path d="M149.9,104.5c-0.1-0.4-0.2-0.8-0.4-1.3c-0.3-0.8-0.5-1.6-0.7-2.4c-0.2-0.8-0.4-1.5-0.6-2.3c0-0.1,0-0.2,0-0.2l-0.1-0.2
			c-0.1-0.1,0-0.3,0.1-0.4c-0.5-0.4-1.2,0.1-1.8,0.4c-0.6,0.3-1.1,0.5-1.7,0.6c-0.7,0.2-3,0.3-3.6,0.4c-0.2,0.1-0.4,0.2-0.5,0.4
			l-1.2-0.5l-0.8-0.3c-0.6,0-1.2,0-1.8-0.1v0.2c0,0.1,0,0.2,0,0.3c0,0.1,0,0.1-0.1,0.2c-0.1,0.2-0.2,0.5-0.2,0.7
			c0.1,0,0.1,0.1,0.2,0.1c2.3,1.2,4.6,2.2,6.8,3.4c1.1,0.6,2.2,1.2,3.3,1.8c0.5,0.3,1,0.5,1.5,0.6h0.1h0.1h0.2l0,0
			c0.1,0,0.2,0,0.3,0c0.4-0.1,0.7-0.4,0.8-0.8c0.1-0.1,0.1-0.2,0.1-0.3L149.9,104.5z"/>
	</g>
	<g class="st2">
		<path d="M198.8,161.9c-0.5-0.1-0.4,0.1-0.7,0.1c-1.4,0.5-2.8,0.7-4.3,0.6c-2.1,0-4.1-0.5-6-1.3c-0.3-0.2-0.6-0.3-0.9-0.5
			c-0.2-0.1-0.9-0.6-1.1-0.8c-0.5-0.4-1-0.9-1.5-1.4l0,0c-0.9-1.4-1.7-2.9-2.3-4.4V154c-0.1-0.4-0.3-0.7-0.4-1.1
			c-0.1-0.2-0.3-0.3-0.4-0.4l-0.4,0.4c0,0.1-0.1,0.2-0.1,0.2l-0.4,0.4c-0.8,0.9-1.5,1.9-2.2,2.9c0,0.1,0.1,0.2,0.1,0.3
			c0.4,0.6,0.8,1.2,1.3,1.8c1.1,2.3,2.6,4.5,5.1,5.3c1.7,0.4,3.5,0.8,5.2,0.9c1.1,0,2.1,0,3.2-0.1c0.8,0,1.6-0.1,2.4,0
			c0.5,0,1,0,1.4-0.1c0.4-0.2,0.6-0.5,0.6-0.9c0.4-0.1,0.8-0.2,1.1-0.4c0.3-0.1,0.6-0.2,0.8-0.4c0.2-0.3,0.2-0.7-0.1-0.9
			C199,162,198.9,161.9,198.8,161.9z"/>
	</g>
	<g class="st2">
		<path d="M220.8,89.8c-0.1-0.3-0.3-0.5-0.6-0.6h-0.2c-0.1-0.4-0.5-0.6-0.9-0.5c-0.1,0-0.2,0.1-0.3,0.2c-0.3,0.4-0.6,0.8-1,1.1
			l-0.3,0.3c-0.7,0.2-1.3,0.5-2,0.6c-0.9,0.4-1.8,0.6-2.8,0.8c-1.1,0.2-1.2,0.2-2.5,0.3c-1.6,0.4-3.3,0.6-4.9,0.8
			c-2,0.5,0.6-3.3-1.1-3c-0.8,0.1-1.6,0.3-2.3,0.6c-0.3,0.1-0.5,0.3-0.7,0.6c0,0,0,0.1,0,0.1h-0.1c-0.4,0.1-0.8,0.5-0.7,0.9
			c0,0.2,0.2,0.5,0.4,0.6c1.8,0.9,3.7,1.4,5.7,1.5c0.7,0,1.4-0.1,2-0.1s1.3,0,1.9,0c1.4-0.2,2.7-0.4,4-0.7h0.1h-0.1h0.2l0,0
			c0.6-0.1,1.2-0.2,1.8-0.4c1.7-0.6,3.5-1.3,4-2.1c0.1-0.1,0.2-0.2,0.2-0.4l0,0C220.9,90.3,220.9,90.1,220.8,89.8z"/>
	</g>
	<g class="st2">
		<path d="M214.3,76.2L214.3,76.2C214.4,76.1,214.5,76,214.3,76.2z"/>
	</g>
	<g class="st2">
		<path d="M207.7,79.2h-0.1H207.7z"/>
	</g>
	<g class="st2">
		<path d="M207.8,79.2L207.8,79.2z"/>
	</g>
	<path class="st0" d="M196.1,66.6c4.8,5.2,9.1,10.8,13.1,16.7c2.1,3.1,4.3,6.5,7.8,7.9c0.7,0.3,1.6,0.5,2.4,0.3
		c1.2-0.3,2.2-1.1,2.7-2.2c0.5-1.1,0.6-2.4,0.5-3.6c0-1.8-0.9-3.6-2.4-4.7c-2-1.6-1.2-2.3-1.6-4c-1.1-4.8-8.2-4.8-11.1-9
		c0.7-0.5,1.4-1,2-1.6c0.6-0.6,0.9-1.4,1-2.3c0.1-1.3-0.8-2.5-1.5-3.6c9.3-3.2,18.9-5.5,28.6-6.6c-2.1-4.2-3.9-8.5-5.6-12.8
		c-2.3-5.9-4.7-11.8-7.2-17.3c-6.1,6.2-13.6,10.8-21,15.5c-5,3.3-10.2,6.2-15.6,8.9c-2.9,1.3-6.1,2.8-7.4,5.7c-0.7,1.9-0.7,4,0,5.9
		c0.7,1.9,1.7,3.7,2.9,5.3c0.9,1.4,2,2.9,3.8,3.3C190.3,68.4,193.3,67.8,196.1,66.6z"/>
	<path class="st0" d="M235.9,28.7c1.5,4.9,3.4,9.7,5.8,14.2c1.5-0.3,2.7-1.4,3.2-2.8c0.5-1.4,0.7-2.9,0.7-4.4c0-0.6,0-1.2-0.2-1.8
		c-0.2-0.5-0.4-1-0.7-1.4c-0.7-1.2-1.6-2.2-2.6-3C240.2,28.2,238,28,235.9,28.7z"/>
	<path class="st1" d="M237.2,54.5c-4.1-10.4-8.3-20.9-12.4-31.5c2.3-2.2,4.1-4.8,5.3-7.8c0,0,16.7,40.2,16.7,40
		C243.7,54.2,240.4,53.9,237.2,54.5z"/>
	<path d="M203.3,63.2c-0.2,0-0.4-0.1-0.4-0.3c-2.8-6.1-5.3-12.4-7.3-18.9c-0.1-0.2,0-0.4,0.2-0.6c2-1.3,4.1-2.6,6.2-3.8
		c11.8-7.2,24-14.7,27.6-25c0.1-0.2,0.2-0.3,0.4-0.3c0.2,0,0.4,0.1,0.5,0.3l17,40.6c0.1,0.3,0,0.5-0.3,0.6c-0.1,0-0.2,0-0.3,0
		c-0.1,0.1-0.3,0.1-0.4,0c-11.7-4.6-42.7,7.1-43,7.2C203.4,63.1,203.3,63.1,203.3,63.2z M196.6,44.1c2,6.1,4.3,12.1,6.9,18
		c3.9-1.4,30.9-11.2,42.7-7.2L230,16.1c-4.1,10.1-16,17.3-27.6,24.4C200.5,41.6,198.5,42.8,196.6,44.1z"/>
	<path d="M237,54.2c-0.2,0-0.4-0.1-0.4-0.3l-12-29.7c-0.1-0.3,0-0.5,0.3-0.6c0.3-0.1,0.5,0,0.6,0.3l0,0l12,29.7
		c0.1,0.3,0,0.5-0.3,0.6c0,0,0,0,0,0C237.1,54.2,237.1,54.2,237,54.2z"/>
	<path d="M242.2,43.5c-0.2,0-0.3-0.1-0.4-0.2c-0.1-0.2-0.1-0.5,0.1-0.7c0,0,0,0,0,0c3.5-2.3,4.4-7,2.1-10.5c0,0,0,0,0,0
		c-0.5-0.8-1.2-1.5-2-2.1c-1.4-1-3.6-1.7-5.4-0.8c-0.2,0.1-0.5,0-0.7-0.2c-0.1-0.2,0-0.5,0.2-0.7c0,0,0,0,0,0
		c2.2-1.1,4.8-0.3,6.4,0.8c0.9,0.6,1.7,1.4,2.3,2.3c2.6,3.9,1.6,9.2-2.3,11.8c0,0,0,0,0,0C242.4,43.5,242.3,43.6,242.2,43.5z"/>
	<path d="M188.9,69c-0.8,0-1.7-0.2-2.4-0.5c-1.9-0.9-3.1-2.8-4.2-4.8c-1-1.7-1.8-3.6-2.3-5.6c-0.5-2.1-0.1-4.3,1.1-6.1
		c1-1.1,2.1-2,3.5-2.6c3.6-2,7.2-3.8,11.5-5.8c0.2-0.1,0.5,0,0.6,0.2c0.1,0.2,0,0.5-0.2,0.6c0,0,0,0,0,0c-4.2,2-7.8,3.9-11.4,5.8
		c-1.2,0.6-2.3,1.3-3.2,2.3c-1.1,1.6-1.4,3.5-0.9,5.3c0.5,1.9,1.2,3.7,2.2,5.3c1,1.9,2.1,3.6,3.8,4.4c2.3,1,4.9,0,7.4-1.2
		c1.6-0.7,3-1.4,4.4-2.1s2.8-1.4,4.4-2.1c0.2-0.1,0.5,0,0.6,0.2c0.1,0.2,0,0.5-0.2,0.7c-1.6,0.7-3,1.4-4.4,2.1s-2.8,1.4-4.4,2.1
		C193,68.3,191,68.9,188.9,69z"/>
	<path d="M218.4,92.3c-2.6,0-4.8-2.1-5.7-3.1c-1.7-2-3.2-4.1-4.6-6.4l-0.9-1.5c-3.3-5.2-7.2-10.1-11.5-14.5
		c-0.2-0.2-0.1-0.5,0.1-0.7c0.2-0.2,0.4-0.2,0.6,0c4.4,4.5,8.3,9.4,11.7,14.7c0.3,0.5,0.6,1,0.9,1.5c1.3,2.2,2.8,4.3,4.4,6.2
		c1,1,3.5,3.4,6.1,2.6c2.4-0.8,3.4-3.9,2.7-6.3c-0.6-2.1-2-3.2-4-4.8l-1.2-0.9l-0.1-0.1c-3.4-2.8-6.6-6-9.3-9.5
		c-0.9-1.3-1.8-2.8-2.4-4.3c-0.4-0.9-0.9-1.9-1.4-2.7c-0.1-0.2,0-0.5,0.2-0.7c0.2-0.1,0.5,0,0.7,0.2l0,0c0.5,0.9,1,1.8,1.4,2.8
		c0.6,1.4,1.4,2.8,2.3,4.1c2.7,3.4,5.8,6.6,9.2,9.4l0.1,0.1c0.4,0.3,0.8,0.6,1.1,0.9c2.1,1.6,3.7,2.9,4.4,5.3
		c0.8,2.8-0.4,6.5-3.3,7.5C219.3,92.3,218.8,92.4,218.4,92.3z"/>
	<path d="M207.7,68.6c-0.3,0-0.5-0.2-0.5-0.5c0-0.1,0.1-0.3,0.1-0.3l1.7-1.7c0.2-0.2,0.4-0.4,0.6-0.7c0.3-0.6,0.4-1.4,0.1-2.1
		c-0.3-0.7-0.8-1.4-1.3-2c-0.2-0.2-0.1-0.5,0.1-0.7s0.5-0.1,0.7,0.1l0,0c0.6,0.7,1.1,1.5,1.4,2.3c0.4,1,0.3,2-0.2,2.9
		c-0.2,0.3-0.5,0.6-0.8,0.9l-1.8,1.7C207.9,68.6,207.8,68.6,207.7,68.6z"/>
	<path d="M184.9,55.5c-0.3,0-0.5-0.2-0.5-0.5c0-0.2,0.1-0.4,0.3-0.5c3.2-1.7,6.4-3.1,9.7-4.5c0.2-0.1,0.5,0,0.6,0.3c0,0,0,0,0,0
		c0.1,0.3,0,0.5-0.3,0.6c0,0,0,0,0,0c-3.3,1.3-6.5,2.8-9.6,4.4C185.1,55.5,185,55.5,184.9,55.5z"/>
	<path d="M186.8,59.5c-0.2,0-0.4-0.1-0.4-0.3c-0.1-0.2,0-0.5,0.2-0.6c0,0,0,0,0,0c3.2-1.4,6.6-2.8,9.8-4.1c0.3-0.1,0.5,0,0.6,0.3
		s0,0.5-0.3,0.6l0,0c-3.3,1.3-6.6,2.7-9.8,4.1C186.9,59.5,186.8,59.5,186.8,59.5z"/>
	<path d="M188.6,63.9c-0.3,0-0.5-0.2-0.5-0.5c0-0.2,0.1-0.4,0.3-0.4c3.2-1.6,6.5-3,9.9-4.2c0.3-0.1,0.5,0.1,0.6,0.3
		c0.1,0.2-0.1,0.5-0.3,0.6c-3.3,1.2-6.6,2.6-9.8,4.2C188.8,63.9,188.7,63.9,188.6,63.9z"/>
	<path d="M245.4,27.3c-0.1,0-0.3-0.1-0.4-0.1c-0.2-0.2-0.2-0.5,0-0.7c3-2.9,5-6.6,5.7-10.7c0-0.3,0.3-0.4,0.5-0.4c0,0,0,0,0,0
		c0.3,0.1,0.4,0.3,0.4,0.6c-0.7,4.3-2.8,8.2-6,11.2C245.6,27.2,245.5,27.3,245.4,27.3z"/>
	<path d="M248.4,31.3c-0.3,0-0.5-0.2-0.5-0.5c0-0.2,0.1-0.3,0.2-0.4c2.4-1.5,4.9-2.8,7.5-3.9c0.2-0.1,0.5,0,0.7,0.2
		c0.1,0.2,0,0.5-0.2,0.7c0,0-0.1,0-0.1,0c-2.6,1-5,2.3-7.3,3.8C248.6,31.3,248.5,31.3,248.4,31.3z"/>
	<path d="M261.5,38.3c-0.1,0-0.1,0-0.2,0c-3.5-1.7-7.3-2.5-11.1-2.3c-0.3,0-0.5-0.2-0.5-0.5c0,0,0,0,0,0c0-0.3,0.2-0.5,0.5-0.5
		c4-0.2,8,0.6,11.6,2.4c0.2,0.1,0.3,0.4,0.2,0.7C261.9,38.2,261.7,38.3,261.5,38.3L261.5,38.3z"/>
	<path d="M232.2,52.2c-0.1,0-0.1,0-0.1-0.1l-3.5-6.7c0-0.1,0-0.2,0.1-0.2s0.2,0,0.2,0.1l0,0l3.5,6.7
		C232.3,52.1,232.3,52.2,232.2,52.2L232.2,52.2z"/>
	<path d="M229.1,53c0,0-0.1,0-0.1,0l-1.8-3.3c0-0.1,0-0.2,0.1-0.2s0.2,0,0.2,0.1l0,0l1.8,3.3c0,0.1,0,0.2-0.1,0.2L229.1,53z"/>
	<path d="M225.7,54.3c-0.1,0-0.1,0-0.1-0.1l-1.4-2.5c0-0.1,0-0.2,0-0.2c0,0,0,0,0,0c0.1,0,0.2,0,0.2,0.1c0,0,0,0,0,0l1.4,2.5
		c0,0.1,0,0.2,0,0.2C225.8,54.3,225.8,54.3,225.7,54.3C225.7,54.3,225.7,54.3,225.7,54.3z"/>
	<path d="M221.9,55.1c-0.1,0-0.1,0-0.1-0.1l-1-1.9c0-0.1,0-0.2,0.1-0.2c0,0,0,0,0,0c0.1,0,0.2,0,0.2,0.1c0,0,0,0,0,0l1,1.9
		C222.1,54.9,222.1,55,221.9,55.1L221.9,55.1z"/>
	<g class="st2">
		<path d="M245.9,36.4c-0.1-0.4-0.6-0.7-1.1-0.5c-0.1,0-0.2,0.1-0.3,0.2c-0.3,0.2-0.3,0.6-0.4,0.8c-0.4,1.1-1.1,2-1.9,2.8
			c-0.8,0.7-0.6,0.3-1.3,1c-0.3,0.5-0.2,1.2,0.3,1.6c0.4,0.3,1,0.2,1.3-0.1c1.7-1.2,2.2-2.4,2.9-3.9c0.2-0.4,0.3-0.9,0.4-1.3
			C245.9,36.7,245.9,36.6,245.9,36.4z"/>
	</g>
	<g class="st2">
		<path d="M245.5,52.5c-1.5-0.6-3.2-0.5-4.8-0.6c-3.7-0.1-7.5,0.1-11.2,0.7c-1.6,0.3-3.3,0.5-4.9,0.7c-1.4,0.2-2.8,0.5-4.2,0.9
			c-4.1,1.1-8.3,1.8-12.3,3.3C204,59,199.9,60.8,196,63c-2.6,1.3-4.2,2.3-6.6,2.7c-1.1,0.1-2.2,0.1-3.3-0.1c-0.5-0.2-1.2,0-1.4,0.5
			c-0.3,0.5-0.1,1.1,0.4,1.4c0.1,0.1,0.3,0.1,0.5,0.1c1.2,0.3,2.5,0.4,3.7,0.5c2.8-0.1,5.2-1.6,7.7-2.8l0.8-0.3
			c-0.4,0.2-0.7,0.4-1.1,0.7c-0.7,0.2-1,0.9-0.8,1.6c0,0.1,0.1,0.2,0.1,0.2c0.2,0.4,0.7,0.6,1.1,0.6c0.3,0.2,0.7,0.3,1,0.1
			c0.6-0.4,1.3-0.6,2-0.9c0.5-0.2,1.1-0.3,1.6-0.3c0.1,0,0.4,0,0.5,0c0.4,0.1,0.7,0.2,1,0.4c0.2,0.1,0.4,0.3,0.5,0.4
			c0.8,0.8,1.7,1.6,2.5,2.5c0.4,0.5,0.9,0.9,1.3,1.4c0.3,0.2,0.6,0.4,0.8,0.7l0.1,0.2c0.3,0.3,0.7,0.6,1.1,0.9s1,0.9,1.4,1.3
			c0,0,0.7,0.7,1.2,1.1s0.9,0.7,1.4,0.3c0.3-0.2,0.4-0.5,0.4-0.8c-0.1-0.1-0.2-0.2-0.3-0.3c-0.4-0.4-0.9-0.8-1.3-1.2
			c-2.7-2.4-4.9-5.3-6.5-8.5c-0.1-0.2-0.1-0.4,0.1-0.5c-0.2-0.3-0.3-0.4-0.4-0.7c1-0.4,2-0.6,3-0.8l0,0c0.6,0.2,1.2,0,1.5-0.6
			c0.2-0.6,0-1.2-0.6-1.5c-0.4-0.1-0.8-0.1-1.1,0.1l0,0h-0.1c-0.4,0.1-0.7,0.1-1.1,0.2c1.2-0.5,2.2-0.8,2.6-1c3.3-1,5.9-1.8,9.6-2.7
			c2.4-0.6,3.2-1,5.2-1.5c2.7-0.5,5.3-1.1,8-1.4c0.9-0.1,1.7-0.2,2.6-0.3c0.4,0,0.7,0,1.1-0.1c0.2-0.1,0.4-0.2,0.5-0.4V54
			c1.7-0.1,3.4-0.1,5.2,0c1.2,0,2.3,0.1,3.4,0.5h0.1c0,0,0,0,0.1,0c0.4,0.2,1,0.1,1.3-0.3C247.3,53.4,246.4,52.8,245.5,52.5z
			 M204.3,62.7l-0.2-0.1l0.3-0.1C204.3,62.5,204.3,62.6,204.3,62.7z"/>
	</g>
	<g class="st2">
		<path d="M153.7,172.2c-0.2-0.3-0.6-0.5-1-0.5c-0.6-0.1-1.3-0.1-1.9-0.1c-0.3,0-0.7,0.1-0.9,0.3c-0.3,0.3-0.4,0.6-0.2,1
			c-0.3,0.2-0.6,0.5-0.9,0.8c-1.4,1.6-2.4,3.4-3.1,5.3c-0.3,0.9-0.5,1.9-0.7,2.9c-0.4,1.5-0.4,3.2,0.1,4.7c0.8,1.3,2.1,0.6,3-0.1
			c0.1-0.1,0.3-0.2,0.4-0.3c0.5-0.4,0.9-0.9,0.5-1.5c-0.2-0.4-0.7-0.6-1.1-0.4c-0.4,0-0.8,0-1.1,0.3c-0.1,0.1-0.1,0.2-0.2,0.3v-0.1
			c-0.1-0.9,0.1-1.8,0.3-2.7c0.3-1.6,0.9-3.2,1.7-4.7c0.6-1.1,1.3-2.1,2.2-3c0.6-0.5,0.3-0.4,1-0.6c0.3-0.1,0.6-0.1,0.9-0.3h0.4l0,0
			c0.5,0,0.8-0.4,0.8-0.8C153.9,172.5,153.8,172.3,153.7,172.2z"/>
	</g>
	<g class="st2">
		<path d="M119.5,148.4c-0.7,0-0.8,0.8-0.9,1.3c-0.3,1.1-0.6,2.1-0.9,3.2c-0.7,2.4-1.6,4.8-2.6,7.2c-0.3,0.7-1.9,3.9-2.7,5.5
			c-0.3,0.5-0.5,1-0.8,1.4c-0.2,0.3-0.4,0.6-0.4,1c-0.1,0.3,0,0.7,0.2,1c1-0.2,2.1-0.3,3.2-0.2c0.1,0,0.1-0.1,0.2-0.1
			c1.2-1.2,1.9-2.7,2.2-4.4c0.1-0.4,0.2-0.9,0.3-1.3c0.1-0.2,0.1-0.5,0-0.8c-0.1-0.1-0.2-0.2-0.3-0.3c0.7-2.1,1.4-4.3,2.1-6.4
			c0.4-1.6,0.8-3.2,1-4.8c0.1-0.5,0.2-1,0.3-1.5C120.2,148.7,119.9,148.4,119.5,148.4z"/>
	</g>
	<g class="st2">
		<path d="M156.1,186.6c-1.4-0.8-2.9-1.3-4.4-1.6h0.1c-0.2,0-0.4,0-0.6,0c-0.5,0-1,0.1-1.4,0.4c-0.8,0.7-1.8,1.9-2,1.9l0,0
			c-0.1,0.1-0.2,0.1-0.4,0.2c-0.3,0.1-0.5,0.2-0.8,0.2c-1.3,0-2.7-0.1-4-0.3c-1.4-0.1-2.8-0.1-4.2-0.3c-1.6-0.1-3.1-0.3-4.7-0.4
			c-2.8-0.3-5.6-0.2-8.4-0.4c-2.2-0.2-4.5,0-6.7-0.1c-3.8,0-7.8,0.2-11.6,0.4c-2.6,0.2-8.2,0.4-10.4-0.3c-0.6-0.1-1.2-0.6-1.8-0.3
			c-0.4,0.2-0.5,0.8-0.3,1.2c0.1,0.2,0.3,0.3,0.5,0.4c1.7,0.6,3.6,1.1,5.4,1.2c2.3,0.2,4.6,0.3,6.9,0.1c2.2-0.2,4.3-0.1,6.5-0.3
			c2.3-0.1,4.7-0.1,7,0c1.4,0,2.8,0,4.2,0.1c2,0.1,4,0.1,5.9,0.1c2.7,0.2,5.4,0.5,8.1,0.6c1.3,0.1,2.6,0.1,3.9,0.2
			c1.8,0.3,3.6,0.2,5.3-0.4c1-0.5,1.9-1.2,2.6-2.1h0.1c0.6,0.1,1.1,0.2,1.6,0.4c2.1,0.5,4,1.5,5.6,3c0.3,0.3,0.6,0.6,0.7,0.9
			c0.1,0.2,0.2,0.5,0.4,0.6c0.5,0.4,1.2,0.3,1.5-0.2c0.1-0.2,0.2-0.4,0.2-0.7C160.9,189.5,157.8,187.5,156.1,186.6z"/>
	</g>
	<path class="st0" d="M219.5,80.3c0.4-0.6,0.4,0,0.6-0.7c0.2-0.7,0.2-1.4-0.1-2.1c-0.3-0.7-0.9-1.1-1.6-1.2
		c-0.9,0.1-1.7,0.6-2.2,1.3c-1,1.1-2,2.3-2.7,3.6c-0.3,0.5-0.5,1.2-0.1,1.6c0.2,0.2,0.5,0.3,0.8,0.3c0.9,0,1.7-0.3,2.3-1
		c0.3-0.3,0.4-0.6,0.7-0.9c0.3-0.3,0.6-0.6,0.8-0.9C218.3,79.3,218.3,78.6,219.5,80.3z"/>
	<path class="st0" d="M217.3,77.5c0.4-0.6,0.7-1.3,0.9-1.9c0.2-0.7,0.2-1.4-0.1-2.1c-0.3-0.7-0.9-1.2-1.6-1.2
		c-0.9,0.1-1.7,0.6-2.2,1.3c-1,1.1-2,2.3-2.7,3.6c-0.3,0.5-0.5,1.1-0.1,1.6c0.2,0.2,0.5,0.3,0.8,0.3c0.9,0,1.6,0.3,2.2-0.3
		C214.8,78.3,217.2,76.1,217.3,77.5z"/>
	<path class="st0" d="M215.4,74.1c0.4-0.6,0.7-1.3,0.9-1.9c0.2-0.7,0.2-1.4-0.1-2.1c-0.3-0.7-0.9-1.2-1.6-1.2
		c-0.9,0.1-1.7,0.6-2.2,1.3c-1,1.1-2,2.3-2.7,3.6c-0.3,0.5-0.5,1.2-0.1,1.6c0.2,0.2,0.5,1,0.8,1c0.9,0,1.7-1,2.3-1.7
		C212.9,74.3,215.3,72.7,215.4,74.1z"/>
	<path class="st0" d="M214.6,68.8c0.7,0,0-2.6-0.3-3.3c-0.3-0.7-0.9-1.1-1.6-1.2c-0.9,0.1-1.7,0.6-2.2,1.3c-1,1.1-2,2.3-2.7,3.6
		c-0.3,0.5-0.5,1.2-0.1,1.6c0.2,0.2-0.4,3-0.1,3c0.9,0,1.8-0.3,2.5-1C210.3,72.6,212.7,68.8,214.6,68.8z"/>
	<path class="st0" d="M205.7,71.9c1.1-1.4,3.8-4.6,2.3-5.4c-0.8-0.4-2.6,0.5-3.2,1.1c-1,1.1-3.1,2.1-3.8,3.5
		c-0.3,0.5-1.3,3.3-0.9,3.7c0.2,0.2,0,2.9,0.3,2.9c0.9,0,4.4,1,4.9,0.4C205.5,77.7,203.3,75,205.7,71.9z"/>
	<path d="M214.1,83.9c-0.1,0-0.2,0-0.3,0c-0.6-0.1-1-0.5-1.2-1c-0.5-1.6,1.7-4.4,2.4-5.2c0.7-1.1,1.8-1.8,3.1-2.1
		c1.2-0.1,2.3,0.7,2.6,1.8c0.2,1.1-0.1,2.3-0.7,3.3v0.1c-0.1,0.2-0.4,0.3-0.6,0.2c0,0,0,0,0,0c-0.2-0.1-0.3-0.4-0.2-0.6c0,0,0,0,0,0
		v-0.1c0.5-0.8,0.7-1.7,0.6-2.6c-0.2-0.7-0.8-1.2-1.5-1.2c-1,0.3-1.9,0.9-2.5,1.8c-1.3,1.5-2.5,3.5-2.3,4.2c0,0.1,0.1,0.2,0.5,0.3
		c1.2,0.2,2.9-2.3,3.6-3.4l0.2-0.4c0.1-0.2,0.4-0.3,0.7-0.1c0,0,0,0,0,0c0.2,0.2,0.3,0.5,0.1,0.7l-0.2,0.3
		C217.5,81.4,215.9,83.9,214.1,83.9z"/>
	<path d="M209.8,78.5c-0.3,0-0.6-0.1-0.8-0.3c-0.6-0.6-0.8-2.5,0.1-4.5s2.7-4.5,4.4-5.1c0.9-0.4,1.9-0.3,2.7,0.2
		c0.9,1,1.3,2.3,1,3.6c0,0.3-0.3,0.5-0.6,0.4c-0.3,0-0.5-0.3-0.4-0.6c0.2-1,0-2-0.7-2.7c-0.5-0.3-1.2-0.4-1.7-0.1
		c-1.4,0.5-3,2.7-3.9,4.6c-0.6,1-0.7,2.3-0.3,3.4c0.1,0,0.1,0,0.2,0c0.5-0.1,0.9-0.5,1.2-0.9c0.1-0.2,0.4-0.4,0.6-0.3
		c0.3,0.1,0.4,0.4,0.3,0.7c-0.4,0.7-1.1,1.3-1.9,1.5C210,78.5,209.9,78.5,209.8,78.5z"/>
	<path d="M212.2,82.2c-0.4,0-0.9-0.1-1.2-0.4c-0.4-0.4-0.6-1-0.6-1.6c0-1.3,0.3-2.5,0.8-3.7c0.7-1.7,2-3.2,3.6-4.2
		c1.1-0.6,2.3-0.6,3.4,0c0.7,0.5,1.4,1.4,1.2,3.6c0,0.3-0.3,0.4-0.6,0.4c-0.3,0-0.5-0.3-0.4-0.6c0.1-0.9,0.1-2.1-0.7-2.7
		c-0.7-0.4-1.6-0.4-2.4,0c-1.4,0.9-2.5,2.2-3.2,3.7c-0.5,1-0.7,2.1-0.7,3.2c0,0.4,0.1,0.7,0.3,1c0.3,0.3,1.1,0.1,1.2,0
		c0.2-0.2,0.5-0.2,0.7,0c0.2,0.2,0.2,0.5-0.1,0.7C213.1,82,212.7,82.2,212.2,82.2z"/>
	<path d="M204.8,93.9L204.8,93.9c-0.3,0-0.5-0.2-0.5-0.5c0,0,0,0,0,0c0.2-4-1.1-6.6-2.3-9.2c-0.7-1.4-1.3-2.8-1.8-4.3l-0.1-0.4
		c-0.6-2.3-1.3-4.9-0.4-7.3c0.7-1.5,1.8-2.8,3.1-3.8l0.2-0.1c0.8-0.8,1.7-1.4,2.6-2c1.1-0.6,2-0.7,2.5-0.4c0.4,0.2,0.6,0.7,0.6,1.1
		c0.1,1.5-0.5,3-1.6,4c-0.2,0.3-0.5,0.5-0.7,0.9c-1.4,2-1.6,4.6-0.4,6.7c0.1,0.2,0.1,0.5-0.2,0.7c0,0,0,0,0,0
		c-0.2,0.1-0.5,0-0.7-0.2c-1.4-2.4-1.2-5.5,0.4-7.8c0.3-0.3,0.5-0.6,0.8-0.9c1-0.8,1.5-2.1,1.3-3.4c0-0.1,0-0.2-0.1-0.3
		s-0.6-0.1-1.6,0.4c-0.9,0.5-1.7,1.2-2.4,1.8l-0.2,0.2c-1.2,0.9-2.2,2.1-2.8,3.4c-0.8,2-0.2,4.4,0.4,6.7l0.1,0.4
		c0.4,1.4,1,2.8,1.7,4.1c1.3,2.6,2.6,5.3,2.4,9.6C205.3,93.7,205,93.9,204.8,93.9C204.8,93.9,204.8,93.9,204.8,93.9z"/>
	<path d="M208.3,75.3c-0.3,0-0.6-0.1-0.8-0.2c-1.3-0.6-1.2-2.3-0.8-3.6l0.1-0.4c0.5-1.6,1.1-3.1,1.9-4.5c0.9-1.4,3-3.3,4.9-2.6
		s1.6,2.7,1.6,4c0,0.3,0,0.6,0,0.8c0,0.3-0.2,0.5-0.5,0.5s-0.5-0.2-0.5-0.5c0-0.3,0-0.6,0-1c0.1-1.4,0.1-2.7-0.9-3
		c-1.2-0.4-2.9,1-3.7,2.3c-0.8,1.3-1.4,2.8-1.8,4.3l-0.1,0.4c-0.2,0.7-0.5,2,0.3,2.3c0.2,0.1,0.4,0.1,0.6,0c0.3-0.1,0.5-0.4,0.6-0.7
		c0.1-0.2,0.4-0.3,0.7-0.2c0.2,0.1,0.3,0.4,0.2,0.6c-0.2,0.5-0.6,1-1.2,1.2C208.7,75.2,208.5,75.2,208.3,75.3z"/>
	<path class="st0" d="M71.7,13c0-3.2,2.6-5.8,5.8-5.8c3.2,0,5.8,2.6,5.8,5.8c0,3.2-2.6,5.8-5.8,5.8c0,0,0,0,0,0
		C74.3,18.8,71.7,16.2,71.7,13C71.7,13,71.7,13,71.7,13z"/>
	<path d="M77.5,19.3c-3.5,0-6.3-2.8-6.3-6.3s2.8-6.3,6.3-6.3s6.3,2.8,6.3,6.3C83.8,16.5,81,19.3,77.5,19.3z M77.5,7.7
		c-2.9,0-5.3,2.4-5.3,5.3c0,2.9,2.4,5.3,5.3,5.3c2.9,0,5.3-2.4,5.3-5.3S80.5,7.7,77.5,7.7C77.5,7.7,77.5,7.7,77.5,7.7z"/>
	<path d="M139.2,13.5H90.8c-0.3,0-0.5-0.2-0.5-0.5s0.2-0.5,0.5-0.5h48.4c0.3,0,0.5,0.2,0.5,0.5S139.5,13.5,139.2,13.5z"/>
	<path d="M119.7,194.5H71.4c-0.3,0-0.5-0.2-0.5-0.5s0.2-0.5,0.5-0.5h48.4c0.3,0,0.5,0.2,0.5,0.5S120,194.5,119.7,194.5z"/>
	<path d="M105.3,202.7h-34c-0.3,0-0.5-0.2-0.5-0.5s0.2-0.5,0.5-0.5h34c0.3,0,0.5,0.2,0.5,0.5S105.6,202.7,105.3,202.7z"/>
	<path class="st0" d="M378.6,258.4c0.8-15.7-0.7-32.4-7-46.8c-3.6,8-7.8,15.7-12.7,23c-1.5-2.6-2.9-5.4-4.3-8.2l-1-2.1
		c-1.9-3.9-3.9-7.8-5.6-11.8c2.3-9.5,4.9-18.9,7.9-28.2c0.4-1.3,0.9-2.5,1.6-3.7c1.5-2.4,4-3.8,6.5-5.1c6.8-3.4,14-5.9,21.5-7.4
		c0.7-1.1,1.7-2,2.9-2.5c1.2,3.9,3.3,7.3,6.2,10.1c1.3,1.3,3,2.6,4.7,2.4c4.8-1.6,7.5-6.6,11.5-9.6c1.4-1.2,3.2-1.8,5-1.8l12.3,2.4
		c6.8,1.3,13.8,2.7,19.4,6.7c1.3,0.9,2.5,2,3.6,3.3c6.4,14.8,11.6,30.1,15.4,45.7c1.9,7.6,3.6,15.5,2,23.4c-1.1,2.3-2.7,4.3-4.7,5.9
		c-1.1,1-2.5,1.8-3.9,2.4c-1.7,0.5-3.4,0.7-5.2,0.6l-11.1,0.2L378.6,258.4z"/>
	<path class="st5" d="M297,80.4v219.9h186.2V80.4H297z M468.7,257.8H310.6V103.2h158.1V257.8z"/>
	<path d="M483.3,300.8H297c-0.3,0-0.5-0.2-0.5-0.5c0,0,0,0,0,0V80.4c0-0.3,0.2-0.5,0.5-0.5c0,0,0,0,0,0h186.2c0.3,0,0.5,0.2,0.5,0.5
		v219.9C483.8,300.6,483.5,300.8,483.3,300.8z M297.5,299.8h185.2V80.9H297.5L297.5,299.8z M468.7,258.2H310.6
		c-0.3,0-0.5-0.2-0.5-0.5V103.2c0-0.3,0.2-0.5,0.5-0.5h158.1c0.3,0,0.5,0.2,0.5,0.5v154.5C469.2,258,469,258.2,468.7,258.2
		L468.7,258.2z M311.1,257.2h157.1V103.7H311.1L311.1,257.2z"/>
	<path class="st0" d="M312.3,91c0-3.2,2.6-5.8,5.8-5.8c3.2,0,5.8,2.6,5.8,5.8c0,3.2-2.6,5.8-5.8,5.8l0,0
		C314.9,96.8,312.3,94.2,312.3,91z"/>
	<path d="M318.1,97.3c-3.5,0-6.3-2.8-6.3-6.3c0-3.5,2.8-6.3,6.3-6.3c3.5,0,6.3,2.8,6.3,6.3C324.4,94.5,321.6,97.3,318.1,97.3
		C318.1,97.3,318.1,97.3,318.1,97.3z M318.1,85.7c-2.9,0-5.3,2.4-5.3,5.3c0,2.9,2.4,5.3,5.3,5.3c2.9,0,5.3-2.4,5.3-5.3c0,0,0,0,0,0
		C323.3,88.1,321,85.7,318.1,85.7z"/>
	<path d="M379.7,91.5h-48.4c-0.3,0-0.5-0.2-0.5-0.5s0.2-0.5,0.5-0.5h48.4c0.3,0,0.5,0.2,0.5,0.5S380,91.5,379.7,91.5L379.7,91.5
		L379.7,91.5z"/>
	<path d="M360.3,272.6h-48.4c-0.3,0-0.5-0.2-0.5-0.5s0.2-0.5,0.5-0.5h48.4c0.3,0,0.5,0.2,0.5,0.5S360.5,272.6,360.3,272.6z"/>
	<path d="M345.9,280.8h-34c-0.3,0-0.5-0.2-0.5-0.5s0.2-0.5,0.5-0.5h34c0.3,0,0.5,0.2,0.5,0.5S346.1,280.8,345.9,280.8z"/>
	<path class="st0" d="M378.6,233.8c-4.4,2.8-7.8,7-9.6,11.9c-0.3,0.6-0.4,1.4-0.3,2.1c0.2,0.7,0.9,1.2,1.6,1c0,0,0.1,0,0.1,0
		c-0.2,0.8,0.2,1.7,1.1,1.9s1.7-0.2,1.9-1.1c0.3,0.4,0.8,0.6,1.3,0.5c0.5-0.1,0.9-0.4,1.3-0.7l3-2.4c1.3-1.1,2.6-2,4.1-2.8
		c0.8-0.3,1.6-0.7,2.4-1.2c1.5-1.1,2.2-3.1,1.7-4.9c-0.6-1.5-1.7-2.8-3.1-3.7c-0.7-0.6-1.5-0.9-2.3-1.1
		C380.5,233.1,379.2,233.8,378.6,233.8z"/>
	<path class="st1" d="M366.8,258.4L392,258l-0.1-5.6l-27,0.6L366.8,258.4z"/>
	<path d="M366.8,258.9c-0.2,0-0.4-0.1-0.5-0.3l-2-5.3c-0.1-0.1,0-0.3,0.1-0.4c0.1-0.1,0.2-0.2,0.4-0.2l27-0.6c0.1,0,0.3,0,0.4,0.1
		c0.1,0.1,0.2,0.2,0.1,0.4l0.1,5.6c0,0.1-0.1,0.3-0.1,0.4c-0.1,0.1-0.2,0.1-0.3,0.1L366.8,258.9L366.8,258.9z M365.6,253.5l1.6,4.4
		l24.3-0.4l-0.1-4.6L365.6,253.5z"/>
	<path class="st0" d="M387.1,149.9c1.1,7.4,1.6,14.8,1.4,22.3c-0.1,0.6,0,1.3,0.3,1.8c0.3,0.5,0.8,1,1.4,1.3
		c3.8,2.4,8.3,3.2,12.7,2.2c4.3-1.1,8-4.6,8.4-9.3c-1.8-6.1-4.8-14.5-7.1-24.2C398.5,146.3,392.9,148.3,387.1,149.9z"/>
	<path d="M399.2,178.5c-3.3,0-6.5-1-9.3-2.7c-0.7-0.3-1.2-0.8-1.6-1.5c-0.3-0.7-0.4-1.4-0.3-2.1c0.2-7.4-0.3-14.9-1.4-22.2
		c0-0.2,0.1-0.5,0.3-0.5c5.7-1.6,11.4-3.6,16.9-5.9c0.1-0.1,0.3-0.1,0.4,0c0.1,0.1,0.2,0.2,0.3,0.3c1.6,6.9,3.7,13.2,5.3,18.3
		c0.7,2.1,1.3,4.1,1.8,5.9c0,0.1,0,0.1,0,0.2c-0.6,4.8-4.1,8.7-8.7,9.8C401.7,178.3,400.5,178.5,399.2,178.5z M387.7,150.3
		c1.1,7.3,1.5,14.6,1.3,22c-0.1,0.5,0,1.1,0.2,1.6c0.3,0.5,0.7,0.8,1.2,1.1c3.6,2.3,8.1,3.1,12.3,2.2c3.7-1,7.5-4.1,8-8.8
		c-0.5-1.7-1.1-3.7-1.8-5.8c-1.6-5-3.5-11.1-5.2-17.8C398.5,146.9,393.1,148.7,387.7,150.3z"/>
	<path class="st1" d="M421.5,115.1c-1.6,6-3.4,12-5.7,17.8c-1.4,3.6-3.2,7.1-5.5,10.2c-0.8,1.3-2.1,2.3-3.7,2.7
		c0.1-1.6-1.5-2.5-1.5-4c-0.1-1.9,1.3-3.4,0.3-5.2c-1.8-3.3-2.9-6.9-3.2-10.7c-0.4-3,0.2-6,1.7-8.6c1.9-2.8,5.1-4.4,8.5-4.3
		C415.2,113.1,419.6,113.1,421.5,115.1z"/>
	<path d="M406.7,146.3c-0.1,0-0.2,0-0.3-0.1c-0.1-0.1-0.2-0.3-0.2-0.4c0-0.7-0.3-1.3-0.7-1.8c-0.5-0.6-0.8-1.4-0.9-2.2
		c0-0.8,0.1-1.6,0.4-2.3c0.4-0.9,0.4-1.8,0-2.7c-1.8-3.4-2.9-7-3.3-10.8c-0.3-3.7,0.3-6.6,1.8-8.9c2-3,5.4-4.7,8.9-4.6h0.4
		c2.8,0.1,7,0.3,9,2.2c0.1,0.1,0.2,0.3,0.1,0.5c-1.6,6.1-3.5,12-5.7,17.9c-1.4,3.7-3.3,7.1-5.6,10.3c-0.9,1.4-2.3,2.4-3.9,2.9
		C406.8,146.3,406.8,146.3,406.7,146.3z M412.1,113.5c-3.1,0-6,1.6-7.7,4.1c-1.4,2.1-1.9,4.9-1.6,8.3c0.3,3.7,1.4,7.2,3.2,10.5
		c0.5,1.1,0.5,2.3,0.1,3.4c-0.2,0.6-0.3,1.3-0.3,2c0.1,0.6,0.3,1.2,0.7,1.7c0.3,0.5,0.6,1.1,0.8,1.6c1.2-0.4,2.2-1.3,2.8-2.3
		c2.2-3.1,4.1-6.5,5.5-10.1c2.2-5.7,4.1-11.6,5.6-17.5c-1.8-1.5-5.6-1.7-8.1-1.8L412.1,113.5L412.1,113.5z"/>
	<path class="st0" d="M377.6,119.4c-0.5,5-2.4,9.9-3.2,14.9s-0.6,10.5,2.6,14.9c3.2,4.1,8,6.7,13.2,7.1c5.1,0.5,10.2-1.2,13.9-4.7
		c3.1-3.2,4.8-10.9,5.8-14.7c2.2,0.8,4.7,0.4,6.6-0.9c1.7-1.4,2-3.8,0.7-5.5c-1.4-1.7-3.4-2.3-6.1-0.5c0.5-2.6,0.7-5.3,0.6-7.9
		c0-4,0.8-9.9-1.6-12c-1.4-1.2-4.5-2.6-6.3-3.3c-3-1.3-7.7,0-11-0.6s-6.9,0.5-9.9,1.7C379.5,109.3,378,115.6,377.6,119.4z"/>
	<path d="M391.9,156.9c-0.6,0-1.1,0-1.7-0.1c-5.3-0.4-10.3-3.1-13.5-7.3c-2.8-3.9-3.7-9.1-2.7-15.3c0.4-2.2,0.9-4.4,1.5-6.5
		c0.8-2.7,1.4-5.5,1.7-8.3l0,0c0.2-1.7,1.3-10.2,5.7-12c3.9-1.6,7.3-2.2,10.1-1.7c1.5,0.2,3,0.2,4.5,0c2.4-0.1,4.8-0.3,6.7,0.6
		l0.2,0.1c2.2,0.9,4.3,2,6.2,3.3c2.1,1.8,2,6,1.9,9.7c0,1-0.1,1.8-0.1,2.7v0.1c0.1,2.3-0.1,4.6-0.4,6.8c1.9-1.2,4.4-0.7,5.8,1.1
		c1.5,1.9,1.2,4.7-0.8,6.2c-1.9,1.4-4.3,1.8-6.6,1.2c-0.1,0.3-0.1,0.5-0.2,0.8c-1.1,4.3-2.8,10.7-5.6,13.7
		C401.1,155.2,396.6,157,391.9,156.9z M391,106.5c-2.7,0.1-5.3,0.7-7.8,1.8c-3,1.2-4.6,6.8-5.1,11.2l0,0c-0.4,2.9-1,5.7-1.8,8.5
		c-0.5,2.1-1.1,4.3-1.5,6.4c-1,5.9-0.1,10.8,2.5,14.5c3.1,4,7.8,6.5,12.8,6.9c5,0.5,9.9-1.1,13.5-4.6c2.7-2.8,4.4-9.3,5.4-13.2
		c0.1-0.5,0.2-0.9,0.3-1.3c0-0.1,0.1-0.2,0.2-0.3c0.1-0.1,0.3-0.1,0.4,0c2.1,0.7,4.4,0.4,6.2-0.9c1.5-1.2,1.8-3.3,0.6-4.8
		c-1.4-1.7-3.2-1.9-5.4-0.4c-0.2,0.1-0.4,0.1-0.5,0c-0.2-0.1-0.3-0.3-0.2-0.5c0.5-2.5,0.7-5.1,0.6-7.7V122c0-0.8,0-1.8,0.1-2.7
		c0.1-3.5,0.3-7.4-1.5-8.9c-1.9-1.3-3.9-2.3-6-3.2l-0.2-0.1c-1.7-0.7-4-0.6-6.3-0.5c-1.6,0.1-3.1,0.1-4.7-0.1
		C392.2,106.5,391.6,106.5,391,106.5L391,106.5z M377.6,119.4L377.6,119.4z"/>
	<path class="st1" d="M394.2,113.7c-0.7,2.2-4.5,5-6.7,5s-2.9-1.1-3.6-3.3c-2.1,1.5-3.8,3.1-5.8,3.6c-3.3,0.7-6.6-1.4-7.3-4.7
		c-0.6-3.4,1.5-6.7,4.9-7.6c-2.1,0.3-4-2-3.8-4.3c0.3-2.2,1.9-4.1,4-4.8c2-0.8,4.2-0.7,6.4-0.7c-0.5-2.3,0.6-4.7,2.6-5.9
		c2-1.1,4.3-1.4,6.5-0.8c1.4,0.3,2.8,1,3.9,2c1.1,1.1,1.6,2.7,1.4,4.3c2.2-2.2,5.4-3.5,8.3-2.5s4.6,4.8,4.6,7.3
		c1.6-1.6,3.6-2.8,5.8-2.5c4.3,0.7,4.9,4.5,2.4,9c2.6-0.9,5.4,0.6,6.3,3.2c0.1,0.2,0.1,0.5,0.2,0.7c0.4,3-0.6,6-2.7,8.2
		c-2,1.8-8.2,2.8-12.2-0.7c-1.9-1.8-3.1-4.1-3.5-6.7c-1.5,2-2.6,3.4-5.9,4.2C397.4,117.2,394.7,116,394.2,113.7z"/>
	<path d="M415.8,122c-2.6,0.1-5.1-0.8-7-2.5c-1.7-1.6-2.9-3.6-3.5-5.9c-1.3,1.9-3.3,3.1-5.5,3.5c-2.2,0.6-4.5-0.4-5.8-2.3
		c-1.4,2.1-4.6,4.3-6.7,4.3l0,0c-2.2,0-3.1-1-3.8-3l-1,0.7c-1.3,1.2-2.8,2-4.5,2.6c-1.7,0.4-3.4,0.1-4.9-0.8c-1.6-1-2.7-2.5-3-4.3
		c-0.5-3,0.9-6,3.5-7.5c-0.4-0.2-0.7-0.4-1-0.7c-1-1-1.5-2.3-1.4-3.7c0.3-2.4,2-4.4,4.3-5.2c1.7-0.6,3.6-0.8,5.4-0.7h0.6
		c-0.2-2.4,1-4.6,3-5.8c2.1-1.2,4.5-1.5,6.8-0.8c1.5,0.3,3,1,4.1,2.1c0.9,0.9,1.5,2.2,1.6,3.4c2.1-1.9,5.1-2.6,7.9-1.8
		c2.6,0.9,4.5,4,4.9,6.7c1.4-1.4,3.4-2.1,5.4-1.9c1.6,0.1,3,1.1,3.8,2.5c0.8,1.6,0.6,3.8-0.5,6.3c1.1-0.1,2.3,0.1,3.3,0.7
		c1.5,0.8,2.5,2.3,2.8,3.9c0.4,3.2-0.6,6.4-2.9,8.7C420,121.5,417.9,122.1,415.8,122z M405.6,112h0.1c0.2,0,0.3,0.2,0.4,0.4
		c0.4,2.4,1.6,4.7,3.4,6.4c3.7,3.3,9.7,2.4,11.5,0.7c2-2.1,2.9-4.9,2.6-7.8c-0.3-1.4-1.1-2.6-2.3-3.3c-1.1-0.6-2.3-0.7-3.5-0.3
		c-0.2,0.1-0.4,0-0.5-0.1c-0.1-0.2-0.2-0.4-0.1-0.6c1.4-2.6,1.8-4.8,1-6.3c-0.6-1.1-1.8-1.9-3.1-2c-1.7-0.3-3.5,0.5-5.4,2.3
		c-0.1,0.1-0.4,0.2-0.5,0.1c-0.2-0.1-0.3-0.3-0.3-0.4c0-2.2-1.6-5.8-4.3-6.8c-2.4-0.9-5.5,0.1-7.7,2.4c-0.1,0.2-0.4,0.2-0.6,0.1
		c-0.2-0.1-0.3-0.3-0.3-0.5c0.2-1.4-0.3-2.8-1.3-3.8c-1-0.9-2.3-1.6-3.6-1.8c-2-0.6-4.2-0.3-6.1,0.7c-1.8,1.1-2.8,3.2-2.4,5.3
		c0,0.1,0,0.3-0.1,0.4c-0.1,0.1-0.2,0.2-0.4,0.2H381c-1.7-0.1-3.4,0.2-5,0.7c-1.9,0.7-3.3,2.4-3.6,4.4c-0.1,1.1,0.3,2.2,1.1,3
		c0.5,0.6,1.3,0.8,2.1,0.8c0.3,0,0.5,0.2,0.5,0.4c0,0.3-0.1,0.5-0.4,0.6c-3.1,0.8-5,3.9-4.5,7c0.3,1.5,1.3,2.8,2.6,3.7
		c1.2,0.8,2.7,1,4.1,0.7c1.5-0.5,2.9-1.4,4.1-2.4c0.5-0.4,1-0.8,1.5-1.1c0.1-0.1,0.3-0.1,0.5-0.1c0.1,0.1,0.3,0.2,0.3,0.3
		c0.6,2.1,1.2,2.9,3.1,2.9l0,0c2,0,5.6-2.7,6.3-4.6c0.1-0.3,0.3-0.4,0.6-0.3c0.2,0,0.3,0.2,0.3,0.3c0.5,2.1,3,3.1,5,2.6
		c3.2-0.7,4.2-2.1,5.6-4C405.3,112,405.5,112,405.6,112L405.6,112z"/>
	<path d="M381.5,127.2c0-0.7,0.5-1.2,1.1-1.3c0.7,0,1.2,0.5,1.3,1.1c0,0.7-0.5,1.2-1.1,1.3c0,0,0,0-0.1,0
		C382.1,128.4,381.5,127.9,381.5,127.2C381.5,127.2,381.5,127.2,381.5,127.2z"/>
	<path d="M398,129.9c0-0.7,0.5-1.2,1.1-1.3s1.2,0.5,1.3,1.1c0,0.7-0.5,1.2-1.1,1.3c0,0,0,0-0.1,0C398.6,131,398.1,130.5,398,129.9
		C398.1,129.9,398.1,129.9,398,129.9z"/>
	<path d="M391.7,149c-0.8,0-1.5-0.1-2.2-0.4c-0.3-0.1-0.4-0.4-0.3-0.6c0.1-0.3,0.4-0.4,0.6-0.3c1.9,0.7,4.1,0.3,5.6-1.1
		c0.2-0.2,0.5-0.2,0.7,0s0.2,0.5,0,0.7c0,0,0,0-0.1,0.1C394.9,148.4,393.3,149,391.7,149z"/>
	<path d="M389.5,142.4c-1.1,0-2.1-0.3-3.1-0.8c-0.5-0.2-1-0.6-1.3-1c-0.5-0.7-0.5-1.6-0.2-2.4c0.2-0.6,0.5-1.2,0.9-1.7l0.1-0.2
		c1.7-2.8,2.8-5.9,3.2-9.2c0-0.3,0.3-0.5,0.5-0.4c0,0,0,0,0,0c0.3,0,0.5,0.3,0.4,0.5c0,0,0,0,0,0c-0.4,3.4-1.5,6.7-3.3,9.6l-0.1,0.2
		c-0.3,0.5-0.6,0.9-0.8,1.4c-0.2,0.5-0.2,1.1,0.1,1.5c0.2,0.3,0.6,0.5,0.9,0.7c0.9,0.5,1.9,0.7,2.9,0.7c0.9,0,1.8-0.4,2.5-1.1
		c0.1-0.2,0.4-0.3,0.7-0.1c0.2,0.1,0.3,0.4,0.1,0.7c0,0,0,0.1-0.1,0.1c-0.8,0.9-2,1.5-3.2,1.5H389.5z"/>
	<path d="M453.3,257.3c-8.3,0-20.4-1.7-32.3-3.3c-6.7-0.9-13-1.8-18.4-2.3c-0.3,0-0.5-0.3-0.4-0.5c0,0,0,0,0,0
		c0-0.3,0.3-0.5,0.5-0.4c5.4,0.5,11.7,1.4,18.4,2.3c16.9,2.3,36,4.9,40.6,2c3.9-2.5,6.6-6.2,6.8-9.5c0.1-5.4-0.3-10.8-1.2-16.1
		c-3-14.3-14-46.7-17.9-51.1s-9.6-6-14.8-7.3c-7.7-1.9-15.4-3.4-23.3-4.3c-1.6,5.1-5,9.6-9.5,12.6c-1.2,0.8-2.6,0.1-3.8-0.4
		l-0.6-0.3c-0.3-0.1-0.6-0.1-0.8-0.2c-2-0.4-6.2-1.1-8.2-4.2c-1.1-1.8-1.4-4-0.9-6c-7.1,1.2-13.9,3.3-20.5,6.2
		c-2.9,1.3-6.1,2.9-8.2,5.6c-1.9,2.4-2.8,5.5-3.6,8.2c-4.5,15.6-8.7,31.5-12.5,47.2c-0.1,0.3-0.4,0.4-0.6,0.3
		c-0.2-0.1-0.4-0.3-0.3-0.5c3.8-15.8,8-31.7,12.5-47.3c0.8-2.8,1.7-6,3.8-8.5c2.2-2.8,5.6-4.6,8.6-5.9c6.8-3,14-5.2,21.4-6.3
		c0.2,0,0.3,0,0.4,0.1c0.1,0.1,0.2,0.3,0.1,0.4c-0.6,2-0.4,4.1,0.6,5.9c1.8,2.7,5.7,3.4,7.5,3.7c0.4,0,0.7,0.1,1.1,0.2l0.7,0.3
		c1,0.5,2.1,1,2.8,0.5c4.4-3,7.7-7.4,9.2-12.5c0.1-0.2,0.3-0.4,0.5-0.3c8,0.9,16,2.4,23.9,4.3c5.3,1.3,11.3,3.1,15.3,7.6
		c4.3,4.9,15.3,38.1,18.1,51.5c0.9,5.4,1.3,10.9,1.2,16.4c-0.3,3.6-3.1,7.6-7.2,10.3C460.7,256.9,457.5,257.3,453.3,257.3z"/>
	<path class="st0" d="M398.3,183.6c-2.1,10.3-4,20.5-5.8,30.9c-0.4,1.7-0.5,3.5-0.5,5.3c0.4,2.4,1.2,4.8,2.4,6.9
		c1.3,2.7,2.8,5.3,4.4,7.8c2.1-4.8,4-9.7,5.6-14.8c0.5-11.4-3.2-22.6-3.5-34c0-0.7-0.1-1.4-0.3-2.1
		C400.3,183,399.6,182.6,398.3,183.6z"/>
	<path d="M398.8,235c-0.2,0-0.3-0.1-0.4-0.2c-1.7-2.5-3.1-5.1-4.4-7.8c-1.3-2.2-2.1-4.5-2.4-7c-0.1-1.8,0.1-3.7,0.5-5.4
		c1.8-10.3,3.8-20.7,5.8-30.9c0-0.1,0.1-0.2,0.2-0.3c0.6-0.5,1.3-0.7,2.1-0.6c0.4,0.1,0.8,0.4,1,0.9c0.3,0.7,0.4,1.5,0.4,2.2l0,0
		c0.3,5.1,0.8,10.1,1.8,15.1c1,6.2,2,12.6,1.7,18.9c0,0,0,0.1,0,0.1c-1.6,5-3.5,10-5.6,14.8c-0.1,0.2-0.2,0.3-0.4,0.3H398.8z
		 M398.7,183.9c-2,10.1-4,20.5-5.8,30.7c-0.4,1.7-0.5,3.5-0.5,5.2c0.4,2.4,1.2,4.6,2.4,6.7c1.2,2.4,2.5,4.7,3.9,7
		c2-4.6,3.7-9.2,5.2-13.8c0.3-6.3-0.7-12.6-1.7-18.7c-0.9-5-1.5-10.1-1.8-15.3v-0.1c0-0.6-0.1-1.2-0.3-1.8c-0.1-0.3-0.3-0.3-0.3-0.3
		S399.3,183.5,398.7,183.9L398.7,183.9z"/>
	<path d="M402.7,251.7c-0.2,0-0.4-0.1-0.5-0.4c-0.1-0.3,0.1-0.5,0.3-0.6c2.5-0.8,3.6-2.9,3.5-6.9c-0.3-9.2-1.8-9.9-2.1-9.9
		c-0.2,0-0.4-0.3-0.4-0.5c0-0.3,0.2-0.5,0.5-0.5l1.6-0.1c13.4-0.6,28.6-1.3,38.1-2.4c-1.6-4.9-3.1-9.4-4.5-13.8
		c-1.5-4.6-3.1-9.4-4.8-14.6c-0.1-0.3,0.1-0.5,0.3-0.6c0.3-0.1,0.5,0.1,0.6,0.3l0,0c1.6,5.2,3.2,10,4.8,14.6s3.1,9.2,4.7,14.4
		c0,0.1,0,0.3-0.1,0.4c-0.1,0.1-0.2,0.2-0.4,0.2c-9.5,1.2-25,1.9-38.7,2.5h-0.3c0.8,1.2,1.5,3.9,1.7,9.9c0.1,3-0.3,6.7-4.1,7.9
		L402.7,251.7z"/>
	<polygon class="st1" points="280.7,210.9 347.4,211.2 370.4,258.4 303.1,258.8 	"/>
	<path d="M303.1,259.3c-0.2,0-0.4-0.1-0.5-0.3l-22.4-48c-0.1-0.1-0.1-0.3,0-0.5c0.1-0.1,0.2-0.2,0.4-0.2l0,0l66.7,0.4
		c0.2,0,0.4,0.1,0.4,0.3l23,47.2c0.1,0.1,0.1,0.3,0,0.5c-0.1,0.1-0.2,0.2-0.4,0.2L303.1,259.3L303.1,259.3z M281.5,211.4l21.9,47
		l66.2-0.4l-22.5-46.2L281.5,211.4z"/>
	<path class="st0" d="M322.9,230.1c-1.9-0.2-4,0.3-4.7,2.1c-0.7,1.8-0.2,3.9,1.2,5.2c1.5,1.3,3.5,1.7,5.3,1.3c1-0.2,1.9-0.7,2.6-1.6
		c0.4-0.6,0.6-1.3,0.6-2C327.9,232.7,326.8,230.5,322.9,230.1z"/>
	<path d="M323.3,239.3c-1.6,0-3.1-0.5-4.3-1.6c-1.6-1.5-2.1-3.7-1.3-5.8c0.8-1.7,2.7-2.6,5.2-2.4c4.5,0.4,5.4,3.2,5.4,5.4
		c0,0.8-0.2,1.6-0.6,2.3c-0.7,0.9-1.7,1.6-2.9,1.8C324.3,239.2,323.8,239.3,323.3,239.3z M322.2,230.6c-1.1,0-2.9,0.3-3.6,1.8
		c-0.6,1.6-0.2,3.5,1.1,4.6c1.4,1.2,3.2,1.6,4.9,1.2c0.9-0.1,1.7-0.6,2.3-1.4c0.3-0.5,0.5-1.1,0.5-1.8c0-2.7-1.5-4.1-4.5-4.4
		C322.6,230.6,322.4,230.5,322.2,230.6z"/>
	<path class="st0" d="M400.9,178.4c-0.9-0.6-2.1-0.7-3.1-0.2c-1.4,0.6-2.7,1.4-2.9,3c0.2,0.9,0.6,1.8,1.1,2.6c0.5,0.7,1.6,2,2.6,2.1
		c0.9,0,1.7-0.4,2.3-1c1.2-1.1,2.1-2.6,1.8-4.1C402.4,179.8,401.8,178.9,400.9,178.4z"/>
	<path d="M398.8,186.4h-0.2c-1.3-0.1-2.6-1.7-3-2.3c-0.3-0.4-1.3-2.3-1.1-3c0.4-1.6,1.6-2.9,3.2-3.4c1.2-0.5,2.5-0.5,3.6,0.3l0,0
		c1,0.6,1.7,1.5,2,2.6c0.4,1.5-0.4,3.2-1.9,4.6C400.6,185.9,399.7,186.3,398.8,186.4z M399.3,178.4c-0.4,0-0.9,0.1-1.3,0.3
		c-1.6,0.7-2.4,1.5-2.6,2.6c0.2,0.8,0.6,1.6,1,2.3c0.5,0.7,1.5,1.8,2.3,1.9c0.8,0,1.5-0.3,2-0.9c0.5-0.4,2-2,1.6-3.6
		c-0.3-0.8-0.8-1.5-1.6-2l0,0C400.2,178.5,399.8,178.4,399.3,178.4L399.3,178.4z"/>
	<path d="M380.9,251.8c-0.4,0-0.7-0.2-1-0.4c-0.8-0.7-0.3-1.9-0.1-2.3c0.3-0.6,0.7-1.1,1.1-1.6c1.3-1.4,2.8-2.6,4.5-3.6l0,0
		c-0.9,0.1-1.7,0.3-2.5,0.8c-1.6,1-3.1,2.1-4.5,3.3c-0.7,0.6-1.4,1.3-2.2,1.8c-0.4,0.3-0.8,0.6-1.3,0.7c-0.6,0.2-1.2,0.1-1.7-0.4
		c-0.3-0.3-0.5-0.7-0.5-1.2c0-1,0.4-2,1.1-2.8c3-3.8,6.2-5.9,9.7-6.5c0.3,0,0.5,0.1,0.6,0.4c0,0.3-0.1,0.5-0.4,0.6
		c-3.3,0.5-6.3,2.5-9.1,6.1c-0.5,0.6-0.9,1.3-0.9,2.1c0,0.2,0.1,0.4,0.2,0.5c0.2,0.2,0.5,0.2,0.7,0.1c0.3-0.1,0.7-0.3,0.9-0.6
		c0.7-0.6,1.5-1.2,2.2-1.8c1.4-1.3,3-2.5,4.6-3.4c1.8-1,3.3-1.2,4.5-0.5c0.2,0.1,0.3,0.3,0.3,0.4c0,0.2-0.1,0.3-0.3,0.4
		c-2,1-3.8,2.4-5.3,4c-0.4,0.4-0.7,0.8-0.9,1.3c-0.3,0.7-0.3,1.1-0.2,1.2c0.4,0.3,0.6,0.2,1.1-0.2l0,0c2-1.7,4.2-3.2,6.5-4.5
		c0.8-0.6,1.8-0.7,2.7-0.4c1,0.5,4,1.6,9.2,1.3c2-0.1,4.1,0.2,6,0.8c0.3,0.1,0.4,0.4,0.3,0.6c-0.1,0.3-0.4,0.4-0.6,0.3l0,0
		c-1.8-0.6-3.7-0.9-5.7-0.8c-5.4,0.3-8.6-0.9-9.7-1.4c-0.5-0.3-1.3,0.1-1.8,0.4c-2.3,1.2-4.4,2.7-6.4,4.4h-0.1
		C381.9,251.5,381.4,251.7,380.9,251.8z"/>
	<path d="M371.8,251.2c-0.2,0-0.3,0-0.5-0.1c-0.8-0.3-1.3-1.1-1.3-1.9c0-1.6,0.5-3.2,1.5-4.5c2.4-3.6,4.9-5.9,7.4-6.7
		c0.2-0.1,0.5,0,0.6,0.2c0.1,0.2,0,0.5-0.2,0.6c0,0,0,0-0.1,0c-2.3,0.8-4.6,3-6.9,6.4c-0.9,1.1-1.3,2.5-1.4,3.9c0,0.4,0.2,1,0.6,1.1
		c0.2,0,0.5,0,0.7-0.1c0.3-0.2,0.5-0.4,0.7-0.7c0.1-0.2,0.4-0.3,0.7-0.1c0.2,0.1,0.3,0.4,0.1,0.7c0,0,0,0.1-0.1,0.1
		c-0.3,0.3-0.6,0.7-0.9,0.9C372.5,251.1,372.2,251.2,371.8,251.2z"/>
	<path d="M369.8,249.3c-0.4,0-0.9-0.1-1.2-0.4c-1.2-0.9,0.3-5.1,1.4-7c2.2-4,5.7-7.2,9.9-9.2c2-1.3,10.5,1.3,14.1,2.5
		c1.1,0.4,2.2,0.6,3.3,0.7c3.1,0.1,7.2,0.1,8.2,0c0.3,0,0.5,0.1,0.6,0.4c0,0.3-0.1,0.5-0.4,0.6l0,0c-1.4,0.2-7.3,0.1-8.4,0
		c-1.2-0.1-2.4-0.3-3.5-0.7c-6.8-2.2-12.3-3.3-13.3-2.6l-0.1,0.1c-4,1.9-7.3,5-9.4,8.8c-1.4,2.3-2,5.3-1.7,5.7
		c0.3,0.2,0.7,0.3,1,0.1c0.2-0.2,0.5-0.1,0.7,0.1c0.2,0.2,0.1,0.5-0.1,0.7c0,0,0,0-0.1,0C370.4,249.2,370.1,249.3,369.8,249.3z"/>
	<path class="st0" d="M388.5,165.3c1.8,4.3,5.5,10.3,9.4,12.6c-2.9,2.8-5.9,5.5-9.1,8c-1.5-7.8-3.2-11.5-4.1-17.5
		C385.7,167.6,387.2,166,388.5,165.3z"/>
	<path d="M388.8,186.4c-0.1,0-0.1,0-0.2,0c-0.2-0.1-0.3-0.2-0.3-0.4c-0.7-3.6-1.5-6.4-2.1-8.9c-0.8-2.9-1.5-5.8-2-8.7
		c0-0.2,0-0.4,0.2-0.5c0.4-0.3,0.8-0.7,1.3-1.1c0.8-0.7,1.6-1.4,2.5-2c0.1-0.1,0.3-0.1,0.4-0.1c0.1,0,0.2,0.1,0.3,0.3
		c1.8,4.5,5.6,10.2,9.2,12.4c0.1,0.1,0.2,0.2,0.2,0.4c0,0.2,0,0.3-0.2,0.4c-0.6,0.5-1.3,1.2-2,1.9c-2.3,2.2-4.6,4.3-7.1,6.1
		C388.9,186.3,388.8,186.4,388.8,186.4z M385.2,168.6c0.5,2.8,1.1,5.6,1.9,8.3c0.6,2.3,1.3,4.9,2,8.2c2.3-1.7,4.4-3.6,6.4-5.6
		l1.6-1.5c-3.5-2.4-6.9-7.6-8.8-11.9c-0.7,0.5-1.3,1-1.9,1.6C385.9,167.9,385.5,168.3,385.2,168.6z"/>
	<path class="st0" d="M400.5,177.9c2.2,2.8,4.4,5.5,7,8.4c3.2-6.2,6.4-12.7,7.9-19.5c-1.4-0.6-4.4-2.6-5.7-3.2
		c0.4,1.5,1.2,2.8,1,3.2C410.6,167,403.9,174.6,400.5,177.9z"/>
	<path d="M407.5,186.7c-0.1,0-0.3-0.1-0.4-0.2c-2.7-2.9-4.9-5.7-7.1-8.4c-0.2-0.2-0.1-0.5,0-0.7c3.3-3.1,9.5-10.1,10.1-11
		c-0.1-0.4-0.2-0.8-0.4-1.2c-0.2-0.6-0.5-1.2-0.6-1.8c-0.1-0.2,0-0.4,0.2-0.5c0.1-0.1,0.3-0.1,0.5-0.1c0.7,0.3,1.8,1,2.9,1.6
		s2.1,1.3,2.8,1.6c0.2,0.1,0.3,0.3,0.3,0.6c-1.5,7.1-4.9,13.8-7.9,19.6C407.9,186.6,407.8,186.7,407.5,186.7L407.5,186.7z
		 M401.2,177.9c1.9,2.4,3.9,4.9,6.3,7.5c2.8-5.6,6-11.8,7.4-18.4c-0.7-0.4-1.6-0.9-2.5-1.5c-0.6-0.4-1.2-0.7-1.7-1l0.2,0.5
		c0.4,0.9,0.6,1.4,0.4,1.9C408,170.7,404.7,174.4,401.2,177.9z"/>
	<path d="M377.9,234.8c-0.2,0-0.4-0.2-0.5-0.4c-1.5-11.4-5.3-22.3-11.2-32.2c-0.1-0.2-0.1-0.5,0.2-0.7c0.2-0.1,0.5-0.1,0.7,0.2l0,0
		c6,10,9.8,21,11.4,32.6C378.4,234.5,378.2,234.7,377.9,234.8L377.9,234.8z"/>
	<path d="M358.9,235.3c-0.1,0-0.2,0-0.3-0.1c-0.2-0.1-0.3-0.5-0.1-0.7c4.1-6.4,9.3-14.9,12.6-23.3c0.1-0.2,0.4-0.4,0.6-0.2
		c0.2,0.1,0.3,0.4,0.3,0.6c-3.4,8.5-8.5,17-12.7,23.4C359.2,235.2,359.1,235.3,358.9,235.3z"/>
	<path d="M378.6,252.9L378.6,252.9c-0.3,0-0.5-0.2-0.5-0.5l0-5.2c0-0.3,0.2-0.5,0.5-0.5l0,0c0.3,0,0.5,0.2,0.5,0.5c0,0,0,0,0,0
		l0,5.2C379.1,252.6,378.9,252.9,378.6,252.9z"/>
	<path d="M410.6,133h-0.1c-0.3-0.1-0.4-0.3-0.4-0.6c0.3-1.4,0.5-2.1,0.7-3.4c0.1-0.3,0.3-0.4,0.6-0.4c0.3,0,0.4,0.3,0.4,0.6
		c0,0,0,0,0,0c-0.3,1.3-0.4,2.1-0.7,3.4C411.1,132.9,410.9,133,410.6,133z"/>
	<path d="M444,231.4c-0.3,0-0.5-0.2-0.5-0.5c0-0.3,0.2-0.5,0.5-0.5c2.3-0.1,4.6-0.1,6.9-0.2c0.3,0,0.5,0.2,0.5,0.5c0,0,0,0,0,0
		c0,0.3-0.2,0.5-0.5,0.5C448.6,231.2,446.3,231.3,444,231.4L444,231.4z"/>
	<path d="M417.3,177.1h-0.1c-0.3-0.1-0.4-0.3-0.4-0.6c0,0,0,0,0,0c0.4-1.9,0.8-3.8,1-5.7c0-0.3,0.3-0.5,0.6-0.4s0.5,0.3,0.4,0.6
		c-0.3,1.9-0.6,3.9-1,5.8C417.7,176.9,417.5,177.1,417.3,177.1z"/>
	<path d="M421.3,174.3L421.3,174.3c-0.3,0-0.5-0.3-0.4-0.5c0,0,0,0,0,0l0.3-3.4c0-0.3,0.3-0.5,0.5-0.5c0,0,0,0,0,0
		c0.3,0,0.5,0.3,0.4,0.5c0,0,0,0,0,0l-0.3,3.4C421.8,174.1,421.6,174.3,421.3,174.3z"/>
	<path d="M416.9,117.6c-0.2,0-0.4-0.1-0.5-0.3c-0.1-0.2,0-0.5,0.3-0.6c0,0,0,0,0,0c2-0.8,3.3-2.6,3.3-4.8c0-0.3,0.2-0.5,0.5-0.5
		c0,0,0,0,0,0l0,0c0.3,0,0.5,0.2,0.5,0.5c0,0,0,0,0,0c0,2.5-1.6,4.8-4,5.7C417,117.6,417,117.6,416.9,117.6z"/>
	<path d="M402.3,236.9L402.3,236.9c-0.3,0-0.5-0.3-0.5-0.5c0-0.4,0.1-0.8,0.2-1.3c0.1-0.5,0.3-0.9,0.6-1.4c0.3-0.5,0.9-0.8,1.5-0.8
		l0,0c0.3,0,0.5,0.2,0.5,0.5s-0.2,0.5-0.5,0.5c-0.3,0-0.5,0.2-0.7,0.4c-0.2,0.3-0.3,0.6-0.4,1c-0.1,0.4-0.2,0.8-0.2,1.1
		C402.7,236.7,402.5,236.9,402.3,236.9z"/>
	<path d="M402.6,251.6c-0.4,0-0.7-0.2-0.9-0.5c-0.2-0.2-0.3-0.4-0.3-0.7c-0.3-1-0.4-2-0.3-3c0-0.3,0.3-0.5,0.6-0.4
		c0.3,0,0.5,0.3,0.4,0.6l0,0c-0.1,0.9,0,1.7,0.2,2.6c0,0.1,0.1,0.3,0.2,0.4c0,0.1,0.1,0.1,0.1,0.1c0.3,0,0.5,0.2,0.5,0.5
		C403.1,251.4,402.9,251.6,402.6,251.6C402.7,251.6,402.7,251.6,402.6,251.6L402.6,251.6z"/>
	<g class="st2">
		<path d="M405.3,112.3c-0.3,0.3-0.6,0.6-1,0.9c0,0.1-0.1,0.2-0.2,0.4s-0.5,0.6-0.7,0.9c-0.8,0.8-1.8,1.5-2.8,2
			c-0.1-0.3-0.5-0.5-0.8-0.4h-0.2h-0.1c-0.6,0-1.2,0-1.9,0h0.2c-0.6-0.1-1.2-0.3-1.8-0.5l-0.2-0.1c-0.1-0.1-0.3-0.1-0.5-0.1h-0.1
			c0,0,0,0,0-0.1l0,0c0-0.1,0-0.1,0-0.2c0.1-0.5-0.3-0.9-0.8-1c0,0-0.1,0-0.1,0c-0.5,0.1-0.9,0.5-0.9,1c-0.1,0.2-0.2,0.3-0.4,0.4
			c-0.5,0.5-1.1,1-1.7,1.4c-0.1,0.1-0.4,0.3-0.5,0.4l-0.1,0.1c-0.9,0.6-1.9,1-3,1.2l0,0c-0.3,0-0.5,0-0.8-0.1l-0.2-0.1l-0.1-0.1
			l-0.2-0.2l-0.1-0.1c0,0,0-0.1-0.1-0.1c-0.3-0.1-0.6-0.2-0.8-0.4c-0.3-0.1-0.5-0.3-0.6-0.6c-0.1-0.1-0.2-0.3-0.2-0.4c0,0,0,0,0-0.1
			v-0.1l-0.1-0.2c-0.2-0.4-0.4-0.8-0.5-1.2l0,0c-0.3,0-0.7,0.1-0.9,0.4c-0.1,0.1-0.2,0.2-0.2,0.3l-0.1,0.1c0,0,0,0-0.1,0.1l0,0l0,0
			c-0.3,0.2-0.5,0.5-0.8,0.7l-0.4,0.2l-0.1,0.1h0c-0.6,0.4-1.2,0.7-1.9,0.9c-0.5,0.2-1,0.3-1.4,0.7c-0.4,0.4-0.4,1,0,1.4
			c0.3,0.3,0.8,0.4,1.2,0.2c1.4-0.5,2.7-1.2,3.8-2.1c0.2-0.2,0.4-0.3,0.5-0.5c0.4,0.9,1,1.7,1.8,2.3c1.2,0.7,2.7,0.8,4,0.3
			c0.9-0.3,1.7-0.8,2.5-1.4c0.7-0.5,1.4-1.1,2-1.8c0.3,0.5,0.7,0.9,1.1,1.3c0.6,0.5,1.4,0.7,2.2,0.7h0.1c1,0,1.9-0.2,2.9-0.6
			c1.4-0.5,2.6-1.2,3.7-2.1c0.7-0.6,1.3-1.3,1.7-2.1c0.1-0.2,0,0,0,0.1c0.2-0.3,0.3-0.6,0.5-0.9c0.1-0.2,0.2-0.4,0.2-0.6
			c0-0.4-0.3-0.8-0.8-0.8C405.4,112.3,405.3,112.3,405.3,112.3z"/>
	</g>
	<g class="st2">
		<path d="M419.2,121.5c-0.3-0.6-0.9-0.4-1.4-0.3c-0.7,0.2-1.5,0.2-2.2,0.3c-0.5,0.1-1.1,0.2-1.6,0.3l0,0c-0.3,0-0.6,0-0.9,0.1
			c-0.1-0.1-0.1-0.3-0.3-0.4c-0.4-0.3-1-0.1-1.2,0.3c-0.1,0.2-0.2,0.4-0.1,0.6c0.1,0.6,0.2,1.1,0.2,1.7c0,0.8-0.1,2.2,1.1,2
			c0.2-0.1,0.4-0.2,0.6-0.4c0,0.1,0.5-0.4,0.7-0.5c0.6-0.4,1.7-1.1,2.8-1.7c0.6-0.3,1.1-0.6,1.7-0.9l0.1-0.1l0.2-0.1
			C419.2,122.3,419.4,121.9,419.2,121.5z"/>
	</g>
	<g class="st2">
		<path d="M409,162.6c-0.3-0.8-0.6-1.7-0.8-2.5c-0.5-1.8-1-3.6-1.4-5.4c-0.5-1.3-1-2.7-1.4-4c0-0.1,0-0.1,0-0.2
			c-0.2-0.1-0.6-0.1-0.8,0c0,0.1,0,0.2,0,0.3c-0.2,0.3-0.4,0.6-0.6,0.8c-0.2,0.2-0.4,0.5-0.6,0.7c-0.4,0.4-0.9,0.9-1.4,1.3
			c0,0-0.1,0.1-0.2,0.1c0,0.1,0,0.3,0,0.4l-0.1,0.1c-0.2,0.1-0.8,0.4-2.4,1.1c-0.5,0.2-0.9,0.4-1.4,0.5c-0.2,0-0.3,0-0.5,0h0.3h-0.3
			h-0.2h-1.4c-1.4,0.6-2.9,0.8-4.4,0.6c-0.2,0.1-0.3,0.2-0.4,0.4l-0.9-0.3H390h-0.4c-0.2,0-0.3-0.1-0.4-0.3
			c-0.2-0.1-0.5-0.1-0.7-0.1c-0.5,0.1-0.8,0.6-0.7,1.1c0.1,0.3,0.4,0.6,0.7,0.7c4.1,1.4,11.9,3.9,14.7,4.7c1,0.3,2,0.5,3,0.6H406
			h0.3h0.4l0.8,0.3c0.3,0.1,0.5,0.2,0.8,0.2c0.2,0.2,0.5,0.2,0.8,0.1C409.6,163.8,409.2,163.1,409,162.6z"/>
	</g>
	<g class="st2">
		<path d="M399.5,186c-0.3-0.3-0.6-0.5-1-0.6c-0.6,0-1,0.5-0.9,1.1c0,0.3,0.1,0.5,0.3,0.7c0.4,0.3,0.8,0.6,1.2,0.9
			c0.2,0.2,0.4,0.6,0.8,0.6c0.5,0,1-0.3,1-0.9c0,0,0-0.1,0-0.1c0-0.5,0-0.9,0.1-1.4c0.2-0.4,0-0.9-0.4-1.1c-0.4-0.2-0.9,0-1.1,0.4
			C399.5,185.7,399.4,185.9,399.5,186z"/>
	</g>
	<g class="st2">
		<path d="M407.2,185.6c-0.2-0.4-0.7-0.6-1-0.9c-0.6-0.6-1.2-1.2-1.7-1.9c-0.2-0.2-0.4-0.5-0.5-0.7c-0.1-0.3-0.3-0.5-0.6-0.6
			c-0.5-0.1-0.9,0.2-1,0.6c0,0.2,0,0.4,0.1,0.6l0.3,0.4c-0.1,0-0.2-0.1-0.2-0.1c-0.5,0-0.9,0.3-0.9,0.7c0,0.3,0.1,0.6,0.4,0.8
			c0.9,0.5,1.8,1.1,2.7,1.6c0.6,0.4,1.3,0.7,2,0.9c0.5,0.1,0.9-0.3,0.9-0.8C407.6,186.1,407.4,185.7,407.2,185.6z"/>
	</g>
	<g class="st2">
		<path d="M395.8,183.2c-0.2-0.4-0.4-0.8-0.6-1.2c-0.1-0.2-0.2-0.4-0.4-0.6c-0.4-0.3-0.9-0.2-1.2,0.2c-0.1,0.1-0.1,0.1-0.1,0.2h-0.1
			c-0.4,0.1-0.6,0.4-0.8,0.7c-0.4,0.4-0.4,0.5-0.4,0.7l0,0c-0.1,0.1-0.1,0.2-0.1,0.3c-0.3,0.1-0.7,0.3-1,0.4
			c-0.6,0.2-1.1,0.5-1.6,0.8c-0.3,0.4-0.2,0.9,0.2,1.1c0.3,0.2,0.6,0.2,0.9,0.1c0.7-0.4,1.5-0.7,2.3-0.9c0.6-0.2,1.2-0.3,1.8-0.4
			c0.1,0,0.3-0.1,0.4-0.2c0.4,0.1,0.9-0.3,0.9-0.7C395.9,183.5,395.9,183.3,395.8,183.2z"/>
	</g>
	<g class="st2">
		<path d="M463.9,251.8c-1,0.7-2.1,1.3-3.2,1.8c-1.5,0.9-3.1,1.3-4.8,1.3c-5.4-0.1-10.8-0.5-16.2-1.2c-2.7-0.3-5-0.3-6.8-0.7
			c-4.3-0.9-8.5-1.8-12.8-2.5c-3.5-0.6-6.9-0.9-10.4-1.2c-0.8-0.1-1-0.1-2.5-0.4c-0.5-0.1-1-0.2-1.6-0.2h-0.2c0,0,0-0.1,0-0.1
			c0.6-1.3,0.9-2.8,1-4.3c0-1.9-0.1-3.8-0.3-5.7c-0.1-0.9-0.2-1.8-0.5-2.7c-0.2-0.6-0.5-1.2-0.8-1.8c-0.2-0.4-0.4-0.8-0.9-0.9
			c-0.6-0.2-1.2,0.2-1.3,0.8c-0.1,0.3,0,0.6,0.1,0.8l0,0c-0.1,0.3-0.4,0.6-0.3,0.9c0.1,0.4,0.4,0.6,0.8,0.6c0.1,0,0.1,0,0.2-0.1
			c0.2,0.6,0.3,1.1,0.4,1.7c0.2,1.3,0.3,2.7,0.3,4.1c0,1,0,1.9-0.1,2.8c-0.2,1-0.4,2-0.7,3l-0.1-0.1c-0.2-0.2-0.4-0.5-0.6-0.6
			c-0.5-0.1-1.1,0.2-1.2,0.7c-0.1,0.3,0,0.6,0.2,0.8l0.2,0.2l0,0.1l0,0c0,0,0,0.2,0,0.3l0,0l0,0c0,0.1,0,0.1,0,0.2
			c0,0.2,0,0.4,0.1,0.6c0.1,0.1,0.2,0.2,0.3,0.3c0.2,0.4,0.6,0.7,1.1,0.6c0.4-0.1,0.6-0.5,0.8-0.7l0.3-0.3c0,0.6,0.4,1.1,1,1.2
			c3,0.6,6.1,0.9,9.1,1.2c1.3,0.2,6.8,1,9.5,1.6c3.2,0.5,6.4,1.2,9.6,1.6c2.1,0.2,4.2,0.2,6.3,0.4c1.1,0.1,2.3,0.2,3.4,0.4
			c3.1,0.4,6.2,0.6,9.3,0.6c1,0,2,0.1,3,0.1c0.2,0,0.9-0.1,1.2-0.1l0,0h0.2c2.7-0.2,5-1.9,7.3-3.2l0.4-0.3c0.1-0.1,0.5-0.4,0.2-0.1
			c0.2-0.1,0.4-0.3,0.5-0.6c0.1-0.5-0.2-1-0.7-1.1C464.4,251.6,464.1,251.6,463.9,251.8z"/>
	</g>
	<g class="st2">
		<path d="M439,230.4L439,230.4z"/>
	</g>
	<g class="st2">
		<path d="M444.1,228.9c-0.1-0.1-0.1-0.3-0.2-0.4s-0.2-0.5-0.3-0.6c-1.1-2.9-1.7-4.1-2.7-6.9c0-0.1,0-0.1,0-0.2l0,0
			c-0.1-0.5-0.5-0.8-0.9-0.9c-0.4-1.6-0.9-3.3-1.3-4.9c-1.2-4.1-2-8.4-3.2-12.5c-0.2-0.6-0.9-0.9-1.5-0.7c-0.5,0.2-0.8,0.7-0.7,1.3
			c0.8,3.3,1.4,6.6,1.9,10c0.2,1.4,1,5,1.6,7.6c0.4,1.9,0.7,3.7,1.1,5.6c0.3,1.4,0.7,2.8,1.2,4.1l0,0c0.4,0.9,1.5,1.3,2.4,0.8
			c0,0,0,0,0.1,0c0.2-0.1,0.3-0.2,0.5-0.4c0.4,0.7,1.3,0.9,2,0.4c0.3-0.2,0.5-0.5,0.6-0.8C444.6,229.9,444.5,229.4,444.1,228.9z"/>
	</g>
	<g class="st2">
		<path d="M438.8,230.1c0,0.1,0.1,0.2,0.1,0.3C438.9,230.3,438.8,230,438.8,230.1z"/>
	</g>
	<g class="st2">
		<path d="M371.5,211.4c-0.1-0.6-0.7-1.1-1.3-1c-0.2,0-0.5,0.1-0.7,0.3c-0.3,0.3-0.4,0.7-0.5,1.1c-0.2,0.8-0.5,1.6-0.8,2.3
			c-1.3,3.8-4,8.1-6.6,12.1c-1,1.4-2,2.8-3.1,4.2c-0.3,0.5-0.9,1-1,1.6c-0.1,0.7,0.4,1.3,1.1,1.4c0.5,0.1,1-0.2,1.2-0.6
			c1.3-1.8,2.6-3.5,3.8-5.3s2.2-3.5,3.2-5.3c1.4-2.3,2.6-4.8,3.5-7.4c0.3-0.8,0.6-1.6,0.8-2.4C371.4,212.3,371.5,211.9,371.5,211.4z
			"/>
	</g>
	<path class="st0" d="M448.5,47.3c0-1.5,1.2-2.8,2.7-2.8c1.5,0,2.8,1.2,2.8,2.7s-1.2,2.8-2.7,2.8c0,0,0,0,0,0
		C449.8,50,448.6,48.8,448.5,47.3z"/>
	<path d="M451.3,50.5c-1.8,0-3.3-1.4-3.3-3.3c0-1.8,1.4-3.3,3.3-3.3c1.8,0,3.3,1.4,3.3,3.3c0,0,0,0,0,0
		C454.5,49.1,453.1,50.5,451.3,50.5z M451.3,45c-1.3,0-2.3,1-2.3,2.3c0,1.3,1,2.3,2.3,2.3s2.3-1,2.3-2.3c0,0,0,0,0,0
		C453.6,46,452.6,45,451.3,45z"/>
	<path class="st0" d="M300.1,3.3c0-1.5,1.2-2.8,2.7-2.8s2.8,1.2,2.8,2.7S304.4,6,302.9,6c0,0,0,0,0,0C301.3,6,300.1,4.8,300.1,3.3z"
		/>
	<path d="M302.9,6.5c-1.8,0-3.3-1.5-3.3-3.3c0-1.8,1.5-3.3,3.3-3.3c1.8,0,3.3,1.5,3.3,3.3C306.1,5.1,304.7,6.5,302.9,6.5L302.9,6.5z
		 M302.9,1c-1.3,0-2.3,1-2.3,2.3c0,1.3,1,2.3,2.3,2.3c1.3,0,2.3-1,2.3-2.3c0,0,0,0,0,0C305.1,2,304.1,1,302.9,1L302.9,1z"/>
	<path class="st0" d="M462.5,321.3c0.5-1.5,2-2.3,3.5-1.8c1.5,0.5,2.3,2,1.8,3.5c-0.5,1.5-2,2.3-3.5,1.8c0,0,0,0,0,0
		C462.8,324.3,462,322.7,462.5,321.3z"/>
	<path d="M464.1,325.2c-1.7-0.6-2.6-2.4-2.1-4.1c0.6-1.7,2.4-2.6,4.1-2.1c1.7,0.6,2.6,2.4,2.1,4.1
		C467.6,324.8,465.8,325.8,464.1,325.2C464.1,325.2,464.1,325.2,464.1,325.2z M465.8,320c-1.2-0.4-2.5,0.3-2.9,1.4
		c-0.4,1.2,0.3,2.5,1.4,2.9c1.2,0.4,2.5-0.3,2.9-1.4c0,0,0,0,0,0C467.6,321.7,467,320.4,465.8,320L465.8,320z"/>
	<path class="st0" d="M0.7,250c-0.6-1.4,0.1-3,1.5-3.6s3,0.1,3.6,1.5s-0.1,3-1.5,3.6c0,0,0,0,0,0C2.9,252.1,1.3,251.4,0.7,250z"/>
	<path d="M4.5,252c-1.7,0.7-3.6-0.1-4.2-1.8c-0.7-1.7,0.1-3.6,1.8-4.2c1.7-0.7,3.6,0.1,4.2,1.8C6.9,249.4,6.1,251.3,4.5,252z
		 M2.4,246.8c-1.2,0.5-1.7,1.8-1.2,3c0.5,1.2,1.8,1.7,3,1.2c1.1-0.5,1.7-1.8,1.2-2.9C4.9,246.9,3.6,246.3,2.4,246.8
		C2.4,246.8,2.4,246.8,2.4,246.8z"/>
	<path class="st0" d="M476.8,69.2c0-1.5,1.3-2.8,2.8-2.7c1.5,0,2.8,1.3,2.7,2.8c0,1.5-1.3,2.7-2.8,2.7C478,72,476.7,70.8,476.8,69.2
		C476.7,69.2,476.7,69.2,476.8,69.2z"/>
	<path d="M479.5,72.5c-1.8,0-3.3-1.4-3.3-3.2s1.4-3.3,3.3-3.3c1.8,0,3.3,1.4,3.3,3.2c0,0,0,0,0,0C482.8,71,481.3,72.5,479.5,72.5z
		 M479.5,66.9c-1.3,0-2.3,1-2.3,2.3c0,1.3,1,2.3,2.3,2.3c1.3,0,2.3-1,2.3-2.3c0,0,0,0,0,0C481.8,67.9,480.8,66.9,479.5,66.9z"/>
	<path class="st0" d="M119.8,295c0-1.5,1.2-2.8,2.8-2.8c1.5,0,2.8,1.2,2.8,2.8c0,1.5-1.2,2.8-2.8,2.8c0,0,0,0,0,0
		C121.1,297.8,119.8,296.5,119.8,295z"/>
	<path d="M122.6,298.3c-1.8,0-3.3-1.5-3.3-3.3c0-1.8,1.5-3.3,3.3-3.3c1.8,0,3.3,1.5,3.3,3.3S124.4,298.3,122.6,298.3
		C122.6,298.3,122.6,298.3,122.6,298.3z M122.6,292.7c-1.3,0-2.3,1-2.3,2.3c0,1.3,1,2.3,2.3,2.3c1.3,0,2.3-1,2.3-2.3c0,0,0,0,0,0
		C124.9,293.7,123.9,292.7,122.6,292.7C122.6,292.7,122.6,292.7,122.6,292.7z"/>
	<circle class="st0" cx="32.5" cy="132.4" r="4.7"/>
	<path d="M34.4,137.1c-2.6,1.1-5.6-0.2-6.7-2.8c-1.1-2.6,0.2-5.6,2.8-6.7s5.6,0.2,6.7,2.8c0,0,0,0,0,0
		C38.3,133.1,37.1,136.1,34.4,137.1z M31,128.5c-2.1,0.9-3.2,3.3-2.3,5.4c0.9,2.1,3.3,3.2,5.4,2.3s3.2-3.3,2.3-5.4c0,0,0,0,0,0
		C35.6,128.7,33.1,127.6,31,128.5z"/>
	<circle class="st0" cx="492" cy="232" r="4.7"/>
	<path d="M490.4,236.9c-2.7-0.9-4.2-3.8-3.3-6.5s3.8-4.2,6.5-3.3c2.7,0.9,4.2,3.8,3.3,6.5C496,236.3,493.1,237.8,490.4,236.9z
		 M493.3,228c-2.2-0.7-4.5,0.5-5.2,2.7c-0.7,2.2,0.5,4.5,2.7,5.2c2.2,0.7,4.5-0.5,5.2-2.7C496.7,231.1,495.5,228.7,493.3,228
		C493.4,228,493.3,228,493.3,228L493.3,228z"/>
	<circle class="st0" cx="257.8" cy="286.2" r="4.7"/>
	<path d="M257.8,291.3c-2.8,0-5.2-2.3-5.2-5.1s2.3-5.1,5.2-5.1c2.8,0,5.1,2.3,5.1,5.1l0,0C262.9,289,260.6,291.3,257.8,291.3z
		 M257.8,282c-2.3,0-4.2,1.9-4.2,4.2c0,2.3,1.9,4.2,4.2,4.2c2.3,0,4.2-1.9,4.2-4.2C261.9,283.9,260.1,282,257.8,282L257.8,282z"/>
	<path d="M475.7,63.6L475.7,63.6c-1.3,0-2.7-0.2-4-0.5c-0.3-0.1-0.4-0.3-0.4-0.6s0.3-0.4,0.6-0.4c1.2,0.3,2.5,0.5,3.8,0.5
		c0.3,0,0.5,0.2,0.5,0.5C476.2,63.4,476,63.6,475.7,63.6C475.7,63.6,475.7,63.6,475.7,63.6z M479.6,63.3c-0.2,0-0.4-0.2-0.5-0.4
		c-0.1-0.3,0.1-0.5,0.4-0.6c0,0,0,0,0,0l0.5-0.1c1.1-0.2,2.2-0.6,3.2-1c0.3-0.1,0.5,0,0.6,0.3c0.1,0.3,0,0.5-0.3,0.6
		c-1.1,0.4-2.2,0.8-3.4,1L479.6,63.3L479.6,63.3z M468.2,61.8c-0.1,0-0.1,0-0.2,0c-1.2-0.6-2.4-1.3-3.4-2.1
		c-0.2-0.2-0.3-0.5-0.1-0.7s0.5-0.3,0.7-0.1l0,0c1,0.8,2.1,1.4,3.2,2c0.2,0.1,0.3,0.4,0.2,0.7C468.5,61.7,468.4,61.8,468.2,61.8
		L468.2,61.8z M486.8,60.4c-0.3,0-0.5-0.2-0.5-0.5c0-0.2,0.1-0.3,0.2-0.4c1.1-0.7,2-1.5,2.9-2.5c0.2-0.2,0.5-0.2,0.7,0c0,0,0,0,0,0
		c0.2,0.2,0.2,0.5,0,0.7c-0.9,1-2,1.8-3.1,2.6C487,60.4,486.9,60.4,486.8,60.4L486.8,60.4z M462,57c-0.1,0-0.3-0.1-0.4-0.2
		c-0.9-1-1.6-2.1-2.3-3.3c-0.2-0.2-0.1-0.5,0.1-0.7c0.2-0.2,0.5-0.1,0.7,0.1c0,0,0,0,0,0.1c0.6,1.1,1.4,2.2,2.2,3.1
		c0.2,0.2,0.1,0.5-0.1,0.7C462.2,57,462.1,57,462,57z M492.3,54.8c-0.1,0-0.2,0-0.3-0.1c-0.2-0.1-0.3-0.4-0.2-0.7c0,0,0,0,0,0
		c0.7-1.1,1.2-2.2,1.7-3.4c0.1-0.3,0.4-0.4,0.6-0.3c0.3,0.1,0.4,0.4,0.3,0.6l0,0c-0.5,1.3-1.1,2.5-1.8,3.6
		C492.6,54.7,492.4,54.8,492.3,54.8L492.3,54.8z M458.3,50.2c-0.2,0-0.4-0.1-0.5-0.3c-0.2-0.6-0.4-1.3-0.5-1.9
		c-0.3-1.3-0.4-2.7-0.4-4c0-0.3,0.2-0.5,0.5-0.5l0,0c0.3,0,0.5,0.2,0.5,0.5c0,1.3,0.1,2.5,0.4,3.8c0.1,0.6,0.3,1.2,0.5,1.8
		c0.1,0.3-0.1,0.5-0.3,0.6c0,0,0,0,0,0L458.3,50.2z M495,47.5L495,47.5c-0.3,0-0.5-0.3-0.5-0.6c0,0,0,0,0,0c0.1-0.9,0.2-1.9,0.2-2.8
		c0-0.3,0-0.6,0-1c0-0.3,0.2-0.5,0.5-0.5c0,0,0,0,0,0c0.3,0,0.5,0.2,0.5,0.4c0,0,0,0,0,0c0,0.3,0,0.7,0,1c0,1-0.1,2-0.2,3
		C495.5,47.3,495.3,47.5,495,47.5z M457.7,40.5h-0.1c-0.3-0.1-0.4-0.3-0.4-0.6c0,0,0,0,0,0c0.3-1.3,0.7-2.6,1.2-3.8
		c0.1-0.2,0.4-0.4,0.6-0.3c0.2,0.1,0.4,0.4,0.3,0.6l0,0c-0.5,1.2-0.9,2.4-1.1,3.6C458.2,40.4,458,40.5,457.7,40.5L457.7,40.5z
		 M494.6,39.7c-0.2,0-0.4-0.2-0.5-0.4c-0.3-1.2-0.8-2.4-1.3-3.6c-0.1-0.2,0-0.5,0.2-0.6c0.2-0.1,0.5,0,0.6,0.2
		c0.6,1.2,1.1,2.5,1.4,3.8c0.1,0.3-0.1,0.5-0.3,0.6c0,0,0,0,0,0L494.6,39.7z M460.8,33.4c-0.1,0-0.2,0-0.3-0.1
		c-0.2-0.2-0.3-0.5-0.1-0.7c0.8-1.1,1.7-2.1,2.6-3c0.2-0.2,0.5-0.2,0.7,0c0.2,0.2,0.2,0.5,0,0.7c0,0,0,0,0,0
		c-0.9,0.9-1.8,1.8-2.5,2.9C461.1,33.3,461,33.4,460.8,33.4z M491.1,32.8c-0.2,0-0.3-0.1-0.4-0.2c-0.8-1-1.7-1.9-2.6-2.8
		c-0.2-0.2-0.2-0.5-0.1-0.7c0.2-0.2,0.5-0.2,0.7,0c1,0.9,2,1.8,2.8,2.9c0.2,0.2,0.1,0.5-0.1,0.7C491.4,32.7,491.3,32.8,491.1,32.8z
		 M466.5,28.1c-0.2,0-0.3-0.1-0.4-0.2c-0.1-0.2-0.1-0.5,0.2-0.7c1.2-0.7,2.4-1.3,3.6-1.7c0.3-0.1,0.5,0,0.6,0.3
		c0.1,0.3,0,0.5-0.3,0.6c-1.2,0.4-2.4,0.9-3.5,1.6C466.7,28.1,466.6,28.1,466.5,28.1z M485.2,27.7c-0.1,0-0.2,0-0.2-0.1
		c-1.1-0.6-2.3-1.1-3.5-1.5c-0.3-0.1-0.4-0.4-0.3-0.6c0.1-0.3,0.4-0.4,0.6-0.3c1.3,0.4,2.5,0.9,3.7,1.5c0.2,0.1,0.3,0.4,0.2,0.7
		c0,0,0,0,0,0C485.6,27.6,485.4,27.7,485.2,27.7z M473.9,25.5c-0.3,0-0.5-0.2-0.5-0.5s0.2-0.5,0.5-0.5c1.3-0.2,2.7-0.2,4-0.1
		c0.3,0,0.5,0.3,0.5,0.5c0,0.3-0.3,0.5-0.5,0.5c0,0,0,0,0,0C476.5,25.3,475.2,25.3,473.9,25.5L473.9,25.5z"/>
</g>
</svg>
