<svg id="Layer_1" data-name="Layer 1" xmlns="http://www.w3.org/2000/svg" viewBox="0 0 64 64"><title>favicon</title><path d="M13.08,45.64c-1.31-2.93-2.63-5.78-3.84-8.67a11.07,11.07,0,0,1-.38-7.73,1.83,1.83,0,0,0,.07-.32s0-.08-.06-.22A7.57,7.57,0,0,0,8,32.06a17.35,17.35,0,0,0,1.08,6.29q1.71,5.24,3.23,10.54a9.36,9.36,0,0,1-.18,4.64c-.27,1.24-.69,2.45-1,3.68a1,1,0,0,1-1.05.85,2.57,2.57,0,0,0-2.22,1.28,1.12,1.12,0,0,0,.39,1.72,5.39,5.39,0,0,0,3.18.83c2.21,0,2.73-.36,3.46-2.47.34-1,.44-2.11.83-3.1.68-1.71,1.48-3.38,2.26-5.06a1.82,1.82,0,0,0,.15-1.39,8.11,8.11,0,0,1,.77-6.77,1.9,1.9,0,0,0,.21-1q0-13.26,0-26.51a9,9,0,0,1,0-1.27,2.77,2.77,0,0,1,.34-.72c.2.17.49.31.6.53.65,1.31,1.32,2.63,1.87,4A41.73,41.73,0,0,0,33.7,34.09c1,.88,2.14,1.67,3.23,2.48a4.71,4.71,0,0,0,1.07.55c.62.25,1.33.61,1.89.08A1.53,1.53,0,0,0,40,35.31,9.76,9.76,0,0,0,38,32.88c-1.61-1.37-3.37-2.57-5-3.88a26.09,26.09,0,0,1-9-12.37,23.38,23.38,0,0,0-3.07-6.29,10.27,10.27,0,0,0-3-2.88A2,2,0,0,1,17,6.24a6.67,6.67,0,0,0-2-3.49,5.84,5.84,0,0,0-1.85-.82c-.38-.13-.58.08-.61.53a9,9,0,0,1-1.48,4.46,2.38,2.38,0,0,1-.92.8,8.07,8.07,0,0,0-4.55,4.8,6.26,6.26,0,0,0-.24,2.11,4.44,4.44,0,0,1-.85,2.89c-.61.87-.59,1.14.18,1.91a.44.44,0,0,1,.12.15c.39,1.34,1.52,1.82,2.68,2.18a17.47,17.47,0,0,0,3.19.7c1.08.13,1.4-.37.85-1.31s-1.31-1.92-1.94-2.88c-.47-.71-.94-1.42-1.34-2.16a4.64,4.64,0,0,1,.86-5.37,2.82,2.82,0,0,1,3.07-.44,1.84,1.84,0,0,1,.77.93,3,3,0,0,1,.14,1.12q0,16.37,0,32.73C13.11,45.25,13.09,45.43,13.08,45.64Z" style="fill:#fff;stroke:#000;stroke-linejoin:round;stroke-width:0.4000000059604645px"/><path d="M37.52,53c0,2.11,0,4.23,0,6.35S38,61.84,40,61.48a23.45,23.45,0,0,0,12.79-6.66c7.09-7.17,8.82-15.67,5.52-25.07a18.72,18.72,0,0,0-12.51-12.1,7.38,7.38,0,0,0-6.69.63c-2.65,1.91,5.4,4.63,6.95,4.87A8,8,0,0,1,51,26.45c6.62,8.3,4.29,19.71-2.26,25.43a28.17,28.17,0,0,1-4.38,2.9c-1.18.68-2,.07-1.93-1.3.1-2.59.28-5.17.27-7.75a15,15,0,0,0-1.54-6.53,2.46,2.46,0,0,0-.58-.8,1,1,0,0,0-1.68.62,25.92,25.92,0,0,0-1,4.56c-.25,3.13-.3,6.28-.43,9.42Z" style="fill:#fff;stroke:#000;stroke-linejoin:round;stroke-width:0.4000000059604645px"/><path d="M29.25,47.45h4.26A3.52,3.52,0,0,0,37,43.93V40.21a4.74,4.74,0,0,0-1.85-3.57c-2.18-2-4.39-3.92-6.52-6-1.48-1.41-2.85-2.94-4.24-4.45-.45-.49-.88-.9-1.6-.63s-.78.83-.78,1.47V51.32c-2.3-1.38-2.58-5.79-.86-9.52A12.24,12.24,0,0,0,20,43.11a7.75,7.75,0,0,0-.77,7.1A13.84,13.84,0,0,0,22.1,55a1.33,1.33,0,0,1,.39,1.45c-.23.58-.73.69-1.3.75a20.72,20.72,0,0,0-3.35.55,3.32,3.32,0,0,0-2.44,3.18c0,.5.12.78.62.83,1,.1,2.08.25,3.12.28,2.46.06,4.91.07,7.37.08,1.15,0,1.54-.43,1.54-1.6V49.34a8.33,8.33,0,0,1,0-.87,1.08,1.08,0,0,1,1.07-1Zm-1.2-4.2c0-1.23,0-2.46,0-3.68V39c0-1.14-.05-2.28,0-3.41a1.52,1.52,0,0,1,.67-1c.2-.12.7.13,1,.34a1.84,1.84,0,0,1,.72,1.58c0,2.27,0,4.55,0,6.82,0,1-.41,1.45-1.17,1.47S28.05,44.23,28.05,43.25Z" style="fill:#fff;stroke:#000;stroke-linejoin:round;stroke-width:0.4000000059604645px"/></svg>