<svg xmlns="http://www.w3.org/2000/svg" viewBox="0 0 678 374.5"><title>Asset 1</title><g id="Layer_2" data-name="Layer 2"><g id="Background_Complete" data-name="Background Complete"><circle cx="577.85" cy="123.79" r="12.3" transform="translate(29.03 342.96) rotate(-33.86)" style="fill:#bac8ff"/><circle cx="541.34" cy="123.79" r="13.1" style="fill:#bac8ff"/><circle cx="513.28" cy="100.62" r="13.9" style="fill:#bac8ff"/><circle cx="507.58" cy="64.99" r="14.52" style="fill:#bac8ff"/><circle cx="525.37" cy="33.8" r="15.01" style="fill:#bac8ff"/><circle cx="559.54" cy="21.48" r="16.36" style="fill:#bac8ff"/><circle cx="604.98" cy="100.33" r="11.88" transform="translate(369.01 666.36) rotate(-76.79)" style="fill:#bac8ff"/><circle cx="611.33" cy="64.59" r="11.02" style="fill:#bac8ff"/><circle cx="593" cy="33.39" r="10.07" style="fill:#bac8ff"/><path d="M176.21,7.37a31.42,31.42,0,0,1,8.06,2.13l5.92-5,10.17,7.74-3.2,7a31.18,31.18,0,0,1,4.19,7.19l7.7.68,1.71,12.67-7.23,2.7a31,31,0,0,1-2.13,8.06l5,5.92L198.63,66.7l-7-3.21a31.5,31.5,0,0,1-7.2,4.2l-.68,7.69L171.05,77.1l-2.7-7.23a31.42,31.42,0,0,1-8.06-2.13l-5.92,5L144.2,65l3.21-7a31.29,31.29,0,0,1-4.2-7.2l-7.69-.67L133.8,37.39l7.23-2.7a31.42,31.42,0,0,1,2.13-8.06l-5-5.92,7.74-10.17,7,3.2a31.25,31.25,0,0,1,7.2-4.19l.68-7.69L173.51.14l2.7,7.23ZM171,25A13.71,13.71,0,1,0,186.44,36.7,13.71,13.71,0,0,0,171,25Z" style="fill:none"/><path d="M171,25a10.64,10.64,0,0,1,3.4-.17,13.62,13.62,0,0,1,8.33,3.88,13.83,13.83,0,0,1,3.43,5.46,14,14,0,0,1,.43,7.39,13.93,13.93,0,0,1-4,7.16,14,14,0,0,1-16.51,2.24,13.12,13.12,0,0,1-3.36-2.56,13.35,13.35,0,0,1-2.37-3.28,14,14,0,0,1-1.55-7.24,13.81,13.81,0,0,1,1.85-6.18,13.6,13.6,0,0,1,7-6A10.27,10.27,0,0,1,171,25c0,.1-1.2.2-3.2,1a13.76,13.76,0,0,0-6.63,6,13.42,13.42,0,0,0-.13,12.81,12.5,12.5,0,0,0,2.26,3.1,12.32,12.32,0,0,0,3.19,2.4,13.26,13.26,0,0,0,15.6-2.11A12.74,12.74,0,0,0,184.54,45a12.54,12.54,0,0,0,1.35-3.59,13.41,13.41,0,0,0-3.55-12.31,13.66,13.66,0,0,0-8-4C172.23,24.82,171,25.05,171,25Z" style="fill:#e0e0e0"/><path d="M176.21,7.37a4.39,4.39,0,0,1-.19-.44l-.54-1.36C175,4.32,174.3,2.52,173.39.18l.14.08L160.87,2.05l.17-.18c-.19,2.33-.41,4.93-.64,7.7v.14l-.13,0A31.27,31.27,0,0,0,153.13,14L153,14l-.15-.06-7-3.18.34-.09c-2.43,3.21-5,6.61-7.71,10.19v-.39l5,5.91.13.15-.08.19a31.37,31.37,0,0,0-2.09,8l0,.2-.2.08-7.23,2.71.23-.38c.54,4,1.13,8.27,1.73,12.67l-.33-.32,7.69.67.23,0,.09.21a31,31,0,0,0,4.15,7.11l.14.18-.1.21-3.2,7-.11-.47,10.17,7.74h-.49l5.92-5,.18-.15.22.09a31.19,31.19,0,0,0,7.95,2.1h0c.14.11-.32-.26.32.25h0v0l0,.06,0,.11.09.23.17.45.34.91.67,1.82c.46,1.2.9,2.41,1.35,3.6l-.42-.25L183.67,75l-.34.35c.23-2.59.46-5.16.68-7.69l0-.24.22-.09a30.69,30.69,0,0,0,7.11-4.14l.18-.14.21.1,7,3.21-.45.11,7.75-10.16v.45l-5-5.93-.14-.16.09-.2a31.37,31.37,0,0,0,2.11-8l0-.21.19-.07,7.24-2.69-.21.35c-.6-4.46-1.16-8.66-1.69-12.67l.27.26-7.69-.69-.17,0-.07-.16A31.54,31.54,0,0,0,197,19.46l-.09-.12.06-.14,3.23-7,.07.28L190.08,4.68h.22c-2.37,2-4.32,3.58-6,4.92l-.06.05-.07,0a32.75,32.75,0,0,0-6-1.85l-1.52-.29-.51-.1a2.82,2.82,0,0,1,.52,0c.34,0,.85.1,1.54.22a31,31,0,0,1,6,1.75l-.13,0,5.89-5,.1-.09.12.09,10.2,7.69.15.11-.08.17c-1,2.18-2,4.48-3.18,7l0-.26a31.32,31.32,0,0,1,4.25,7.25l-.23-.18,7.69.66.24,0,0,.24c.55,4,1.12,8.21,1.74,12.66l0,.26-.24.09-7.23,2.72.22-.28a31.87,31.87,0,0,1-2.14,8.15l-.06-.36,5,5.92.19.22-.18.23-7.73,10.17-.18.24-.27-.12-7-3.2.39-.05a31.52,31.52,0,0,1-7.29,4.26l.24-.33c-.22,2.54-.45,5.11-.67,7.7l0,.31-.31,0-12.66,1.72-.31,0-.11-.29-1.35-3.61-.68-1.81-.34-.91-.17-.46-.09-.22,0-.12,0,0v0h0l.32.25h0a31.83,31.83,0,0,1-8.15-2.16l.41-.06-5.93,5-.24.2-.24-.19L144,65.27l-.25-.19.13-.28c1.11-2.42,2.21-4.82,3.21-7l.05.4a31.8,31.8,0,0,1-4.24-7.29l.31.23-7.69-.69-.29,0,0-.29c-.6-4.39-1.17-8.68-1.71-12.66l0-.28.26-.1,7.23-2.69-.21.28a31.16,31.16,0,0,1,2.16-8.14l0,.33L138,20.91l-.16-.19.15-.2,7.77-10.15.13-.18.21.09,7,3.23-.27,0a31.65,31.65,0,0,1,7.27-4.21l-.14.2c.25-2.77.49-5.36.71-7.69V1.68l.16,0L173.49,0h.1l0,.09,1.94,5.39.49,1.4A2.8,2.8,0,0,1,176.21,7.37Z" style="fill:#e0e0e0"/><path d="M115,81.23a44.29,44.29,0,0,1,11.39,3l8.37-7,14.38,10.94-4.53,9.94a44.65,44.65,0,0,1,5.94,10.18l10.87,1,2.43,17.9L153.65,131a44,44,0,0,1-3,11.39l7,8.37-10.94,14.38-9.94-4.53a44.25,44.25,0,0,1-10.18,5.93l-1,10.88-17.91,2.43-3.82-10.23a44.4,44.4,0,0,1-11.39-3l-8.37,7-14.38-11,4.53-9.94a44.19,44.19,0,0,1-5.93-10.17l-10.88-1-2.43-17.91,10.23-3.82a43.89,43.89,0,0,1,3-11.39l-7-8.38L72.22,85.72l9.94,4.53a44.5,44.5,0,0,1,10.18-5.94l1-10.87L111.21,71,115,81.23Zm-7.35,24.87a19.39,19.39,0,1,0,21.81,16.6A19.38,19.38,0,0,0,107.68,106.1Z" style="fill:#e0e0e0;fill-rule:evenodd"/></g><g id="Floor"><path d="M678,374.17c0,.14-151.79.26-339,.26s-339-.12-339-.26,151.76-.26,339-.26S678,374,678,374.17Z" style="fill:#263238"/></g><g id="Device"><rect width="437.31" height="289.19" x="133.36" y="78.42" rx="14.57" style="fill:#455a64"/><path d="M116.27,348.94H590.06a0,0,0,0,1,0,0v7.51a17.8,17.8,0,0,1-17.8,17.8H134.07a17.8,17.8,0,0,1-17.8-17.8v-7.51a0,0,0,0,1,0,0Z" style="fill:#455a64"/><rect width="412.61" height="244.22" x="145.1" y="89.91" style="fill:#263238"/><polygon points="308.91 346.23 314.79 355.58 397.52 355.58 402.98 346.23 308.91 346.23" style="fill:#263238"/><rect width="396.46" height="235.17" x="153.6" y="98.18" rx="3.27" style="fill:#ebebeb"/><polygon points="549.64 333.69 153.18 333.69 153.6 115.76 549.64 115.76 549.64 333.69" style="fill:#fafafa"/><path d="M186.11,107.26A3.17,3.17,0,1,1,183,104.1,3.16,3.16,0,0,1,186.11,107.26Z" style="fill:#263238"/><path d="M166.92,107.26a3.17,3.17,0,1,1-3.16-3.16A3.16,3.16,0,0,1,166.92,107.26Z" style="fill:#263238"/><path d="M176.14,107.26A3.17,3.17,0,1,1,173,104.1,3.17,3.17,0,0,1,176.14,107.26Z" style="fill:#263238"/><path d="M566.91,346.22c0,.16-97.06.29-216.76.29s-216.79-.13-216.79-.29,97-.28,216.79-.28S566.91,346.07,566.91,346.22Z" style="fill:#263238"/><text transform="translate(309.46 212.02)" style="font-size:21px;font-family:Raleway-SemiBoldItalic,Raleway;font-weight:600;font-style:italic">Sit Back!<tspan x="-118.92" y="25.2">The </tspan><tspan x="-77.97" y="25.2" style="letter-spacing:-.025995163690476192em">r</tspan><tspan x="-70.83" y="25.2" style="letter-spacing:.000023251488095238094em">eading ma</tspan><tspan x="32.82" y="25.2" style="letter-spacing:-.012974330357142858em">t</tspan><tspan x="40" y="25.2">eria</tspan><tspan x="77.07" y="25.2" style="letter-spacing:-.025995163690476192em">l</tspan><tspan x="82.7" y="25.2" xml:space="preserve" style="letter-spacing:-.00004650297619047619em"> is </tspan><tspan x="107.9" y="25.2" style="letter-spacing:-.005022321428571429em">l</tspan><tspan x="113.97" y="25.2" style="letter-spacing:.00004650297619047619em">oading.....</tspan></text></g><g id="Character"><polygon points="270.04 373.73 307.6 373.33 304.63 359.9 271.06 357.4 270.04 373.73" style="fill:#b78876"/><path d="M289,357l17.4,1.14s7-17.3,10.24-17.4l-1,33.81-27.18-.66Z" style="fill:#748ffc"/><path d="M304.62,368.51a1.38,1.38,0,0,0,1.55,1,1.33,1.33,0,0,0,1-1.53,1.44,1.44,0,0,0-1.64-1.05,1.38,1.38,0,0,0-.87,1.7" style="fill:#e0e0e0"/><path d="M315.63,374.5l-2.74-.17,2-32.35s.7-1.49,1.76-1.29Z" style="fill:#e0e0e0"/><path d="M306.24,357.54c.17,0,.22.84.72,1.67s1.19,1.28,1.12,1.43-1-.13-1.61-1.14S306.09,357.5,306.24,357.54Z" style="fill:#263238"/><path d="M307.81,354c.16,0,.42.69,1.1,1.27s1.42.77,1.41.93-.95.24-1.78-.5S307.66,354,307.81,354Z" style="fill:#263238"/><path d="M312.12,352.15c0,.15-.8.36-1.7-.09s-1.22-1.24-1.08-1.3.6.42,1.34.78S312.11,352,312.12,352.15Z" style="fill:#263238"/><path d="M302.25,357.72c.14.07-.11.82-.07,1.76s.31,1.67.16,1.75-.71-.63-.73-1.73S302.12,357.64,302.25,357.72Z" style="fill:#263238"/><path d="M298.73,357.55a3.19,3.19,0,0,1-.06,1.7,7.51,7.51,0,0,1-.59,1.75,9.41,9.41,0,0,1-.55,1,2.15,2.15,0,0,1-.41.5.72.72,0,0,1-.88.05.9.9,0,0,1-.36-.74,2.29,2.29,0,0,1,.11-.63,6.4,6.4,0,0,1,.39-1,5.87,5.87,0,0,1,1.07-1.53,3,3,0,0,1,1.41-1c.05.08-.48.45-1.1,1.23a6.82,6.82,0,0,0-.9,1.48,6.49,6.49,0,0,0-.33,1c-.1.35-.11.66,0,.75s.09,0,.19,0a1.77,1.77,0,0,0,.31-.37,8.22,8.22,0,0,0,.53-.88,9.71,9.71,0,0,0,.68-1.61A12.83,12.83,0,0,1,298.73,357.55Z" style="fill:#263238"/><path d="M299,357.78a2.64,2.64,0,0,1-1.65.39,5.36,5.36,0,0,1-1.84-.28,6.55,6.55,0,0,1-1-.46,1.4,1.4,0,0,1-.82-1.11.81.81,0,0,1,.49-.69,2.33,2.33,0,0,1,.63-.16,3.61,3.61,0,0,1,1.14,0,4,4,0,0,1,1.73.77c.85.69,1,1.38,1,1.39s-.38-.53-1.21-1.06a3.89,3.89,0,0,0-1.58-.58,3.5,3.5,0,0,0-1,0c-.37,0-.66.17-.63.3s.26.47.54.61a5.12,5.12,0,0,0,.91.45,6.07,6.07,0,0,0,1.68.38C298.32,357.84,298.94,357.69,299,357.78Z" style="fill:#263238"/><path d="M36.52,363.17l-2.87,11-32.2-.3s4.41-3.32,20.58-3.08l1.57-7.62Z" style="fill:#b78876"/><path d="M69.48,214.23a31.37,31.37,0,0,1-2.31-5.67,10.44,10.44,0,0,1,0-6,6.33,6.33,0,0,1,4.22-4.11c1.22-.31,2.55-.17,3.71-.66,1.35-.58,2.2-1.88,3.21-2.93a10.68,10.68,0,0,1,6-3.1,6.29,6.29,0,0,1,3.52.33A3.55,3.55,0,0,1,90,194.73a16.59,16.59,0,0,1,4.23-1.25,5.69,5.69,0,0,1,4.19,1,3.47,3.47,0,0,1,1.15,3.95,2.81,2.81,0,0,1,3.68.83,3.63,3.63,0,0,1,0,3.94,6.77,6.77,0,0,1-3.93,2.53,9.77,9.77,0,0,1-4.3.1" style="fill:#263238"/><path d="M85.39,257.62h0a10.58,10.58,0,0,0,9.22-11.72c-.38-3.23-.71-5.93-.71-5.93s8.14-1.69,7.82-9.9-2.69-27-2.69-27h0a28.58,28.58,0,0,0-28.48,5.06l-1.17,1,4.19,39.11A10.57,10.57,0,0,0,85.39,257.62Z" style="fill:#b78876"/><path d="M93.9,239.85a19.08,19.08,0,0,1-10.85-2.49s2.83,5.77,11,4.62Z" style="fill:#aa6550"/><path d="M70.83,217.59c-.15-.06-5.73-1.38-5.26,4.22s6,4,6,3.82S70.83,217.59,70.83,217.59Z" style="fill:#b78876"/><path d="M69.67,223.65s-.09.07-.25.16a1,1,0,0,1-.73.08,2.43,2.43,0,0,1-1.3-2.08,3.29,3.29,0,0,1,.16-1.42,1.16,1.16,0,0,1,.67-.81.51.51,0,0,1,.6.22c.09.15.06.27.09.28s.12-.11,0-.34a.62.62,0,0,0-.25-.33.72.72,0,0,0-.55-.1,1.41,1.41,0,0,0-1,1,3.42,3.42,0,0,0-.21,1.59,2.56,2.56,0,0,0,1.63,2.3,1,1,0,0,0,.88-.23C69.67,223.78,69.69,223.65,69.67,223.65Z" style="fill:#aa6550"/><path d="M97.14,216.62a1.18,1.18,0,0,1-1.07,1.24,1.12,1.12,0,0,1-1.26-1,1.17,1.17,0,0,1,1.07-1.24A1.11,1.11,0,0,1,97.14,216.62Z" style="fill:#263238"/><path d="M98.06,214.71c-.13.16-1.06-.46-2.32-.39s-2.15.75-2.29.6.06-.35.45-.66a3.17,3.17,0,0,1,1.83-.67,3,3,0,0,1,1.85.5C98,214.36,98.13,214.63,98.06,214.71Z" style="fill:#263238"/><path d="M85.13,217.22a1.18,1.18,0,0,1-1.07,1.24,1.12,1.12,0,0,1-1.26-1,1.17,1.17,0,0,1,1.07-1.24A1.13,1.13,0,0,1,85.13,217.22Z" style="fill:#263238"/><path d="M85.68,215.57c-.14.16-1.06-.45-2.32-.38s-2.16.74-2.3.59.06-.34.45-.66a3.27,3.27,0,0,1,1.83-.67,3.12,3.12,0,0,1,1.86.5C85.6,215.23,85.75,215.5,85.68,215.57Z" style="fill:#263238"/><path d="M90.73,224.69a8.19,8.19,0,0,1,2-.47c.32-.05.62-.13.66-.35a1.57,1.57,0,0,0-.26-1l-1.08-2.4a41.78,41.78,0,0,1-2.46-6.31,41.82,41.82,0,0,1,3,6.1l1,2.42a1.85,1.85,0,0,1,.23,1.25.8.8,0,0,1-.5.5,2,2,0,0,1-.54.1A8,8,0,0,1,90.73,224.69Z" style="fill:#263238"/><path d="M87.06,225.75c.21,0,.28,1.35,1.5,2.26s2.67.69,2.69.88-.31.28-.93.33a3.42,3.42,0,0,1-2.24-.66,3,3,0,0,1-1.17-1.89C86.83,226.1,87,225.75,87.06,225.75Z" style="fill:#263238"/><path d="M97.49,212.51c-.21.3-1.09,0-2.14.08s-1.92.29-2.14,0,0-.43.4-.72a3,3,0,0,1,1.71-.56,3,3,0,0,1,1.74.49C97.44,212.08,97.58,212.36,97.49,212.51Z" style="fill:#263238"/><path d="M83.81,211.09c-.14.17-.46.12-.89.06a8.62,8.62,0,0,0-1.57-.13,8.21,8.21,0,0,0-1.56.19c-.42.07-.74.13-.88,0s0-.51.39-.89a3.3,3.3,0,0,1,4.08-.07C83.82,210.58,83.93,211,83.81,211.09Z" style="fill:#263238"/><path d="M99.57,205.58a19.29,19.29,0,0,1-12,0c-4.33-1.39-9.17-1.66-10.09-.69s-.49,5.15-4.3,7c0,0,1.49,7.87-1.71,8.07s-3.1-12.36-3.1-12.36l7.15-4.95,8.18-2.88,7.89-1.2,7.69,1.13Z" style="fill:#263238"/><path d="M111.62,256.74l24.64,23.05,39-26.62,12.18,14-37.46,30a21.78,21.78,0,0,1-13.59,5.51h0a21.8,21.8,0,0,1-17.88-8l-13.2-11.14Z" style="fill:#748ffc"/><path d="M88.73,246.83l22.89,9.91-.76,6.34,10.65,42.23,11.58,8.46-9.59,14.08a26.27,26.27,0,0,1-8.27,7.78L92.4,349.2a9,9,0,0,1-11.31-4.8L60.9,298.59,40.61,361.52a8.76,8.76,0,0,1-9.61,6l-8-1.17a4.64,4.64,0,0,1-3.83-5.75l22.69-88.21a42.78,42.78,0,0,1,5.76-12.88,27.38,27.38,0,0,1,22.06-12.13Z" style="fill:#748ffc"/><path d="M96.75,247.49l-.85-4.59-24.26-1.64,0,6.11c.17,1.73,3,1.22,5.64,2.31l11.88,2.37C92.06,252.27,98.24,251.18,96.75,247.49Z" style="fill:#748ffc"/><path d="M121.75,305.52a11,11,0,0,1-.63-1.61c-.37-1.05-.88-2.57-1.49-4.46-1.21-3.78-2.77-9-4.27-14.91s-2.68-11.23-3.44-15.13c-.38-2-.66-3.53-.84-4.62a9.74,9.74,0,0,1-.22-1.71,12.21,12.21,0,0,1,.42,1.67c.26,1.17.6,2.71,1,4.59.85,3.87,2.08,9.21,3.58,15.07s3,11.13,4.13,14.93l1.33,4.51A11.34,11.34,0,0,1,121.75,305.52Z" style="fill:#263238"/><path d="M68.23,277.72a20.49,20.49,0,0,1-1,3.16l-2.62,7.5c-1,2.85-1.9,5.43-2.62,7.49A25,25,0,0,1,60.87,299a17.61,17.61,0,0,1,.8-3.2c.58-1.95,1.45-4.63,2.48-7.56s2-5.56,2.76-7.45A20,20,0,0,1,68.23,277.72Z" style="fill:#263238"/><g style="opacity:.2"><path d="M60.82,298.7q2.93,6.63,5.83,13.26a7,7,0,0,0,1.17,2,2.29,2.29,0,0,0,2.11.77c1.44-.32,1.8-2.17,1.85-3.65.34-9.67,0-19.57-3.37-28.64-.24-.66-.69-1.44-1.39-1.36s-.92.8-1.09,1.41l-4.74,17"/></g><g style="opacity:.2"><path d="M123.77,299.61A2.55,2.55,0,0,0,125,297.3a7.07,7.07,0,0,0-.72-2.6,67.05,67.05,0,0,0-10.57-17.05l4.79,17Z"/></g><path d="M48.07,292c-.06,0,.18-5.79.54-12.91s.68-12.9.74-12.9-.18,5.78-.53,12.91S48.13,292,48.07,292Z" style="fill:#e0e0e0"/><path d="M52.57,271.94a1.58,1.58,0,0,1,.06.48,11.66,11.66,0,0,1,0,1.31,15,15,0,0,1-2.87,8,10.23,10.23,0,0,1-.83,1,2.09,2.09,0,0,1-.34.34s.43-.53,1.05-1.44a16.63,16.63,0,0,0,1.94-3.8,17,17,0,0,0,.91-4.17C52.57,272.62,52.54,271.94,52.57,271.94Z" style="fill:#e0e0e0"/><path d="M44.39,272.75s.09.59.27,1.54a16.51,16.51,0,0,0,3.06,6.81c.59.76,1,1.2,1,1.22a1.82,1.82,0,0,1-.32-.28,11,11,0,0,1-.77-.85,14.46,14.46,0,0,1-3.09-6.87,9.75,9.75,0,0,1-.13-1.15A2.26,2.26,0,0,1,44.39,272.75Z" style="fill:#e0e0e0"/><path d="M51.54,268.53a1.53,1.53,0,0,1,0,.37,8,8,0,0,1,0,1,16.44,16.44,0,0,1-.62,3.32,16.22,16.22,0,0,1-1.3,3.12,8.57,8.57,0,0,1-.52.88c-.14.2-.22.3-.23.29s.24-.47.62-1.24a20.94,20.94,0,0,0,1.23-3.11,21.3,21.3,0,0,0,.68-3.27A12.8,12.8,0,0,1,51.54,268.53Z" style="fill:#e0e0e0"/><path d="M46.26,269.21s0,.62,0,1.6a18.86,18.86,0,0,0,.48,3.8A19.23,19.23,0,0,0,48,278.23c.42.9.73,1.42.7,1.44a1.86,1.86,0,0,1-.25-.35c-.15-.23-.35-.58-.58-1a16.62,16.62,0,0,1-1.32-3.64,16.93,16.93,0,0,1-.43-3.85,10.6,10.6,0,0,1,.07-1.17A1.4,1.4,0,0,1,46.26,269.21Z" style="fill:#e0e0e0"/><path d="M47.93,267.32s-.09.35-.16.93a7.26,7.26,0,0,0,.12,2.26c.41,1.73,1,3.06,1,3.09a4.58,4.58,0,0,1-.43-.85,12.25,12.25,0,0,1-.73-2.2,5.94,5.94,0,0,1-.06-2.32A2.36,2.36,0,0,1,47.93,267.32Z" style="fill:#e0e0e0"/><path d="M44.85,280.42c.06,0,.64,1.09,1.6,2.3s1.92,2,1.88,2.08a2.75,2.75,0,0,1-.67-.5,11.75,11.75,0,0,1-2.48-3.12A2.87,2.87,0,0,1,44.85,280.42Z" style="fill:#e0e0e0"/><path d="M52.67,281.75a3.49,3.49,0,0,1-.51.79,17.88,17.88,0,0,1-1.47,1.71A16.13,16.13,0,0,1,49,285.78a3.74,3.74,0,0,1-.76.53,4.77,4.77,0,0,1,.67-.65c.42-.38,1-.92,1.61-1.55s1.13-1.23,1.51-1.67A5.61,5.61,0,0,1,52.67,281.75Z" style="fill:#e0e0e0"/><path d="M31.09,356.63c-.06,0,.18-5.78.54-12.9s.68-12.91.74-12.9-.18,5.78-.54,12.91S31.15,356.64,31.09,356.63Z" style="fill:#e0e0e0"/><path d="M35.59,336.59a1.87,1.87,0,0,1,0,.48,9.21,9.21,0,0,1,0,1.3,15,15,0,0,1-2.87,8.05,9.45,9.45,0,0,1-.83,1,2.09,2.09,0,0,1-.34.34s.43-.54,1-1.44a16.63,16.63,0,0,0,2.85-8C35.59,337.27,35.55,336.59,35.59,336.59Z" style="fill:#e0e0e0"/><path d="M27.41,337.39s.09.6.27,1.55a16.93,16.93,0,0,0,1.14,3.58,16.13,16.13,0,0,0,1.92,3.22c.59.77,1,1.2,1,1.23a1.48,1.48,0,0,1-.32-.28,9.73,9.73,0,0,1-.77-.86,13.93,13.93,0,0,1-2-3.23A14.26,14.26,0,0,1,27.54,339a9.41,9.41,0,0,1-.13-1.14A2.35,2.35,0,0,1,27.41,337.39Z" style="fill:#e0e0e0"/><path d="M34.55,333.17s0,.14,0,.38,0,.59,0,1a16.44,16.44,0,0,1-.62,3.32,16.09,16.09,0,0,1-1.3,3.11c-.21.38-.39.68-.52.88a1.48,1.48,0,0,1-.23.3s.24-.47.62-1.24a20.94,20.94,0,0,0,1.23-3.11,20.08,20.08,0,0,0,.67-3.28C34.5,333.7,34.52,333.17,34.55,333.17Z" style="fill:#e0e0e0"/><path d="M29.28,333.86s0,.61,0,1.6a18.86,18.86,0,0,0,.48,3.8A19.23,19.23,0,0,0,31,342.88c.42.89.73,1.42.7,1.44s-.1-.12-.25-.35a8.73,8.73,0,0,1-.58-1,16.4,16.4,0,0,1-1.75-7.49,10.27,10.27,0,0,1,.07-1.17A1.4,1.4,0,0,1,29.28,333.86Z" style="fill:#e0e0e0"/><path d="M31,332s-.09.36-.16.94a6.92,6.92,0,0,0,.12,2.25c.4,1.74,1,3.07,1,3.1a4.21,4.21,0,0,1-.43-.86,11.73,11.73,0,0,1-.73-2.2,6.17,6.17,0,0,1-.07-2.32A2.26,2.26,0,0,1,31,332Z" style="fill:#e0e0e0"/><path d="M27.87,345.07c.05,0,.64,1.09,1.6,2.29s1.92,2,1.88,2.08a2.85,2.85,0,0,1-.67-.49,11.89,11.89,0,0,1-1.37-1.46,11.09,11.09,0,0,1-1.11-1.66A2.5,2.5,0,0,1,27.87,345.07Z" style="fill:#e0e0e0"/><path d="M35.69,346.4a4.15,4.15,0,0,1-.51.78,19.39,19.39,0,0,1-1.47,1.72A17.08,17.08,0,0,1,32,350.42a4.15,4.15,0,0,1-.76.54,4.77,4.77,0,0,1,.67-.65c.42-.39,1-.93,1.61-1.56s1.13-1.22,1.5-1.66A4.44,4.44,0,0,1,35.69,346.4Z" style="fill:#e0e0e0"/><path d="M68.09,273.7c-.06,0,.18-5.78.53-12.91s.69-12.9.75-12.9-.19,5.79-.54,12.91S68.15,273.71,68.09,273.7Z" style="fill:#e0e0e0"/><path d="M72.59,253.66a2.32,2.32,0,0,1,0,.47,9.37,9.37,0,0,1,0,1.31,15,15,0,0,1-2.87,8.05,12.35,12.35,0,0,1-.83,1,2.24,2.24,0,0,1-.34.33s.43-.53,1.05-1.43a16.84,16.84,0,0,0,1.94-3.8,16.46,16.46,0,0,0,.9-4.18C72.58,254.34,72.55,253.66,72.59,253.66Z" style="fill:#e0e0e0"/><path d="M64.41,254.46s.08.6.27,1.54a16,16,0,0,0,3.06,6.81c.59.77,1,1.2,1,1.23a1.62,1.62,0,0,1-.31-.28,9.55,9.55,0,0,1-.78-.86,14.52,14.52,0,0,1-2-3.23,14.76,14.76,0,0,1-1.1-3.64,11.4,11.4,0,0,1-.12-1.14A1.19,1.19,0,0,1,64.41,254.46Z" style="fill:#e0e0e0"/><path d="M71.55,250.24s0,.13,0,.38,0,.59,0,1a16.35,16.35,0,0,1-.63,3.31,15.4,15.4,0,0,1-1.29,3.12c-.21.38-.39.68-.53.88a1.3,1.3,0,0,1-.22.3s.24-.48.62-1.25a19.62,19.62,0,0,0,1.9-6.38C71.5,250.77,71.52,250.24,71.55,250.24Z" style="fill:#e0e0e0"/><path d="M66.27,250.93s0,.61,0,1.6a18.86,18.86,0,0,0,.48,3.8A18.55,18.55,0,0,0,68,260c.41.89.73,1.42.69,1.44a2.44,2.44,0,0,1-.25-.35,11.21,11.21,0,0,1-.57-1,16.4,16.4,0,0,1-1.75-7.48c0-.5,0-.9.06-1.17A3.15,3.15,0,0,1,66.27,250.93Z" style="fill:#e0e0e0"/><path d="M68,249s-.09.36-.16.94a6.92,6.92,0,0,0,.12,2.25c.4,1.73,1,3.07,1,3.1a3.67,3.67,0,0,1-.43-.86,11,11,0,0,1-.73-2.2,6.17,6.17,0,0,1-.07-2.32A2.26,2.26,0,0,1,68,249Z" style="fill:#e0e0e0"/><path d="M64.87,262.14s.63,1.09,1.6,2.29,1.92,2,1.88,2.08a2.85,2.85,0,0,1-.67-.49,11.85,11.85,0,0,1-1.37-1.46,11.09,11.09,0,0,1-1.11-1.66A2.5,2.5,0,0,1,64.87,262.14Z" style="fill:#e0e0e0"/><path d="M72.69,263.47a4.15,4.15,0,0,1-.51.78A20.94,20.94,0,0,1,70.71,266,19.75,19.75,0,0,1,69,267.49a3.66,3.66,0,0,1-.77.54,4.61,4.61,0,0,1,.68-.65c.42-.39,1-.93,1.61-1.56s1.13-1.22,1.5-1.66A3.92,3.92,0,0,1,72.69,263.47Z" style="fill:#e0e0e0"/><path d="M89.77,269.06c-.06,0,.18-5.78.53-12.91s.69-12.9.74-12.9-.18,5.79-.53,12.91S89.82,269.07,89.77,269.06Z" style="fill:#e0e0e0"/><path d="M94.27,249a2.32,2.32,0,0,1,0,.47c0,.31,0,.76,0,1.31a15.26,15.26,0,0,1-2.87,8.05,12.35,12.35,0,0,1-.83,1c-.21.22-.33.34-.35.33s.43-.53,1.06-1.43a17.27,17.27,0,0,0,1.94-3.8,16.9,16.9,0,0,0,.9-4.18C94.26,249.7,94.23,249,94.27,249Z" style="fill:#e0e0e0"/><path d="M86.09,249.82s.08.6.27,1.54a16.18,16.18,0,0,0,3.06,6.81c.58.77,1,1.2,1,1.23a1.82,1.82,0,0,1-.32-.28c-.19-.19-.46-.48-.77-.86a14.89,14.89,0,0,1-2-3.23,14.68,14.68,0,0,1-1.09-3.64c-.07-.48-.12-.87-.13-1.15A1.25,1.25,0,0,1,86.09,249.82Z" style="fill:#e0e0e0"/><path d="M93.23,245.6a1.88,1.88,0,0,1,0,.38c0,.24,0,.59,0,1a16.35,16.35,0,0,1-.63,3.31,16.64,16.64,0,0,1-1.29,3.12c-.21.38-.39.68-.53.88s-.21.31-.23.3.25-.48.63-1.25a19.21,19.21,0,0,0,1.22-3.11,20.16,20.16,0,0,0,.68-3.27C93.17,246.13,93.2,245.6,93.23,245.6Z" style="fill:#e0e0e0"/><path d="M88,246.29s0,.61,0,1.6a19.73,19.73,0,0,0,.49,3.8,18.55,18.55,0,0,0,1.25,3.62c.41.89.72,1.42.69,1.44a2.44,2.44,0,0,1-.25-.35c-.15-.24-.35-.59-.58-1a16.62,16.62,0,0,1-1.32-3.64,16.17,16.17,0,0,1-.42-3.84,11.1,11.1,0,0,1,.06-1.18A1.91,1.91,0,0,1,88,246.29Z" style="fill:#e0e0e0"/><path d="M89.63,244.39s-.09.36-.17.93a7,7,0,0,0,.13,2.26c.4,1.73,1,3.07,1,3.1a5,5,0,0,1-.43-.86,12,12,0,0,1-.73-2.2,5.94,5.94,0,0,1-.06-2.32A2.26,2.26,0,0,1,89.63,244.39Z" style="fill:#e0e0e0"/><path d="M86.54,257.5c.06,0,.64,1.09,1.61,2.29s1.91,2,1.87,2.08a3,3,0,0,1-.66-.49,11.64,11.64,0,0,1-2.48-3.12A2.89,2.89,0,0,1,86.54,257.5Z" style="fill:#e0e0e0"/><path d="M94.36,258.83a3.16,3.16,0,0,1-.51.78,18.8,18.8,0,0,1-1.46,1.72,19.75,19.75,0,0,1-1.67,1.52,3.66,3.66,0,0,1-.77.54,4.81,4.81,0,0,1,.67-.65c.43-.39,1-.93,1.62-1.56s1.13-1.22,1.5-1.66A4.78,4.78,0,0,1,94.36,258.83Z" style="fill:#e0e0e0"/><path d="M98.68,289.3c-.06,0,.18-5.78.53-12.91s.69-12.9.75-12.9-.18,5.79-.54,12.91S98.74,289.31,98.68,289.3Z" style="fill:#e0e0e0"/><path d="M103.18,269.26a1.65,1.65,0,0,1,0,.47,9.37,9.37,0,0,1,0,1.31,15,15,0,0,1-2.87,8,12.35,12.35,0,0,1-.83,1,2.24,2.24,0,0,1-.34.33s.43-.53,1-1.43a16.84,16.84,0,0,0,1.94-3.8,16.46,16.46,0,0,0,.9-4.18C103.18,269.94,103.14,269.26,103.18,269.26Z" style="fill:#e0e0e0"/><path d="M95,270.06s.08.6.27,1.54a16.51,16.51,0,0,0,3.06,6.81c.59.77,1,1.2,1,1.23a1.48,1.48,0,0,1-.32-.28,11.36,11.36,0,0,1-.78-.86,14.52,14.52,0,0,1-2-3.23,14.76,14.76,0,0,1-1.1-3.64,11.26,11.26,0,0,1-.12-1.15A2.26,2.26,0,0,1,95,270.06Z" style="fill:#e0e0e0"/><path d="M102.14,265.84s0,.13,0,.38,0,.59,0,1a17,17,0,0,1-.62,3.31,16,16,0,0,1-1.3,3.12c-.21.38-.39.68-.52.88a1.48,1.48,0,0,1-.23.3s.24-.48.62-1.25a19,19,0,0,0,1.9-6.38C102.09,266.37,102.11,265.84,102.14,265.84Z" style="fill:#e0e0e0"/><path d="M96.86,266.53s0,.61,0,1.6a18.86,18.86,0,0,0,.48,3.8,19.23,19.23,0,0,0,1.25,3.62c.42.89.73,1.42.7,1.44a1.38,1.38,0,0,1-.25-.35,10,10,0,0,1-.58-1A16.12,16.12,0,0,1,97.16,272a15.74,15.74,0,0,1-.43-3.84A10.27,10.27,0,0,1,96.8,267,2.55,2.55,0,0,1,96.86,266.53Z" style="fill:#e0e0e0"/><path d="M98.54,264.63s-.09.36-.16.93a7,7,0,0,0,.12,2.26c.4,1.73,1,3.07,1,3.1a4.21,4.21,0,0,1-.43-.86,11.73,11.73,0,0,1-.73-2.2,6.17,6.17,0,0,1-.07-2.32A2.26,2.26,0,0,1,98.54,264.63Z" style="fill:#e0e0e0"/><path d="M95.46,277.74c.05,0,.63,1.09,1.6,2.29s1.92,2,1.88,2.08a2.85,2.85,0,0,1-.67-.49,12.67,12.67,0,0,1-1.37-1.46,11.09,11.09,0,0,1-1.11-1.66A2.62,2.62,0,0,1,95.46,277.74Z" style="fill:#e0e0e0"/><path d="M103.28,279.07a4.15,4.15,0,0,1-.51.78,20.94,20.94,0,0,1-1.47,1.72,19.75,19.75,0,0,1-1.67,1.52,3.66,3.66,0,0,1-.77.54,5.37,5.37,0,0,1,.68-.65c.42-.39,1-.93,1.61-1.56s1.13-1.22,1.5-1.66A4.44,4.44,0,0,1,103.28,279.07Z" style="fill:#e0e0e0"/><path d="M129.61,297.32c-.06,0-1.89-5.47-4.09-12.25s-3.94-12.31-3.89-12.33,1.88,5.47,4.09,12.26S129.66,297.31,129.61,297.32Z" style="fill:#e0e0e0"/><path d="M126.69,277a2.93,2.93,0,0,1,.22.43,11.25,11.25,0,0,1,.46,1.23,15,15,0,0,1,.71,4.26,15.23,15.23,0,0,1-.53,4.28,11.15,11.15,0,0,1-.41,1.24,2.46,2.46,0,0,1-.2.44s.21-.65.47-1.72a17,17,0,0,0,.46-4.24,16.77,16.77,0,0,0-.64-4.22C126.93,277.63,126.66,277,126.69,277Z" style="fill:#e0e0e0"/><path d="M119.33,280.65s.29.52.8,1.34a16.64,16.64,0,0,0,5.28,5.28c.82.51,1.36.76,1.35.8a1.7,1.7,0,0,1-.4-.15c-.25-.11-.6-.29-1-.53a14.6,14.6,0,0,1-5.34-5.32c-.24-.43-.41-.78-.52-1A2,2,0,0,1,119.33,280.65Z" style="fill:#e0e0e0"/><path d="M124.51,274.16a1.74,1.74,0,0,1,.16.34c.09.23.2.56.32,1a16.17,16.17,0,0,1,.6,3.32,16.92,16.92,0,0,1-.1,3.38c-.06.43-.13.77-.18,1a1.91,1.91,0,0,1-.11.36s.06-.53.14-1.39a21,21,0,0,0,0-3.34,20.16,20.16,0,0,0-.53-3.3C124.64,274.68,124.48,274.17,124.51,274.16Z" style="fill:#e0e0e0"/><path d="M119.82,276.68s.21.58.58,1.49a18.51,18.51,0,0,0,4.26,6.32c.7.69,1.18,1.07,1.16,1.1a2,2,0,0,1-.36-.24,10.8,10.8,0,0,1-.91-.75,16.42,16.42,0,0,1-4.29-6.38c-.17-.46-.29-.85-.36-1.12A1.52,1.52,0,0,1,119.82,276.68Z" style="fill:#e0e0e0"/><path d="M120.71,274.31s0,.37.18.93a6.91,6.91,0,0,0,.92,2.07c1,1.47,2.06,2.49,2,2.55a4.22,4.22,0,0,1-.7-.65,12.13,12.13,0,0,1-1.47-1.79,6.14,6.14,0,0,1-.88-2.15A2.32,2.32,0,0,1,120.71,274.31Z" style="fill:#e0e0e0"/><path d="M122.49,287.66c0-.05,1,.79,2.31,1.57s2.51,1.22,2.49,1.28a2.94,2.94,0,0,1-.79-.23,11.94,11.94,0,0,1-1.81-.87,11.72,11.72,0,0,1-1.62-1.16A2.64,2.64,0,0,1,122.49,287.66Z" style="fill:#e0e0e0"/><path d="M130.27,286.12a4,4,0,0,1-.2.92,18.38,18.38,0,0,1-.76,2.12,17.79,17.79,0,0,1-1,2,2.86,2.86,0,0,1-.53.77,6,6,0,0,1,.4-.84c.26-.51.61-1.23,1-2s.62-1.55.81-2.09A4.51,4.51,0,0,1,130.27,286.12Z" style="fill:#e0e0e0"/><path d="M162.64,269.07s-3.58,4.55-8.08,10.08-8.2,10-8.24,10,3.57-4.55,8.08-10.08S162.59,269,162.64,269.07Z" style="fill:#e0e0e0"/><path d="M147.13,282.55a2.59,2.59,0,0,1,.24-.42,13,13,0,0,1,.78-1.05,15.08,15.08,0,0,1,3.2-2.9,14.88,14.88,0,0,1,3.88-1.88,9.65,9.65,0,0,1,1.27-.33,2.44,2.44,0,0,1,.48-.07s-.66.18-1.7.54a16.47,16.47,0,0,0-3.82,1.91,17.4,17.4,0,0,0-3.2,2.82C147.54,282,147.17,282.57,147.13,282.55Z" style="fill:#e0e0e0"/><path d="M154.2,286.75s.29-.53.7-1.41a17,17,0,0,0,1.2-3.55,16.63,16.63,0,0,0,.37-3.74c0-1-.1-1.56-.06-1.57a2.73,2.73,0,0,1,.09.42,10.45,10.45,0,0,1,.11,1.14,14.5,14.5,0,0,1-.3,3.79,14.76,14.76,0,0,1-1.28,3.58,9,9,0,0,1-.58,1A2,2,0,0,1,154.2,286.75Z" style="fill:#e0e0e0"/><path d="M146,285.91s.06-.12.2-.31a9.55,9.55,0,0,1,.64-.8,15.66,15.66,0,0,1,2.46-2.3,16.31,16.31,0,0,1,2.89-1.75,8.42,8.42,0,0,1,1-.39,1.1,1.1,0,0,1,.36-.11s-.48.24-1.24.63a21.41,21.41,0,0,0-2.83,1.78,20.38,20.38,0,0,0-2.49,2.24C146.31,285.52,146,285.94,146,285.91Z" style="fill:#e0e0e0"/><path d="M150.61,288.49s.37-.49.93-1.3a19.21,19.21,0,0,0,1.87-3.34,18.79,18.79,0,0,0,1.13-3.66c.2-1,.26-1.58.3-1.57a2,2,0,0,1,0,.43,10.07,10.07,0,0,1-.14,1.16,16.89,16.89,0,0,1-1.09,3.72,16.5,16.5,0,0,1-1.94,3.35c-.3.4-.56.7-.75.91A1.65,1.65,0,0,1,150.61,288.49Z" style="fill:#e0e0e0"/><path d="M148.13,289s.29-.23.69-.65a6.86,6.86,0,0,0,1.23-1.89c.71-1.64,1-3.09,1.07-3.06a4.69,4.69,0,0,1-.16.94,11.79,11.79,0,0,1-.72,2.2,6,6,0,0,1-1.32,1.91A2.29,2.29,0,0,1,148.13,289Z" style="fill:#e0e0e0"/><path d="M158.38,280.29c-.06,0,.13-1.25.07-2.8s-.34-2.77-.28-2.78a2.51,2.51,0,0,1,.24.79,11.43,11.43,0,0,1,.15,4A2.46,2.46,0,0,1,158.38,280.29Z" style="fill:#e0e0e0"/><path d="M152.87,274.59a3.37,3.37,0,0,1,.87-.33,17,17,0,0,1,2.2-.51,17.17,17.17,0,0,1,2.25-.24,3.23,3.23,0,0,1,.94,0,5.39,5.39,0,0,1-.93.12c-.57.06-1.36.16-2.22.3s-1.64.32-2.2.45A5.15,5.15,0,0,1,152.87,274.59Z" style="fill:#e0e0e0"/><path d="M95.46,339.8c-.06,0-.25-5.78-.44-12.91S94.74,314,94.8,314s.25,5.78.43,12.91S95.52,339.8,95.46,339.8Z" style="fill:#e0e0e0"/><path d="M98.44,319.47a1.53,1.53,0,0,1,.09.47,11.53,11.53,0,0,1,.1,1.31,15.23,15.23,0,0,1-2.26,8.24c-.3.47-.56.83-.75,1.07a2.28,2.28,0,0,1-.32.37s.39-.57.94-1.52a16.27,16.27,0,0,0,1.65-3.93,17.13,17.13,0,0,0,.59-4.23C98.49,320.15,98.4,319.47,98.44,319.47Z" style="fill:#e0e0e0"/><path d="M90.34,320.89s.13.59.39,1.52a16.45,16.45,0,0,0,1.4,3.48A17.22,17.22,0,0,0,94.29,329c.65.72,1.09,1.13,1.07,1.15a1.74,1.74,0,0,1-.34-.25,11.13,11.13,0,0,1-.83-.8A14.28,14.28,0,0,1,92,326a14.57,14.57,0,0,1-1.36-3.55,10.27,10.27,0,0,1-.21-1.13A1.88,1.88,0,0,1,90.34,320.89Z" style="fill:#e0e0e0"/><path d="M97.15,316.14a1.28,1.28,0,0,1,.06.37c0,.24,0,.59,0,1a16.18,16.18,0,0,1-1.43,6.56c-.18.39-.33.7-.45.91a1.66,1.66,0,0,1-.21.32s.21-.5.53-1.29a20.78,20.78,0,0,0,1-3.19,21.27,21.27,0,0,0,.43-3.32C97.13,316.68,97.12,316.14,97.15,316.14Z" style="fill:#e0e0e0"/><path d="M91.94,317.23s0,.61.13,1.59a18.71,18.71,0,0,0,2.29,7.27c.48.86.83,1.36.8,1.38a1.79,1.79,0,0,1-.28-.33,11,11,0,0,1-.65-1,16.25,16.25,0,0,1-1.59-3.53,16,16,0,0,1-.71-3.8c0-.5,0-.9,0-1.18A1.8,1.8,0,0,1,91.94,317.23Z" style="fill:#e0e0e0"/><path d="M93.47,315.21s-.07.36-.09.94a6.7,6.7,0,0,0,.29,2.24c.53,1.7,1.27,3,1.19,3a3.31,3.31,0,0,1-.5-.82,12.22,12.22,0,0,1-.89-2.13,6,6,0,0,1-.24-2.31A2.33,2.33,0,0,1,93.47,315.21Z" style="fill:#e0e0e0"/><path d="M91.38,328.51c.05,0,.72,1,1.77,2.17s2.06,1.88,2,1.93a2.76,2.76,0,0,1-.7-.45,11.54,11.54,0,0,1-2.71-2.92A2.38,2.38,0,0,1,91.38,328.51Z" style="fill:#e0e0e0"/><path d="M99.28,329.24a3.59,3.59,0,0,1-.45.83,18.57,18.57,0,0,1-1.34,1.82,16.07,16.07,0,0,1-1.55,1.64,3.2,3.2,0,0,1-.72.59,6,6,0,0,1,.62-.69c.39-.42.93-1,1.49-1.68s1-1.3,1.37-1.77A5.14,5.14,0,0,1,99.28,329.24Z" style="fill:#e0e0e0"/><path d="M117.47,319.34c-.06,0-1.89-5.47-4.09-12.26s-3.95-12.3-3.89-12.32,1.88,5.47,4.09,12.26S117.52,319.32,117.47,319.34Z" style="fill:#e0e0e0"/><path d="M114.55,299a2,2,0,0,1,.22.43,10.94,10.94,0,0,1,.46,1.22,15.05,15.05,0,0,1,.71,4.26,15.31,15.31,0,0,1-.53,4.29,11.55,11.55,0,0,1-.42,1.24,1.83,1.83,0,0,1-.2.44s.21-.66.47-1.72a16.59,16.59,0,0,0,.47-4.25,16.85,16.85,0,0,0-.64-4.22C114.79,299.64,114.51,299,114.55,299Z" style="fill:#e0e0e0"/><path d="M107.19,302.66s.29.53.8,1.35a16.71,16.71,0,0,0,2.33,2.94,17.11,17.11,0,0,0,3,2.33c.82.51,1.36.77,1.35.8a1.7,1.7,0,0,1-.4-.15,9.91,9.91,0,0,1-1-.52,14.71,14.71,0,0,1-3-2.31,14.47,14.47,0,0,1-2.32-3,9,9,0,0,1-.52-1C107.23,302.81,107.17,302.67,107.19,302.66Z" style="fill:#e0e0e0"/><path d="M112.37,296.17a2.19,2.19,0,0,1,.15.35,9.52,9.52,0,0,1,.33,1,16.43,16.43,0,0,1,.49,6.69c-.06.43-.12.77-.18,1a1.59,1.59,0,0,1-.1.36,11.38,11.38,0,0,1,.14-1.38,21.15,21.15,0,0,0,0-3.35,21.51,21.51,0,0,0-.53-3.3A11.48,11.48,0,0,1,112.37,296.17Z" style="fill:#e0e0e0"/><path d="M107.68,298.7s.2.57.58,1.48a18.68,18.68,0,0,0,1.8,3.38,19.45,19.45,0,0,0,2.45,2.95c.71.68,1.19,1.06,1.16,1.09a1.72,1.72,0,0,1-.36-.24c-.22-.16-.53-.42-.9-.75a16.46,16.46,0,0,1-2.53-2.93,16.77,16.77,0,0,1-1.76-3.44c-.17-.47-.29-.85-.36-1.12A1.23,1.23,0,0,1,107.68,298.7Z" style="fill:#e0e0e0"/><path d="M108.57,296.32s0,.37.18.94a6.73,6.73,0,0,0,.92,2.06c1,1.48,2.06,2.5,2,2.55a4.07,4.07,0,0,1-.71-.64,11.68,11.68,0,0,1-1.46-1.8,6.07,6.07,0,0,1-.89-2.14A2.47,2.47,0,0,1,108.57,296.32Z" style="fill:#e0e0e0"/><path d="M110.34,309.67c0-.05,1,.79,2.32,1.58s2.51,1.21,2.49,1.27a2.68,2.68,0,0,1-.8-.22,11.89,11.89,0,0,1-1.8-.87,11.63,11.63,0,0,1-1.63-1.17A3,3,0,0,1,110.34,309.67Z" style="fill:#e0e0e0"/><path d="M118.13,308.13a4,4,0,0,1-.2.92,18.7,18.7,0,0,1-.77,2.12,17.12,17.12,0,0,1-1,2,4.26,4.26,0,0,1-.53.78,5.26,5.26,0,0,1,.4-.85c.26-.51.61-1.22,1-2s.62-1.54.82-2.09A4.89,4.89,0,0,1,118.13,308.13Z" style="fill:#e0e0e0"/><path d="M49.16,327.37c-.06,0-1.89-5.47-4.09-12.26s-4-12.3-3.89-12.32,1.88,5.47,4.09,12.26S49.21,327.35,49.16,327.37Z" style="fill:#e0e0e0"/><path d="M46.24,307a2.36,2.36,0,0,1,.22.43,11.78,11.78,0,0,1,.46,1.22,15.05,15.05,0,0,1,.71,4.26,15.31,15.31,0,0,1-.53,4.29,11.55,11.55,0,0,1-.42,1.24,1.61,1.61,0,0,1-.2.44s.22-.65.48-1.72a16.59,16.59,0,0,0-.18-8.47C46.48,307.67,46.2,307,46.24,307Z" style="fill:#e0e0e0"/><path d="M38.88,310.69s.29.53.8,1.35A16.21,16.21,0,0,0,45,317.31c.82.51,1.36.77,1.35.8a1.7,1.7,0,0,1-.4-.15,9.91,9.91,0,0,1-1-.52,14.71,14.71,0,0,1-3-2.31,14.47,14.47,0,0,1-2.32-3,9,9,0,0,1-.52-1A1.7,1.7,0,0,1,38.88,310.69Z" style="fill:#e0e0e0"/><path d="M44.06,304.21a1.06,1.06,0,0,1,.15.34,9.52,9.52,0,0,1,.33,1,16.43,16.43,0,0,1,.49,6.69,9.8,9.8,0,0,1-.18,1,1.39,1.39,0,0,1-.1.36s.06-.53.14-1.38a19.49,19.49,0,0,0-.49-6.64A12.74,12.74,0,0,1,44.06,304.21Z" style="fill:#e0e0e0"/><path d="M39.37,306.73s.21.57.58,1.48a19.06,19.06,0,0,0,1.8,3.39,19.81,19.81,0,0,0,2.45,2.94c.71.68,1.19,1.06,1.16,1.09a1.88,1.88,0,0,1-.35-.24,9.12,9.12,0,0,1-.91-.75,16.46,16.46,0,0,1-2.53-2.93,16.77,16.77,0,0,1-1.76-3.44c-.17-.47-.29-.85-.36-1.12A1.23,1.23,0,0,1,39.37,306.73Z" style="fill:#e0e0e0"/><path d="M40.26,304.36s0,.36.18.93a6.73,6.73,0,0,0,.92,2.06c1,1.48,2.06,2.5,2,2.55a4.07,4.07,0,0,1-.71-.64,11.68,11.68,0,0,1-1.46-1.8,6.26,6.26,0,0,1-.89-2.14A2.39,2.39,0,0,1,40.26,304.36Z" style="fill:#e0e0e0"/><path d="M42,317.7c0-.05,1,.79,2.32,1.58s2.51,1.21,2.49,1.27a2.35,2.35,0,0,1-.8-.22,11.89,11.89,0,0,1-1.8-.87,10.9,10.9,0,0,1-1.62-1.17A2.92,2.92,0,0,1,42,317.7Z" style="fill:#e0e0e0"/><path d="M49.82,316.16a4,4,0,0,1-.2.92,20.55,20.55,0,0,1-.76,2.13,18.36,18.36,0,0,1-1,2,3.32,3.32,0,0,1-.53.78,5.26,5.26,0,0,1,.4-.85c.26-.51.61-1.22.95-2s.63-1.54.82-2.09A4.89,4.89,0,0,1,49.82,316.16Z" style="fill:#e0e0e0"/><path d="M78.23,307.6c-.06,0,.18-5.78.53-12.91s.69-12.9.75-12.9-.19,5.78-.54,12.91S78.29,307.6,78.23,307.6Z" style="fill:#e0e0e0"/><path d="M82.73,287.55a2.7,2.7,0,0,1,0,.48,9.37,9.37,0,0,1,0,1.31,15,15,0,0,1-2.87,8.05,12.35,12.35,0,0,1-.83,1,2.24,2.24,0,0,1-.34.33s.43-.53,1.05-1.43a16.57,16.57,0,0,0,2.84-8C82.72,288.24,82.69,287.56,82.73,287.55Z" style="fill:#e0e0e0"/><path d="M74.55,288.36s.08.6.27,1.54a16.18,16.18,0,0,0,3.06,6.81c.58.77,1,1.2,1,1.23a1.62,1.62,0,0,1-.31-.28,9.55,9.55,0,0,1-.78-.86,14.89,14.89,0,0,1-2-3.23,14.68,14.68,0,0,1-1.09-3.64,11.26,11.26,0,0,1-.12-1.15A1.14,1.14,0,0,1,74.55,288.36Z" style="fill:#e0e0e0"/><path d="M81.69,284.14s0,.13,0,.37,0,.6,0,1A16.56,16.56,0,0,1,79.76,292c-.21.38-.39.68-.53.88a1.3,1.3,0,0,1-.22.3s.24-.48.62-1.25a19.81,19.81,0,0,0,1.9-6.38C81.63,284.67,81.66,284.14,81.69,284.14Z" style="fill:#e0e0e0"/><path d="M76.41,284.83s0,.61,0,1.59a18.86,18.86,0,0,0,.48,3.81,18.55,18.55,0,0,0,1.25,3.62c.41.89.72,1.42.69,1.44a2.27,2.27,0,0,1-.25-.36,10.8,10.8,0,0,1-.57-1,16.07,16.07,0,0,1-1.75-7.48c0-.5,0-.9.06-1.18A3.16,3.16,0,0,1,76.41,284.83Z" style="fill:#e0e0e0"/><path d="M78.09,282.93s-.09.36-.16.93a7,7,0,0,0,.12,2.26c.4,1.73,1,3.06,1,3.1a3.67,3.67,0,0,1-.43-.86,11.27,11.27,0,0,1-.73-2.2,6.17,6.17,0,0,1-.07-2.32A2.26,2.26,0,0,1,78.09,282.93Z" style="fill:#e0e0e0"/><path d="M75,296s.63,1.09,1.6,2.29,1.92,2,1.87,2.08a3.11,3.11,0,0,1-.66-.5,11.92,11.92,0,0,1-2.48-3.11A2.62,2.62,0,0,1,75,296Z" style="fill:#e0e0e0"/><path d="M82.83,297.37a4.15,4.15,0,0,1-.51.78,20.94,20.94,0,0,1-1.47,1.72,19.75,19.75,0,0,1-1.67,1.52,3.66,3.66,0,0,1-.77.54,4.61,4.61,0,0,1,.68-.65c.42-.39,1-.93,1.61-1.56s1.13-1.22,1.5-1.66A3.92,3.92,0,0,1,82.83,297.37Z" style="fill:#e0e0e0"/><g style="opacity:.30000000000000004"><path d="M72.4,247.89a40.12,40.12,0,0,0,13.15,6.93,13.54,13.54,0,0,0,6.32.72,5.92,5.92,0,0,0,4.74-3.82c.15-.51.13-1.19-.35-1.42s-1,.23-1.49.56c-1.43,1.08-5.69,1.33-7.47,1.13-5.83-.69-9.62-2.11-14.9-4.07"/></g><path d="M110,288.47a2.55,2.55,0,0,1,.16.49c.09.32.24.8.36,1.43a29.45,29.45,0,0,1,.67,5.39,32.94,32.94,0,0,1-16.54,30,30.4,30.4,0,0,1-4.92,2.3,14.52,14.52,0,0,1-1.4.46,1.6,1.6,0,0,1-.5.12s.65-.28,1.83-.77a35.38,35.38,0,0,0,4.8-2.43,33.49,33.49,0,0,0,16.36-29.63,33.42,33.42,0,0,0-.5-5.36A18.31,18.31,0,0,1,110,288.47Z" style="fill:#263238"/><g style="opacity:.2"><path d="M110.82,295.05a14.39,14.39,0,0,1-5.08,11.44c-2.15,1.8-4.8,2.93-6.95,4.73a14,14,0,0,0-4.25,6.3c-.41,1.26-.59,2.81.33,3.78s2.83.81,4.21.23c4.51-1.91,7.72-6.14,9.45-10.73s2.15-9.54,2.45-14.44"/></g><path d="M136.12,291.35a16.18,16.18,0,0,1,.14-12.23,45.36,45.36,0,0,0-.75,6.11A45,45,0,0,0,136.12,291.35Z" style="fill:#263238"/><path d="M139.14,290.13a14.13,14.13,0,0,1-2.54-11.21,37.3,37.3,0,0,0,.59,5.76A39.38,39.38,0,0,0,139.14,290.13Z" style="fill:#263238"/><path d="M188.59,261.88s-.31-.23-.86-.5a3.45,3.45,0,0,0-2.39-.22l-.45.13.23-.41a5.76,5.76,0,0,0,.62-1.89,6.49,6.49,0,0,0-.58-3.77c-.44-.91-.91-1.35-.85-1.41a3.14,3.14,0,0,1,1.11,1.27,6.15,6.15,0,0,1,.74,4,5.89,5.89,0,0,1-.7,2l-.23-.28a3.42,3.42,0,0,1,2.61.38C188.41,261.52,188.61,261.86,188.59,261.88Z" style="fill:#aa6550"/><path d="M195.3,257.52c.93-2.28,10.25-6.3,9-7.73-1.59-1.86-9.55,4.63-10.26,5.13s-1.43-.53-.76-.94c.95-.6,10.86-7.13,9.32-9-.86-1-2.52.74-2.52.74s-8.84,6.8-9.54,5.91,4.34-5.08,6.14-6.37,1.93-2.65.73-3c-.82-.23-6.42,3.57-8.18,4.88s-6.5,5-5.58,1.25.23-7-.54-7.72-2.07.11-1.86,1.28a14.3,14.3,0,0,1-.2,3.89,13.84,13.84,0,0,1-1,3,13.12,13.12,0,0,1-4.37,5.45l9.85,11.6,1.26-.86c4.87-3.31,9.44-4.58,12.08-6.1,4.91-2.83,4.67-3.28,4.26-3.81C202.08,253.74,194.37,259.8,195.3,257.52Z" style="fill:#b78876"/><path d="M182,239.18l3.19,20.7,12.48-.2.58-3.87s7.07,0,7.62-6-5.52-6.07-5.52-6.07l.92-5.4ZM198.5,253.7,200,246s4.27-.07,3.94,3.39S198.5,253.7,198.5,253.7Z" style="fill:#455a64"/><path d="M191.28,211.31s.09.05.23.19a2.83,2.83,0,0,1,.48.69,4.94,4.94,0,0,1,.3,3.06,16.28,16.28,0,0,1-1.64,4.23,10.74,10.74,0,0,0-.85,2.45,4.81,4.81,0,0,0,.22,2.67,14.94,14.94,0,0,0,3.16,4.36,8.81,8.81,0,0,1,2.3,3.93,4.41,4.41,0,0,1-.41,3.05,2.62,2.62,0,0,1-.53.65c-.15.13-.24.18-.25.17a8.42,8.42,0,0,0,.6-.92,4.31,4.31,0,0,0,.23-2.87,8.68,8.68,0,0,0-2.3-3.69,14.78,14.78,0,0,1-3.29-4.5,5.35,5.35,0,0,1-.23-2.95,10.83,10.83,0,0,1,.92-2.55,18,18,0,0,0,1.71-4.1,5,5,0,0,0-.12-2.91C191.53,211.63,191.24,211.34,191.28,211.31Z" style="fill:#263238"/><path d="M188,211.36s.09.06.23.19a3.27,3.27,0,0,1,.49.69,5,5,0,0,1,.3,3.06,16.65,16.65,0,0,1-1.64,4.23,10.6,10.6,0,0,0-.85,2.45,4.89,4.89,0,0,0,.21,2.67,14.86,14.86,0,0,0,3.16,4.36,8.8,8.8,0,0,1,2.3,3.94,4.26,4.26,0,0,1-.41,3,2.67,2.67,0,0,1-.53.66c-.15.12-.23.18-.24.16s.29-.28.59-.91a4.32,4.32,0,0,0,.23-2.87,8.78,8.78,0,0,0-2.29-3.7,14.63,14.63,0,0,1-3.3-4.5,5.31,5.31,0,0,1-.22-2.94,10.32,10.32,0,0,1,.91-2.56,17,17,0,0,0,1.71-4.1,4.9,4.9,0,0,0-.12-2.9C188.22,211.68,187.92,211.4,188,211.36Z" style="fill:#263238"/><path d="M183.17,247.68s0-.3.43-.62a2.38,2.38,0,0,1,2-.34,6.44,6.44,0,0,1,2.51,1.7,3.86,3.86,0,0,0,3,1.41c1.18-.16,2.17-1,3.22-1.44a4.27,4.27,0,0,1,1.6-.42,3.41,3.41,0,0,1,1.43.29,3.32,3.32,0,0,1,1.53,1.36c.23.43.26.71.23.71s-.13-.23-.4-.6a3.48,3.48,0,0,0-1.5-1.13,2.93,2.93,0,0,0-1.27-.2,3.84,3.84,0,0,0-1.42.43,11.5,11.5,0,0,1-3.36,1.52,3.1,3.1,0,0,1-2-.45,7.68,7.68,0,0,1-1.4-1.13,6.48,6.48,0,0,0-2.28-1.69,2.25,2.25,0,0,0-1.81.15C183.33,247.46,183.21,247.71,183.17,247.68Z" style="fill:#fafafa"/><path d="M182.72,245s0-.32.45-.66a2.51,2.51,0,0,1,2.15-.35,6.69,6.69,0,0,1,2.66,1.81c.83.77,1.89,1.67,3.17,1.5s2.31-1,3.42-1.53a4.59,4.59,0,0,1,1.7-.46,3.61,3.61,0,0,1,3.14,1.75c.25.46.28.75.25.76a7.52,7.52,0,0,1-.42-.65,3.69,3.69,0,0,0-1.6-1.21,3.28,3.28,0,0,0-1.35-.21,4.17,4.17,0,0,0-1.52.45c-1,.47-2.07,1.4-3.57,1.61a3.23,3.23,0,0,1-2.06-.47,7.56,7.56,0,0,1-1.49-1.19,6.87,6.87,0,0,0-2.43-1.81,2.39,2.39,0,0,0-1.93.17C182.88,244.78,182.76,245,182.72,245Z" style="fill:#fafafa"/><polygon points="89.25 349.75 106.48 374.08 295.63 373.98 295.52 352.52 199.87 343.41 120.4 331.6 89.25 349.75" style="fill:#263238"/><path d="M119.66,332.31l13.43-18.54,37.84-46.72a24.63,24.63,0,0,1,20.68-7.76h0a24.67,24.67,0,0,1,20.67,16.35l25,76.24-33.1-5.19-16.82-47.17-26.52,37Z" style="fill:#263238"/><path d="M237.25,347H237l-.86-.05-3.31-.23-12.16-1-40.12-3.37-22.09-1.92c-3.39-.31-6.62-.55-9.64-.88a71.87,71.87,0,0,1-8.32-1.41,25.84,25.84,0,0,1-6.58-2.32,15.71,15.71,0,0,1-4.15-3.24,11.27,11.27,0,0,1-1.87-2.75,6.66,6.66,0,0,1-.43-1.08,13.65,13.65,0,0,0,2.45,3.69,15.66,15.66,0,0,0,4.14,3.12,25.66,25.66,0,0,0,6.52,2.22,74.16,74.16,0,0,0,8.29,1.34c3,.31,6.24.54,9.64.83l22.08,1.88,40.11,3.53,12.15,1.13,3.3.33.86.1A1,1,0,0,1,237.25,347Z" style="fill:#455a64"/><path d="M190,282.47a21,21,0,0,1-.77,2.44A37.56,37.56,0,0,0,187.38,297a18.43,18.43,0,0,1,0,2.56A9.4,9.4,0,0,1,187,297a28.71,28.71,0,0,1,.26-6.21,29.06,29.06,0,0,1,1.58-6A8.89,8.89,0,0,1,190,282.47Z" style="fill:#455a64"/><path d="M182.7,288.83a57.64,57.64,0,0,0,1.82,5.71,58,58,0,0,0,2.87,5.27,16.85,16.85,0,0,1-4.69-11Z" style="fill:#455a64"/><path d="M290.71,358.94a31.07,31.07,0,0,0-1.29,15.18,7.3,7.3,0,0,1-.6-2.2,22.38,22.38,0,0,1-.22-5.51,21.91,21.91,0,0,1,1.15-5.39A7,7,0,0,1,290.71,358.94Z" style="fill:#455a64"/><path d="M96.81,249.68s0,.08-.16.22a4.24,4.24,0,0,1-.56.54,7.24,7.24,0,0,1-2.57,1.3c-2.36.72-5.77.55-9.39,0a40.13,40.13,0,0,1-9-2.58c-1.11-.47-2-.91-2.58-1.22a4.13,4.13,0,0,1-.89-.55c0-.08,1.37.59,3.61,1.42a46.56,46.56,0,0,0,9,2.42c3.59.56,6.93.78,9.22.17A9,9,0,0,0,96.81,249.68Z" style="fill:#263238"/></g><g id="Plant"><polygon points="601.42 341.84 603.25 366.95 635.5 366.95 637.34 341.84 601.42 341.84" style="fill:#263238"/><rect width="42.88" height="9.9" x="598.3" y="331.95" style="fill:#263238"/><polygon points="598.3 365.99 598.3 368.73 600.32 368.73 640.48 368.73 640.48 365.99 598.3 365.99" style="fill:#455a64"/><polygon points="602.29 373.56 600.32 368.73 638.94 368.73 636.64 373.56 602.29 373.56" style="fill:#455a64"/><path d="M636.74,350.05l-.15.23-.48.64-1.88,2.4-.09.11-.08-.11-4.61-6.39h.26l-4.54,6.44-.15.2-.15-.19L619.48,347h.31l-.3.38-4.82,6-.16.2-.15-.21c-1.63-2.32-3.16-4.48-4.55-6.43h.27l-5.6,6.38-.1.11-.08-.13c-.73-1.24-1.32-2.22-1.75-2.94l-.45-.79a1.46,1.46,0,0,1-.14-.28,1.11,1.11,0,0,1,.19.25l.5.76c.45.7,1.07,1.67,1.84,2.89h-.18l5.51-6.46.14-.16.13.17,4.59,6.41h-.31c1.52-1.92,3.14-4,4.81-6.05l.29-.38.16-.19.15.19,5.38,6.42-.3,0c1.65-2.32,3.2-4.47,4.59-6.41l.13-.18.13.18,4.52,6.46h-.16l1.95-2.34.52-.61C636.66,350.11,636.73,350,636.74,350.05Z" style="fill:#e0e0e0"/><path d="M637.79,341.68c0,.11-8.09.2-18,.2s-18-.09-18-.2,8.08-.2,18-.2S637.79,341.57,637.79,341.68Z" style="fill:#455a64"/><path d="M639.41,369c0,.11-8.78.2-19.61.2s-19.62-.09-19.62-.2,8.78-.2,19.62-.2S639.41,368.89,639.41,369Z" style="fill:#263238"/><path d="M617.39,277.47c-2.5,3.57-7.35,2.39-9.6.21s-3.2-5.33-4.07-8.34c-2-6.87-4-14.08-2.5-21.08a11.71,11.71,0,0,1,2.69-5.73,6.12,6.12,0,0,1,5.8-1.93c2.45.64,4,3,5.07,5.32a50.19,50.19,0,0,1,5,21.57c0,3.47-.39,7.11-2.35,10" style="fill:#4263eb"/><path d="M608,295.53c-4.08-2.11-8.89-2.38-13.42-1.63-2.44.4-5,1.13-6.63,3s-2,5-.07,6.62a6.42,6.42,0,0,0,4.18,1.06c3.55,0,7.49-.67,10.32,1.47,1.62,1.21,2.69,3.24,4.63,3.84a4.58,4.58,0,0,0,5-2.24,7.88,7.88,0,0,0,.57-5.77A8.82,8.82,0,0,0,608,295.53Z" style="fill:#5c7cfa"/><path d="M624.24,282.59c-2.71-3.22-3.22-7.91-2-11.94a23.06,23.06,0,0,1,7.07-10.26A38,38,0,0,1,642,252.92a13.61,13.61,0,0,1,5.69-1,6,6,0,0,1,4.78,2.89c1.33,2.54.06,5.63-1.33,8.14a96.28,96.28,0,0,1-8.31,12.67c-2.5,3.21-5.35,6.38-9.15,7.83s-7.75,1.29-9.76-1.35" style="fill:#5c7cfa"/><path d="M617.55,331.26a8.58,8.58,0,0,1-.22-1.62c-.12-1.18-.26-2.66-.43-4.42a64.31,64.31,0,0,0-1-6.49,50.06,50.06,0,0,0-2.35-7.65,28.4,28.4,0,0,0-3.91-6.93A14.68,14.68,0,0,0,604.7,300a13.89,13.89,0,0,0-4.17-1.3,7.14,7.14,0,0,1-1.61-.23,8.3,8.3,0,0,1,1.64,0,12.44,12.44,0,0,1,4.34,1.13,14.55,14.55,0,0,1,5.22,4.14,27.7,27.7,0,0,1,4,7.06,47.91,47.91,0,0,1,2.34,7.79,55.52,55.52,0,0,1,.86,6.56c.14,1.88.19,3.4.22,4.45A7.32,7.32,0,0,1,617.55,331.26Z" style="fill:#263238"/><path d="M617.25,327.86a3.26,3.26,0,0,1,0-.76V325c0-1.86,0-4.56-.09-7.9-.17-6.66-.74-15.87-1.85-26s-2.6-19.22-3.95-25.75c-.32-1.64-.64-3.11-.94-4.4s-.54-2.41-.77-3.31-.37-1.54-.51-2.09a4.07,4.07,0,0,1-.13-.74,3.1,3.1,0,0,1,.26.7c.17.54.37,1.22.63,2.06s.56,2,.88,3.29.69,2.76,1,4.39A241.87,241.87,0,0,1,615.93,291c1.11,10.14,1.61,19.37,1.66,26.06,0,3.34,0,6-.12,7.91-.05.87-.09,1.58-.13,2.15A3.79,3.79,0,0,1,617.25,327.86Z" style="fill:#263238"/><path d="M617.21,310.05a13.85,13.85,0,0,1,0-2.25,60.72,60.72,0,0,1,.69-6.08,84.77,84.77,0,0,1,5.68-19.35,55.93,55.93,0,0,1,10.89-16.95A27.1,27.1,0,0,1,637,263c.39-.33.74-.66,1.1-.92l1-.69a16.14,16.14,0,0,1,1.89-1.21,69,69,0,0,0-6.2,5.53,59.08,59.08,0,0,0-10.61,16.89A85,85,0,0,0,620.48,293c-1,3.26-1.62,6.26-2.11,8.78s-.73,4.6-.89,6A15.43,15.43,0,0,1,617.21,310.05Z" style="fill:#263238"/></g></g></svg>