<svg xmlns="http://www.w3.org/2000/svg" viewBox="0 0 576.28 221.01"><title>Asset 1</title><g id="Layer_2" data-name="Layer 2"><g id="Layer_1-2" data-name="Layer 1"><path d="M285.11,137.34v44.1a14.37,14.37,0,0,0,14.44,14.13H457.67a14.44,14.44,0,0,0,14.45-14.44V143.87l19.69-20.69-192.21-.6A14.52,14.52,0,0,0,285.11,137.34Z" style="fill:#dce3f3"/><polygon points="448.81 149.3 305.33 148.64 305.34 144.23 448.83 144.89 448.81 149.3" style="fill:#97a4d3"/><polygon points="448.81 163.81 305.33 163.15 305.34 158.74 448.83 159.4 448.81 163.81" style="fill:#97a4d3"/><rect width="4.41" height="56.77" x="418.23" y="147.22" transform="translate(242.76 595.17) rotate(-89.72)" style="fill:#97a4d3"/><path d="M320.1,93.54v34.17a11.2,11.2,0,0,1-11.2,11.2H186.39a11.2,11.2,0,0,1-11.2-11.2V98.84l-15.25-16,148.93-.47A11.2,11.2,0,0,1,320.1,93.54Z" style="fill:#97a4d3"/><polygon points="193.25 103.05 304.43 102.54 304.42 99.12 193.24 99.64 193.25 103.05" style="fill:#4961ac"/><polygon points="193.25 114.29 304.43 113.78 304.42 110.36 193.24 110.88 193.25 114.29" style="fill:#4961ac"/><rect width="43.99" height="3.42" x="193.24" y="121.73" transform="translate(-0.6 1.06) rotate(-0.28)" style="fill:#4961ac"/><path d="M361.28,24.32a4.79,4.79,0,0,1-.64.28l-1.9.76a23.22,23.22,0,0,0-3,1.42c-.58.32-1.24.59-1.86,1s-1.3.86-2,1.32A38.5,38.5,0,0,0,343,37.7a39.17,39.17,0,0,0-6.67,14.83,41.2,41.2,0,0,0-1,9.45,42,42,0,0,0,1.52,10.18,42.62,42.62,0,0,0,1.74,5.14c.33.86.8,1.67,1.19,2.52a20.5,20.5,0,0,0,1.34,2.48,39.48,39.48,0,0,0,7.31,9.08,38.67,38.67,0,0,0,22.43,10.23A35.6,35.6,0,0,0,384,100.44a34.59,34.59,0,0,0,12.2-5.93l1.11-.86.14-.11.18,0L418.59,97l-.39.62L407.09,82.06l-.13-.19.11-.21a40.43,40.43,0,0,0,4.42-18.73,41.46,41.46,0,0,0-4-17.16,40.52,40.52,0,0,0-20.56-20A41.83,41.83,0,0,0,376.31,23a41.2,41.2,0,0,0-8.22,0l-3,.42-2.11.52-1.29.3a2.67,2.67,0,0,1-.45.09,2.62,2.62,0,0,1,.43-.15L363,23.8l2.1-.58,3-.48a40,40,0,0,1,8.29-.16,41.36,41.36,0,0,1,10.79,2.73,40.81,40.81,0,0,1,21,20.18,42,42,0,0,1,4.1,17.43A41,41,0,0,1,407.75,82l0-.4,11.13,15.5.56.78-1-.15-20.92-3.37.32-.09-1.13.88a35.38,35.38,0,0,1-12.48,6.06,36.07,36.07,0,0,1-13.43,1.18,40.21,40.21,0,0,1-30.27-19.74,19.93,19.93,0,0,1-1.36-2.53c-.4-.86-.87-1.69-1.2-2.56a43.52,43.52,0,0,1-1.75-5.24,40.07,40.07,0,0,1-.45-19.92,39.33,39.33,0,0,1,6.87-15,38,38,0,0,1,9-8.58l2.05-1.3c.63-.41,1.3-.67,1.89-1a22.73,22.73,0,0,1,3-1.36l1.93-.69A3.29,3.29,0,0,1,361.28,24.32Z" style="fill:#263238"/><path d="M380.07,55l-2.64.84-8.32-6.18-1.68-5.26s-4.16,1-1.47,7.79,1.6,5.15,1.6,5.15-8.64,2.8-9.12,3.78c-.35.72,2.16,9.39,3.56,14.08a5.31,5.31,0,0,0,5.21,3.94,4,4,0,0,0,1-.17c2.16-.69,12.63-6,12.63-6l4.55-1.46Z" style="fill:#6175b9"/><polygon points="387.16 51.17 391.3 69.72 386.79 71.17 381.13 53.5 387.16 51.17" style="fill:#6175b9"/><path d="M576.28,219c0,.15-129,.26-288.13.26S0,219.14,0,219s129-.26,288.15-.26S576.28,218.85,576.28,219Z" style="fill:#263238"/><path d="M527.52,167.23c-2.49,3.56-7.34,2.38-9.59.21s-3.2-5.33-4.07-8.34c-2-6.88-4-14.09-2.5-21.08a11.75,11.75,0,0,1,2.69-5.74,6.14,6.14,0,0,1,5.8-1.93c2.45.65,4,3.05,5.07,5.33a50.14,50.14,0,0,1,5,21.56c0,3.48-.4,7.12-2.36,10" style="fill:#4961ac"/><g style="opacity:.2"><path d="M527.52,167.23c-2.49,3.56-7.34,2.38-9.59.21s-3.2-5.33-4.07-8.34c-2-6.88-4-14.09-2.5-21.08a11.75,11.75,0,0,1,2.69-5.74,6.14,6.14,0,0,1,5.8-1.93c2.45.65,4,3.05,5.07,5.33a50.14,50.14,0,0,1,5,21.56c0,3.48-.4,7.12-2.36,10"/></g><path d="M518.17,185.28a21.67,21.67,0,0,0-13.42-1.63c-2.44.41-5,1.13-6.63,3s-2,5-.07,6.62a6.3,6.3,0,0,0,4.18,1.06c3.55,0,7.49-.66,10.32,1.47,1.62,1.22,2.69,3.25,4.63,3.84a4.58,4.58,0,0,0,5-2.23,7.88,7.88,0,0,0,.57-5.77A8.84,8.84,0,0,0,518.17,185.28Z" style="fill:#6175b9"/><path d="M534.38,172.34c-2.71-3.21-3.22-7.91-2-11.94a23,23,0,0,1,7.07-10.25,37.77,37.77,0,0,1,12.67-7.47,13.3,13.3,0,0,1,5.69-1,6,6,0,0,1,4.78,2.89c1.33,2.54,0,5.62-1.33,8.14a96.52,96.52,0,0,1-8.31,12.66c-2.5,3.22-5.35,6.39-9.15,7.84s-7.75,1.28-9.76-1.35" style="fill:#6175b9"/><path d="M527.69,221a8.21,8.21,0,0,1-.22-1.62c-.12-1.18-.26-2.66-.43-4.42a64.16,64.16,0,0,0-1-6.48,49.82,49.82,0,0,0-2.35-7.66,28.33,28.33,0,0,0-3.91-6.92,14.68,14.68,0,0,0-4.94-4.11,13.89,13.89,0,0,0-4.17-1.3,8,8,0,0,1-1.61-.23,6.94,6.94,0,0,1,1.64,0,12.66,12.66,0,0,1,4.34,1.13,14.59,14.59,0,0,1,5.21,4.15,27.72,27.72,0,0,1,4.06,7.06,47.81,47.81,0,0,1,2.34,7.78,55.4,55.4,0,0,1,.86,6.57c.14,1.88.19,3.4.22,4.45A7.13,7.13,0,0,1,527.69,221Z" style="fill:#263238"/><path d="M527.39,217.61a3.13,3.13,0,0,1,0-.75v-2.15c0-1.87,0-4.57-.09-7.9-.17-6.67-.74-15.87-1.85-26s-2.6-19.22-3.95-25.76c-.32-1.63-.64-3.11-.94-4.4s-.54-2.4-.77-3.31-.37-1.54-.51-2.09a3.93,3.93,0,0,1-.13-.74,3.71,3.71,0,0,1,.26.71c.17.54.37,1.22.63,2.06s.56,2,.88,3.29.69,2.75,1,4.39a244,244,0,0,1,4.15,25.78c1.11,10.14,1.61,19.37,1.66,26.05,0,3.34,0,6-.12,7.92-.05.87-.1,1.58-.13,2.14A3.63,3.63,0,0,1,527.39,217.61Z" style="fill:#263238"/><path d="M527.34,199.81a16.79,16.79,0,0,1,0-2.25,60.4,60.4,0,0,1,.69-6.08,84.64,84.64,0,0,1,5.68-19.36,56.18,56.18,0,0,1,10.89-17,26.89,26.89,0,0,1,2.56-2.38c.39-.33.74-.66,1.09-.93l1-.68a13.08,13.08,0,0,1,1.89-1.21,69,69,0,0,0-6.2,5.53,58.94,58.94,0,0,0-10.61,16.89,83.78,83.78,0,0,0-3.73,10.39c-1,3.26-1.62,6.25-2.11,8.78s-.73,4.59-.89,6A13.2,13.2,0,0,1,527.34,199.81Z" style="fill:#263238"/><path d="M226.6,82.65s-1.22-2.77-1.45-3.38c-.62-1.67-4.63-12.81-3.67-14.5,4.44-7.8,7.89-13.35,16.66-13.35l15.49-.1s14.68-3,25,30.39Z" style="fill:#4961ac"/><path d="M193.93,85.45l20.28-4.37,23.84-12.54.09-17.12c-3.58-1-10.42,1.5-22.75,7.78l-18.31,9.45a10.84,10.84,0,0,0-3.15,16.8Z" style="fill:#4961ac"/><path d="M239.57,118.57c-.29-1-.09-1.58,1.31-1.11,3.1,1,5.86.7,6.53.1s.06-1.75-.95-1.65a12.28,12.28,0,0,1-3.26-.45,8,8,0,0,1-2.43-1c-.64-.41-1.2-.79-1.69-1.15,0,0-2.86-2.06-3.75-3.72l-9.79,4.2,1.58,4.9a5.17,5.17,0,0,0,3.31,3.8,23.55,23.55,0,0,0,7.25.57c.81-.54,4,4,4.91,5.63s2.09,1.81,2.46.82c.25-.67-2.54-5.66-3.52-7.23a18.53,18.53,0,0,1-2-3.68" style="fill:#ce8e77"/><path d="M232.94,123s-.24,0-.57-.14a2.43,2.43,0,0,1-1-1,2.41,2.41,0,0,1-.31-1.39c0-.37.14-.58.18-.56a4.32,4.32,0,0,0,.4,1.8A4.18,4.18,0,0,0,232.94,123Z" style="fill:#b26753"/><path d="M236,123.16s-.24,0-.55-.15a2.49,2.49,0,0,1-1-1,2.42,2.42,0,0,1-.3-1.34c0-.36.13-.55.16-.54a4.72,4.72,0,0,0,.41,1.73A4.65,4.65,0,0,0,236,123.16Z" style="fill:#b26753"/><path d="M193.35,84.79s31.07,35.7,31,35.12,13.93-11,13.93-11L207.85,72.59Z" style="fill:#4961ac"/><path d="M212.2,77.77a1,1,0,0,1,.21.21l.58.64L215.08,81c1.75,2,4.16,4.89,6.8,8s5,6,6.73,8.09l2,2.48.53.68c.12.16.18.24.17.25s-.08-.06-.22-.21l-.58-.64-2.08-2.41c-1.76-2-4.16-4.89-6.8-8s-5-6-6.74-8.08l-2-2.48-.53-.68A1.29,1.29,0,0,1,212.2,77.77Z" style="fill:#263238"/><path d="M267.16,81.88a10.34,10.34,0,0,0,.37-2.29,6.73,6.73,0,0,0-.4-2.45,6.91,6.91,0,0,0-1.63-2.55c-.75-.8-1.56-1.48-2.21-2.2a6.76,6.76,0,0,1-1.4-2.17,3.77,3.77,0,0,1-.25-1.72,1.68,1.68,0,0,1,.16-.62,4.37,4.37,0,0,0,.3,2.26,6.92,6.92,0,0,0,1.39,2.06c.65.69,1.46,1.36,2.24,2.17a7.19,7.19,0,0,1,1.67,2.68,6.94,6.94,0,0,1,.35,2.55,6.5,6.5,0,0,1-.32,1.71A1.76,1.76,0,0,1,267.16,81.88Z" style="fill:#263238"/><path d="M225.25,54.4l.46-.21c.3-.13.75-.3,1.34-.49a11,11,0,0,1,2.23-.45,7.38,7.38,0,0,1,3,.28,6.91,6.91,0,0,1,3.07,2,8.17,8.17,0,0,1,1.84,3.75,14.4,14.4,0,0,1,.3,4.62,10.11,10.11,0,0,1-1.72,4.66,12.78,12.78,0,0,1-3.72,3.3c-1.36.85-2.73,1.55-4,2.24l-6.9,3.62-4.67,2.42-1.27.64a2.59,2.59,0,0,1-.46.21,3,3,0,0,1,.43-.26l1.25-.7L221,77.5l6.87-3.68c1.29-.69,2.66-1.4,4-2.25a12.49,12.49,0,0,0,3.63-3.22,9.89,9.89,0,0,0,1.67-4.51,14.38,14.38,0,0,0-.27-4.52,8,8,0,0,0-1.76-3.65,6.81,6.81,0,0,0-2.94-1.94,7.62,7.62,0,0,0-2.92-.31,12.32,12.32,0,0,0-2.21.39c-.59.17-1.05.33-1.35.44A2.6,2.6,0,0,1,225.25,54.4Z" style="fill:#263238"/><path d="M215.61,81a15.86,15.86,0,0,0-1.73-4.14,16.07,16.07,0,0,0-3.07-3.28,4,4,0,0,1,1.14.71,10.08,10.08,0,0,1,2.19,2.4,10.29,10.29,0,0,1,1.3,3A3.78,3.78,0,0,1,215.61,81Z" style="fill:#263238"/><path d="M261.28,77.16a4.1,4.1,0,0,1-.66.18,6.39,6.39,0,0,1-2,.08,7.1,7.1,0,0,1-2.94-1A6.8,6.8,0,0,1,253,73.4a7.2,7.2,0,0,1-.38-4.93,4.06,4.06,0,0,1,1.64-2.27,2,2,0,0,1,1.48-.3,2.12,2.12,0,0,1,1.29.85,7.17,7.17,0,0,1,.7,6.18A7.36,7.36,0,0,1,256,75.81a6.69,6.69,0,0,1-3,1.71,6.91,6.91,0,0,1-6.46-1.5,6.8,6.8,0,0,1-1.93-5.89,5.85,5.85,0,0,1,1.18-2.73,3,3,0,0,1,1.16-.88,1.89,1.89,0,0,1,1.42,0,2.62,2.62,0,0,1,1.51,2.11,4.38,4.38,0,0,1-.47,2.37,11.36,11.36,0,0,1-2.46,3.29,12.06,12.06,0,0,1-2.53,1.79,11,11,0,0,1-1.81.75l-.49.14-.17,0s0,0,.16-.07.27-.08.48-.16a12.35,12.35,0,0,0,4.24-2.62,11.28,11.28,0,0,0,2.39-3.25,4.31,4.31,0,0,0,.43-2.25,2.39,2.39,0,0,0-1.38-1.9,1.64,1.64,0,0,0-1.23,0,2.64,2.64,0,0,0-1,.82,5.59,5.59,0,0,0-1.11,2.6,6.52,6.52,0,0,0,1.86,5.62,6.61,6.61,0,0,0,6.17,1.42,6.36,6.36,0,0,0,2.88-1.63,6.92,6.92,0,0,0,1.69-2.75,7.54,7.54,0,0,0,.34-3.11,6.29,6.29,0,0,0-.32-1.49,4.23,4.23,0,0,0-.65-1.31,1.9,1.9,0,0,0-1.12-.76,1.78,1.78,0,0,0-1.29.26,3.8,3.8,0,0,0-1.53,2.11,7,7,0,0,0,.33,4.77,6.54,6.54,0,0,0,2.61,3,7,7,0,0,0,2.87,1A8,8,0,0,0,261.28,77.16Z" style="fill:#fafbfb"/><path d="M263.62,42.39a7,7,0,0,1-1.38-2.75,1.93,1.93,0,0,1,0-1,.78.78,0,0,1,.75-.57c.35,0,.58.36.77.65a15.59,15.59,0,0,1,1.43,2.71,2,2,0,0,1,.16.83.82.82,0,0,1-.4.7.86.86,0,0,1-.87-.12,2.53,2.53,0,0,1-.6-.7" style="fill:#b26753"/><path d="M265.11,41.74l-1.53-3.21a2.51,2.51,0,0,1-.32-1,.87.87,0,0,1,.49-.86.85.85,0,0,1,.85.22,2.39,2.39,0,0,1,.52.76l.72,1.4a4.31,4.31,0,0,1,.48,1.2,1.57,1.57,0,0,1-.24,1.23,1,1,0,0,1-1.16.27" style="fill:#b26753"/><path d="M258.3,51.67s-2.13-2.76-2.32-4.22,1.59-4,5.42-4.62a9.52,9.52,0,0,0,3.94-1.35,1.24,1.24,0,0,0,.45-1.5,22.48,22.48,0,0,1-1.34-3.79c.18-.78.69-.77,2,1.17s2.86,3.91,2.56,4.8-5,3.65-5,3.65l1.27,2.06Z" style="fill:#ce8e77"/><path d="M271,80.09l-14.7-28.8L265.73,46l19.89,31.53s1.05,2,2.52,4.37H271.47" style="fill:#4961ac"/><path d="M265.58,46s-.05.05-.16.12l-.5.3L263,47.51l-6.84,3.89.05-.17c1.43,2.91,3.29,6.28,5.17,10,2.79,5.42,5.2,10.39,6.89,14,.85,1.81,1.52,3.28,2,4.3.21.49.39.88.52,1.18a2.66,2.66,0,0,1,.16.42,2.14,2.14,0,0,1-.22-.4l-.57-1.15c-.5-1-1.2-2.48-2.07-4.25-1.74-3.59-4.18-8.54-7-14-1.87-3.66-3.72-7-5.12-10l-.06-.12.11-.06,6.89-3.8,1.94-1,.52-.27Z" style="fill:#263238"/><path d="M226.6,82.65A12.62,12.62,0,0,1,225,79.39a12.37,12.37,0,0,1-.88-3.51c.09,0,.49,1.55,1.17,3.41S226.68,82.61,226.6,82.65Z" style="fill:#263238"/><path d="M259,40.19a5.82,5.82,0,0,0,6.86-8.8c3.32-.84,5.39-4.67,4.72-8a9.07,9.07,0,0,0-7-6.7,7.4,7.4,0,0,0-3.88.1,4.74,4.74,0,0,0-2.9,2.48" style="fill:#263238"/><path d="M258.52,32.68a10.94,10.94,0,0,0-1.13.48,5,5,0,0,0-2.22,2.39,4.77,4.77,0,0,0-.42,2.21,5,5,0,0,0,.79,2.46A4.85,4.85,0,0,0,257.7,42a4.87,4.87,0,0,0,5.62-1.28,4.62,4.62,0,0,0,.78-1.24,4.33,4.33,0,0,0,.38-1.35,4.91,4.91,0,0,0-.36-2.55,4.86,4.86,0,0,0-1.34-1.82,4.94,4.94,0,0,0-3-1.18,10.11,10.11,0,0,0-1.23.06,1.31,1.31,0,0,1,.31-.09,4,4,0,0,1,.92-.09,5,5,0,0,1,3.17,1.14,5,5,0,0,1,1.44,1.88,5.11,5.11,0,0,1,.4,2.69,4.62,4.62,0,0,1-.39,1.43,4.93,4.93,0,0,1-.82,1.32,5.16,5.16,0,0,1-6,1.36,4.94,4.94,0,0,1-1.31-.83,4.89,4.89,0,0,1-1-1.12,5.11,5.11,0,0,1-.81-2.6,5.1,5.1,0,0,1,2.84-4.72,4,4,0,0,1,.87-.32Z" style="fill:#e7515b"/><path d="M261,23.54a5.84,5.84,0,0,0,5.2-4.28A5.87,5.87,0,0,0,263.71,13a7.26,7.26,0,0,0-2.3-7.94,7.26,7.26,0,0,0-8.26-.34,9.4,9.4,0,0,0-17.37,2.78,9.33,9.33,0,0,0-10.06,2.15,9.32,9.32,0,0,0-1.58,10.17,7.3,7.3,0,0,0-6.41,7.6,7.32,7.32,0,0,0,7.6,6.41,6.2,6.2,0,0,0,9.4,7,6.78,6.78,0,0,0,12.2-1.4" style="fill:#263238"/><path d="M254.06,50.73c.12-2.82.27-5.38.27-5.38s6.31-.79,6.58-7.23-.37-21.26-.37-21.26l-11.61-5.58L236.44,21.35l2,29.56a7.84,7.84,0,0,0,8.18,7.32h0A7.85,7.85,0,0,0,254.06,50.73Z" style="fill:#ce8e77"/><path d="M260.23,27.89c-.1.1-.7-.4-1.57-.44s-1.5.41-1.6.29.06-.25.34-.45a2,2,0,0,1,1.28-.37,2.05,2.05,0,0,1,1.25.48C260.19,27.63,260.28,27.84,260.23,27.89Z" style="fill:#263238"/><path d="M250.66,27.89c-.1.1-.71-.4-1.57-.44s-1.51.41-1.6.29.06-.25.34-.45a2,2,0,0,1,1.28-.37,2.05,2.05,0,0,1,1.25.48C250.62,27.63,250.71,27.84,250.66,27.89Z" style="fill:#263238"/><path d="M253.9,34.38a5.19,5.19,0,0,1,1.41-.22c.22,0,.43,0,.47-.21a1.2,1.2,0,0,0-.14-.71c-.19-.58-.4-1.19-.62-1.82a32.2,32.2,0,0,1-1.39-4.77,32.1,32.1,0,0,1,1.74,4.64l.6,1.84a1.44,1.44,0,0,1,.1.93.53.53,0,0,1-.37.33,1.3,1.3,0,0,1-.37,0A5.37,5.37,0,0,1,253.9,34.38Z" style="fill:#263238"/><path d="M254.33,45.35A15.28,15.28,0,0,1,246,42.62s2,4.69,8.24,4.32Z" style="fill:#b26753"/><path d="M245.37,11.64a8.51,8.51,0,0,0,.11,9.84,4.93,4.93,0,0,0,3.9,2.18c1.55-.06,3.05-1.52,2.72-3a3.2,3.2,0,1,0,6.13.11,5.69,5.69,0,0,0,.72,2,2,2,0,0,0,1.78.94c1-.13,1.53-1.17,1.75-2.13a8.68,8.68,0,0,0-2.48-8,10.54,10.54,0,0,0-8-2.82,13.42,13.42,0,0,0-7.9,3.45" style="fill:#263238"/><path d="M246.19,13.91a15.06,15.06,0,0,1,1.29,5.78,7.74,7.74,0,0,1-2.09,5.42,5.26,5.26,0,0,1-5.47,1.32,6.12,6.12,0,0,1-.8,5.14,3.9,3.9,0,0,1-4.77,1.25c-1.42-.78-2-2.5-2.24-4.11A13.17,13.17,0,0,1,246.44,14" style="fill:#263238"/><path d="M238.22,29.25a2.27,2.27,0,0,0-2.71.65A3.7,3.7,0,0,0,239.19,36" style="fill:#ce8e77"/><path d="M238,34.05s-.29.08-.73,0A1.94,1.94,0,0,1,236,32.82a1.4,1.4,0,0,1,0-1,1.47,1.47,0,0,1,.53-.63c.4-.27.7-.26.7-.22s-.25.12-.57.39a1.29,1.29,0,0,0-.41,1.39,2,2,0,0,0,1.11,1.08C237.76,34,238,34,238,34.05Z" style="fill:#b26753"/><path d="M251.19,25.2c-.08.25-1,.16-2.14.21s-2.06.19-2.15-.05.81-.84,2.11-.88S251.28,25,251.19,25.2Z" style="fill:#263238"/><path d="M260.21,25c-.1.09-.29,0-.52,0a2.4,2.4,0,0,0-.79,0,7.14,7.14,0,0,1-1,.09c-.29,0-.49-.06-.52-.19s.09-.28.33-.44a2.5,2.5,0,0,1,1.09-.38,1.47,1.47,0,0,1,1.25.44C260.29,24.72,260.3,24.94,260.21,25Z" style="fill:#263238"/><path d="M252.4,36A1.93,1.93,0,0,1,254,35.8a1.22,1.22,0,0,1,.81,1.32,1.37,1.37,0,0,1-.52.75,1.72,1.72,0,0,1-1.35.32,1.28,1.28,0,0,1-1-.91,1.07,1.07,0,0,1,.52-1.21" style="fill:#b26753"/><path d="M255.56,36.71s-.2.18-.62.27a2.8,2.8,0,0,1-2.89-1.2c-.23-.36-.28-.62-.25-.63s.17.2.42.5a3.52,3.52,0,0,0,1.21.89,3.21,3.21,0,0,0,1.48.23A3.3,3.3,0,0,1,255.56,36.71Z" style="fill:#263238"/><path d="M242.5,39.78s0-.44-.22-1.21a5,5,0,0,0-1.83-2.69,4.89,4.89,0,0,0-2.07-.91,5,5,0,0,0-2.57.23,4.48,4.48,0,0,0-1.23.67,4.58,4.58,0,0,0-1,1,4.84,4.84,0,0,0,0,5.76,4.42,4.42,0,0,0,1,1,4.48,4.48,0,0,0,1.23.67,4.86,4.86,0,0,0,2.57.22,5,5,0,0,0,2.07-.9A5.09,5.09,0,0,0,242.28,41c.2-.77.18-1.22.22-1.22a1.64,1.64,0,0,1,0,.33,4,4,0,0,1-.11.91,5.07,5.07,0,0,1-4,3.82,5.08,5.08,0,0,1-2.71-.2,5.18,5.18,0,0,1-2.41-1.8,5.14,5.14,0,0,1,0-6.12,5.17,5.17,0,0,1,1.1-1.09,5,5,0,0,1,1.31-.7,5.11,5.11,0,0,1,4.87.77,5,5,0,0,1,1.82,2.84,4.19,4.19,0,0,1,.11.92A1.57,1.57,0,0,1,242.5,39.78Z" style="fill:#e7515b"/><path d="M260.2,11l.16,0a1.57,1.57,0,0,1,.41.26,1.89,1.89,0,0,1,.52,1.69,2.41,2.41,0,0,1-2,1.78,5,5,0,0,1-3.39-.81l-1.2-.69,1.31.43a1.41,1.41,0,0,1,.89,1,1.78,1.78,0,0,1-.19,1.38,2,2,0,0,1-1.17.84,2.82,2.82,0,0,1-1.47,0,5,5,0,0,1-2.53-2.18l-.84-1.22,1.07,1a2.31,2.31,0,0,1,.57,2.19,2.36,2.36,0,0,1-1.28,1.63,3.09,3.09,0,0,1-3.3-.4,4,4,0,0,1-1.39-2.44c0-.14,0-.21,0-.21s.06.28.25.76a3.93,3.93,0,0,0,1.27,1.74,2.91,2.91,0,0,0,3.06.32,2.15,2.15,0,0,0,1.13-1.46,2,2,0,0,0-.51-1.91l.23-.19a4.83,4.83,0,0,0,2.36,2,2,2,0,0,0,2.3-.66,1.38,1.38,0,0,0-.53-2l.12-.26a4.77,4.77,0,0,0,3.21.82,2.25,2.25,0,0,0,1.88-1.57,1.8,1.8,0,0,0-.42-1.59A2,2,0,0,0,260.2,11Z" style="fill:#455b64"/><path d="M244.76,21.33s0,0-.07.11l-.27.29a3.81,3.81,0,0,1-1.3.77,3.76,3.76,0,0,1-2.34,0,3.92,3.92,0,0,1-2.3-2l.24,0a3.75,3.75,0,1,1-6.3-3.29l.2.22a3.91,3.91,0,0,1-2.44.88,4.21,4.21,0,0,1-2.29-.63,3.49,3.49,0,0,1-1.37-1.6,4.05,4.05,0,0,1-.28-1.8,3.93,3.93,0,0,1,.95-2.35,2.49,2.49,0,0,1,.7-.59s-.26.2-.62.65a4,4,0,0,0-.85,2.3,3.92,3.92,0,0,0,.31,1.7,3.23,3.23,0,0,0,1.3,1.48,3.93,3.93,0,0,0,2.14.56,3.59,3.59,0,0,0,2.25-.83l.2.22a3.59,3.59,0,0,0-.73,3.9,3.53,3.53,0,0,0,3.87,2,3.6,3.6,0,0,0,2.71-2.82l.07-.41.17.38a3.73,3.73,0,0,0,2.13,1.9,3.64,3.64,0,0,0,2.24,0,4.07,4.07,0,0,0,1.29-.69A4,4,0,0,1,244.76,21.33Z" style="fill:#455b64"/><path d="M233.27,31.63a1.34,1.34,0,0,1-.5.3A3.42,3.42,0,0,1,229,31.1a3.58,3.58,0,0,1-.87-3l.27.12A6,6,0,0,1,226.17,30a4.75,4.75,0,0,1-2.11.45,4.29,4.29,0,0,1-1.94-.54,3.41,3.41,0,0,1-1.85-2.74,3.25,3.25,0,0,1,.6-2.17,2.36,2.36,0,0,1,.43-.45c.11-.08.18-.12.18-.11s-.22.19-.52.62a3.29,3.29,0,0,0-.47,2.09,3.23,3.23,0,0,0,1.76,2.51,4.2,4.2,0,0,0,3.79.06,5.75,5.75,0,0,0,2.07-1.68l.37-.49-.11.61a3.34,3.34,0,0,0,.77,2.74,3.2,3.2,0,0,0,2,1.07,3.59,3.59,0,0,0,1.55-.16C233.08,31.72,233.26,31.61,233.27,31.63Z" style="fill:#455b64"/><path d="M266.09,19.08a2,2,0,0,1,.13,1.07,3.85,3.85,0,0,1-3.39,3.54,2,2,0,0,1-1.08-.08c0-.05.42,0,1-.13A4,4,0,0,0,266,20.13C266.1,19.49,266,19.09,266.09,19.08Z" style="fill:#455b64"/><path d="M269.63,25.15s.1.14.15.44a2.48,2.48,0,0,1-.12,1.27,2,2,0,0,1-1.4,1.29,2.1,2.1,0,0,1-1.18-.1,1.66,1.66,0,0,1-.92-.9l.29-.1a1.82,1.82,0,0,1,.07.57,2.31,2.31,0,0,1-1.45,2.07,1.89,1.89,0,0,1-1.15,0,2.14,2.14,0,0,1-.87-.47,2.11,2.11,0,0,1-.7-1.22,1,1,0,0,1,0-.51s0,.18.1.48a2.17,2.17,0,0,0,.73,1.08,1.79,1.79,0,0,0,1.78.33,2,2,0,0,0,1.25-1.8,2.42,2.42,0,0,0-.06-.48l.29-.1a1.56,1.56,0,0,0,1.75.84,1.81,1.81,0,0,0,1.27-1.1,2.86,2.86,0,0,0,.2-1.18A3.68,3.68,0,0,1,269.63,25.15Z" style="fill:#455b64"/><path d="M252,33.76s.07.13,0,.33a1.34,1.34,0,0,1-1.15.95c-.2,0-.32,0-.32-.08s.45-.13.85-.46S251.87,33.74,252,33.76Z" style="fill:#263238"/></g></g></svg>