<svg xmlns="http://www.w3.org/2000/svg" viewBox="0 0 968.27 1008.3"><title>Asset 1</title><g id="Layer_2" data-name="Layer 2"><g id="Black"><g id="Cat"><path d="M415,45.42c1-.2,1.64-.33,2-.38l1.36-.15a12.13,12.13,0,0,0-1.72-4.64A7.91,7.91,0,0,0,413,37.11a8.88,8.88,0,0,0-4.61-.7,8.52,8.52,0,0,0-5.69,3.42,10.77,10.77,0,0,0-2.12,7.52L412,46C412.7,45.86,413.73,45.69,415,45.42Z"/><path d="M717.09,130.91a6.22,6.22,0,0,0-2.89,2.43,4.38,4.38,0,0,0,1,6.11A7.84,7.84,0,0,0,720,141c2.19-.05,3.63-.31,4.31-.77s2-2.15,4.05-5.09a37.57,37.57,0,0,0,2.07-3.37,32.64,32.64,0,0,0-6.94-1.31A14.73,14.73,0,0,0,717.09,130.91Z"/><path d="M662.37,55.76A31.09,31.09,0,0,0,642.85,46c-.42.83-.7,1.42-.85,1.78l-2.8,7.1L636.68,61c-.76,2-1.44,3.78-2.06,5.27l-1.71,3.9-2.57,6.66-1.81,4q-2.32,5.68-.79,8.69,2.25,4.32,8.3,6.81a23.17,23.17,0,0,0,7.12,2,20.61,20.61,0,0,0,9-1.22,18,18,0,0,0,7.12-5.73A38.21,38.21,0,0,0,664.69,82q3.43-8.39,2.61-14.92A21.11,21.11,0,0,0,662.37,55.76Z"/><path d="M502.73,43.54q1.47,0,2.07,0l1.35.12a12,12,0,0,0-.81-4.89,7.9,7.9,0,0,0-3-3.78,8.87,8.87,0,0,0-4.39-1.55,8.48,8.48,0,0,0-6.24,2.28,10.83,10.83,0,0,0-3.5,7l11.45.78C500.35,43.53,501.39,43.55,502.73,43.54Z"/><path d="M200.15,128.7c.73-.64,1.26-1.09,1.58-1.32l1.12-.78a12.15,12.15,0,0,0-3.76-3.23,7.82,7.82,0,0,0-4.77-.94,8.81,8.81,0,0,0-4.36,1.62,8.49,8.49,0,0,0-3.32,5.75,10.81,10.81,0,0,0,1.8,7.61l9.28-6.75C198.31,130.22,199.12,129.57,200.15,128.7Z"/><path d="M821.22,206c.69.69,1.16,1.19,1.42,1.5s.48.58.85,1.06a12,12,0,0,0,3-4,7.88,7.88,0,0,0,.64-4.81,9,9,0,0,0-1.9-4.26,8.54,8.54,0,0,0-6-2.94,10.81,10.81,0,0,0-7.48,2.28l7.32,8.83C819.58,204.22,820.28,205,821.22,206Z"/><path d="M551.65,41.08a12.2,12.2,0,0,0-4.26,0,8.13,8.13,0,0,0-3.56,1.45,13.58,13.58,0,0,0-3.56,3.92,18.83,18.83,0,0,0-2.45,6.22q-1.29,7.19,1.44,11.62a13.56,13.56,0,0,0,8.13,6c.68.18,1.27.32,1.76.41a11.68,11.68,0,0,0,3.6,0A22.57,22.57,0,0,0,557,69.61c.21-1,.33-1.57.37-1.8q2.52-14,2.59-17a9,9,0,0,0-2.2-6.51A10.43,10.43,0,0,0,551.65,41.08Z"/><path d="M968.19,496.84C965.77,367.2,921.2,254,832.62,159c-72.77-78-161.56-129.35-266.53-148.89C395.44-21.68,245.26,21.53,118,140.26,67.05,187.74,29.24,244.67,2.46,308.9c-.85,2-1.66,4.09-2.4,6.18a9.21,9.21,0,0,0,.13,2.45c25.17,9.07,49.58,7.35,73.05-6.13,13.53-7.77,23.34-19.12,31.6-32.27C164.78,183.7,248.62,119,358,91.87c148.25-36.81,281.45-3.75,395,98.66C830.45,260.39,875.3,349,887.18,453c13.07,114.48-16.53,217.62-85.8,309.52-1.28,1.71-2.86,3.2-4.43,4.94C745.36,710.3,678,694.22,605.41,692c-42.77-1.33-84.92,4.78-127.21,10.63-21.31,2.94-43.59.93-65.23-1.08-36-3.35-71-11.43-103.51-28.18C297,666.45,291,663,278.81,646.25c-1.54-2.13-2.8-4.46-3.76-6,21.08,10.11,27,11.14,48,19.31,23.57,10,48.43,16,74.28,15.12,42.71-1.44,56.31-22.47,75.13-60,4.54-9,4.89-15.61-3-23-10.22-9.65-10.69-22.21-11.75-36.77-.45-6.25,2.09-12.13,3.56-18.18,14.68-60.74-6.17-107.82-53.5-136-8.78-5.22-17.67-10.84-27.26-14-26.46-8.61-40.84-28.38-50.74-52.42-4.39-10.66-7.24-22-10.78-33-24.48,9.93-44.36,50.88-37.15,77-12.61-.56-29.78-13.5-30.45-29.68a99,99,0,0,1,7.56-42.5c-17.42,9.06-32.55,17.68-45,29.25-46.25,42.85-79.33,95-107.75,151.58C49.3,600.23,55.75,710.45,125.34,816c72.14,109.41,174.26,172.47,304.17,189.16,71.8,9.22,141.08-2.19,207.87-30.27,48.68-20.47,95.34-44.17,137.08-76.94q115-90.27,164.51-227.72C959.05,614.2,969.3,556.32,968.19,496.84ZM138.35,219.59q-3.24,4-5.76,6.67t-8.45,10.05q-.94,1.19-5.1,7.26c-1.1,1.57-1.83,2.58-2.19,3-.37-.25-.66-.44-.87-.56l-.84-.61-.28-.22a7.43,7.43,0,0,1,1.1-4.47,41.9,41.9,0,0,0,2.94-6.92,5.23,5.23,0,0,0-1.38-1.88q-4-3.63-13.19-11L90.9,210.56a63.54,63.54,0,0,0-6.83-5.06,1,1,0,0,0-.69-.1,1.21,1.21,0,0,0-.63.39q-1.11,1.11-6.48,7.83-3,3.7-3.33,5.46-.47,2.4.73,8.89c.23,1.25.22,2,0,2.35a11.39,11.39,0,0,1-3.22,1.22A81,81,0,0,0,64,220.88q-1.5-2.24-2-3.06l2-2.44.88.06a16.18,16.18,0,0,0,3.59.09q.51-.42,4.4-5.3c1.62-2,3-3.82,4.28-5.41l.55-.85,3.76-4.78,7.13-8.86,9.69-12.15,1.57-2.55a5,5,0,0,0-.83-2.46L98.43,172l1.35-1.75c.2-.27.53-.65,1-1.16q2.46,1.9,7.34,5.79l3.15,2.46,1.76,1.47a9,9,0,0,1,1.46,1.41,19.74,19.74,0,0,1-1.7,3.28,28.3,28.3,0,0,1-5.75-.94,19.33,19.33,0,0,0-4.09-.77,2.93,2.93,0,0,0-1.47.62q-.93.81-6.85,8.22c-.59.73-1.27,1.69-2.06,2.87a19.89,19.89,0,0,0,2.09,2l4.74,3.72,10.32,8.23,11.22,8.77,4.54,3.68a13.54,13.54,0,0,0,4,2.44,13.79,13.79,0,0,0,2.31-2c.19-.19,1.16-1,2.9-2.47a21.81,21.81,0,0,1,2.23-1.65,17.15,17.15,0,0,1,1.7,1,6,6,0,0,1,.82.84C139,218.74,138.64,219.22,138.35,219.59Zm51.85-51.35c-.36.35-1.13,1-2.29,1.9-2.22,1.75-4,3.28-5.42,4.59q-1.37,1.28-3.51,3.53c-1,1.06-2.39,2.36-4.06,3.92a3.59,3.59,0,0,1-.82.59l-.74-.79-.47-.35a2.79,2.79,0,0,1-.49-.9,8.75,8.75,0,0,1,1.52-2.31c.67-.78,1.3-1.52,1.88-2.23l-.56-1L171,170.28l-7.53-8a23.28,23.28,0,0,0-5-4.42,5.25,5.25,0,0,0-3.77-.35,9.15,9.15,0,0,0-4.13,2.36A15,15,0,0,0,147,165a20.61,20.61,0,0,0-1.59,5.77l5.37,5.74q4.42,4.72,6.54,7.16c.84,1,1.38,1.59,1.6,1.83a13.51,13.51,0,0,0,3.25,2.81,2,2,0,0,0,1.48,0c1-.78,1.76-1.45,2.37-2a9.84,9.84,0,0,1,1.59-1.21c.55.49.93.85,1.13,1.06a6.9,6.9,0,0,1,.88,1.24l-4.22,3.68c-1.64,1.35-3.07,2.59-4.3,3.74l-4.94,5.06-3.64,3.34a7.88,7.88,0,0,1-2.3-.92l-.4-.42c.31-.46,1.27-1.61,2.9-3.46a3.46,3.46,0,0,0,1-1.83,6.36,6.36,0,0,0-1.81-2.67l-2.18-2.33-2.2-2.56L145,186.31l-.57-.69L142.87,184l-.45-.63-11-12-.86-.92q-5.72-6.09-7.43-7.19a3,3,0,0,0-2.3-.37,17.61,17.61,0,0,0-4.74,2.71l-.64-.69c-.31-.33-.66-.75-1.07-1.28l2.54-3.49c.48-.72.94-1.41,1.4-2a40.76,40.76,0,0,0,3.66-6.51c.19-.54.38-1,.57-1.45l2.12-1.73L143,168.05a35.6,35.6,0,0,1,3-9,23.24,23.24,0,0,1,4.8-6.34,16.63,16.63,0,0,1,5.74-3.68,11.85,11.85,0,0,1,5.29-.77,10.63,10.63,0,0,1,4.64,1.72,31.68,31.68,0,0,1,4.93,4.61l2,2.1,4.36,4.58,6.08,6.87a1.22,1.22,0,0,0,.7.08,21.61,21.61,0,0,0,2.6-1.57c.76-.51,1.37-.89,1.82-1.15a2.18,2.18,0,0,1,1,.51l.21.29a7.39,7.39,0,0,0,.93,1.14Zm29.11-23a27.62,27.62,0,0,1-7.4,7.89,26.74,26.74,0,0,1-5.59,3.35,20.57,20.57,0,0,1-6.37,1.63,17.84,17.84,0,0,1-6.22-.55,18.48,18.48,0,0,1-5.37-2.35,17,17,0,0,1-4.27-3.67,32.45,32.45,0,0,1-3.63-6.1,18.59,18.59,0,0,1-1.15-5.46,24.41,24.41,0,0,1,1.41-8.2,20.37,20.37,0,0,1,3-5.63,22.76,22.76,0,0,1,3.82-3.89,36.26,36.26,0,0,1,6.54-4,16,16,0,0,1,5-1.4,23.65,23.65,0,0,1,5.75.16,15,15,0,0,1,4.75,1.74,15.46,15.46,0,0,1,4.44,4l-4.54,3.25q-1.86,1.38-8.41,5.73c-1.65,1-2.78,1.77-3.37,2.21l-4.32,3.3-3.48,2.57a8.38,8.38,0,0,0,.56.93,21.4,21.4,0,0,0,3.51,3.65,15,15,0,0,0,4.34,2.56,13.4,13.4,0,0,0,4.66.85,13.21,13.21,0,0,0,4.44-.71l2.86-1.05a36.22,36.22,0,0,0,4-3.26,24.34,24.34,0,0,0,2.74-3.44,25.33,25.33,0,0,0,2.18-4.55q2.16-.14,3.69-.09A28.8,28.8,0,0,1,219.31,145.29Zm67.46-70.77q-2.83,6.8-10.39,10.46a24.27,24.27,0,0,1-5.27,1.87,20.16,20.16,0,0,1-5.28.46,19.46,19.46,0,0,1-1.8-3.12c.75-.3,1.43-.57,2-.83s1.13-.5,1.58-.72a12,12,0,0,0,5.55-5q2.28-4.16-.42-9.71a13.91,13.91,0,0,0-4.67-5.76,8.89,8.89,0,0,0-5.26-1.67,18.62,18.62,0,0,0-7.1,1.95q-3.41,1.65-4.41,3.24a5.18,5.18,0,0,0-.06,1.28l9.58,18.89.69,1.66,1,1.64c.22.36.5.91.85,1.63L265,94.06l2.62,5.27,3,6.36a33.74,33.74,0,0,0,2,3.46l9.49-3.36A7.3,7.3,0,0,1,283.6,109a13.91,13.91,0,0,1-1.64,1c-.94.46-2.75,1.21-5.44,2.27s-5.7,2.4-9,4a93.28,93.28,0,0,0-10.37,5.83c-.53.36-1.4.87-2.61,1.52a14.76,14.76,0,0,1-1-1.65,11.42,11.42,0,0,1-.46-1.17l2.37-2.15a26.25,26.25,0,0,0,4-4.26,7.39,7.39,0,0,0-.63-2.33c-.13-.27-.3-.58-.5-.91-.44-.82-1-2-1.75-3.5L250.9,96.42l-6.73-12.57c-3.16-6-4.93-9.19-5.28-9.62a4.08,4.08,0,0,0-2-1.31,5.84,5.84,0,0,0-3,.31,52.18,52.18,0,0,1-5.43,1.49l-1.54-3L238,67l4.82-2.4,1.77-.85q2.76-1.35,8.5-4.49,3.26-1.81,4.11-2.24a53.53,53.53,0,0,1,8.88-3.61,20.3,20.3,0,0,1,8.29-.84,16.71,16.71,0,0,1,6.94,2.9,13.85,13.85,0,0,1,4.86,5.21A16.18,16.18,0,0,1,286.77,74.52ZM296.9,41.27a6.59,6.59,0,0,1,3.73-3,7.45,7.45,0,0,1,5.19-.14A4.8,4.8,0,0,1,308.93,41a6.66,6.66,0,0,1,.31,3.14,5.84,5.84,0,0,1-1.49,3.14,7.07,7.07,0,0,1-2.92,2,6.53,6.53,0,0,1-4.82-.21,5.73,5.73,0,0,1-3.41-3.45A5.07,5.07,0,0,1,296.9,41.27Zm33.86,49c-.47.17-1.2.41-2.2.7-3.26,1-7.58,2.51-13,4.47-1.55.55-3,1.15-4.43,1.77s-2.39,1-2.92,1.22l-1.09-2.71,5.11-2.57a3.08,3.08,0,0,0,1.32-1.46,5,5,0,0,0-.48-2.71l-.17-.47c-.12-.33-.32-1-.59-1.86s-.54-1.69-.78-2.37q-.3-.8-1.26-3l-.7-2.14-.79-2-2.35-6.93a14.17,14.17,0,0,0-1.27-2.6,4.44,4.44,0,0,0-2.3-.41,22.7,22.7,0,0,0-5,1.07L297,65.87a26.61,26.61,0,0,0,7.9-4.92A20.85,20.85,0,0,0,309,55.39l3.17-1.15q2.08,5.17,5.12,13.53l5.91,17.35a24.8,24.8,0,0,0,1.36,3.14,33.9,33.9,0,0,0,5.11-.8,11.26,11.26,0,0,1,2.19-.31l.75,2.35C331.8,89.84,331.17,90.08,330.76,90.23Zm24.66-7.46q-3.24.74-8.07,2.15l-1.8.48q-2.76.81-7.86,2.72l-3.52,1-.78-2A7,7,0,0,1,336,85.54c2.17-.89,3.36-1.56,3.58-2,.43-.94.31-2.55-.37-4.85l-3.55-12.15-.94-2.86L332.14,55l-3-9.92-.5-1.72a16.69,16.69,0,0,0-2.15-5,8,8,0,0,0-3.92.16,10.55,10.55,0,0,1-2.25.42,12,12,0,0,1-.61-1.55,3.61,3.61,0,0,1-.13-.8,39.08,39.08,0,0,0,7.4-4.06,28.88,28.88,0,0,0,5.45-4.61l1.33-.44c.28-.08.7-.19,1.25-.32q4.65,14.82,6.26,20.34c.32,1.09.54,2,.67,2.66l.08.25.33.8,5.58,19.08,1.94,6.26.3,1a4.21,4.21,0,0,0,1.44,2.43,4.29,4.29,0,0,0,2.65,0c.69-.14,2.05-.38,4.1-.73a6.11,6.11,0,0,1,.67,1.4,10,10,0,0,1,.26,1.23Zm28.5-6.5q-.45.11-5.8,1l-2.69.41c-2.55.57-4.51,1.06-5.9,1.48q-1.09.38-7.94,2L361,78.7a27,27,0,0,1,3.28-1.81,11,11,0,0,0,2.8-1.66,1.77,1.77,0,0,0,.24-1.48l-.21-1c-.48-2.74-.75-4.28-.82-4.6s-.16-.62-.29-1.08l-.17-.52-.08-.58-.08-.4-2-7.47-1.92-8.41-.29-.81c-.59.13-1.46.29-2.62.49l-3.09.68a8.16,8.16,0,0,1-.87.05c-.21-.79-.37-1.42-.47-1.89a3,3,0,0,1,.24-2.15c1-.21,2.9-.75,5.73-1.59a30.66,30.66,0,0,1-.29-10.22A22.1,22.1,0,0,1,362.89,26l1-1.56a23.69,23.69,0,0,1,5.21-4.77,19.44,19.44,0,0,1,6.23-2.42,15.29,15.29,0,0,1,6.26-.28,6.76,6.76,0,0,1,3.89,2,6.61,6.61,0,0,1,1.58,2.85,4.41,4.41,0,0,1-.9,3.58,5.37,5.37,0,0,1-3.26,2.27,5.56,5.56,0,0,1-3.1-.24,10.71,10.71,0,0,1-3-2.21A12,12,0,0,0,374,23a3.77,3.77,0,0,0-2.18-.06,3.83,3.83,0,0,0-2.42,1.64,5.81,5.81,0,0,0-.9,3.37,46.27,46.27,0,0,0,1.31,8l1,4.84L371.2,42l.93-.16,5.78-1.42a10.19,10.19,0,0,1,1.4-.18c.54.25.83.49.88.73l.09.85.26,1.19a6,6,0,0,1,.08,1,2.4,2.4,0,0,1-1,.45l-.44.09-3.7.92a10.76,10.76,0,0,1-1.44.23l-.44.09a9.84,9.84,0,0,0-1.42.52l.44,2.16c.05.2.13.52.25.95.41,1.66.69,2.79.82,3.41l1.4,6.45L376.24,64l.79,3.78q.78,4,2,4.62,1.69,1,6.28.4a5.27,5.27,0,0,1,1.58,0,8.68,8.68,0,0,1,.5,1.32,6.29,6.29,0,0,1,.11,1.4Zm39.82-7a31.22,31.22,0,0,1-16.81,3.52,20.69,20.69,0,0,1-6.36-1.67,17.55,17.55,0,0,1-5.17-3.5,18.14,18.14,0,0,1-3.55-4.66,16.86,16.86,0,0,1-2-5.28,33.13,33.13,0,0,1-.21-7.09,19.34,19.34,0,0,1,1.64-5.34,24.45,24.45,0,0,1,5.22-6.48,20.55,20.55,0,0,1,5.36-3.47,22.86,22.86,0,0,1,5.23-1.54,36.77,36.77,0,0,1,7.67-.34,15.92,15.92,0,0,1,5.08,1.22,23.43,23.43,0,0,1,4.95,2.93,15,15,0,0,1,3.31,3.83A15.51,15.51,0,0,1,430.07,47l-5.55.64q-2.29.3-10.13.92-2.92.15-4,.3l-5.38.78-4.29.56a7.2,7.2,0,0,0,0,1.09,20.91,20.91,0,0,0,1.3,4.89,14.92,14.92,0,0,0,2.54,4.35,13.6,13.6,0,0,0,3.66,3,13.12,13.12,0,0,0,4.24,1.54l3,.47a37.29,37.29,0,0,0,5.11-.89A24.14,24.14,0,0,0,424.66,63a25.87,25.87,0,0,0,4.11-2.92q2,.93,3.27,1.71A28.92,28.92,0,0,1,423.74,69.23Zm44.69-30.66a5,5,0,0,1-3.88,1.83A8.13,8.13,0,0,1,460,38.94a4.43,4.43,0,0,0-2.29-.91l-.35.06a3.59,3.59,0,0,0-1.85,1.77,8.63,8.63,0,0,0-1.25,4.7l.15,1.21q.31,3.3.85,15.51a5.09,5.09,0,0,0,1,2.21,6.55,6.55,0,0,0,1.87.83,19.92,19.92,0,0,0,3.26.33,6.85,6.85,0,0,1,2.84.47,1.49,1.49,0,0,1,.54,1.23,4.08,4.08,0,0,1-.25,1.33l-4.73.17-9.62-.06q-3.62.12-6.57.5l-.86,0-5.22.41a6.06,6.06,0,0,1-.19-1.11,5.69,5.69,0,0,1,.11-1.07,4.36,4.36,0,0,1,1.69-.8,16.2,16.2,0,0,0,4.81-2q.42-1.09.19-7.28A135.21,135.21,0,0,0,443,41.2a1.94,1.94,0,0,0-.85-1.22,15.72,15.72,0,0,0-3.46-.91,1.42,1.42,0,0,1-1.24-1l-.21-1.65a18.06,18.06,0,0,0,11.05-6.37,13.36,13.36,0,0,1,1.35-1.63l3.52-.21a7.26,7.26,0,0,1,.31,1.7c0,.33,0,.73,0,1.21,0,1,0,1.92,0,2.6,0,.34.07,1.58.18,3.73a43.13,43.13,0,0,1,2.87-4.33,29.69,29.69,0,0,1,2.58-2.29A6.9,6.9,0,0,1,463,29.62a7.08,7.08,0,0,1,4.68,1.45,4.76,4.76,0,0,1,2.09,3.66A5.57,5.57,0,0,1,468.43,38.57ZM805,148a5.08,5.08,0,0,1,4-1.63,6.64,6.64,0,0,1,4.33,2,7.46,7.46,0,0,1,2.4,4.61,4.77,4.77,0,0,1-1.17,4,6.72,6.72,0,0,1-2.69,1.65,5.77,5.77,0,0,1-3.47,0A7,7,0,0,1,805.3,157a6.47,6.47,0,0,1-1.91-4.42A5.74,5.74,0,0,1,805,148ZM704,74.42a5,5,0,0,1,3.49-2.6,6.53,6.53,0,0,1,4.7.87,7.37,7.37,0,0,1,3.49,3.85,4.73,4.73,0,0,1-.11,4.19A6.57,6.57,0,0,1,713.41,83a5.76,5.76,0,0,1-3.35.92,7.08,7.08,0,0,1-3.45-.89,6.5,6.5,0,0,1-3-3.79A5.68,5.68,0,0,1,704,74.42ZM487.92,51.69a15.1,15.1,0,0,0,1.68,4.75,13.36,13.36,0,0,0,3,3.63,13.11,13.11,0,0,0,3.87,2.31l2.86,1a36.65,36.65,0,0,0,5.19.09,24.53,24.53,0,0,0,4.31-.89,25.82,25.82,0,0,0,4.59-2.08c1.16.85,2.12,1.61,2.89,2.29a29,29,0,0,1-9.55,5.74,31.26,31.26,0,0,1-17.18.29A20.74,20.74,0,0,1,483.68,66a17.64,17.64,0,0,1-4.42-4.41,18.38,18.38,0,0,1-2.61-5.25,16.91,16.91,0,0,1-.92-5.55,32.22,32.22,0,0,1,1.13-7,18.47,18.47,0,0,1,2.62-4.94,24.28,24.28,0,0,1,6.34-5.38,20.7,20.7,0,0,1,5.92-2.39,22.59,22.59,0,0,1,5.43-.53,36.45,36.45,0,0,1,7.59,1.11,15.68,15.68,0,0,1,4.76,2.16,22.39,22.39,0,0,1,4.3,3.81A14.8,14.8,0,0,1,516.36,42a15.56,15.56,0,0,1,.82,5.94l-5.57-.43q-2.31-.14-10.12-1c-1.93-.27-3.26-.42-4-.47l-5.43-.24-4.32-.26a7.84,7.84,0,0,0-.17,1.08A21.66,21.66,0,0,0,487.92,51.69Zm88.93-30.5-.17.66-.14.79c-.15.83-.49,3-1,6.62l-.43,2.38-.18,1.3-.44,2.2-.68,4.62-.58,2.68q-.42,1.76-1.1,5.55a8.93,8.93,0,0,0-.15,1.12l-.3,1.64q-.17.69-.24,1a17.48,17.48,0,0,0-.19,1.93l-.44,2.43-.21.92c-.22.84-.47,2-.74,3.52s-.49,2.92-.64,4.17c-.06.51-.13,1-.2,1.38l-.6,3.32c-.19,1.06-.38,2.33-.58,3.82A13.93,13.93,0,0,0,572,74.78a13,13,0,0,1,1.89.56,3,3,0,0,1,.07,1,3.18,3.18,0,0,1-.56,1.13,38.05,38.05,0,0,1-4.37-.1c-4.62-.31-8-.18-10,.39a5.68,5.68,0,0,1-2.06.36,11.53,11.53,0,0,1-1.22-.31c.13-.53.2-.87.23-1a30.68,30.68,0,0,0,.55-3.9c-.54.15-1.21.35-2,.61A27.94,27.94,0,0,1,548,74.91a26.11,26.11,0,0,1-6.36-.43q-6.24-1.12-9.57-3.91-5-4.08-6.27-8.79a21.74,21.74,0,0,1-.4-9.89q1.61-8.93,12-13.6A19.62,19.62,0,0,1,542.45,37a34.48,34.48,0,0,1,6.55.12l2.77.5a18.58,18.58,0,0,1,9.75,5.18l.29-1.05.49-3,1.05-4.69q1.33-7.49.41-9.7a3.1,3.1,0,0,0-2.37-1.75,9,9,0,0,1-2.9-1.11l.39-2.12a9.7,9.7,0,0,1,2.47.15,39.32,39.32,0,0,0,6,.13h1.74l5.09-.13a13.56,13.56,0,0,1,1.88,0,4.74,4.74,0,0,1,.78.23A5.12,5.12,0,0,1,576.85,21.19Zm76,83.84q-6.45.36-15.71-3.44l-9.41-4.26L625,96.07l-3.8-1.47-1.09-.53-3.94-1.53-5.15-2.17-4.85-1.68c-1-.36-2.34-.86-4-1.49-1-.41-1.74-.7-2.25-.88.19-.64.62-1.77,1.29-3.41q.76.12,3.09.69c3.07.74,5.2.92,6.41.55A4.44,4.44,0,0,0,613,81.89q.25-.48,5.52-12.53l1.83-4.59,2.32-5.5,5.67-14.22.68-1.66a2.23,2.23,0,0,0,0-1.92c-.14-.29-.7-.63-1.69-1a20.53,20.53,0,0,0-2.9-.9,35.36,35.36,0,0,0-3.81-1.17l-.94-.24,1.46-3.68a70.28,70.28,0,0,1,8.5,1.69A159.43,159.43,0,0,1,651,43.45q10.34,4.24,14.7,7.25a35.7,35.7,0,0,1,9.84,9.67A31.52,31.52,0,0,1,680.62,74a27.41,27.41,0,0,1-2,13.52,26.9,26.9,0,0,1-10,12.7A30.83,30.83,0,0,1,652.9,105Zm41,21.77a12.27,12.27,0,0,1,1.67,1.45l-1.3,2.1c-.8-.41-1.4-.73-1.77-.94s-1.1-.65-2-1.21q-4.35-2.71-11.84-6.93c-1.42-.81-2.84-1.54-4.23-2.2s-2.34-1.14-2.83-1.42l1.34-2.59,5.29,2.2a3.07,3.07,0,0,0,2,0,5,5,0,0,0,1.75-2.13l.24-.43c.18-.32.52-.87,1-1.67s.94-1.51,1.29-2.13.77-1.48,1.48-2.94l1.17-1.92,1-1.87,3.72-6.31A14.13,14.13,0,0,0,693,95.26a4.45,4.45,0,0,0-1.19-2,22.42,22.42,0,0,0-4.11-3.14l1.24-2.19a26.54,26.54,0,0,0,8.88,2.78,21,21,0,0,0,6.91-.48l2.94,1.65q-2.57,4.95-6.92,12.7l-9.31,15.8a25.21,25.21,0,0,0-1.5,3.07A35.1,35.1,0,0,0,693.85,126.8ZM728,153.26a8.88,8.88,0,0,1-3.38-4.1,12.76,12.76,0,0,1-.3-6.44,13.49,13.49,0,0,1-7.93.79,23.7,23.7,0,0,1-8.9-4q-4.32-3-5.24-6a6.21,6.21,0,0,1,.88-5.63,6.81,6.81,0,0,1,2.3-2.07,10.3,10.3,0,0,1,3.67-1.16,23.31,23.31,0,0,1,6.2.25c.41.06,1.75.37,4,.91l12.87,3.39c.73-.88,1.42-1.8,2.08-2.77q3.44-5,3.31-7.75a4.13,4.13,0,0,0-2.14-3.11,12.36,12.36,0,0,0-4.3-1.91,6.59,6.59,0,0,0-3.77.08,10,10,0,0,0-3.11,2.39,6.14,6.14,0,0,1-1.84,1.51,6.45,6.45,0,0,1-3.13-.27q-2-.55-2.79-.69a11.8,11.8,0,0,1-4.23-1.49,1.81,1.81,0,0,1,.28-1.66,7.86,7.86,0,0,1,3.49-2.94,20.31,20.31,0,0,1,7.36-1.08,26.89,26.89,0,0,1,7.57,1,38.43,38.43,0,0,1,9.42,4.94,16.54,16.54,0,0,1,5,5,7.64,7.64,0,0,1,1.09,5.52q-.54,2.79-4.38,8.38l-4.28,6-3,4.54-.79,1.15a4.28,4.28,0,0,0-1,2.45,1.8,1.8,0,0,0,.81,1.4,1.6,1.6,0,0,0,.93.31l2.44-.88.93.25.57,1.21a1.23,1.23,0,0,1,0,.94l-.09.22q-3.25,2.61-5.72,2.74A7.85,7.85,0,0,1,728,153.26Zm30.15,22.37a4.17,4.17,0,0,1-1.08.82l-3.63-3-7.1-6.48q-2.77-2.34-5.22-4l-.66-.55c-.18-.15-1.57-1.21-4.15-3.19a7.3,7.3,0,0,1,.59-.95,5.71,5.71,0,0,1,.8-.72,4.26,4.26,0,0,1,1.79.53,15.81,15.81,0,0,0,4.89,1.76q1.05-.53,5-5.27a137.86,137.86,0,0,0,9.43-12.11,1.94,1.94,0,0,0,.19-1.48,16.44,16.44,0,0,0-2-3,1.42,1.42,0,0,1-.29-1.54l1-1.37a17.91,17.91,0,0,0,12.47,2.66,13,13,0,0,1,2.09-.3l2.76,2.2a8.13,8.13,0,0,1-.9,1.47c-.22.25-.49.55-.82.89-.7.79-1.27,1.44-1.71,2-.21.25-1,1.21-2.36,2.89a43.05,43.05,0,0,1,5-1.3,28.15,28.15,0,0,1,3.45,0,6.85,6.85,0,0,1,3.69,1.63,7,7,0,0,1,2.51,4.21,4.76,4.76,0,0,1-.89,4.12,5.56,5.56,0,0,1-3.57,1.95,5,5,0,0,1-4.11-1.24,8.1,8.1,0,0,1-2.44-4.15,4.28,4.28,0,0,0-1.1-2.21l-.29-.2a3.61,3.61,0,0,0-2.56.08,8.61,8.61,0,0,0-4.07,2.66l-.7,1q-2,2.66-9.75,12.09a5.08,5.08,0,0,0-.71,2.33,6.53,6.53,0,0,0,.84,1.87,18.19,18.19,0,0,0,2.19,2.43,6.64,6.64,0,0,1,1.8,2.25A1.48,1.48,0,0,1,758.19,175.63Zm23.09,24c-.67-.61-1.16-1.07-1.47-1.37s-.89-.91-1.59-1.67q-3.53-3.74-9.69-9.71c-1.18-1.14-2.35-2.21-3.53-3.21s-2-1.69-2.38-2.09l2-2.16,4.55,3.47a3.15,3.15,0,0,0,1.89.55,5,5,0,0,0,2.23-1.62l.35-.35q.38-.39,1.41-1.35c.69-.65,1.29-1.22,1.79-1.74s1.12-1.23,2.18-2.46l1.61-1.56,1.42-1.57,5.21-5.15a14.19,14.19,0,0,0,1.78-2.27,4.46,4.46,0,0,0-.64-2.25,22.28,22.28,0,0,0-3.17-4.08l1.75-1.81a26.78,26.78,0,0,0,7.88,5,21.25,21.25,0,0,0,6.81,1.29l2.42,2.34q-3.74,4.14-9.92,10.53l-13,12.91a24.47,24.47,0,0,0-2.23,2.59,33.38,33.38,0,0,0,3,4.24,12.88,12.88,0,0,1,1.24,1.83Zm21,10.4a13.07,13.07,0,0,0,1,4.39l1.22,2.79A39.46,39.46,0,0,0,808,221a24.94,24.94,0,0,0,3.62,2.52,26.18,26.18,0,0,0,4.67,1.88c.18,1.43.29,2.65.33,3.67a28.86,28.86,0,0,1-10.74-3,27.86,27.86,0,0,1-8.35-6.88,27.58,27.58,0,0,1-3.7-5.37,20.58,20.58,0,0,1-2-6.25,17.73,17.73,0,0,1,.15-6.25,18.13,18.13,0,0,1,2-5.5,16.79,16.79,0,0,1,3.39-4.5,32,32,0,0,1,5.85-4,18.42,18.42,0,0,1,5.38-1.5,24,24,0,0,1,8.27.89,20.12,20.12,0,0,1,5.81,2.63,22.86,22.86,0,0,1,4.13,3.57,36.76,36.76,0,0,1,4.43,6.27,15.92,15.92,0,0,1,1.72,4.93,23.4,23.4,0,0,1,.2,5.75,14.77,14.77,0,0,1-1.42,4.85,15.61,15.61,0,0,1-3.74,4.69l-3.53-4.32q-1.5-1.77-6.25-8c-1.14-1.58-2-2.66-2.42-3.22q-.22-.27-3.57-4.1l-2.79-3.31a7.84,7.84,0,0,0-.89.62,20.69,20.69,0,0,0-3.42,3.74,15,15,0,0,0-2.28,4.49A13.54,13.54,0,0,0,802.28,210Zm56.59,36.79c-1.82,1.73-2.92,2.73-3.28,3a1.77,1.77,0,0,1-.64.27,8.86,8.86,0,0,1-1.54-1.56c-.19-.28-.45-.69-.77-1.25.17-.49.45-1.18.85-2.07a17.11,17.11,0,0,0,1.76-7.3,10.63,10.63,0,0,0-2-5.74,9.35,9.35,0,0,0-4.83-3.73,3.94,3.94,0,0,0-5.32,3.83c-.19,1.56.34,3.68,1.58,6.38a55.4,55.4,0,0,1,3.48,9.46q1.07,4.8,0,7.78a9.87,9.87,0,0,1-3.79,4.91,10.67,10.67,0,0,1-9.64,1.41q-5.38-1.59-10.25-8.51-.63-.9-3-5a40,40,0,0,1-2.13-4.59q-.27-.67-1-3.75a1.73,1.73,0,0,1,.08-1,19.4,19.4,0,0,1,2.68-2.72q4-3.81,4.87-4.47a15,15,0,0,1,1.49,1.65c.14.19.33.49.57.89l-.1.63a44.9,44.9,0,0,0-2.17,5.9,20.39,20.39,0,0,0-.43,4.54,17,17,0,0,0,.88,3.82,11.44,11.44,0,0,0,1.58,3.19,8.43,8.43,0,0,0,4.62,3.39,5.1,5.1,0,0,0,4.52-.41,3.69,3.69,0,0,0,1.51-2.11,8.72,8.72,0,0,0-.34-3.95,57.57,57.57,0,0,0-2.31-6.09q-2-4.78-2.31-5.85a14.12,14.12,0,0,1-.58-4.73,10.57,10.57,0,0,1,3.88-7.75A12.29,12.29,0,0,1,842,223a12.06,12.06,0,0,1,4.94.33,14,14,0,0,1,4.41,2.29,19.05,19.05,0,0,1,4.48,4.56,54.93,54.93,0,0,1,4.36,7.21,23.67,23.67,0,0,1,2.1,6A47.38,47.38,0,0,1,858.87,246.82ZM406.79,504.15c-13.89,12.14-50.39-59.9-50.39-59.9C415.84,454.59,414.3,497.59,406.79,504.15Z"/></g><g id="pen"><path d="M856.36,464.31c-2.24,5.86-4.27,11.81-6.73,17.57A140.75,140.75,0,0,1,802,541.51c-3.76,2.73-7.9,4.93-11.86,7.38-.88.78-2.09,1-3,1.71l-9.78,5c-.68.69-1.69.68-2.47,1.18l-10.39,4.36c-.93.54-2,.6-3,1.1L753.67,565c-3.29.74-6.47,1.88-9.75,2.68L733,570.21c-1.57.48-3.27.39-4.79,1.08-4.69.4-9.11,2.05-13.67,3l-5.09,1.06c-2.17.7-4.46.89-6.64,1.57-4.36.58-8.5,2.1-12.76,3.12-2.42.67-4.86,1.27-7.22,2.13a71.64,71.64,0,0,0-10.41,3.23c-1.51.81-3.28.88-4.8,1.69-2.7,1-5.53,1.76-8.06,3.24-2.19.94-4.33,2-6.56,2.82a184.23,184.23,0,0,0-26.41,14.54c-5.36,3.53-10.6,7.24-15.89,10.86-1.13.64-2,1.67-3.1,2.3l-8.75,6.87c-.77.62-1.57,1.2-2.38,1.77l-1.93,1.68c-1,.71-1.9,1.67-3,2.3l-1.93,1.72c-.79.6-1.59,1.19-2.41,1.77l-3.7,2.8c-.84.54-1.58,1.21-2.45,1.7-7.54,5-15.51,9.28-23.47,13.56-.69.5-1.62.52-2.26,1.1L543,661.69a15.93,15.93,0,0,0-2.38,1.08l-8.54,3.33c-.87.63-2.7.31-2.62,1.75s1.8,1.06,2.75,1.59c.16.09.36.13.53.22l14.67,5.16A26.14,26.14,0,0,0,553.5,677l15.9,4.61c2.45,1.18,5.15,1.52,7.73,2.28l0,0c.86.86,2.15,0,3,.75a17.49,17.49,0,0,1,6.45,1.47c.91.72,2.14,0,3,.68a.68.68,0,0,1,.54.07c.89.68,2.11,0,3,.66l0,0c2.57.66,5.21.92,7.79,1.49l0,0c4.94.81,9.83,1.92,14.85,2.11a7.45,7.45,0,0,1,3.21.36l23.08.85a139.17,139.17,0,0,0,17.54-1.42c.47-.06,1,.09,1.23-.51l13.29-2.87c1.22-.39,2.55-.41,3.68-1.12l0,0c1-.52,2.27-.32,3-1.3,2.54-1.16,5-2.58,7.78-3.12,1.48-.77,3.15-1.18,4.44-2.32,2.19-1.11,4.19-2.59,6.59-3.27,1.08-.59,2.35-.83,3.18-1.83l14.6-8.94a6.67,6.67,0,0,0,2.6-1.82l14.07-10.16a10.62,10.62,0,0,0,3.18-2.46l1.85-1.52a8.21,8.21,0,0,0,2.48-1.94,15.44,15.44,0,0,1,3.77-3.21,10.62,10.62,0,0,0,2.42-2l4.31-3.83a8.55,8.55,0,0,0,3.18-2.88l.62-.55a50,50,0,0,0,7.46-6.94l.59-.58a8.65,8.65,0,0,0,3.12-3,15.25,15.25,0,0,1,3.55-3.44,12.21,12.21,0,0,0,2.08-2.29,21.62,21.62,0,0,1,4.12-4.1,9.29,9.29,0,0,0,2.11-2.31,4,4,0,0,1,1.68-1.74c1.11-1.18,2.54-2.08,3.26-3.61a9.72,9.72,0,0,1,3-3.37,7.39,7.39,0,0,0,2.06-2.39c.5-.91,1.67-1.5,1.32-2.8-1.77-.37-2.72,1.12-3.84,1.92a250,250,0,0,1-43.92,24.63c-1.44.64-2.82,1.43-4.22,2.14-1.9.62-3.67,1.56-5.55,2.24l-6.6,2.73c-1,.44-2.14.58-3.13,1.09l-1.27.52c-.93.55-2,.62-3,1.11-2.78.36-5.08,2-7.72,2.77a21.21,21.21,0,0,0-3.22,1c-.62.1-1.33-.08-1.81.51-1,.5-2.06.63-3,1.08l-7.09,2.22c-3.11.86-6.18,1.85-9.31,2.64L676.89,648c-1.43.4-2.92.53-4.32,1.07l0,0c-1.43.4-2.91.56-4.31,1l-37.4,7.62c-4.26.58-8.49,1.28-12.73,2l0,0c-.94.64-2.13-.23-3.05.48s-2.09-.18-3,.44l-1,0a26.22,26.22,0,0,1-4.52.06,3.9,3.9,0,0,0,1.87-1,92.09,92.09,0,0,1,12.78-2.34c.91-.7,2.14.27,3-.55l0,0c3-.86,6.19-1,9.1-2.22a82.25,82.25,0,0,1,11.42-2.43c2.86-.73,5.83-1,8.55-2.28a88.15,88.15,0,0,1,12-3c1.27-.37,2.72-.19,3.78-1.22a133.54,133.54,0,0,1,14.4-4.12c1.67-.61,3.51-.71,5-1.75,2.74-1,5.42-2.2,8.35-2.57a14.39,14.39,0,0,0,3.2-1.09l0,0c1-.51,2.25-.35,3.06-1.26a66.59,66.59,0,0,1,10.26-3.65,18,18,0,0,0,4.34-1.81,33.37,33.37,0,0,1,6.68-2.56,31.39,31.39,0,0,0,5.5-2.43l17.76-8.1c1.21-.62,2.67-.73,3.62-1.85a368.44,368.44,0,0,0,36.07-21.37,6.88,6.88,0,0,0,2.57-1.86,8.75,8.75,0,0,1,3.64-2.69,7.52,7.52,0,0,0,2.52-1.91l8.06-6.69a28,28,0,0,0,5.64-5.18A184.43,184.43,0,0,0,821.44,557c.45-.76,1.06-1.43,1.59-2.15a49.26,49.26,0,0,0,2.48-4.29l4-6.88a25.33,25.33,0,0,0,2.49-4.79l3.29-6.39a8.8,8.8,0,0,0,1.23-2.4l0,0a46.24,46.24,0,0,0,2-4.22q2-4.38,4-8.77c.68-1.6,1.24-3.24,1.88-4.86l3.4-8.74c.53-2,1.42-3.94,1.94-6l0,0a28.17,28.17,0,0,0,1.37-4.32q1.75-6.44,3.5-12.87c.79-.89,0-2.14.71-3l0,0a85.48,85.48,0,0,0,2.16-11.11C857.38,465.48,857.67,464.51,856.36,464.31ZM599.07,661.77a17.2,17.2,0,0,1,2.85-.37Zm5.52-.79c-.76.14-1.53.26-2.29.37a9.28,9.28,0,0,1,2.41-.4Z"/><path d="M865.05,400.7c-.38-3.92-.55-7.86-1.23-11.74l0,0c-.65-.94.22-2.13-.49-3.07A100.92,100.92,0,0,0,859.8,369c-.45-1.18-.45-2.49-1.07-3.61-.43-3.66-2.16-6.93-3.22-10.39-.56-.92-.59-2-1.14-3l0,0c-.45-1-.59-2.1-1.08-3.08q-1.37-3.4-2.74-6.79c-.83-2-1.7-4-2.69-6a75.55,75.55,0,0,0-6.27-12.2c.5-1.14.51-1.15,2.5-.58,1.66,0,2.89.88,4.13,1.79.77,1,2,1.36,3,2a1.08,1.08,0,0,1,.47,0c.65.39,1,0,1.22-.54a126.82,126.82,0,0,0-8.57-12.38,23.2,23.2,0,0,1-1.68-2.38l-2.9-3.76c-.68-1.08-1.66-1.93-2.31-3.05l-2.29-2.6c-.87-1.26-2.1-2.23-2.87-3.58l-2.88-3.17a7.32,7.32,0,0,0-1.67-1.8l-4.68-5a16.9,16.9,0,0,1-2.16-1.89q-1.53-1.53-3.05-3.07c-.79-.62-1.53-1.29-2.31-1.92-4.05-3.51-8.14-7-12.9-9.51-1.77-1.14-3.63-2.11-5.5-3.09-2.23-1.66-4.91-2.33-7.45-3.32-1.37-.55-2.82-.86-4.21-1.34l0,0c-2.1-.91-4.39-1-6.58-1.48l0,0a51.47,51.47,0,0,0-19.36.44c-.93.19-2-.09-2.83.52s-2.13-.26-3,.52l0,0c-1,.62-2.12-.21-3.06.46-2.81-.66-3.65-3.59-5.81-5-2-1.43-3.26-3.51-5.14-5l-3.06-3.19.09-.29q-44.16-45.37-89-90.16a7.13,7.13,0,0,0-3.22-1.76l26,75.28c15.13-8,26.34-8.66,38.75-.45a6,6,0,0,0,1.83,1.47l2.24,2.28a24.65,24.65,0,0,0,4.07,4,17.23,17.23,0,0,1,3.45,3.53,15.22,15.22,0,0,0,2.89,2.72,20.69,20.69,0,0,1,4.06,4.14,22.31,22.31,0,0,0,3.47,3.33c.17.12.33.26.49.39l1,1.11,1.66,1.86.09-.28c.28.34.57.69.85,1.05a23.53,23.53,0,0,0,4.09,3.95,17.08,17.08,0,0,1,3.44,3.51,38.43,38.43,0,0,0,4.59,4.61c10.89,10.46,21.09,21.56,30.92,33,17.86,20.78,33.43,43.09,44.5,68.28a202.07,202.07,0,0,1,16,60.24c1.61,15.18,1,30.33-.07,45.48-.37,5.36-1.41,10.67-2.13,16-.1.76-.06,1.53-.11,2.85a111.08,111.08,0,0,0,10.88-20.73A127.3,127.3,0,0,0,855,452.83c.79-1.3-.07-2.9.72-4.21l0,0a121.46,121.46,0,0,0,.73-20.36l0,0c-.67-1.16.28-2.52-.45-3.67l-.07-.23,0-.25c-.12-1.4.67-1,1.41-.7l.54.41A24.07,24.07,0,0,0,859.7,426l.43.57c.68,1,.87,2.28,1.83,3.12a.83.83,0,0,1,.43,1c.73.47.74-.17.91-.59a20.55,20.55,0,0,0,1.28-7C864.91,415.63,865.77,408.19,865.05,400.7Z"/><path d="M796.59,539.51c.19,1.56.95,1,1.72.48,5.64-4.6,11.36-9.1,16.58-14.2a179.52,179.52,0,0,0,13.92-15.64c1.5-1.87,1.6-4.06,1.93-6.17a276.68,276.68,0,0,0,3.5-42.91,204.56,204.56,0,0,0-19.42-87.47c-10.66-22.86-24.75-43.47-40.68-62.93-8.92-10.9-18.67-21-28.13-31.45-1.24-1-1.88-2.69-3.67-3-.68.32-.89.78-.42,1.44,0,.36,0,.71,0,1.07.44,1,.34,2.3,1.27,3.15a46.55,46.55,0,0,1,3.11,8.4,16.9,16.9,0,0,0,1.79,4.38,44.43,44.43,0,0,1,3.14,8.42,16.82,16.82,0,0,0,1.81,4.36c1.33,3.18,2.89,6.27,3.67,9.66a17.43,17.43,0,0,0,1.82,4.34,25.72,25.72,0,0,1,2.56,6.67c.61,1.44.89,3,1.86,4.29a51.51,51.51,0,0,1,3.66,9.1A29.46,29.46,0,0,0,769,347q4.08,8.79,8.18,17.58c.46,1.25,1,1.17,1.72.17-.13-.72.33-1.2.69-1.72a20,20,0,0,0,1.29-3.59l0,0a42.12,42.12,0,0,0,2.66-5.8c-.66,4.31-.62,8.69-1.36,13-.18,1.05.17,2.17-.39,3.18-.08,1-.16,1.94-.25,2.91-.49,1,0,2.14-.55,3.11l-.24,2.86c-.59,1.16.06,2.53-.61,3.68,0,3.16,2.16,5.48,3.08,8.29,1.26,3.85,3.23,7.45,4,11.48.42,1.05.39,2.27,1.22,3.16,1.2,3.39,2.68,6.69,3,10.31.5,2,1,4.08,1.62,6.1l0,0c.54,1.38.33,3,1.22,4.25a64.62,64.62,0,0,1,2.36,12.09c.66,4.43,1.33,8.87,2,13.3l0,0c.71,1.37-.36,2.93.46,4.28a.39.39,0,0,1,0,.43c.6,1.2-.26,2.56.4,3.76v1.1c.64,1.39-.23,2.9.36,4.3,0,1.15,0,2.3,0,3.45.59,2-.28,4.11.23,6.14-.1,3-.21,6-.31,9.05-.71,2.18,0,4.52-.73,6.68-.06,1-.13,1.92-.19,2.88-.71,1.34.07,2.92-.68,4.26,0,.37-.07.74-.1,1.11-.65,1,0,2.16-.63,3.12a.42.42,0,0,1,0,.43c-.43.41-.47,1.05,0,1.18.94.25,1.34-.56,1.68-1.29l4.56-7.45a15.5,15.5,0,0,0,3.11-5.65,6,6,0,0,1,.3-1.39,24.9,24.9,0,0,1-1,4c-.84,2.4,0,5-.78,7.38A40.63,40.63,0,0,1,803.7,508c-.68.93,0,2.15-.65,3.08a.57.57,0,0,1,0,.49c-.73.93,0,2.17-.68,3.11a.45.45,0,0,1,0,.46c-.76.89,0,2.12-.69,3l0,0c-1.13,4.35-2,8.76-2.92,13.16A36.15,36.15,0,0,1,796.59,539.51ZM784.16,351.56a7.92,7.92,0,0,1,.28-1.57A14.36,14.36,0,0,1,784.16,351.56Z"/><path d="M670.57,237.42c2.77,4.87,4.38,9,7.35,13.05,1.49,2.09.41,7-2.65,9.38a7.15,7.15,0,0,1-9.39,0c-3.18-2.41-3.85-7.53-2.59-9.45C665.24,247.43,667.73,242.43,670.57,237.42Z"/></g></g></g></svg>